<?xml version="1.0" encoding="utf-8"?>
<!-- Generator: Adobe Illustrator 22.1.0, SVG Export Plug-In . SVG Version: 6.00 Build 0)  -->
<svg version="1.1" id="Capa_1" xmlns="http://www.w3.org/2000/svg" xmlns:xlink="http://www.w3.org/1999/xlink" x="0px" y="0px"
	 viewBox="0 0 919 733" style="enable-background:new 0 0 919 733;" xml:space="preserve">
<style type="text/css">
	.st0{fill:url(#SVGID_1_);}
	.st1{fill:url(#SVGID_2_);}
	.st2{fill:url(#SVGID_3_);}
	.st3{clip-path:url(#SVGID_5_);fill:url(#SVGID_6_);}
	.st4{fill:#20876E;}
	.st5{fill:#93F5E5;}
	.st6{fill:#5DC2AE;}
	.st7{fill:#164377;}
	.st8{fill:#105697;}
	.st9{fill:none;}
	.st10{fill:#FFFFFF;}
	.st11{fill:#D2D3D3;}
	.st12{opacity:0.21;}
	.st13{fill:#386D7C;}
	.st14{fill:#182B3A;}
	.st15{fill:#20C997;}
	.st16{fill:#114449;}
	.st17{fill:#18635A;}
	.st18{opacity:0.11;fill:#DDDDDD;}
	.st19{opacity:0.11;fill:#CACACA;}
	.st20{opacity:0.11;fill:#B4B4B4;}
	.st21{opacity:0.5;fill:#A7CBED;}
	.st22{fill:#E4E4E5;}
	.st23{fill:#11464A;}
	.st24{opacity:0.5;fill:#E4E4E5;}
	.st25{opacity:0.71;}
	.st26{fill:#257258;}
	.st27{fill:#DDEBF8;}
	.st28{fill:#D0533C;}
	.st29{fill:#A7CBED;}
	.st30{fill:#233B4A;}
	.st31{opacity:0.5;fill:#233B4A;}
	.st32{opacity:0.5;fill:#FFFFFF;}
	.st33{opacity:0.5;fill:#DF7666;}
	.st34{opacity:0.11;fill:#989898;}
	.st35{fill:#03A9F4;}
	.st36{fill:#EB816F;}
	.st37{fill:#4E687A;}
	.st38{fill:#FC906B;}
	.st39{fill:#4F485C;}
	.st40{fill:#E8E0CB;}
	.st41{fill:#F99D78;}
	.st42{fill:#FFF2D9;}
	.st43{fill:#3F2E7A;}
	.st44{fill:#352B6F;}
	.st45{fill:#21265C;}
	.st46{opacity:0.59;}
	.st47{fill:#463388;}
	.st48{fill:#3A2D78;}
	.st49{fill:#322B6D;}
</style>
<linearGradient id="SVGID_1_" gradientUnits="userSpaceOnUse" x1="925.838" y1="2041.4564" x2="1164.4523" y2="1000.0796">
	<stop  offset="0" style="stop-color:#001C4E"/>
	<stop  offset="0.9987" style="stop-color:#CBCAE5"/>
</linearGradient>
<rect x="361" y="1513" class="st0" width="1200" height="750"/>
<linearGradient id="SVGID_2_" gradientUnits="userSpaceOnUse" x1="2072.2051" y1="1311.2478" x2="1307.037" y2="2017.9132">
	<stop  offset="0" style="stop-color:#C4E5F7"/>
	<stop  offset="0.9936" style="stop-color:#FFFFFF"/>
</linearGradient>
<rect x="939.3" y="1466" class="st1" width="1185.5" height="688.2"/>
<linearGradient id="SVGID_3_" gradientUnits="userSpaceOnUse" x1="-1630.3577" y1="582.4763" x2="-1495.2234" y2="-7.2859">
	<stop  offset="0" style="stop-color:#0D2136"/>
	<stop  offset="0.9987" style="stop-color:#406EAE"/>
</linearGradient>
<path class="st2" d="M-1241.4,488c-44.5-18.3-102.5-6.5-135.9-41.2c-20.6-21.4-24.2-54-40.1-79.2c-24.1-38.2-72.4-53.3-117.3-58.2
	c-40.7-4.4-85.6-4.1-117-30.4c-28.5-24-38.6-64.8-67.3-88.6c-32.9-27.4-80.7-25.1-123.1-19.6c-36.9,4.9-73.7,11.1-110.1,18.9
	c-12.6,2.7-29.2,4.7-45.8,7.8V697h749c4.3-3.3,8.5-6.7,12.7-10.2c23-19.3,44.3-42.4,53.7-70.9
	C-1166.4,566.9-1193.6,507.7-1241.4,488z"/>
<g>
	<defs>
		<path id="SVGID_4_" d="M-1810.9,96.9c42.4-5.6,90.2-7.8,123.1,19.6c28.7,23.8,38.7,64.6,67.3,88.6c31.4,26.4,76.2,26,117,30.4
			c44.9,4.8,93.2,20,117.3,58.2c15.9,25.2,19.5,57.7,40.1,79.2c33.4,34.7,91.4,22.9,135.9,41.2c47.8,19.6,75,78.9,58.8,127.9
			c-9.4,28.5-30.8,51.5-53.7,70.9c-45.6,38.4-100.2,66.1-158.1,80.2c-73,17.8-149.3,14-224.5,12.8c-91.2-1.4-183.2,1.1-272.8-15.9
			c-45.9-8.7-91.7-22.9-129.3-50.6c-50.2-37-80.9-94.4-106.5-151.2c-10.2-22.7-20.1-46.5-19.8-71.4c0.5-45,33.1-82.1,54.4-121.7
			c15.6-29,25.7-61,29.5-93.7c2.2-18.8-3.4-46.6,13.6-59.5c22.8-17.3,69.9-20.2,97.5-26C-1884.6,108-1847.8,101.7-1810.9,96.9z"/>
	</defs>
	<clipPath id="SVGID_5_">
		<use xlink:href="#SVGID_4_"  style="overflow:visible;"/>
	</clipPath>
	<linearGradient id="SVGID_6_" gradientUnits="userSpaceOnUse" x1="-1461.9601" y1="471.593" x2="-1283.8728" y2="-242.2038">
		<stop  offset="0" style="stop-color:#0D2136"/>
		<stop  offset="0.9987" style="stop-color:#406EAE"/>
	</linearGradient>
	<rect x="-1966.8" y="-31.5" class="st3" width="1097.5" height="654.4"/>
</g>
<ellipse transform="matrix(0.9486 -0.3165 0.3165 0.9486 -428.3886 -63.2093)" class="st4" cx="-408.7" cy="1286.9" rx="18.6" ry="18.6"/>
<g>
	<g>
		
			<rect x="156.7" y="507.3" transform="matrix(0.7397 0.673 -0.673 0.7397 463.6965 52.9715)" class="st4" width="13.3" height="237.1"/>
		
			<rect x="171.2" y="517.1" transform="matrix(0.7397 0.673 -0.673 0.7397 473.0881 48.2785)" class="st4" width="6" height="237.1"/>
		
			<rect x="149.6" y="497.5" transform="matrix(0.7397 0.673 -0.673 0.7397 454.3096 57.6669)" class="st4" width="6" height="237.1"/>
	</g>
	<g>
		<g>
			<path class="st5" d="M239.1,537c-1.4-3.1-2.9-6.1-4.7-8.9c-1.8-3-3.9-6.2-4.2-9.5l-7.3,6c-0.1,0.1-0.2,0.1-0.2,0.2
				c-1.9,2.1,4.6,11.2,14.5,20.2c0.9,0.8,1.8,1.6,2.7,2.4c0.5-1.1,0.9-2.3,1-3.5C241,541.5,240.1,539.2,239.1,537z"/>
			<path class="st6" d="M258.6,557.5c0.1-0.1,0.1-0.2,0.2-0.3l20.8-30.8l-28.1-25.6l-21.3,17.6c0.4,3.3,2.4,6.6,4.2,9.5
				c1.7,2.9,3.3,5.9,4.7,8.9c1,2.2,1.9,4.5,1.7,6.9c-0.1,1.2-0.4,2.4-1,3.5C248.8,555,256.9,559.4,258.6,557.5z"/>
		</g>
		<g>
			<path class="st7" d="M278.5,441.2c-12.7,15.6-26,30.6-42.3,42.2c-6.5,4.6-13.5,8.7-21.2,11c-5.3,1.6-11,2.3-16.5,1.7l-10.2,11.9
				l0,0c8.5,7.8,20.6,9.1,29.3,3.2l79.1-53.7L278.5,441.2z"/>
			<path class="st8" d="M215,494.4c7.7-2.3,14.7-6.4,21.2-11c16.3-11.6,29.6-26.7,42.3-42.2l-1.3-1.2c-9.5-8.7-23.6-8.2-31.4,0.9
				l-47.3,55.3C204,496.8,209.7,496.1,215,494.4z"/>
		</g>
		<g>
			<path class="st8" d="M320.8,531.7c8.2-7.7,16.4-15.4,24.5-23.2c-0.8-4.9-3.3-9.6-7.4-13.3l-19.5-17.7L274,558.4
				c7-0.3,14-2.5,20.2-5.8C304.2,547.3,312.6,539.5,320.8,531.7z"/>
			<path class="st7" d="M345.3,508.5c-8.2,7.7-16.4,15.4-24.5,23.2c-8.2,7.7-16.6,15.6-26.5,20.9c-6.2,3.3-13.2,5.5-20.2,5.8
				l-1.6,2.9c-5,9.2-2.5,21.1,6,28.8l61.5-63.6C344.7,521.7,346.5,515,345.3,508.5z"/>
		</g>
		<path class="st9" d="M273.8,539.4c1.5,0.7,3,1.2,4.3,1.6C276.8,540.6,275.3,540.1,273.8,539.4z"/>
		<path class="st9" d="M265.4,534.6c1.2,0.8,2.3,1.5,3.5,2.2C267.8,536.1,266.6,535.4,265.4,534.6z"/>
		<path class="st9" d="M268.9,536.8c1.1,0.7,2.2,1.3,3.3,1.8C271.2,538.1,270.1,537.5,268.9,536.8z"/>
		<path class="st5" d="M247.7,519.2c-6.2-6.8-10.3-13.3-11.2-17.7l-4.6,6.2c-1.7,2.2,0.1,7.2,4.2,13.1c1.8-0.7,3.8-1.2,5.7-1.4
			C243.8,519.1,245.7,519.2,247.7,519.2z"/>
		<path class="st6" d="M273.8,539.4c-0.5-0.2-1-0.5-1.6-0.8c-1.1-0.5-2.2-1.1-3.3-1.8c-1.1-0.7-2.3-1.4-3.5-2.2
			c-3.6-2.4-7.3-5.3-11-8.7c-2.4-2.2-4.7-4.5-6.7-6.7c-2,0-3.9,0-5.9,0.2c-2,0.2-3.9,0.7-5.7,1.4c2.9,4,6.8,8.5,11.5,12.7
			c11.6,10.6,23.8,16.5,27.2,13.2l5.7-5.2c-0.8-0.1-1.6-0.3-2.5-0.5C276.8,540.6,275.3,540.1,273.8,539.4z"/>
		<path class="st10" d="M255.7,518.6c5.4-1.2,9.9-4.8,14.1-8.3c27.2-22.6,52.4-47.7,75.3-74.8c-1.6-1.3-3.2-2.6-4.7-4
			c-8.5-7.8-14.9-16.4-18.4-23.6c-19.1,12-35.1,26.6-47.1,42.6l-38.3,50.9c0.9,4.5,5.1,11,11.2,17.7
			C250.4,519.2,253.1,519.2,255.7,518.6z"/>
		<path class="st11" d="M365.6,447.6c-6.2-2.3-13.4-6.4-20.5-12c-22.8,27.1-48,52.1-75.3,74.8c-4.2,3.5-8.7,7.1-14.1,8.3
			c-2.6,0.6-5.3,0.6-8,0.6c2,2.2,4.3,4.5,6.7,6.7c3.7,3.4,7.4,6.3,11,8.7c1.2,0.8,2.3,1.5,3.5,2.2c1.1,0.7,2.2,1.3,3.3,1.8
			c0.5,0.3,1.1,0.5,1.6,0.8c1.5,0.7,3,1.2,4.3,1.6c0.9,0.2,1.7,0.4,2.5,0.5l47.1-42.9C342.4,485,355.5,467.7,365.6,447.6z"/>
		<path class="st5" d="M345.1,435.5c14.5-17.2,28.1-35.2,40.6-54c-23.5,5.4-45.1,14.6-63.7,26.3c3.5,7.2,9.9,15.8,18.4,23.6
			C341.9,432.9,343.5,434.3,345.1,435.5z"/>
		<path class="st6" d="M365.6,447.6c9.9-19.7,17.1-42.1,20.2-66.1v0h0c-0.1,0-0.1,0-0.2,0c-12.5,18.7-26.1,36.8-40.6,54
			C352.2,441.2,359.4,445.3,365.6,447.6z"/>
		<path class="st12" d="M336.2,467.2c-0.6-6.1-3.4-11.9-8.2-16.3c-10.5-9.5-26.7-8.8-36.2,1.7c-3.6,3.9-5.7,8.7-6.4,13.6
			c-1.2,8.1,1.6,16.7,8.1,22.7c10.5,9.5,26.7,8.8,36.2-1.7C334.8,481.4,337,474.2,336.2,467.2z"/>
		<g>
			<path class="st5" d="M314.6,473.6c8.8-1.4,16.7-6.5,22.6-13.2c-0.6-6.1-3.4-11.9-8.2-16.3c-10.5-9.5-26.7-8.8-36.2,1.7
				c-3.6,3.9-5.7,8.7-6.4,13.6c1,1.9,2,3.7,3.4,5.4C295.4,471.9,305.4,475,314.6,473.6z"/>
			<path class="st6" d="M337.2,460.4c-5.9,6.7-13.8,11.9-22.6,13.2c-9.1,1.4-19.2-1.7-24.9-8.9c-1.3-1.7-2.4-3.5-3.4-5.4
				c-1.2,8.1,1.6,16.7,8.1,22.7c10.5,9.5,26.7,8.8,36.2-1.7C335.8,474.7,337.9,467.4,337.2,460.4z"/>
		</g>
		<g>
			<path class="st13" d="M328.4,452.1L295,452c-0.8,1.2-1.4,2.4-1.9,3.6l37.2,0.1C329.8,454.4,329.2,453.2,328.4,452.1z"/>
			<path class="st14" d="M330.3,455.7l-37.2-0.1c-0.7,1.7-1.1,3.5-1.3,5.3l39.8,0.1C331.4,459.2,331,457.4,330.3,455.7z"/>
			<path class="st14" d="M325.1,448.2c-8.2-7.4-20.8-6.8-28.3,1.3c-0.7,0.8-1.3,1.6-1.9,2.4l33.4,0.1
				C327.5,450.7,326.4,449.4,325.1,448.2z"/>
			<path class="st13" d="M322.9,479.6l-22.4-0.1C307.2,484.2,316.1,484.1,322.9,479.6z"/>
			<path class="st14" d="M326.5,476.5c1.5-1.7,2.7-3.5,3.5-5.5l-36.7-0.1c1.1,2.5,2.7,4.9,4.9,6.9c0.7,0.6,1.4,1.2,2.2,1.7l22.4,0.1
				C324.2,478.7,325.4,477.7,326.5,476.5z"/>
			<path class="st13" d="M331.6,461l-39.8-0.1c-0.4,3.4,0.1,6.9,1.5,10L330,471C331.4,467.8,331.9,464.4,331.6,461z"/>
		</g>
	</g>
</g>
<g>
	
		<ellipse transform="matrix(0.7071 -0.7071 0.7071 0.7071 465.472 2895.2429)" class="st15" cx="3727.6" cy="885.7" rx="16.9" ry="16.9"/>
	
		<ellipse transform="matrix(0.3923 -0.9198 0.9198 0.3923 1510.3042 4845.9355)" class="st15" cx="4422.8" cy="1279.9" rx="23.4" ry="23.4"/>
	
		<ellipse transform="matrix(0.8747 -0.4846 0.4846 0.8747 -34.5954 2275.2922)" class="st15" cx="4383.9" cy="1204.6" rx="13.9" ry="13.9"/>
	<path class="st15" d="M4237.4,1196c0,2.5-2,4.5-4.5,4.5c-2.5,0-4.5-2-4.5-4.5c0-2.5,2-4.5,4.5-4.5
		C4235.4,1191.5,4237.4,1193.5,4237.4,1196z"/>
	<path class="st15" d="M3854.8,981.2c0,4-3.3,7.2-7.3,7.2s-7.2-3.3-7.2-7.3c0-4,3.3-7.2,7.3-7.2S3854.8,977.2,3854.8,981.2z"/>
	<path class="st15" d="M3790,885c0,6.3-5.1,11.4-11.5,11.4c-6.3,0-11.4-5.1-11.4-11.5c0-6.3,5.1-11.4,11.5-11.4
		C3784.9,873.6,3790,878.7,3790,885z"/>
	
		<ellipse transform="matrix(0.6853 -0.7283 0.7283 0.6853 416.7852 3398.7307)" class="st4" cx="4140.9" cy="1217.1" rx="16.9" ry="16.9"/>
	<path class="st4" d="M3879.9,1126.1c0.1,2.5-1.9,4.5-4.4,4.6c-2.5,0.1-4.5-1.9-4.6-4.4s1.9-4.5,4.4-4.6
		C3877.8,1121.7,3879.8,1123.6,3879.9,1126.1z"/>
	
		<ellipse transform="matrix(0.3753 -0.9269 0.9269 0.3753 1462.6888 4097.4971)" class="st16" cx="3771.3" cy="963.6" rx="12.4" ry="12.4"/>
	<path class="st16" d="M3798,1081.5c0.1,2.9-2.2,5.2-5,5.3c-2.9,0.1-5.2-2.2-5.3-5c-0.1-2.9,2.2-5.2,5-5.3
		C3795.6,1076.4,3798,1078.6,3798,1081.5z"/>
	<path class="st16" d="M4227.5,1286.7c0.2,6.8-5.2,12.5-12.1,12.7c-6.9,0.2-12.5-5.2-12.7-12.1c-0.2-6.8,5.2-12.5,12.1-12.7
		C4221.6,1274.4,4227.3,1279.8,4227.5,1286.7z"/>
	
		<ellipse transform="matrix(0.2511 -0.968 0.968 0.2511 2011.0929 5094.8433)" class="st16" cx="4298.2" cy="1247.7" rx="4.5" ry="4.5"/>
	
		<ellipse transform="matrix(0.3711 -0.9286 0.9286 0.3711 1541.7554 4849.2251)" class="st16" cx="4350.9" cy="1286.4" rx="6.2" ry="6.2"/>
	
		<ellipse transform="matrix(0.9788 -0.205 0.205 0.9788 -164.8922 810.9976)" class="st16" cx="3831.7" cy="1201.3" rx="17.2" ry="17.2"/>
	<g>
		<path class="st15" d="M4407.8,1328.9c4.5-43.5-27-82.5-70.6-87c-5.5-0.6-11-0.6-16.3,0c-3.6-15.4-16.5-27.5-33.1-29.2
			c-13.7-1.4-26.5,4.6-34.2,14.8c-15.1-0.2-29.2,5.5-39.8,15.2c-3.5-3.8-8.3-6.5-13.9-7c-11.4-1.2-21.7,6.6-23.8,17.7
			c-4.8-4.8-11.2-8.1-18.5-8.8c-7.5-0.8-14.7,1.2-20.5,5.1c-6-9.5-16.1-16.3-28.2-17.5c-16.2-1.7-31.1,7.1-38,20.9
			c-7.3-6.3-16.6-10.5-26.9-11.6c-12.3-1.3-23.9,2.1-33.3,8.6c-2.9-7.5-9.7-13.1-18.2-14c-10.2-1.1-19.5,5-22.9,14.2
			c-6.1-7-14.8-11.9-24.7-12.9c-6.5-0.7-12.9,0.3-18.6,2.7c-5.2-12.3-16.8-21.5-31-23c-4.8-0.5-9.5-0.1-13.9,1.1
			c-8.9-16.5-23.5-29.6-41.4-36.4c1.4-2.7,2.4-5.8,2.8-9c1.1-10.7-4.8-20.6-14-25c7.3-6.1,12.4-15,13.4-25.2
			c1.4-13.8-4.7-26.7-15.1-34.4c10.4-0.7,19.1-8.9,20.3-19.6c0.9-8.3-3-16-9.5-20.4c4.2-3.5,7.1-8.6,7.7-14.5
			c1.3-12.1-7.5-22.9-19.6-24.1c-2.5-0.3-5-0.1-7.3,0.5c2.3-4.3,3.8-9.1,4.3-14.2c1.9-18.2-9.1-34.7-25.6-40.4
			c0.3-1.4,0.6-2.8,0.8-4.3c1.8-16.9-10.5-32-27.4-33.8s-32,10.5-33.8,27.4c-0.4,3.6-0.1,7.1,0.7,10.4l-93.5,26.5l40.7,380.2
			l650.9,60.8l-2.7-22.8C4371.5,1397.9,4403.7,1368.3,4407.8,1328.9z"/>
		<path class="st4" d="M4455.3,1309.7c0.7-18.8-14-34.6-32.8-35.3c-7.7-0.3-14.8,2-20.7,6.1c-11.2-10.1-25.9-16.5-42.1-17.1
			c-22-0.8-41.9,9.2-54.5,25.2c-10.5-8.1-23.6-13.1-37.9-13.6c-2.3-0.1-4.7,0-7,0.1c-1.2-9.3-9-16.7-18.7-17
			c-6.9-0.2-13.1,3.1-16.7,8.4c-5.9-6.2-14.2-10.2-23.4-10.5c-8.1-0.3-15.6,2.3-21.6,6.8c-5.7-4.9-13-8-21.1-8.3
			c-18-0.7-33.2,12.7-35.1,30.3c-0.7-0.4-1.5-0.7-2.2-1.1c-8.1-3.4-16.9-3.4-24.6-0.7c-1.2-11.5-10.7-20.7-22.6-21.2
			c-6.5-0.2-12.5,2.2-16.9,6.3c-5.6-4.5-12.6-7.4-20.3-7.6c-14.4-0.5-27,8-32.4,20.4c-4.9-2.5-10.3-4-16.1-4.2
			c-4.5-0.2-8.9,0.5-13,1.8c-6.9-21.8-26.9-37.9-51-38.8c-8.8-0.3-17.2,1.4-24.8,4.8c-0.8-9.3-8.4-16.8-17.9-17.1c-1,0-2,0-3,0.2
			c-4-8.1-12.1-13.8-21.7-14.1c-2.1-0.1-4.1,0.1-6,0.5c-1.3-11.8-8.5-21.8-18.8-26.9c3.8-10.3,2.2-21.3-3.2-29.9
			c2.5-2.4,4.2-5.7,4.3-9.5c0.2-6.3-3.9-11.8-9.7-13.5c3.8-4,6.2-9.4,6.5-15.3c0.3-8.7-4.1-16.5-11-20.8c4.9-5.7,8-13,8.3-21.1
			c0.5-13.4-6.8-25.2-17.8-31.2c2.9-3.3,4.8-7.6,4.9-12.3c0.4-10.8-8.1-19.9-18.9-20.3c-0.4,0-0.9,0-1.3,0c0.9-3.1,1.5-6.4,1.6-9.8
			c0.6-16.3-9.1-30.6-23.3-36.6c0.8-3.8,1.4-7.8,1.5-11.9c1.3-36.7-27.3-67.4-64-68.8c-36.7-1.3-67.4,27.3-68.8,64
			c-1.3,36.7,27.3,67.4,64,68.8c3.5,0.1,7,0,10.4-0.4l-19.1,239.6l165.5,162.9l550.4-11.6l12.7-67.1
			C4441.7,1340.3,4454.6,1326.7,4455.3,1309.7z"/>
		<path class="st17" d="M4298.3,1362.6c4.7-37.4-21.8-71.6-59.3-76.3c-4.8-0.6-9.4-0.7-14-0.3c-2.8-13.3-13.7-24-28-25.8
			c-11.8-1.5-22.9,3.5-29.8,12.2c-13.1-0.4-25.3,4.3-34.6,12.4c-2.9-3.4-7.1-5.7-11.9-6.3c-9.8-1.2-18.8,5.3-20.9,14.8
			c-4.1-4.2-9.5-7.2-15.8-8c-6.5-0.8-12.7,0.8-17.7,4.1c-5-8.3-13.6-14.3-24-15.6c-14-1.8-27,5.5-33.1,17.3
			c-6.2-5.5-14.1-9.3-23-10.5c-10.6-1.3-20.7,1.4-28.9,6.8c-2.3-6.5-8.1-11.5-15.5-12.4c-8.8-1.1-16.9,4-20,11.9
			c-5.1-6.2-12.5-10.5-21.1-11.6c-5.6-0.7-11.1,0.1-16.1,2c-4.3-10.7-14.1-18.8-26.3-20.4c-4.2-0.5-8.2-0.2-12.1,0.7
			c-7.4-14.4-19.7-25.9-35.1-32.2c1.3-2.3,2.2-4.9,2.5-7.7c1.2-9.2-3.8-17.8-11.6-21.8c6.4-5.1,10.9-12.7,12-21.5
			c1.5-11.9-3.6-23.1-12.4-30c9-0.5,16.7-7.3,17.8-16.5c0.9-7.1-2.3-13.9-7.8-17.8c3.7-3,6.3-7.3,6.9-12.4
			c1.3-10.4-6.1-19.9-16.4-21.2c-2.2-0.3-4.3-0.1-6.3,0.3c2.1-3.6,3.5-7.7,4-12.2c2-15.6-7.2-30.1-21.4-35.3
			c0.3-1.2,0.6-2.4,0.7-3.7c1.8-14.5-8.5-27.8-23-29.6c-14.5-1.8-27.8,8.5-29.6,23c-0.4,3.1-0.2,6.1,0.4,9l-81.1,21.1l28.2,328.6
			l560.2,64.2l-1.9-19.7C4265.8,1421.4,4294.1,1396.5,4298.3,1362.6z"/>
		<path class="st16" d="M4275.7,1365.3c2.1-15.6-8.8-29.9-24.3-32c-6.3-0.9-12.5,0.4-17.7,3.3c-8.5-9.3-20.1-15.9-33.6-17.7
			c-18.2-2.5-35.5,4.2-47.4,16.5c-8.1-7.6-18.5-12.8-30.4-14.4c-1.9-0.3-3.9-0.4-5.8-0.5c-0.2-7.8-6.1-14.6-14.1-15.7
			c-5.7-0.8-11.1,1.5-14.6,5.6c-4.4-5.6-10.9-9.6-18.6-10.7c-6.7-0.9-13.1,0.6-18.5,3.8c-4.3-4.5-10.1-7.7-16.8-8.6
			c-14.9-2-28.6,7.9-31.6,22.3c-0.6-0.4-1.2-0.7-1.8-1.1c-6.5-3.5-13.7-4.2-20.4-2.6c0-9.7-7.2-18.1-17-19.4
			c-5.4-0.7-10.6,0.8-14.6,3.8c-4.2-4.2-9.8-7.1-16.2-8c-11.9-1.6-23.1,4.4-28.6,14.3c-3.8-2.5-8.2-4.2-13.1-4.8
			c-3.7-0.5-7.4-0.3-10.9,0.4c-3.9-18.7-19.2-33.7-39.2-36.4c-7.3-1-14.4-0.2-21,2c0.1-7.8-5.6-14.6-13.5-15.7
			c-0.8-0.1-1.7-0.1-2.5-0.1c-2.6-7-8.9-12.5-16.9-13.5c-1.7-0.2-3.4-0.2-5-0.1c-0.1-9.9-5.3-18.8-13.4-23.8
			c4-8.2,3.6-17.5-0.2-25.1c2.3-1.8,4-4.4,4.4-7.5c0.7-5.2-2.3-10.1-6.9-12c3.5-3,6-7.3,6.6-12.2c1-7.2-2.1-14-7.4-18.2
			c4.5-4.3,7.7-10.1,8.6-16.8c1.5-11.1-3.6-21.5-12.3-27.4c2.7-2.5,4.6-5.9,5.1-9.8c1.2-8.9-5.1-17.2-14-18.4
			c-0.4,0-0.7-0.1-1.1-0.1c1-2.5,1.8-5.2,2.2-8c1.8-13.5-5.1-26.2-16.4-32.4c1-3.1,1.8-6.4,2.2-9.7c4.1-30.3-17.2-58.3-47.5-62.4
			c-30.3-4.1-58.3,17.2-62.4,47.5c-4.1,30.3,17.2,58.3,47.5,62.4c2.9,0.4,5.8,0.6,8.7,0.5l-35.5,197.5L3774,1409l458.2,35.5l16-54.7
			C4261.9,1389.6,4273.8,1379.3,4275.7,1365.3z"/>
		<path class="st4" d="M3889.3,1166.4c0.1,4.4-3.4,8-7.7,8.1c-4.4,0.1-8-3.4-8.1-7.7c-0.1-4.4,3.4-8,7.7-8.1
			C3885.5,1158.6,3889.1,1162,3889.3,1166.4z"/>
		
			<ellipse transform="matrix(0.2348 -0.972 0.972 0.2348 1882.4692 4809.3208)" class="st4" cx="3996" cy="1209" rx="4.5" ry="4.5"/>
		<path class="st16" d="M3908.4,1266.3c0.1,4.2-3.2,7.7-7.4,7.8c-4.2,0.1-7.7-3.2-7.8-7.4c-0.1-4.2,3.2-7.7,7.4-7.8
			C3904.8,1258.8,3908.3,1262.1,3908.4,1266.3z"/>
		<path class="st16" d="M3952,1257.6c-0.1-3.2-2.8-5.8-6-5.7s-5.8,2.8-5.7,6c0.1,3.2,2.8,5.8,6,5.7
			C3949.5,1263.6,3952.1,1260.9,3952,1257.6z"/>
		<rect x="3738.7" y="813" class="st9" width="813.3" height="507.5"/>
	</g>
</g>
<g>
	<rect x="1257" y="-1150.8" class="st9" width="894.4" height="248.8"/>
</g>
<g>
	<path class="st18" d="M3494-675c0,0,27.6-71.2,24-125c-2.1-31.2-35.6-59.5-36.5-57.2c-13.7-9.6-30.9-14.5-48.9-12.7
		c-15.1,1.6-28.7,7.7-39.4,17c-10.1-20.2-31.9-33.1-55.7-30.6c-17.7,1.8-32.5,11.8-41.3,25.7c-8.5-5.8-19-8.7-30-7.5
		c-10.7,1.1-20.1,5.9-27.2,13c-3.1-16.3-18.2-27.7-35-25.9c-8.2,0.9-15.3,4.7-20.4,10.3c-15.5-14.2-36.1-22.6-58.3-22.3
		c-11.4-15-30.1-23.8-50.2-21.7c-24.3,2.5-43.3,20.3-48.5,42.8c-7.8-0.8-15.8-0.8-23.9,0c-63.8,6.7-110.2,63.8-103.5,127.7
		c6,57.7,53.3,101.1,109.5,104l-3.9,33.4l590.6-55.2V-675H3494z"/>
	<path class="st19" d="M3562.8-856.7c-13.8,10.1-24.2,24.5-29.5,41.1c-6-1.9-12.4-2.8-19-2.6c-8.5,0.3-16.6,2.5-23.7,6.2
		c-8-18.2-26.5-30.7-47.6-29.9c-11.3,0.4-21.6,4.6-29.8,11.2c-6.5-6-15.3-9.6-24.8-9.2c-17.5,0.6-31.4,14.1-33.1,31.1
		c-11.3-4-24.1-4-36.1,1c-1.1,0.5-2.2,1-3.3,1.5c-2.8-25.8-25.1-45.4-51.4-44.5c-11.9,0.4-22.6,5-30.9,12.2
		c-8.8-6.6-19.8-10.3-31.7-9.9c-13.5,0.5-25.6,6.3-34.3,15.4c-5.4-7.7-14.5-12.6-24.6-12.3c-14.2,0.5-25.6,11.3-27.4,24.9
		c-3.4-0.2-6.8-0.3-10.2-0.2c-20.9,0.8-40.1,8.1-55.6,19.9c-18.6-23.5-47.7-38.2-80-37c-23.9,0.9-45.4,10.3-61.8,25.1
		c-9.2-6.4-20.6-9.8-32.7-8.8c-25.5,2.1-45.4,23.6-45.7,49.1c-0.3,26,19.1,47.3,43.9,50.2l18.6,98.4l703.2,14.8
		c0,0,62.4-162,50.6-216.2c-0.1-0.6-0.3-1.3-0.4-1.9C3636.7-863.4,3593.1-879,3562.8-856.7z"/>
	<path class="st20" d="M3604.4-628.2L3668-754c-15-81-71.9-69.1-76.4-68.6c-10.7,1.4-19.3,8.7-22.7,18.2c-12-8.1-26.9-12-42.4-10
		c-13,1.6-24.6,7.2-33.7,15.3c-9-17.3-28.1-28-48.6-25.4c-15.2,1.9-27.8,10.7-35.2,22.9c-7.4-4.8-16.5-7.2-26-6
		c-9.2,1.2-17.2,5.4-23.2,11.7c-3-14-16.2-23.6-30.6-21.7c-7,0.9-13.1,4.3-17.4,9.3c-13.6-11.9-31.6-18.8-50.7-18.2
		c-10.1-12.7-26.4-20-43.7-17.8c-20.9,2.6-36.9,18.3-41,37.8c-6.7-0.5-13.6-0.4-20.6,0.5c-54.9,6.9-93.9,57-86.9,112
		c6.2,49.6,47.8,86.2,96.3,87.7l-2.8,28.8L3604.4-628.2z"/>
	<rect x="2701" y="-1016.8" class="st9" width="894.4" height="248.8"/>
</g>
<g>
	<g>
		<path class="st15" d="M757-1496.3c0,0-3.3-8.9-6.3-12.9s-7.2,2.1-5.9,5.5c0,0-4.1-5-7.6-6.5c-12.4-5.1-22.6,13.5-7.7,22.7
			c11.5,6.6,16.6,9,16.6,9L757-1496.3z"/>
	</g>
	<path class="st21" d="M753.9-1491.3c-0.1-3.5-0.2-6.3-0.2-6.3s-10.5,11.5-12.5,10.8c-10.1-2.7-17.1-11.4-19.1-14.2
		c-0.6,4.6,1.3,9.7,7.3,13.4c11.5,6.6,16.6,9,16.6,9L753.9-1491.3z"/>
	<g>
		<path class="st15" d="M876-1451.1c0,0,0.8,10,2.4,14.7c1.6,4.8,7.5,0.3,7.4-3.3c0,0,1.7,5.5,4.6,8c10.1,8.8,25.7-5.6,14.6-19
			c-8.8-9.9-12.8-13.9-12.8-13.9L876-1451.1z"/>
	</g>
	<path class="st21" d="M878.4-1436.4c1.4,4.2,6.1,1.2,7.2-2c-0.9,1-2.6,1-3.9-0.6c-1.3-1.6-0.1-13-0.1-13c-0.3-0.7-2.7-0.3-4.9,0.2
		l-0.7,0.6C876-1451.1,876.8-1441.2,878.4-1436.4z"/>
	<g>
		<path class="st15" d="M759.3-1543.3c0,0-9.4-2.1-12.6,3.8c-3.2,5.9,1.4,34.7,8,36c4.5,0.6,10.2-1.5,10.2-1.5L759.3-1543.3z"/>
	</g>
	<g>
		<path class="st15" d="M858.9-1558c0,0,8.4-4.7,13.1,0c4.7,4.7,8.7,33.6,2.7,36.7c-4.1,1.9-10.2,1.5-10.2,1.5L858.9-1558z"/>
	</g>
	<path class="st21" d="M871.1-1528.8c1.1-11.6-4.9-25.6-7.3-30.9c-2.7,0.6-4.8,1.8-4.8,1.8l5.6,38.2c0,0,6.1,0.4,10.2-1.5
		c1.4-0.7,2.3-3,2.7-6C874.3-1526.7,871-1526.8,871.1-1528.8z"/>
	<path class="st21" d="M756.1-1511.8c-4.4-10.8-2.8-26-1.9-31.7c2.8-0.2,5.2,0.3,5.2,0.3l5.6,38.2c0,0-5.8,2.1-10.2,1.5
		c-1.6-0.3-3-2.2-4.3-5C753.6-1508.9,756.7-1509.9,756.1-1511.8z"/>
	<g>
		<path class="st22" d="M809.6-1535.5L809.6-1535.5c-28.7,4.2-48.5,30.9-44.2,59.5l6.9,46.9c1.7,11.5,12.4,19.5,23.9,17.8l62.1-9.2
			c11.5-1.7,19.5-12.4,17.8-23.9l-6.9-46.9C864.9-1519.9,838.3-1539.7,809.6-1535.5z"/>
		<g>
			<path class="st23" d="M869.3-1490.1c-17.6,11.6-26.9,32.4-23.8,53.3l2.6,17.9l10.2-1.5c11.5-1.7,19.5-12.4,17.8-23.9
				L869.3-1490.1L869.3-1490.1z"/>
			<path class="st23" d="M765.5-1474.8L765.5-1474.8l6.8,45.8c1.7,11.5,12.4,19.5,23.9,17.8l10.2-1.5l-2.6-17.9
				C800.7-1451.6,785.8-1468.8,765.5-1474.8z"/>
		</g>
		<path class="st24" d="M848-1526.1c5.7,7.1,9.7,15.7,11.1,25.3l6.9,46.9c1.7,11.5-6.3,22.2-17.8,23.9l-62.1,9.2
			c-4.2,0.6-8.2,0-11.8-1.7c4,7.7,12.6,12.5,21.8,11.1l62.1-9.2c11.5-1.7,19.5-12.4,17.8-23.9l-6.9-46.9
			C867-1505.8,859.1-1518.1,848-1526.1z"/>
	</g>
	<g>
		<path class="st10" d="M876-1451.1l16.1-13.5c-16.3-19.5-32.1-25.3-43.5-26.3c-0.2-0.9-0.3-1.3-0.3-1.3s-7.2-9.5-31.5-6
			c-23.2,3.4-28,13.7-28.4,14.7c-8.2-1.6-19.1-5.2-31.4-12.8l-11.1,17.8c17.5,10.9,33.2,15,44.3,16.5c0.8,8.2,1.7,17.2,2.7,23.9
			c0.9,6,2.9,11.3,6.2,15.5c-3.5,8.9-8.2,23.1-9.7,37.3l23.4,2.5c1.2-10.6,5.2-22.7,8.5-30.9c2.4,0,5-0.2,7.8-0.6
			c3.1-0.5,5.9-1.1,8.5-1.9c5.5,6.9,12.9,17.4,17.2,27.3l21.7-9.2c-5.8-13.6-14.8-26.2-20.7-33.6c1.7-4.7,2-10.1,1.2-15.7
			c-0.9-6-2.3-13.7-3.8-21C859.5-1466.4,867.4-1461.5,876-1451.1z"/>
	</g>
	<g>
		<path class="st10" d="M865.7-1548.5c-13.5-45.9-61.7-36.8-61.7-36.8s-48.8,5.1-48.4,53c0.3,47.9,43.8,50,63.2,47.2
			C838.2-1487.9,879.2-1502.6,865.7-1548.5z"/>
	</g>
	<path class="st22" d="M865.7-1548.5c-3.4-11.5-9-19.6-15.5-25.2c4.9,5.3,9,12.3,11.8,21.6c13.5,45.9-27.5,60.5-46.9,63.4
		c-12.3,1.8-34.2,1.6-48.7-10.9c14.2,16.1,39,16.5,52.4,14.6C838.2-1487.9,879.2-1502.6,865.7-1548.5z"/>
	<g>
		<g>
			<path class="st15" d="M827.1-1428.7c-20.9,3.1-33.9-0.8-34.5-1c-2.8-0.9-4.3-3.8-3.5-6.6c0.9-2.8,3.8-4.3,6.5-3.5
				c0.2,0.1,11.6,3.3,29.9,0.6c18.3-2.7,27.7-9,27.8-9.1c2.4-1.6,5.6-1,7.3,1.3c1.6,2.4,1.1,5.6-1.3,7.3
				C858.9-1439.2,848.1-1431.8,827.1-1428.7z"/>
		</g>
	</g>
	<path class="st21" d="M858.9-1442.4c-0.5,0.3-11.3,7.8-32.3,10.9c-20.9,3.1-33.9-0.8-34.5-1c-1.5-0.5-2.6-1.5-3.2-2.9
		c-0.3,2.5,1.1,5,3.6,5.7c0.5,0.2,13.5,4.1,34.5,1c21-3.1,31.8-10.5,32.3-10.9c2.1-1.5,2.8-4.2,1.7-6.5
		C860.9-1444.6,860.2-1443.3,858.9-1442.4z"/>
	<g class="st25">
		<g>
			<path class="st26" d="M819.8-1477.9c-18.2,2.7-31.7-1.9-32.6-2.2c-1.8-0.6-2.8-2.6-2.2-4.5c0.6-1.8,2.6-2.8,4.5-2.2
				c0.4,0.1,28.6,9.5,57-8.5c1.6-1,3.8-0.6,4.8,1.1c1,1.6,0.6,3.8-1.1,4.8C839.6-1482.6,829.1-1479.3,819.8-1477.9z"/>
		</g>
	</g>
	<path class="st15" d="M787.9-1483.2c0.4,0.1,30.6,9.2,61.3-9.1c0.8-0.5,1.8-0.7,2.7-0.5c-0.1-0.4-0.2-0.9-0.5-1.3
		c-1-1.6-3.2-2.1-4.8-1.1c-28.3,18-56.6,8.6-57,8.5c-1.8-0.6-3.8,0.3-4.5,2.2c-0.2,0.5-0.2,1-0.2,1.5
		C785.8-1483.4,786.9-1483.5,787.9-1483.2z"/>
	<g>
		<g>
			<path class="st27" d="M831.2-1477.5l-7,1.8c-2.6,0.7-5.3,1.1-8,1.2l-7.7,0.4c-1.9,0.1-3.4,1.8-3.1,3.7l1.7,11.4
				c0.2,1.7,1.7,2.8,3.4,2.8l8.1-0.4c2.7-0.1,5.4-0.5,8-1.2l7.9-2c1.6-0.4,2.7-2,2.4-3.6l-1.7-11.4
				C834.9-1476.7,833-1478,831.2-1477.5z"/>
		</g>
		<g>
			<path class="st28" d="M813.6-1468.9c0.2,1.4-0.8,2.7-2.2,2.9c-1.4,0.2-2.7-0.8-2.9-2.2c-0.2-1.4,0.8-2.7,2.2-2.9
				C812-1471.3,813.3-1470.3,813.6-1468.9z"/>
		</g>
		<g>
			<path class="st28" d="M814.6-1461.9c0.2,1.4-0.8,2.7-2.2,2.9c-1.4,0.2-2.7-0.8-2.9-2.2c-0.2-1.4,0.8-2.7,2.2-2.9
				C813.1-1464.3,814.4-1463.3,814.6-1461.9z"/>
		</g>
		<g>
			<g>
				<path class="st29" d="M823.5-1467.9c-3.6,0.5-6.2,0.5-6.4,0.5c-0.9,0-1.5-0.7-1.5-1.6c0-0.9,0.7-1.5,1.6-1.5
					c0.1,0,7.3,0.1,13.9-2.5c0.8-0.3,1.7,0.1,2,0.9c0.3,0.8-0.1,1.7-0.9,2C829.2-1468.9,826.1-1468.3,823.5-1467.9z"/>
			</g>
		</g>
		<g>
			<g>
				<path class="st29" d="M824.5-1461.3c-3.6,0.5-6.2,0.5-6.4,0.5c-0.9,0-1.5-0.7-1.5-1.6c0-0.9,0.7-1.5,1.6-1.5
					c0.1,0,7.3,0.1,13.9-2.5c0.8-0.3,1.7,0.1,2,0.9c0.3,0.8-0.1,1.7-0.9,2C830.1-1462.4,827-1461.7,824.5-1461.3z"/>
			</g>
		</g>
	</g>
	<path class="st15" d="M842.8-1453.5l-2.8-2.7c-0.5-0.5-1.3-0.7-2-0.5l-3.7,1c-0.7,0.2-1.3,0.8-1.5,1.5l-1,3.8c-0.2,0.7,0,1.5,0.6,2
		l2.8,2.7c0.5,0.5,1.3,0.7,2,0.5l3.7-1c0.7-0.2,1.3-0.8,1.5-1.5l1-3.8C843.5-1452.2,843.3-1453,842.8-1453.5z"/>
	<path class="st15" d="M804.9-1447.9l1.9-3.4c0.4-0.7,1-1.1,1.8-1.1l3.9-0.1c0.7,0,1.4,0.4,1.8,1l2,3.3c0.4,0.6,0.4,1.4,0.1,2.1
		l-1.9,3.4c-0.4,0.7-1,1.1-1.8,1.1l-3.9,0.1c-0.7,0-1.4-0.4-1.8-1l-2-3.3C804.6-1446.5,804.6-1447.3,804.9-1447.9z"/>
	<g>
		<g>
			<path class="st30" d="M857.6-1540.4c-10.5-33.3-50.8-25.9-50.8-25.9s-40.7,4.5-41.2,39.4c-0.5,34.9,35.7,35.8,51.9,33.4
				C833.8-1495.8,868.2-1507.1,857.6-1540.4z"/>
		</g>
		<path class="st31" d="M857.6-1540.4c-2.8-8.8-7.7-14.8-13.4-18.8c2.8,3.4,5.2,7.6,6.8,12.8c10.5,33.3-23.8,44.6-40.1,47
			c-9.9,1.5-27.2,1.7-39.1-6.3c11,14,33.7,14,45.6,12.2C833.8-1495.8,868.2-1507.1,857.6-1540.4z"/>
		<g>
			<path class="st32" d="M806.8-1566.3c0,0-2.1,0.2-5.4,1c-2.8,13.4-10.1,38.2-28.9,60.4c3.9,4.6,9.2,7.6,14.9,9.5
				c22.7-27.6,30-58.1,32.2-71.5C812.2-1567.3,806.8-1566.3,806.8-1566.3z"/>
			<path class="st32" d="M832.9-1564.7c-2.4,13.5-10.5,45.2-35.4,71.5c3.9,0.5,7.8,0.6,11.4,0.5c21.8-25.5,29.6-54.1,32.3-68.5
				C838.5-1562.7,835.7-1563.8,832.9-1564.7z"/>
		</g>
	</g>
	<g>
		<path class="st30" d="M852.5-1426.4c-4.5,0.7-9.4-1.6-12.5-4.8c-4.9-5-6.8-13-4.9-20.5c0.4-1.4,1.8-2.2,3.2-1.9
			c1.4,0.4,2.2,1.8,1.9,3.2c-1.5,5.7-0.1,11.8,3.5,15.5c2.4,2.4,6.7,4.2,9.4,2.8c1.2-0.6,1.7-1.6,1.9-2.4c0.4-1.4,0.2-3-0.6-4.2
			c-0.5-0.8-1.4-1.7-2.4-2.5c-1.9-1.7-4.2-3.9-4.5-7.3c-0.2-2.2,0.5-4.4,2-6.1c1.6-1.8,3.9-2.9,6.4-2.9c1.4,0,2.6,1.1,2.7,2.6
			c0,1.5-1.1,2.7-2.6,2.7c-1,0-1.9,0.5-2.6,1.2c-0.4,0.4-0.8,1.1-0.7,2.1c0.1,1.3,1.2,2.3,2.9,3.9c1.2,1.1,2.4,2.2,3.3,3.7
			c1.5,2.5,1.9,5.6,1.2,8.4c-0.7,2.5-2.3,4.5-4.6,5.6C854.5-1426.9,853.5-1426.6,852.5-1426.4z"/>
	</g>
	<g>
		<path class="st30" d="M803.5-1419.2c-1,0.2-2.1,0.2-3.1,0c-2.5-0.4-4.6-1.9-6-4c-1.6-2.4-2-5.5-1.3-8.4c0.4-1.7,1.3-3.1,2.1-4.5
			c1.2-2,1.9-3.3,1.6-4.6c-0.2-1-0.8-1.5-1.3-1.8c-0.8-0.5-1.8-0.6-2.8-0.4c-1.4,0.4-2.8-0.4-3.2-1.8c-0.4-1.4,0.4-2.8,1.8-3.2
			c2.4-0.7,4.9-0.3,6.9,1c1.9,1.2,3.2,3,3.7,5.2c0.7,3.4-0.9,6.1-2.2,8.3c-0.7,1.1-1.3,2.2-1.5,3.1c-0.4,1.4-0.1,3,0.6,4.2
			c0.4,0.7,1.2,1.5,2.5,1.7c3,0.5,6.6-2.4,8.2-5.4c2.4-4.6,2-10.8-1.1-15.8c-0.8-1.2-0.4-2.9,0.9-3.6c1.2-0.8,2.9-0.4,3.6,0.9
			c4,6.6,4.5,14.8,1.2,21C812.1-1423.5,808-1419.9,803.5-1419.2z"/>
	</g>
	<path class="st22" d="M879.7-1458.7c0,0-13.1-16.7-28.5-19.1l2.2,9.2c6.2,2.2,14,7.1,22.7,17.4l2.7-2.2L879.7-1458.7z"/>
	<g>
		<g>
			<path class="st5" d="M876.6-1447.7c-1.2,0.2-2.4-0.2-3.2-1.2c-1.2-1.5-1-3.7,0.4-4.9l16.1-13.5c1.5-1.2,3.7-1,4.9,0.4
				c1.2,1.5,1,3.7-0.4,4.9l-16.1,13.5C877.8-1448,877.2-1447.8,876.6-1447.7z"/>
		</g>
	</g>
	<path class="st21" d="M908.5-1438.4c-12.8,12.6-22.7-1.3-22.7-1.3s1.7,5.5,4.6,8C897.3-1425.7,906.7-1430.5,908.5-1438.4z"/>
	<path class="st15" d="M879.6-1477.2c-7.3-6-14.2-9.5-20.5-11.6c-0.3,3.1-0.1,9.4,5,12.4C869.7-1473.1,876-1473.7,879.6-1477.2z"/>
	<path class="st15" d="M758.5-1471.6c8.4,4,16.1,6.5,22.8,8c-0.1-2.3-0.9-10.1-7.3-12.4C767.7-1478.3,761.2-1476.3,758.5-1471.6z"/>
	<path class="st22" d="M790.4-1470.4c0,0-24.2-4.9-38.4-13.8c-0.6-0.4-1.2-0.7-1.8-1l-4.2,6.7c17.5,10.9,33.2,15,44.3,16.5
		C790.2-1462,789.8-1464.7,790.4-1470.4z"/>
	<g>
		<g>
			<path class="st5" d="M746.4-1475c-0.8,0.1-1.6,0-2.4-0.5c-1.6-1-2.1-3.2-1.1-4.8l11.1-17.8c1-1.6,3.2-2.1,4.8-1.1
				c1.6,1,2.1,3.2,1.1,4.8l-11.1,17.8C748.3-1475.7,747.4-1475.2,746.4-1475z"/>
		</g>
	</g>
	<path class="st22" d="M852.8-1402.7c-1.6-1.1-12.9-16.2-13.5-17.6c-0.6-1.4-1.8-0.8-3.9,0.6c-2.1,1.4-12,3.8-14.5,2.1
		c-2.5-1.7-2.8-0.8-3.1-0.3c-0.3,0.5-8.2,22.9-8.2,22.9s2.2,0.2,5.4,0.5c1.8-7,4.2-13.9,6.3-19.2c2.4,0,5-0.2,7.8-0.6
		c3.1-0.5,5.9-1.1,8.5-1.9c3.7,4.7,8.3,11,12.2,17.6C852-1400.5,853.5-1402.2,852.8-1402.7z"/>
	<g>
		<path class="st15" d="M791.7-1400.4c-0.3,1.4-2.1,11.6-2.1,11.6s-11.7-8.6-22.8-3.8c-11.1,4.8-10.5,19.4-10.5,19.4l53.6,11.8
			l5.7-34.7L791.7-1400.4z"/>
	</g>
	<g>
		<path class="st15" d="M870.1-1412c0.7,1.3,5.4,10.5,5.4,10.5s8.7-11.7,20.8-10.2c12,1.4,15.6,15.6,15.6,15.6l-48,26.7l-15.4-31.6
			L870.1-1412z"/>
	</g>
	<g>
		<path class="st30" d="M863.9-1369.4l48-26.7c0,0-0.7-2.8-2.6-6l-48.2,27.1L863.9-1369.4z"/>
	</g>
	<g>
		<path class="st30" d="M756.3-1373.2l53.6,11.8l1.1-6.7l-53.6-13.1C756.1-1376.9,756.3-1373.2,756.3-1373.2z"/>
	</g>
	<g>
		<path class="st5" d="M849-1397.6c-1.4,0.2-2.9-0.5-3.6-1.9c-0.9-1.7-0.2-3.8,1.5-4.7l21.6-11c1.7-0.9,3.8-0.2,4.7,1.5
			c0.9,1.7,0.2,3.8-1.5,4.7l-21.6,11C849.7-1397.8,849.3-1397.6,849-1397.6z"/>
	</g>
	<path class="st33" d="M873-1411.3l-21.6,11c-0.3,0.2-0.7,0.3-1.1,0.3c-1.4,0.2-2.9-0.5-3.6-1.9c-0.3-0.6-0.4-1.3-0.4-1.9
		c-1.3,1-1.8,2.8-1,4.3c0.7,1.4,2.2,2.1,3.6,1.9c0.4-0.1,0.7-0.2,1.1-0.3l21.6-11c1.1-0.6,1.8-1.6,1.9-2.8
		C873.4-1411.5,873.2-1411.4,873-1411.3z"/>
	<g>
		<path class="st5" d="M816.1-1392.7c-0.4,0.1-0.7,0.1-1.1,0l-23.8-4.3c-1.9-0.3-3.2-2.2-2.8-4.1c0.3-1.9,2.2-3.2,4.1-2.8l23.8,4.3
			c1.9,0.3,3.2,2.2,2.8,4.1C818.7-1394,817.5-1392.9,816.1-1392.7z"/>
	</g>
	<path class="st33" d="M817.4-1399.2c0.2,0.6,0.3,1.2,0.2,1.9c-0.3,1.5-1.5,2.6-2.9,2.8c-0.4,0.1-0.7,0.1-1.1,0l-23.8-4.3
		c-0.4-0.1-0.8-0.2-1.2-0.5c0.4,1.1,1.4,1.9,2.6,2.1l23.8,4.3c0.4,0.1,0.8,0.1,1.1,0c1.4-0.2,2.7-1.3,2.9-2.8
		C819.3-1397,818.6-1398.4,817.4-1399.2z"/>
	<path class="st30" d="M874.9-1381.7l-5.2-5.4c-2.5-2.7-6.4-3.5-9.8-2.2l-4.8,1.8l0.8,1.6l4.6-1.8c2.8-1.1,5.9-0.4,8,1.8l5.1,5.3
		l3.3,3.9l1.6-0.9L874.9-1381.7z"/>
	<path class="st30" d="M808.8-1381.8c-3.7-0.3-7.1,1.7-8.8,4.9l-3.4,6.7l-2.3,5.3l1.7,0.4l2.1-4.9l3.4-6.6c1.3-2.6,4.1-4.2,7.1-4
		l4.2,0.3l0.3-1.7L808.8-1381.8z"/>
</g>
<g>
	<g>
		<path class="st15" d="M2438.4,1095.8c0,0-4.6-9.1-8.3-13c-3.7-3.9-7.4,3.1-5.7,6.6c0,0-5-4.8-8.9-6c-13.8-4-22.4,17.1-5.5,25
			c13,5.6,18.7,7.6,18.7,7.6L2438.4,1095.8z"/>
	</g>
	<path class="st21" d="M2435.7,1101.6c-0.5-3.7-1-6.6-1-6.6s-9.8,13.5-12,13c-11-1.7-19.5-10.1-22-12.8c-0.1,4.9,2.6,10.2,9.3,13.4
		c13,5.6,18.7,7.6,18.7,7.6L2435.7,1101.6z"/>
	<g>
		<path class="st15" d="M2570.4,1129.7c0,0,2,10.5,4.3,15.4c2.3,4.9,8-0.6,7.5-4.4c0,0,2.5,5.7,5.8,8c11.8,8.2,26.7-9,13.2-21.9
			c-10.5-9.5-15.3-13.3-15.3-13.3L2570.4,1129.7z"/>
	</g>
	<path class="st21" d="M2574.8,1145.1c2,4.3,6.7,0.6,7.4-3c-0.8,1.2-2.6,1.4-4.2-0.2c-1.5-1.6-1.6-13.8-1.6-13.8
		c-0.3-0.7-2.9,0-5.2,0.8l-0.7,0.7C2570.4,1129.7,2572.5,1140.2,2574.8,1145.1z"/>
	<g>
		<path class="st15" d="M2435.3,1045.6c0,0-10.3-1.1-12.9,5.5c-2.7,6.6,5.7,36.7,12.8,37.3c4.8,0.1,10.7-2.8,10.7-2.8L2435.3,1045.6
			z"/>
	</g>
	<g>
		<path class="st15" d="M2539.5,1018.1c0,0,8.4-6,14-1.6c5.6,4.4,13.2,34.7,7.3,38.7c-4.1,2.5-10.7,2.8-10.7,2.8L2539.5,1018.1z"/>
	</g>
	<path class="st21" d="M2555.9,1047.6c-0.2-12.5-8.2-26.7-11.5-32c-2.8,1-4.9,2.5-4.9,2.5l10.6,40c0,0,6.6-0.3,10.7-2.8
		c1.4-1,2.1-3.4,2.1-6.7C2559.5,1049.5,2556.1,1049.8,2555.9,1047.6z"/>
	<path class="st21" d="M2435.6,1079.4c-6-11-6-27.3-5.8-33.5c2.9-0.6,5.5-0.3,5.5-0.3l10.6,40c0,0-5.9,2.9-10.7,2.8
		c-1.7-0.1-3.5-2-5.2-4.8C2433.3,1082.8,2436.5,1081.4,2435.6,1079.4z"/>
	<g>
		<path class="st22" d="M2489.7,1047.9L2489.7,1047.9c-30,7.9-47.9,38.6-39.9,68.6l13,49.1c3.2,12,15.5,19.2,27.6,16l64.9-17.2
			c12-3.2,19.2-15.5,16-27.6l-13-49.1C2550.4,1057.8,2519.7,1040,2489.7,1047.9z"/>
		<g>
			<path class="st23" d="M2558.6,1089c-17.4,14.5-24.8,37.7-19,59.5l5,18.8l10.6-2.8c12-3.2,19.2-15.5,16-27.6L2558.6,1089
				L2558.6,1089z"/>
			<path class="st23" d="M2450.1,1117.7L2450.1,1117.7l12.7,47.9c3.2,12,15.5,19.2,27.6,16l10.6-2.8l-5-18.8
				C2490.2,1138.2,2472.3,1121.7,2450.1,1117.7z"/>
		</g>
		<path class="st24" d="M2531.7,1053.3c6.9,6.8,12.2,15.5,14.8,25.6l13,49.1c3.2,12-4,24.4-16,27.6l-64.9,17.2
			c-4.4,1.1-8.7,0.9-12.7-0.4c5.2,7.8,14.9,11.8,24.5,9.2l64.9-17.2c12-3.2,19.2-15.5,16-27.6l-13-49.1
			C2554.3,1072.6,2544.4,1060.5,2531.7,1053.3z"/>
	</g>
	<g>
		<path class="st10" d="M2570.4,1129.7l15.5-16.2c-19.7-18.8-37.2-23.1-49.4-22.8c-0.3-0.9-0.5-1.4-0.5-1.4s-8.8-9.3-34.3-2.6
			c-24.2,6.4-28.2,17.9-28.5,19.1c-8.9-0.7-21-3.2-35-9.9l-9.7,20.3c19.9,9.5,37.1,12,49.1,12.3c1.8,8.6,3.9,18.1,5.8,25.1
			c1.7,6.3,4.4,11.7,8.5,15.7c-2.6,9.9-5.9,25.6-5.9,40.8l25.2-0.1c0-11.5,2.9-24.8,5.4-33.9c2.6-0.3,5.3-0.8,8.2-1.6
			c3.3-0.9,6.2-1.9,8.8-3c6.7,6.7,15.8,16.9,21.5,26.9l22-12.4c-7.7-13.8-18.8-26.1-26-33.3c1.3-5.2,0.9-10.9-0.6-16.9
			c-1.7-6.2-4.1-14.3-6.5-21.9C2551,1115.4,2560,1119.7,2570.4,1129.7z"/>
	</g>
	<g>
		<path class="st10" d="M2547.8,1027.4c-19.9-47.2-70-31.7-70-31.7s-51.3,11.3-45.2,62.2c6.1,50.9,52.5,48,72.9,42.6
			C2525.9,1095,2567.7,1074.6,2547.8,1027.4z"/>
	</g>
	<path class="st22" d="M2547.8,1027.4c-5-11.9-11.9-19.8-19.4-25c5.8,5.1,11.1,12,15.1,21.5c19.9,47.2-22,67.7-42.3,73.1
		c-12.9,3.4-36.2,5.8-53.2-5.8c17.1,15.4,43.5,12.9,57.5,9.2C2525.9,1095,2567.7,1074.6,2547.8,1027.4z"/>
	<g>
		<g>
			<path class="st15" d="M2521.1,1159.4c-21.9,5.8-36.2,3.2-36.8,3.1c-3-0.6-5.1-3.5-4.5-6.6c0.6-3,3.5-5,6.5-4.5
				c0.3,0,12.7,2.1,31.8-2.9c19.1-5.1,28.4-12.9,28.5-13c2.3-2,5.9-1.8,7.9,0.6c2,2.3,1.8,5.9-0.5,7.9
				C2553.6,1144.4,2543,1153.6,2521.1,1159.4z"/>
		</g>
	</g>
	<path class="st21" d="M2553.3,1141c-0.4,0.4-11.1,9.6-33,15.4c-21.9,5.8-36.2,3.2-36.8,3.1c-1.6-0.3-3-1.3-3.8-2.7
		c-0.1,2.7,1.8,5.1,4.6,5.7c0.6,0.1,14.9,2.7,36.8-3.1c21.9-5.8,32.6-15,33-15.4c2.1-1.8,2.5-4.8,1.1-7.1
		C2555.1,1138.4,2554.5,1139.9,2553.3,1141z"/>
	<g class="st25">
		<g>
			<path class="st26" d="M2507.4,1107.9c-19,5-34,1.8-34.9,1.6c-2-0.5-3.3-2.5-2.8-4.5c0.5-2,2.5-3.3,4.5-2.8
				c0.5,0.1,31.6,6.7,59.6-15.9c1.6-1.3,4-1,5.3,0.6c1.3,1.6,1,4-0.6,5.3C2528,1100.6,2517.2,1105.3,2507.4,1107.9z"/>
		</g>
	</g>
	<path class="st15" d="M2472.8,1106.1c0.5,0.1,33.7,6.1,64.1-17c0.8-0.6,1.8-0.9,2.8-0.9c-0.1-0.5-0.4-0.9-0.7-1.3
		c-1.3-1.6-3.7-1.9-5.3-0.6c-28,22.5-59.1,16-59.6,15.9c-2-0.5-4,0.8-4.5,2.8c-0.1,0.6-0.1,1.1,0,1.7
		C2470.6,1106.1,2471.7,1105.8,2472.8,1106.1z"/>
	<g>
		<g>
			<path class="st27" d="M2519.6,1107l-7.2,2.7c-2.7,1-5.5,1.8-8.3,2.2l-8.2,1.3c-2,0.3-3.4,2.3-2.8,4.3l3.2,11.9
				c0.5,1.7,2.1,2.8,3.9,2.6l8.6-1.3c2.8-0.4,5.6-1.2,8.3-2.2l8.1-3.1c1.7-0.6,2.6-2.4,2.1-4.1l-3.1-11.9
				C2523.6,1107.3,2521.5,1106.2,2519.6,1107z"/>
		</g>
		<g>
			<path class="st28" d="M2501.9,1118.2c0.4,1.5-0.5,3-2,3.4c-1.5,0.4-3-0.5-3.4-2c-0.4-1.5,0.5-3,2-3.4
				S2501.5,1116.8,2501.9,1118.2z"/>
		</g>
		<g>
			<path class="st28" d="M2503.8,1125.6c0.4,1.5-0.5,3-2,3.4s-3-0.5-3.4-2s0.5-3,2-3.4S2503.4,1124.1,2503.8,1125.6z"/>
		</g>
		<g>
			<g>
				<path class="st29" d="M2512.5,1118.1c-3.8,1-6.5,1.3-6.7,1.3c-0.9,0.1-1.7-0.6-1.8-1.5c-0.1-0.9,0.6-1.7,1.5-1.8
					c0.1,0,7.7-0.8,14.5-4.3c0.8-0.4,1.8-0.1,2.2,0.7c0.4,0.8,0.1,1.8-0.7,2.2C2518.4,1116.3,2515.2,1117.4,2512.5,1118.1z"/>
			</g>
		</g>
		<g>
			<g>
				<path class="st29" d="M2514.4,1125c-3.8,1-6.5,1.3-6.7,1.3c-0.9,0.1-1.7-0.6-1.8-1.5c-0.1-0.9,0.6-1.7,1.5-1.8
					c0.1,0,7.7-0.8,14.5-4.3c0.8-0.4,1.8-0.1,2.2,0.7c0.4,0.8,0.1,1.8-0.7,2.2C2520.3,1123.2,2517.1,1124.3,2514.4,1125z"/>
			</g>
		</g>
	</g>
	<path class="st15" d="M2534.8,1131.1l-3.3-2.6c-0.6-0.5-1.5-0.6-2.2-0.3l-3.9,1.5c-0.7,0.3-1.3,1-1.4,1.8l-0.6,4.1
		c-0.1,0.8,0.2,1.6,0.8,2.1l3.3,2.6c0.6,0.5,1.5,0.6,2.2,0.3l3.9-1.5c0.7-0.3,1.3-1,1.4-1.8l0.6-4.1
		C2535.7,1132.4,2535.4,1131.6,2534.8,1131.1z"/>
	<path class="st15" d="M2495.2,1141.6l1.6-3.8c0.3-0.7,1-1.3,1.8-1.4l4.1-0.6c0.8-0.1,1.6,0.2,2.1,0.8l2.6,3.3
		c0.5,0.6,0.6,1.5,0.3,2.2l-1.6,3.8c-0.3,0.7-1,1.3-1.8,1.4l-4.1,0.6c-0.8,0.1-1.6-0.2-2.1-0.8l-2.6-3.3
		C2495,1143.2,2494.9,1142.3,2495.2,1141.6z"/>
	<g>
		<g>
			<path class="st30" d="M2540.2,1036.9c-15.2-34.2-57.2-21.4-57.2-21.4s-42.8,9.7-39.1,46.9c3.7,37.2,42.2,33.8,59.3,29.4
				C2520.2,1087.2,2555.4,1071.1,2540.2,1036.9z"/>
		</g>
		<path class="st31" d="M2540.2,1036.9c-4-9.1-9.9-14.8-16.4-18.4c3.4,3.3,6.4,7.5,8.8,12.8c15.2,34.2-20,50.3-37,54.8
			c-10.4,2.7-28.7,5-42.3-2c13.4,13.5,37.5,10.9,50,7.6C2520.2,1087.2,2555.4,1071.1,2540.2,1036.9z"/>
		<g>
			<path class="st32" d="M2483,1015.5c0,0-2.2,0.5-5.6,1.7c-1.3,14.6-6.2,41.9-23.5,67.7c4.7,4.5,10.7,7,16.9,8.4
				c20.8-32.1,24.9-65.4,25.7-79.9C2488.7,1013.8,2483,1015.5,2483,1015.5z"/>
			<path class="st32" d="M2511,1014.1c-0.9,14.7-5.7,49.4-29.1,80.3c4.2,0.1,8.4-0.3,12.2-0.8c20.1-29.8,25.1-61,26.2-76.7
				C2517.2,1015.5,2514.1,1014.6,2511,1014.1z"/>
		</g>
	</g>
	<g>
		<path class="st30" d="M2548.3,1158.8c-4.7,1.2-10.2-0.6-13.9-3.6c-5.8-4.7-8.8-13-7.7-21.2c0.2-1.5,1.6-2.6,3.2-2.4
			c1.5,0.2,2.6,1.6,2.4,3.2c-0.9,6.3,1.3,12.5,5.6,16c2.8,2.3,7.6,3.7,10.4,1.9c1.2-0.8,1.6-1.9,1.7-2.7c0.3-1.5-0.2-3.2-1.1-4.4
			c-0.6-0.8-1.7-1.6-2.8-2.4c-2.2-1.6-4.9-3.6-5.7-7.2c-0.5-2.3,0-4.7,1.4-6.7c1.5-2.1,3.8-3.5,6.4-3.9c1.5-0.2,3,0.9,3.2,2.4
			c0.2,1.5-0.9,3-2.4,3.2c-1,0.1-2,0.7-2.6,1.5c-0.3,0.5-0.7,1.3-0.5,2.3c0.3,1.4,1.5,2.4,3.5,3.8c1.4,1,2.8,2.1,3.9,3.5
			c1.9,2.5,2.7,5.7,2.2,8.8c-0.5,2.7-2,5-4.2,6.5C2550.4,1158,2549.4,1158.5,2548.3,1158.8z"/>
	</g>
	<g>
		<path class="st30" d="M2497.1,1172.3c-1.1,0.3-2.2,0.4-3.3,0.3c-2.7-0.2-5.1-1.4-6.9-3.6c-1.9-2.4-2.8-5.6-2.4-8.7
			c0.3-1.8,1-3.4,1.7-5c1-2.2,1.6-3.7,1.2-5c-0.3-1-1-1.5-1.6-1.8c-0.9-0.4-2-0.4-3-0.1c-1.4,0.6-3.1-0.1-3.7-1.6
			c-0.6-1.4,0.1-3.1,1.6-3.7c2.4-1,5.2-0.9,7.5,0.2c2.2,1,3.8,2.8,4.5,5.1c1.1,3.5-0.3,6.6-1.4,9.1c-0.6,1.3-1.1,2.5-1.3,3.5
			c-0.2,1.5,0.2,3.2,1.2,4.4c0.5,0.6,1.5,1.4,2.9,1.5c3.3,0.2,6.7-3.4,8.1-6.8c2-5.1,0.8-11.7-3-16.7c-0.9-1.2-0.7-3,0.5-3.9
			c1.2-0.9,3-0.7,3.9,0.5c5.1,6.5,6.5,15.3,3.8,22.2C2505.7,1166.7,2501.8,1171.1,2497.1,1172.3z"/>
	</g>
	<path class="st22" d="M2573.4,1121.2c0,0-15.9-16.2-32.6-16.9l3.5,9.5c6.8,1.6,15.8,5.8,26.2,15.8l2.6-2.7L2573.4,1121.2z"/>
	<g>
		<g>
			<path class="st5" d="M2571.4,1133.3c-1.2,0.3-2.6,0-3.5-0.9c-1.5-1.4-1.5-3.8-0.1-5.3l15.5-16.2c1.4-1.5,3.8-1.5,5.3-0.1
				c1.5,1.4,1.5,3.8,0.1,5.3l-15.5,16.2C2572.7,1132.8,2572,1133.1,2571.4,1133.3z"/>
		</g>
	</g>
	<path class="st21" d="M2606.5,1139.4c-12.1,14.9-24.3,1.3-24.3,1.3s2.5,5.7,5.8,8C2596.1,1154.2,2605.6,1148,2606.5,1139.4z"/>
	<path class="st15" d="M2571.1,1101.5c-8.5-5.5-16.3-8.4-23.1-9.8c0.1,3.3,1.1,10,6.8,12.6C2561.1,1107,2567.7,1105.7,2571.1,1101.5
		z"/>
	<path class="st15" d="M2443,1121.9c9.4,3.2,17.9,4.9,25.2,5.8c-0.4-2.4-2.2-10.6-9.3-12.3C2451.9,1113.7,2445.2,1116.7,2443,1121.9
		z"/>
	<path class="st22" d="M2477,1119.4c0,0-26.4-2.3-42.5-10.1c-0.7-0.3-1.4-0.6-2.1-0.8l-3.6,7.7c19.9,9.5,37.1,12,49.1,12.3
		C2477.9,1128.4,2477,1125.5,2477,1119.4z"/>
	<g>
		<g>
			<path class="st5" d="M2429.7,1119.7c-0.8,0.2-1.7,0.2-2.6-0.2c-1.9-0.9-2.7-3.1-1.8-5l9.7-20.3c0.9-1.9,3.1-2.7,5-1.8
				c1.9,0.9,2.7,3.1,1.8,5l-9.7,20.3C2431.6,1118.8,2430.7,1119.5,2429.7,1119.7z"/>
		</g>
	</g>
	<path class="st22" d="M2551.6,1184c-1.8-1-15.7-15.7-16.5-17.2c-0.8-1.5-2.1-0.7-4.1,1.1c-2,1.8-12.3,5.5-15.1,4
		c-2.8-1.5-3.1-0.5-3.3,0c-0.2,0.6-6,25.3-6,25.3s2.4-0.1,5.9-0.1c1.1-7.7,2.8-15.3,4.4-21.1c2.6-0.3,5.3-0.8,8.2-1.6
		c3.3-0.9,6.2-1.9,8.8-3c4.5,4.5,10.2,10.7,15.1,17.3C2550.9,1186.4,2552.3,1184.4,2551.6,1184z"/>
	<g>
		<path class="st15" d="M2486.8,1193.7c-0.2,1.6-0.9,12.6-0.9,12.6s-13.5-7.8-24.8-1.3c-11.2,6.5-8.8,21.9-8.8,21.9l58.5,6.2
			l1.9-37.6L2486.8,1193.7z"/>
	</g>
	<g>
		<path class="st15" d="M2568.8,1172c0.9,1.3,6.9,10.5,6.9,10.5s7.9-13.4,20.9-13.4s18.5,14.7,18.5,14.7l-47.8,34.2l-20.2-31.8
			L2568.8,1172z"/>
	</g>
	<g>
		<path class="st30" d="M2567.3,1218l47.8-34.2c0,0-1.1-2.9-3.5-6.1l-48,34.6L2567.3,1218z"/>
	</g>
	<g>
		<path class="st30" d="M2452.4,1226.8l58.5,6.2l0.4-7.2l-58.6-7.5C2451.8,1222.9,2452.4,1226.8,2452.4,1226.8z"/>
	</g>
	<g>
		<path class="st5" d="M2548.1,1189.9c-1.5,0.4-3.2-0.2-4.1-1.6c-1.1-1.7-0.7-4.1,1.1-5.2l21.7-14.2c1.7-1.1,4.1-0.7,5.2,1.1
			c1.1,1.7,0.7,4.1-1.1,5.2l-21.7,14.2C2548.8,1189.6,2548.4,1189.8,2548.1,1189.9z"/>
	</g>
	<path class="st33" d="M2572,1172.4l-21.7,14.2c-0.3,0.2-0.7,0.4-1.1,0.5c-1.5,0.4-3.2-0.2-4.1-1.6c-0.4-0.6-0.6-1.3-0.6-2
		c-1.3,1.2-1.5,3.2-0.5,4.7c0.9,1.4,2.6,2,4.1,1.6c0.4-0.1,0.8-0.3,1.1-0.5l21.7-14.2c1.1-0.7,1.7-1.9,1.7-3.2
		C2572.3,1172.1,2572.2,1172.3,2572,1172.4z"/>
	<g>
		<path class="st5" d="M2513.6,1199c-0.4,0.1-0.8,0.1-1.2,0.1l-25.9-1.7c-2.1-0.1-3.6-1.9-3.5-4c0.1-2.1,1.9-3.6,4-3.5l25.9,1.7
			c2.1,0.1,3.6,1.9,3.5,4C2516.3,1197.3,2515.2,1198.6,2513.6,1199z"/>
	</g>
	<path class="st33" d="M2514.3,1192c0.3,0.6,0.5,1.3,0.4,2c-0.1,1.6-1.3,3-2.8,3.4c-0.4,0.1-0.8,0.1-1.2,0.1l-25.9-1.7
		c-0.5,0-0.9-0.2-1.3-0.4c0.6,1.1,1.7,1.9,3,2l25.9,1.7c0.4,0,0.8,0,1.2-0.1c1.5-0.4,2.7-1.7,2.8-3.4
		C2516.5,1194,2515.6,1192.6,2514.3,1192z"/>
	<path class="st30" d="M2577.5,1203.6l-6.1-5.1c-3-2.5-7.2-3-10.7-1.2l-4.9,2.5l1,1.6l4.7-2.5c2.8-1.5,6.2-1.1,8.7,0.9l6.1,5.1
		l4,3.7l1.6-1.1L2577.5,1203.6z"/>
	<path class="st30" d="M2507.3,1211.5c-3.9,0.1-7.4,2.6-8.8,6.3l-2.8,7.5l-1.8,5.9l1.9,0.2l1.7-5.5l2.8-7.5c1.1-3,3.9-5,7.1-5.1
		l4.5-0.2l0.1-1.9L2507.3,1211.5z"/>
</g>
<g>
	<g>
		
			<rect x="2867.7" y="2369.3" transform="matrix(0.7397 0.673 -0.673 0.7397 2422.5222 -1286.7155)" class="st4" width="13.3" height="237.1"/>
		
			<rect x="2882.2" y="2379.1" transform="matrix(0.7397 0.673 -0.673 0.7397 2431.9182 -1291.4093)" class="st4" width="6" height="237.1"/>
		
			<rect x="2860.6" y="2359.5" transform="matrix(0.7397 0.673 -0.673 0.7397 2413.1577 -1282.0253)" class="st4" width="6" height="237.1"/>
	</g>
	<g>
		<g>
			<path class="st5" d="M2950.1,2399c-1.4-3.1-2.9-6.1-4.7-8.9c-1.8-3-3.9-6.2-4.2-9.5l-7.3,6c-0.1,0.1-0.2,0.1-0.2,0.2
				c-1.9,2.1,4.6,11.2,14.5,20.2c0.9,0.8,1.8,1.6,2.7,2.4c0.5-1.1,0.9-2.3,1-3.5C2952,2403.5,2951.1,2401.2,2950.1,2399z"/>
			<path class="st6" d="M2969.6,2419.5c0.1-0.1,0.1-0.2,0.2-0.3l20.8-30.8l-28.1-25.6l-21.3,17.6c0.4,3.3,2.4,6.6,4.2,9.5
				c1.7,2.9,3.3,5.9,4.7,8.9c1,2.2,1.9,4.5,1.7,6.9c-0.1,1.2-0.4,2.4-1,3.5C2959.8,2417,2967.9,2421.4,2969.6,2419.5z"/>
		</g>
		<g>
			<path class="st7" d="M2989.5,2303.2c-12.7,15.6-26,30.6-42.3,42.2c-6.5,4.6-13.5,8.7-21.2,11c-5.3,1.6-11,2.3-16.5,1.7
				l-10.2,11.9l0,0c8.5,7.8,20.6,9.1,29.3,3.2l79.1-53.7L2989.5,2303.2z"/>
			<path class="st8" d="M2926,2356.4c7.7-2.3,14.7-6.4,21.2-11c16.3-11.6,29.6-26.7,42.3-42.2l-1.3-1.2c-9.5-8.7-23.6-8.2-31.4,0.9
				l-47.3,55.3C2915,2358.8,2920.7,2358.1,2926,2356.4z"/>
		</g>
		<g>
			<path class="st8" d="M3031.8,2393.7c8.2-7.7,16.4-15.4,24.5-23.2c-0.8-4.9-3.3-9.6-7.4-13.3l-19.5-17.7l-44.4,80.9
				c7-0.3,14-2.5,20.2-5.8C3015.2,2409.3,3023.6,2401.5,3031.8,2393.7z"/>
			<path class="st7" d="M3056.3,2370.5c-8.2,7.7-16.4,15.4-24.5,23.2c-8.2,7.7-16.6,15.6-26.5,20.9c-6.2,3.3-13.2,5.5-20.2,5.8
				l-1.6,2.9c-5,9.2-2.5,21.1,6,28.8l61.5-63.6C3055.7,2383.7,3057.5,2377,3056.3,2370.5z"/>
		</g>
		<path class="st9" d="M2984.8,2401.4c1.5,0.7,3,1.2,4.3,1.6C2987.8,2402.6,2986.3,2402.1,2984.8,2401.4z"/>
		<path class="st9" d="M2976.4,2396.6c1.2,0.8,2.3,1.5,3.5,2.2C2978.8,2398.1,2977.6,2397.4,2976.4,2396.6z"/>
		<path class="st9" d="M2979.9,2398.8c1.1,0.7,2.2,1.3,3.3,1.8C2982.2,2400.1,2981.1,2399.5,2979.9,2398.8z"/>
		<path class="st5" d="M2958.7,2381.2c-6.2-6.8-10.3-13.3-11.2-17.7l-4.6,6.2c-1.7,2.2,0.1,7.2,4.2,13.1c1.8-0.7,3.8-1.2,5.7-1.4
			C2954.8,2381.1,2956.7,2381.2,2958.7,2381.2z"/>
		<path class="st6" d="M2984.8,2401.4c-0.5-0.2-1-0.5-1.6-0.8c-1.1-0.5-2.2-1.1-3.3-1.8s-2.3-1.4-3.5-2.2c-3.6-2.4-7.3-5.3-11-8.7
			c-2.4-2.2-4.7-4.5-6.7-6.7c-2,0-3.9,0-5.9,0.2c-2,0.2-3.9,0.7-5.7,1.4c2.9,4,6.8,8.5,11.5,12.7c11.6,10.6,23.8,16.5,27.2,13.2
			l5.7-5.2c-0.8-0.1-1.6-0.3-2.5-0.5C2987.8,2402.6,2986.3,2402.1,2984.8,2401.4z"/>
		<path class="st10" d="M2966.7,2380.6c5.4-1.2,9.9-4.8,14.1-8.3c27.2-22.6,52.4-47.7,75.3-74.8c-1.6-1.3-3.2-2.6-4.7-4
			c-8.5-7.8-14.9-16.4-18.4-23.6c-19.1,12-35.1,26.6-47.1,42.6l-38.3,50.9c0.9,4.5,5.1,11,11.2,17.7
			C2961.4,2381.2,2964.1,2381.2,2966.7,2380.6z"/>
		<path class="st11" d="M3076.6,2309.6c-6.2-2.3-13.4-6.4-20.5-12c-22.8,27.1-48,52.1-75.3,74.8c-4.2,3.5-8.7,7.1-14.1,8.3
			c-2.6,0.6-5.3,0.6-8,0.6c2,2.2,4.3,4.5,6.7,6.7c3.7,3.4,7.4,6.3,11,8.7c1.2,0.8,2.3,1.5,3.5,2.2s2.2,1.3,3.3,1.8
			c0.5,0.3,1.1,0.5,1.6,0.8c1.5,0.7,3,1.2,4.3,1.6c0.9,0.2,1.7,0.4,2.5,0.5l47.1-42.9C3053.4,2347,3066.5,2329.7,3076.6,2309.6z"/>
		<path class="st5" d="M3056.1,2297.5c14.5-17.2,28.1-35.2,40.6-54c-23.5,5.4-45.1,14.6-63.7,26.3c3.5,7.2,9.9,15.8,18.4,23.6
			C3052.9,2294.9,3054.5,2296.3,3056.1,2297.5z"/>
		<path class="st6" d="M3076.6,2309.6c9.9-19.7,17.1-42.1,20.2-66.1l0,0h0c-0.1,0-0.1,0-0.2,0c-12.5,18.7-26.1,36.8-40.6,54
			C3063.2,2303.2,3070.4,2307.3,3076.6,2309.6z"/>
		<path class="st12" d="M3047.2,2329.2c-0.6-6.1-3.4-11.9-8.2-16.3c-10.5-9.5-26.7-8.8-36.2,1.7c-3.6,3.9-5.7,8.7-6.4,13.6
			c-1.2,8.1,1.6,16.7,8.1,22.7c10.5,9.5,26.7,8.8,36.2-1.7C3045.8,2343.4,3048,2336.2,3047.2,2329.2z"/>
		<g>
			<path class="st5" d="M3025.6,2335.6c8.8-1.4,16.7-6.5,22.6-13.2c-0.6-6.1-3.4-11.9-8.2-16.3c-10.5-9.5-26.7-8.8-36.2,1.7
				c-3.6,3.9-5.7,8.7-6.4,13.6c1,1.9,2,3.7,3.4,5.4C3006.4,2333.9,3016.4,2337,3025.6,2335.6z"/>
			<path class="st6" d="M3048.2,2322.4c-5.9,6.7-13.8,11.9-22.6,13.2c-9.1,1.4-19.2-1.7-24.9-8.9c-1.3-1.7-2.4-3.5-3.4-5.4
				c-1.2,8.1,1.6,16.7,8.1,22.7c10.5,9.5,26.7,8.8,36.2-1.7C3046.8,2336.7,3048.9,2329.4,3048.2,2322.4z"/>
		</g>
		<g>
			<path class="st13" d="M3039.4,2314.1l-33.4-0.1c-0.8,1.2-1.4,2.4-1.9,3.6l37.2,0.1C3040.8,2316.4,3040.2,2315.2,3039.4,2314.1z"
				/>
			<path class="st14" d="M3041.3,2317.7l-37.2-0.1c-0.7,1.7-1.1,3.5-1.3,5.3l39.8,0.1C3042.4,2321.2,3042,2319.4,3041.3,2317.7z"/>
			<path class="st14" d="M3036.1,2310.2c-8.2-7.4-20.8-6.8-28.3,1.3c-0.7,0.8-1.3,1.6-1.9,2.4l33.4,0.1
				C3038.5,2312.7,3037.4,2311.4,3036.1,2310.2z"/>
			<path class="st13" d="M3033.9,2341.6l-22.4-0.1C3018.2,2346.2,3027.1,2346.1,3033.9,2341.6z"/>
			<path class="st14" d="M3037.5,2338.5c1.5-1.7,2.7-3.5,3.5-5.5l-36.7-0.1c1.1,2.5,2.7,4.9,4.9,6.9c0.7,0.6,1.4,1.2,2.2,1.7
				l22.4,0.1C3035.2,2340.7,3036.4,2339.7,3037.5,2338.5z"/>
			<path class="st13" d="M3042.6,2323l-39.8-0.1c-0.4,3.4,0.1,6.9,1.5,10l36.7,0.1C3042.4,2329.8,3042.9,2326.4,3042.6,2323z"/>
		</g>
	</g>
</g>
<g>
	<path class="st18" d="M2580.7,1719c60.7-20.9,126.8,11.4,147.7,72.1c2.6,7.7,4.4,15.5,5.4,23.3c23.1,0,44.7,14.5,52.7,37.6
		c6.6,19.1,2.2,39.3-9.9,53.8c5.3,21.6,1.7,43.6-8.6,61.9c6.6,3.7,12,9.8,14.7,17.6c5.5,15.9-2.3,33.2-17.4,39.9
		c8.5,5.3,15.2,13.4,18.7,23.6c3.6,10.5,3.1,21.4-0.6,30.9c15.6,5.4,28.6,17.7,34.3,34.5c7.8,22.6,0.2,46.8-17.3,61.2
		c11.4,8.4,20.5,20.2,25.4,34.6c5.9,17.1,5,34.9-1.3,50.5c11.6,1.6,22,9.5,26.1,21.4c4.9,14.2-0.8,29.5-12.8,37.4
		c12.1,6.4,21.8,17.2,26.6,31.1c3.1,9.1,3.8,18.5,2.3,27.4c19.3,3.4,36.2,16.9,43.1,36.8c2.3,6.7,3.3,13.6,3,20.3
		c26.5,7.3,50,23.8,65.8,47.2c3.4-3,7.4-5.4,12-6.9c15-5.2,31,0,40.3,11.8c6.3-12.5,17.3-22.6,31.6-27.5
		c19.3-6.6,39.7-2.1,54.2,10.3c-2.4-15.1,6.3-30.3,21.3-35.4c11.6-4,23.9-1,32.3,6.8c3.7-7.2,10-13,18.2-15.8
		c16.8-5.8,35.2,3.2,41,20c1.2,3.5,1.7,7.1,1.7,10.7c5.4-4.7,11.7-8.4,18.8-10.9c25.3-8.7,52.6,1.6,66.2,23.3c1.9-1,3.8-1.8,5.9-2.5
		c23.5-8.1,49.2,4.4,57.3,28s-4.4,49.2-28,57.3c-5,1.7-10.1,2.5-15.1,2.5l-7,142.3l-556.7,67.4l-302-910.1l33.4-3.7
		C2494.2,1793.7,2525.8,1737.9,2580.7,1719z"/>
	<path class="st19" d="M2592.5,1644.9c26.6-7.2,54,8.6,61.2,35.2c2.9,10.9,2,21.8-1.8,31.5c18.2,12.6,32.2,31.5,38.4,54.6
		c8.4,31.2,0.7,62.9-18,86.3c15,12.4,26.5,29.4,31.9,49.6c0.9,3.3,1.6,6.7,2.1,10c13.7-1.3,26.8,7.3,30.5,21.1
		c2.6,9.8-0.1,19.7-6.4,26.7c10.8,6.4,19.2,16.9,22.8,29.9c3.1,11.4,1.9,23-2.5,33.1c8.9,6.5,15.7,15.9,18.8,27.4
		c6.9,25.4-7.2,51.6-31.7,60.1c0.8,0.9,1.5,1.9,2.2,2.9c7.6,10.5,10.5,23,9.1,34.9c16.9-2.1,33.2,8.4,37.7,25.3
		c2.5,9.2,1,18.6-3.4,26.3c8.3,6.4,14.7,15.5,17.6,26.5c5.5,20.4-2.5,41.2-18.4,53.1c5.2,6.1,9.1,13.4,11.4,21.7
		c1.7,6.4,2.3,12.9,1.8,19.1c33.4,2.7,63.1,25.9,72.3,60.1c3.4,12.5,3.6,25.1,1.3,37c13.6-2,26.8,6.4,30.4,20
		c0.4,1.4,0.6,2.9,0.8,4.3c12.9,3,23.7,12.8,27.4,26.4c0.8,2.9,1.2,5.9,1.2,8.8c17.2-2.1,34,5,44.6,18c13.4-8.7,29.6-10.2,43.8-5.3
		c2.5-4.4,6.8-7.9,12.1-9.3c9-2.4,18.1,1.7,22.5,9.4c4.5-6.8,11.3-12,19.8-14.3c12.3-3.3,24.9,0.5,33.4,8.9
		c6.5-8.9,15.9-15.7,27.3-18.8c19-5.1,38.3,1.4,50.5,15.2c3.7-5.3,9.2-9.3,16-11.1c15.3-4.1,31.1,4.9,35.2,20.2
		c0.2,0.6,0.3,1.2,0.4,1.8c4.1-2.4,8.6-4.3,13.4-5.6c23.1-6.2,46.8,2.9,60.1,21.2c5.2-2.5,10.7-4.5,16.5-6.1
		c51.9-14,105.4,16.7,119.4,68.7s-16.7,105.4-68.7,119.4s-105.4-16.7-119.4-68.7c-1.4-5-2.3-10.1-2.8-15.1L2917,2711.7l-287.5-182.6
		l-165.4-790.4l91.7-40.3C2553.3,1674.4,2568.4,1651.4,2592.5,1644.9z"/>
	<path class="st20" d="M2568.7,1886.6c52-19.1,109.6,7.5,128.7,59.5c2.4,6.6,4.1,13.3,5.1,20c19.9-0.4,38.8,11.7,46.1,31.5
		c6,16.4,2.6,33.9-7.5,46.6c4.9,18.5,2.3,37.6-6.3,53.5c5.8,3.1,10.5,8.2,13,14.9c5,13.6-1.4,28.7-14.3,34.7
		c7.4,4.4,13.4,11.3,16.6,20c3.3,9,3.1,18.4,0,26.7c13.5,4.4,25,14.7,30.2,29.1c7.1,19.4,1,40.4-13.8,53.1c10,7,18,17,22.5,29.4
		c5.4,14.6,4.9,30-0.2,43.5c10.1,1.2,19.1,7.8,22.9,18c4.5,12.2-0.1,25.5-10.4,32.5c10.5,5.3,19.1,14.4,23.5,26.3
		c2.9,7.8,3.6,15.9,2.4,23.6c16.7,2.6,31.6,13.9,37.8,30.9c2.1,5.8,3.1,11.7,2.9,17.5c23,5.8,43.6,19.6,57.6,39.5
		c2.9-2.6,6.3-4.8,10.2-6.2c12.8-4.7,26.7-0.5,35,9.4c5.2-10.9,14.5-19.8,26.7-24.3c16.5-6.1,34.2-2.5,46.9,7.9
		c-2.3-13,4.9-26.2,17.8-30.9c9.9-3.6,20.6-1.3,28,5.2c3-6.2,8.4-11.4,15.4-14c14.4-5.3,30.4,2.1,35.7,16.5c1.1,3,1.6,6.1,1.7,9.2
		c4.5-4.1,9.9-7.5,16-9.7c21.7-8,45.4,0.4,57.5,18.9c1.6-0.9,3.3-1.6,5-2.3c20.2-7.4,42.5,2.9,49.9,23.1s-2.9,42.5-23.1,49.9
		c-4.3,1.6-8.6,2.3-12.9,2.4l-3.4,122.8l-478.9,68.2L2476.2,2004l28.7-3.8C2495.5,1952.6,2521.8,1903.9,2568.7,1886.6z"/>
	<path class="st34" d="M2572.5,1919.9c21.5-8.2,45.6,2.7,53.7,24.2c3.3,8.8,3.5,18,1.1,26.4c16.1,9,29.3,23.5,36.4,42.2
		c9.5,25.2,5.7,52.2-7.9,73.1c13.5,9.1,24.4,22.3,30.6,38.6c1,2.7,1.9,5.4,2.6,8.1c11.3-2.2,22.8,3.9,27,15c3,7.9,1.5,16.4-3.1,22.7
		c9.5,4.4,17.4,12.4,21.4,23c3.5,9.3,3.5,19,0.6,27.7c7.9,4.6,14.4,11.9,17.9,21.2c7.8,20.6-1.8,43.4-21.4,52.6
		c0.7,0.7,1.4,1.4,2.1,2.2c7.2,8.1,10.6,18.2,10.4,28.3c13.8-3.2,28.2,4.3,33.4,17.9c2.8,7.5,2.4,15.3-0.7,22.1
		c7.4,4.7,13.5,11.7,16.8,20.5c6.2,16.5,1.3,34.4-11,45.6c4.8,4.7,8.7,10.4,11.2,17.1c2,5.2,2.9,10.5,3,15.8c28-0.5,54.5,16.3,65,44
		c3.8,10.1,5.1,20.5,4.1,30.6c11.1-2.8,22.8,3.1,26.9,14.1c0.4,1.2,0.7,2.3,1,3.5c10.9,1.4,20.8,8.7,24.9,19.7
		c0.9,2.4,1.4,4.8,1.7,7.2c14.1-3.1,28.6,1.4,38.5,11.3c10.4-8.4,23.8-10.9,36-8c1.8-3.9,5-7.1,9.3-8.7c7.3-2.7,15.2-0.1,19.5,6
		c3.2-6,8.4-10.9,15.3-13.5c10-3.8,20.7-1.6,28.4,4.6c4.6-7.9,11.9-14.4,21.2-17.9c15.3-5.8,31.9-2,43.2,8.5
		c2.7-4.7,6.9-8.5,12.3-10.5c12.4-4.7,26.2,1.5,30.9,13.9c0.2,0.5,0.3,1,0.5,1.5c3.2-2.3,6.8-4.3,10.7-5.7
		c18.7-7.1,39.1-1.4,51.6,12.7c4.1-2.5,8.5-4.6,13.2-6.4c42-15.9,88.9,5.3,104.8,47.3s-5.3,88.9-47.3,104.8
		c-42,15.9-88.9-5.3-104.8-47.3c-1.5-4.1-2.7-8.2-3.6-12.3l-270.5,116l-253.8-128.1l-202.2-643l72.8-41
		C2542.3,1947.6,2553,1927.3,2572.5,1919.9z"/>
	
		<rect x="2462.3" y="1645" transform="matrix(-0.2253 -0.9743 0.9743 -0.2253 1784.2845 5458.7051)" class="st9" width="1200" height="750"/>
</g>
<g>
	<path class="st18" d="M3871.3,2602.5c-6.7-63.8,39.7-121,103.5-127.7c8.1-0.8,16.1-0.8,23.9,0c5.2-22.5,24.2-40.3,48.5-42.8
		c20.1-2.1,38.8,6.8,50.2,21.7c22.2-0.3,42.8,8.1,58.3,22.3c5.1-5.6,12.2-9.5,20.4-10.3c16.8-1.8,31.9,9.7,35,25.9
		c7.1-7.1,16.5-11.8,27.2-13c11-1.2,21.5,1.8,30,7.5c8.8-13.9,23.7-23.8,41.3-25.7c23.8-2.5,45.6,10.4,55.7,30.6
		c10.7-9.2,24.3-15.4,39.4-17c18-1.9,35.1,3,48.9,12.7c4.2-11,14.2-19.3,26.7-20.6c15-1.6,28.6,7.4,33.5,20.9
		c8.9-10.3,21.7-17.4,36.3-18.9c9.6-1,18.9,0.5,27.2,4c7.7-18.1,24.6-31.5,45.5-33.7c7.1-0.7,14-0.1,20.5,1.7
		c13-24.2,34.5-43.4,60.8-53.4c-2.1-4-3.5-8.5-4-13.2c-1.6-15.7,7-30.2,20.5-36.6c-10.7-9-18.1-21.9-19.7-37
		c-2.1-20.3,6.9-39.2,22.2-50.5c-15.3-1.1-28.1-13-29.7-28.8c-1.3-12.2,4.4-23.5,13.9-30c-6.2-5.2-10.4-12.6-11.3-21.3
		c-1.9-17.7,11-33.6,28.7-35.4c3.7-0.4,7.3-0.1,10.8,0.7c-3.4-6.3-5.6-13.3-6.4-20.8c-2.8-26.6,13.4-50.9,37.6-59.3
		c-0.5-2-0.9-4.1-1.1-6.3c-2.6-24.8,15.4-46.9,40.1-49.5c24.8-2.6,46.9,15.4,49.5,40.1c0.5,5.2,0.2,10.4-1,15.2l137.1,38.8
		l-59.7,557.6l-954.7,89.2l3.9-33.4C3924.6,2703.5,3877.3,2660.1,3871.3,2602.5z"/>
	<path class="st19" d="M3801.7,2574.3c-1-27.6,20.5-50.7,48.1-51.7c11.2-0.4,21.7,2.9,30.3,8.9c16.4-14.9,38-24.3,61.8-25.1
		c32.2-1.2,61.4,13.5,80,37c15.5-11.8,34.6-19.2,55.6-19.9c3.4-0.1,6.8-0.1,10.2,0.2c1.8-13.7,13.2-24.4,27.4-24.9
		c10.1-0.4,19.2,4.6,24.6,12.3c8.7-9.1,20.8-14.9,34.3-15.4c11.9-0.4,22.9,3.3,31.7,9.9c8.3-7.2,19-11.7,30.9-12.2
		c26.3-1,48.6,18.7,51.4,44.5c1.1-0.5,2.2-1.1,3.3-1.5c12-5,24.8-5,36.1-1c1.7-16.9,15.7-30.4,33.1-31.1c9.5-0.3,18.3,3.2,24.8,9.2
		c8.1-6.7,18.4-10.8,29.8-11.2c21.1-0.8,39.6,11.7,47.6,29.9c7.1-3.7,15.1-5.9,23.7-6.2c6.6-0.2,13.1,0.7,19,2.6
		c10.1-32,39.4-55.6,74.9-56.9c12.9-0.5,25.2,2.1,36.3,7.1c1.1-13.7,12.3-24.6,26.3-25.1c1.5-0.1,2.9,0,4.4,0.2
		c5.8-11.9,17.8-20.2,31.9-20.7c3-0.1,6,0.2,8.8,0.8c1.8-17.2,12.5-32,27.5-39.4c-5.5-15-3.3-31.2,4.8-43.9
		c-3.7-3.5-6.2-8.4-6.4-13.9c-0.3-9.3,5.7-17.3,14.2-19.8c-5.6-5.9-9.2-13.8-9.5-22.5c-0.5-12.8,6.1-24.1,16.1-30.5
		c-7.2-8.3-11.7-19-12.2-30.9c-0.7-19.6,10-37,26.2-45.7c-4.3-4.8-7-11.1-7.2-18c-0.6-15.8,11.8-29.2,27.7-29.7c0.6,0,1.3,0,1.9,0
		c-1.4-4.6-2.2-9.4-2.4-14.4c-0.9-23.9,13.4-44.9,34.2-53.7c-1.2-5.6-2-11.4-2.2-17.4c-1.9-53.8,40.1-98.9,93.8-100.9
		c53.8-1.9,98.9,40.1,100.9,93.8c1.9,53.8-40.1,98.9-93.8,100.9c-5.2,0.2-10.3,0-15.3-0.6l28,351.5l-242.7,239l-807.3-17l-18.6-98.4
		C3821.6,2619.1,3802.6,2599.2,3801.7,2574.3z"/>
	<path class="st20" d="M4031.9,2651.9c-6.9-54.9,32-105.1,86.9-112c7-0.9,13.9-1,20.6-0.5c4.1-19.5,20.1-35.2,41-37.8
		c17.3-2.2,33.6,5.1,43.7,17.8c19.1-0.6,37.1,6.2,50.7,18.2c4.3-4.9,10.4-8.4,17.4-9.3c14.4-1.8,27.6,7.8,30.6,21.7
		c6-6.2,14-10.5,23.2-11.7c9.5-1.2,18.6,1.1,26,6c7.3-12.2,20-21,35.2-22.9c20.5-2.6,39.5,8.1,48.6,25.4
		c9.1-8.1,20.7-13.7,33.7-15.3c15.5-1.9,30.3,2,42.4,10c3.4-9.5,11.9-16.9,22.7-18.2c12.9-1.6,24.8,5.9,29.3,17.4
		c7.5-9.1,18.4-15.4,31-17c8.3-1,16.3,0.1,23.5,2.9c6.3-15.7,20.7-27.6,38.6-29.9c6.1-0.8,12.1-0.3,17.7,1.1
		c10.8-21.1,28.9-38,51.5-47.2c-1.9-3.4-3.2-7.2-3.7-11.4c-1.7-13.6,5.5-26.1,17.1-32c-9.4-7.5-16-18.6-17.7-31.5
		c-2.2-17.5,5.3-33.9,18.2-44c-13.2-0.7-24.4-10.7-26.1-24.3c-1.3-10.5,3.4-20.3,11.4-26.1c-5.4-4.4-9.2-10.7-10.1-18.1
		c-1.9-15.2,8.9-29.1,24.1-31c3.2-0.4,6.3-0.2,9.3,0.4c-3-5.4-5.1-11.4-5.9-17.8c-2.9-22.9,10.6-44.1,31.4-51.8
		c-0.5-1.8-0.8-3.6-1.1-5.4c-2.7-21.3,12.4-40.7,33.7-43.4c21.3-2.7,40.7,12.4,43.4,33.7c0.6,4.5,0.3,8.9-0.6,13.1l118.9,31
		l-41.4,481.9l-821.7,94.2l2.8-28.8C4079.7,2738.1,4038.1,2701.5,4031.9,2651.9z"/>
	<path class="st34" d="M4065.1,2655.7c-3.1-22.8,12.9-43.8,35.7-46.9c9.3-1.3,18.3,0.7,25.9,4.9c12.4-13.7,29.5-23.3,49.3-25.9
		c26.7-3.6,52.1,6.2,69.5,24.2c11.9-11.1,27.2-18.8,44.5-21.1c2.8-0.4,5.7-0.6,8.5-0.7c0.4-11.5,8.9-21.4,20.7-23
		c8.4-1.1,16.3,2.2,21.4,8.2c6.5-8.3,16-14.1,27.2-15.6c9.8-1.3,19.3,0.9,27.1,5.6c6.3-6.7,14.9-11.3,24.7-12.6
		c21.8-3,41.9,11.5,46.4,32.7c0.8-0.5,1.7-1.1,2.6-1.6c9.5-5.2,20.1-6.2,29.9-3.8c0-14.2,10.5-26.6,25-28.5
		c7.9-1.1,15.5,1.2,21.4,5.6c6.2-6.2,14.4-10.5,23.8-11.8c17.5-2.4,33.9,6.5,42,20.9c5.6-3.6,12.1-6.1,19.2-7.1
		c5.5-0.7,10.9-0.5,16,0.6c5.8-27.4,28.2-49.4,57.5-53.4c10.7-1.4,21.1-0.3,30.7,2.9c-0.2-11.4,8.2-21.5,19.8-23
		c1.2-0.2,2.4-0.2,3.6-0.2c3.8-10.3,13.1-18.3,24.8-19.9c2.5-0.3,5-0.3,7.4-0.1c0.1-14.5,7.8-27.6,19.6-35
		c-5.8-12-5.3-25.6,0.4-36.8c-3.4-2.6-5.8-6.5-6.4-11c-1-7.7,3.3-14.8,10.2-17.6c-5.1-4.4-8.7-10.7-9.7-17.9
		c-1.4-10.6,3.1-20.6,10.9-26.7c-6.7-6.3-11.3-14.8-12.6-24.7c-2.2-16.2,5.3-31.6,18-40.1c-4-3.6-6.7-8.6-7.5-14.4
		c-1.8-13.1,7.4-25.2,20.5-27c0.5-0.1,1-0.1,1.6-0.1c-1.5-3.7-2.6-7.6-3.2-11.7c-2.7-19.8,7.4-38.4,24-47.5
		c-1.5-4.6-2.6-9.3-3.3-14.3c-6-44.5,25.2-85.5,69.7-91.5c44.5-6,85.5,25.2,91.5,69.7c6,44.5-25.2,85.5-69.7,91.5
		c-4.3,0.6-8.6,0.8-12.8,0.7l52.1,289.7l-182,218.4l-672,52.1l-23.5-80.2C4085.3,2691.4,4067.9,2676.3,4065.1,2655.7z"/>
	<rect x="3673" y="1826" transform="matrix(-1 -4.489754e-11 4.489754e-11 -1 8546 4402)" class="st9" width="1200" height="750"/>
</g>
<g>
	<g>
		<path class="st15" d="M4436.4,2348.8c0,0-4.6-9.1-8.3-13c-3.7-3.9-7.4,3.1-5.7,6.6c0,0-5-4.8-8.9-6c-13.8-4-22.4,17.1-5.5,25
			c13,5.6,18.7,7.6,18.7,7.6L4436.4,2348.8z"/>
	</g>
	<path class="st21" d="M4433.7,2354.6c-0.5-3.7-1-6.6-1-6.6s-9.8,13.5-12,13c-11-1.7-19.5-10.1-22-12.8c-0.1,4.9,2.6,10.2,9.3,13.4
		c13,5.6,18.7,7.6,18.7,7.6L4433.7,2354.6z"/>
	<g>
		<path class="st15" d="M4568.4,2382.7c0,0,2,10.5,4.3,15.4c2.3,4.9,8-0.6,7.5-4.4c0,0,2.5,5.7,5.8,8c11.8,8.2,26.7-9,13.2-21.9
			c-10.5-9.5-15.3-13.3-15.3-13.3L4568.4,2382.7z"/>
	</g>
	<path class="st21" d="M4572.8,2398.1c2,4.3,6.7,0.6,7.4-3c-0.8,1.2-2.6,1.4-4.2-0.2c-1.5-1.6-1.6-13.8-1.6-13.8
		c-0.3-0.7-2.9,0-5.2,0.8l-0.7,0.7C4568.4,2382.7,4570.5,2393.2,4572.8,2398.1z"/>
	<g>
		<path class="st15" d="M4433.3,2298.6c0,0-10.3-1.1-12.9,5.5s5.7,36.7,12.8,37.3c4.8,0.1,10.7-2.8,10.7-2.8L4433.3,2298.6z"/>
	</g>
	<g>
		<path class="st15" d="M4537.5,2271.1c0,0,8.4-6,14-1.6c5.6,4.4,13.2,34.7,7.3,38.7c-4.1,2.5-10.7,2.8-10.7,2.8L4537.5,2271.1z"/>
	</g>
	<path class="st21" d="M4553.9,2300.6c-0.2-12.5-8.2-26.7-11.5-32c-2.8,1-4.9,2.5-4.9,2.5l10.6,40c0,0,6.6-0.3,10.7-2.8
		c1.4-1,2.1-3.4,2.1-6.7C4557.5,2302.5,4554.1,2302.8,4553.9,2300.6z"/>
	<path class="st21" d="M4433.6,2332.4c-6-11-6-27.3-5.8-33.5c2.9-0.6,5.5-0.3,5.5-0.3l10.6,40c0,0-5.9,2.9-10.7,2.8
		c-1.7-0.1-3.5-2-5.2-4.8C4431.3,2335.8,4434.5,2334.4,4433.6,2332.4z"/>
	<g>
		<path class="st22" d="M4487.7,2300.9L4487.7,2300.9c-30,7.9-47.9,38.6-39.9,68.6l13,49.1c3.2,12,15.5,19.2,27.6,16l64.9-17.2
			c12-3.2,19.2-15.5,16-27.6l-13-49.1C4548.4,2310.8,4517.7,2293,4487.7,2300.9z"/>
		<g>
			<path class="st23" d="M4556.6,2342c-17.4,14.5-24.8,37.7-19,59.5l5,18.8l10.6-2.8c12-3.2,19.2-15.5,16-27.6L4556.6,2342
				L4556.6,2342z"/>
			<path class="st23" d="M4448.1,2370.7L4448.1,2370.7l12.7,47.9c3.2,12,15.5,19.2,27.6,16l10.6-2.8l-5-18.8
				C4488.2,2391.2,4470.3,2374.7,4448.1,2370.7z"/>
		</g>
		<path class="st24" d="M4529.7,2306.3c6.9,6.8,12.2,15.5,14.8,25.6l13,49.1c3.2,12-4,24.4-16,27.6l-64.9,17.2
			c-4.4,1.1-8.7,0.9-12.7-0.4c5.2,7.8,14.9,11.8,24.5,9.2l64.9-17.2c12-3.2,19.2-15.5,16-27.6l-13-49.1
			C4552.3,2325.6,4542.4,2313.5,4529.7,2306.3z"/>
	</g>
	<g>
		<path class="st10" d="M4568.4,2382.7l15.5-16.2c-19.7-18.8-37.2-23.1-49.4-22.8c-0.3-0.9-0.5-1.4-0.5-1.4s-8.8-9.3-34.3-2.6
			c-24.2,6.4-28.2,17.9-28.5,19.1c-8.9-0.7-21-3.2-35-9.9l-9.7,20.3c19.9,9.5,37.1,12,49.1,12.3c1.8,8.6,3.9,18.1,5.8,25.1
			c1.7,6.3,4.4,11.7,8.5,15.7c-2.6,9.9-5.9,25.6-5.9,40.8l25.2-0.1c0-11.5,2.9-24.8,5.4-33.9c2.6-0.3,5.3-0.8,8.2-1.6
			c3.3-0.9,6.2-1.9,8.8-3c6.7,6.7,15.8,16.9,21.5,26.9l22-12.4c-7.7-13.8-18.8-26.1-26-33.3c1.3-5.2,0.9-10.9-0.6-16.9
			c-1.7-6.2-4.1-14.3-6.5-21.9C4549,2368.4,4558,2372.7,4568.4,2382.7z"/>
	</g>
	<g>
		<path class="st10" d="M4545.8,2280.4c-19.9-47.2-70-31.7-70-31.7s-51.3,11.3-45.2,62.2c6.1,50.9,52.5,48,72.9,42.6
			S4565.7,2327.6,4545.8,2280.4z"/>
	</g>
	<path class="st22" d="M4545.8,2280.4c-5-11.9-11.9-19.8-19.4-25c5.8,5.1,11.1,12,15.1,21.5c19.9,47.2-22,67.7-42.3,73.1
		c-12.9,3.4-36.2,5.8-53.2-5.8c17.1,15.4,43.5,12.9,57.5,9.2C4523.9,2348,4565.7,2327.6,4545.8,2280.4z"/>
	<g>
		<g>
			<path class="st15" d="M4519.1,2412.4c-21.9,5.8-36.2,3.2-36.8,3.1c-3-0.6-5.1-3.5-4.5-6.6c0.6-3,3.5-5,6.5-4.5
				c0.3,0,12.7,2.1,31.8-2.9c19.1-5.1,28.4-12.9,28.5-13c2.3-2,5.9-1.8,7.9,0.6c2,2.3,1.8,5.9-0.5,7.9
				C4551.6,2397.4,4541,2406.6,4519.1,2412.4z"/>
		</g>
	</g>
	<path class="st21" d="M4551.3,2394c-0.4,0.4-11.1,9.6-33,15.4c-21.9,5.8-36.2,3.2-36.8,3.1c-1.6-0.3-3-1.3-3.8-2.7
		c-0.1,2.7,1.8,5.1,4.6,5.7c0.6,0.1,14.9,2.7,36.8-3.1c21.9-5.8,32.6-15,33-15.4c2.1-1.8,2.5-4.8,1.1-7.1
		C4553.1,2391.4,4552.5,2392.9,4551.3,2394z"/>
	<g class="st25">
		<g>
			<path class="st26" d="M4505.4,2360.9c-19,5-34,1.8-34.9,1.6c-2-0.5-3.3-2.5-2.8-4.5c0.5-2,2.5-3.3,4.5-2.8
				c0.5,0.1,31.6,6.7,59.6-15.9c1.6-1.3,4-1,5.3,0.6c1.3,1.6,1,4-0.6,5.3C4526,2353.6,4515.2,2358.3,4505.4,2360.9z"/>
		</g>
	</g>
	<path class="st15" d="M4470.8,2359.1c0.5,0.1,33.7,6.1,64.1-17c0.8-0.6,1.8-0.9,2.8-0.9c-0.1-0.5-0.4-0.9-0.7-1.3
		c-1.3-1.6-3.7-1.9-5.3-0.6c-28,22.5-59.1,16-59.6,15.9c-2-0.5-4,0.8-4.5,2.8c-0.1,0.6-0.1,1.1,0,1.7
		C4468.6,2359.1,4469.7,2358.8,4470.8,2359.1z"/>
	<g>
		<g>
			<path class="st27" d="M4517.6,2360l-7.2,2.7c-2.7,1-5.5,1.8-8.3,2.2l-8.2,1.3c-2,0.3-3.4,2.3-2.8,4.3l3.2,11.9
				c0.5,1.7,2.1,2.8,3.9,2.6l8.6-1.3c2.8-0.4,5.6-1.2,8.3-2.2l8.1-3.1c1.7-0.6,2.6-2.4,2.1-4.1l-3.1-11.9
				C4521.6,2360.3,4519.5,2359.2,4517.6,2360z"/>
		</g>
		<g>
			<path class="st28" d="M4499.9,2371.2c0.4,1.5-0.5,3-2,3.4s-3-0.5-3.4-2c-0.4-1.5,0.5-3,2-3.4S4499.5,2369.8,4499.9,2371.2z"/>
		</g>
		<g>
			<path class="st28" d="M4501.8,2378.6c0.4,1.5-0.5,3-2,3.4c-1.5,0.4-3-0.5-3.4-2c-0.4-1.5,0.5-3,2-3.4
				S4501.4,2377.1,4501.8,2378.6z"/>
		</g>
		<g>
			<g>
				<path class="st29" d="M4510.5,2371.1c-3.8,1-6.5,1.3-6.7,1.3c-0.9,0.1-1.7-0.6-1.8-1.5c-0.1-0.9,0.6-1.7,1.5-1.8
					c0.1,0,7.7-0.8,14.5-4.3c0.8-0.4,1.8-0.1,2.2,0.7c0.4,0.8,0.1,1.8-0.7,2.2C4516.4,2369.3,4513.2,2370.4,4510.5,2371.1z"/>
			</g>
		</g>
		<g>
			<g>
				<path class="st29" d="M4512.4,2378c-3.8,1-6.5,1.3-6.7,1.3c-0.9,0.1-1.7-0.6-1.8-1.5c-0.1-0.9,0.6-1.7,1.5-1.8
					c0.1,0,7.7-0.8,14.5-4.3c0.8-0.4,1.8-0.1,2.2,0.7c0.4,0.8,0.1,1.8-0.7,2.2C4518.3,2376.2,4515.1,2377.3,4512.4,2378z"/>
			</g>
		</g>
	</g>
	<path class="st15" d="M4532.8,2384.1l-3.3-2.6c-0.6-0.5-1.5-0.6-2.2-0.3l-3.9,1.5c-0.7,0.3-1.3,1-1.4,1.8l-0.6,4.1
		c-0.1,0.8,0.2,1.6,0.8,2.1l3.3,2.6c0.6,0.5,1.5,0.6,2.2,0.3l3.9-1.5c0.7-0.3,1.3-1,1.4-1.8l0.6-4.1
		C4533.7,2385.4,4533.4,2384.6,4532.8,2384.1z"/>
	<path class="st15" d="M4493.2,2394.6l1.6-3.8c0.3-0.7,1-1.3,1.8-1.4l4.1-0.6c0.8-0.1,1.6,0.2,2.1,0.8l2.6,3.3
		c0.5,0.6,0.6,1.5,0.3,2.2l-1.6,3.8c-0.3,0.7-1,1.3-1.8,1.4l-4.1,0.6c-0.8,0.1-1.6-0.2-2.1-0.8l-2.6-3.3
		C4493,2396.2,4492.9,2395.3,4493.2,2394.6z"/>
	<g>
		<g>
			<path class="st30" d="M4538.2,2289.9c-15.2-34.2-57.2-21.4-57.2-21.4s-42.8,9.7-39.1,46.9c3.7,37.2,42.2,33.8,59.3,29.4
				C4518.2,2340.2,4553.4,2324.1,4538.2,2289.9z"/>
		</g>
		<path class="st31" d="M4538.2,2289.9c-4-9.1-9.9-14.8-16.4-18.4c3.4,3.3,6.4,7.5,8.8,12.8c15.2,34.2-20,50.3-37,54.8
			c-10.4,2.7-28.7,5-42.3-2c13.4,13.5,37.5,10.9,50,7.6C4518.2,2340.2,4553.4,2324.1,4538.2,2289.9z"/>
		<g>
			<path class="st32" d="M4481,2268.5c0,0-2.2,0.5-5.6,1.7c-1.3,14.6-6.2,41.9-23.5,67.7c4.7,4.5,10.7,7,16.9,8.4
				c20.8-32.1,24.9-65.4,25.7-79.9C4486.7,2266.8,4481,2268.5,4481,2268.5z"/>
			<path class="st32" d="M4509,2267.1c-0.9,14.7-5.7,49.4-29.1,80.3c4.2,0.1,8.4-0.3,12.2-0.8c20.1-29.8,25.1-61,26.2-76.7
				C4515.2,2268.5,4512.1,2267.6,4509,2267.1z"/>
		</g>
	</g>
	<g>
		<path class="st30" d="M4546.3,2411.8c-4.7,1.2-10.2-0.6-13.9-3.6c-5.8-4.7-8.8-13-7.7-21.2c0.2-1.5,1.6-2.6,3.2-2.4
			c1.5,0.2,2.6,1.6,2.4,3.2c-0.9,6.3,1.3,12.5,5.6,16c2.8,2.3,7.6,3.7,10.4,1.9c1.2-0.8,1.6-1.9,1.7-2.7c0.3-1.5-0.2-3.2-1.1-4.4
			c-0.6-0.8-1.7-1.6-2.8-2.4c-2.2-1.6-4.9-3.6-5.7-7.2c-0.5-2.3,0-4.7,1.4-6.7c1.5-2.1,3.8-3.5,6.4-3.9c1.5-0.2,3,0.9,3.2,2.4
			c0.2,1.5-0.9,3-2.4,3.2c-1,0.1-2,0.7-2.6,1.5c-0.3,0.5-0.7,1.3-0.5,2.3c0.3,1.4,1.5,2.4,3.5,3.8c1.4,1,2.8,2.1,3.9,3.5
			c1.9,2.5,2.7,5.7,2.2,8.8c-0.5,2.7-2,5-4.2,6.5C4548.4,2411,4547.4,2411.5,4546.3,2411.8z"/>
	</g>
	<g>
		<path class="st30" d="M4495.1,2425.3c-1.1,0.3-2.2,0.4-3.3,0.3c-2.7-0.2-5.1-1.4-6.9-3.6c-1.9-2.4-2.8-5.6-2.4-8.7
			c0.3-1.8,1-3.4,1.7-5c1-2.2,1.6-3.7,1.2-5c-0.3-1-1-1.5-1.6-1.8c-0.9-0.4-2-0.4-3-0.1c-1.4,0.6-3.1-0.1-3.7-1.6
			c-0.6-1.4,0.1-3.1,1.6-3.7c2.4-1,5.2-0.9,7.5,0.2c2.2,1,3.8,2.8,4.5,5.1c1.1,3.5-0.3,6.6-1.4,9.1c-0.6,1.3-1.1,2.5-1.3,3.5
			c-0.2,1.5,0.2,3.2,1.2,4.4c0.5,0.6,1.5,1.4,2.9,1.5c3.3,0.2,6.7-3.4,8.1-6.8c2-5.1,0.8-11.7-3-16.7c-0.9-1.2-0.7-3,0.5-3.9
			c1.2-0.9,3-0.7,3.9,0.5c5.1,6.5,6.5,15.3,3.8,22.2C4503.7,2419.7,4499.8,2424.1,4495.1,2425.3z"/>
	</g>
	<path class="st22" d="M4571.4,2374.2c0,0-15.9-16.2-32.6-16.9l3.5,9.5c6.8,1.6,15.8,5.8,26.2,15.8l2.6-2.7L4571.4,2374.2z"/>
	<g>
		<g>
			<path class="st5" d="M4569.4,2386.3c-1.2,0.3-2.6,0-3.5-0.9c-1.5-1.4-1.5-3.8-0.1-5.3l15.5-16.2c1.4-1.5,3.8-1.5,5.3-0.1
				c1.5,1.4,1.5,3.8,0.1,5.3l-15.5,16.2C4570.7,2385.8,4570,2386.1,4569.4,2386.3z"/>
		</g>
	</g>
	<path class="st21" d="M4604.5,2392.4c-12.1,14.9-24.3,1.3-24.3,1.3s2.5,5.7,5.8,8C4594.1,2407.2,4603.6,2401,4604.5,2392.4z"/>
	<path class="st15" d="M4569.1,2354.5c-8.5-5.5-16.3-8.4-23.1-9.8c0.1,3.3,1.1,10,6.8,12.6C4559.1,2360,4565.7,2358.7,4569.1,2354.5
		z"/>
	<path class="st15" d="M4441,2374.9c9.4,3.2,17.9,4.9,25.2,5.8c-0.4-2.4-2.2-10.6-9.3-12.3C4449.9,2366.7,4443.2,2369.7,4441,2374.9
		z"/>
	<path class="st22" d="M4475,2372.4c0,0-26.4-2.3-42.5-10.1c-0.7-0.3-1.4-0.6-2.1-0.8l-3.6,7.7c19.9,9.5,37.1,12,49.1,12.3
		C4475.9,2381.4,4475,2378.5,4475,2372.4z"/>
	<g>
		<g>
			<path class="st5" d="M4427.7,2372.7c-0.8,0.2-1.7,0.2-2.6-0.2c-1.9-0.9-2.7-3.1-1.8-5l9.7-20.3c0.9-1.9,3.1-2.7,5-1.8
				c1.9,0.9,2.7,3.1,1.8,5l-9.7,20.3C4429.6,2371.8,4428.7,2372.5,4427.7,2372.7z"/>
		</g>
	</g>
	<path class="st22" d="M4549.6,2437c-1.8-1-15.7-15.7-16.5-17.2c-0.8-1.5-2.1-0.7-4.1,1.1c-2,1.8-12.3,5.5-15.1,4
		c-2.8-1.5-3.1-0.5-3.3,0c-0.2,0.6-6,25.3-6,25.3s2.4-0.1,5.9-0.1c1.1-7.7,2.8-15.3,4.4-21.1c2.6-0.3,5.3-0.8,8.2-1.6
		c3.3-0.9,6.2-1.9,8.8-3c4.5,4.5,10.2,10.7,15.1,17.3C4548.9,2439.4,4550.3,2437.4,4549.6,2437z"/>
	<g>
		<path class="st15" d="M4484.8,2446.7c-0.2,1.6-0.9,12.6-0.9,12.6s-13.5-7.8-24.8-1.3c-11.2,6.5-8.8,21.9-8.8,21.9l58.5,6.2
			l1.9-37.6L4484.8,2446.7z"/>
	</g>
	<g>
		<path class="st15" d="M4566.8,2425c0.9,1.3,7,10.5,7,10.5s7.9-13.4,20.9-13.4c13,0.1,18.5,14.7,18.5,14.7l-47.8,34.2l-20.2-31.8
			L4566.8,2425z"/>
	</g>
	<g>
		<path class="st30" d="M4565.3,2471l47.8-34.2c0,0-1.1-2.9-3.5-6.1l-48,34.6L4565.3,2471z"/>
	</g>
	<g>
		<path class="st30" d="M4450.4,2479.8l58.5,6.2l0.4-7.2l-58.6-7.5C4449.8,2475.9,4450.4,2479.8,4450.4,2479.8z"/>
	</g>
	<g>
		<path class="st5" d="M4546.1,2442.9c-1.5,0.4-3.2-0.2-4.1-1.6c-1.1-1.7-0.7-4.1,1.1-5.2l21.7-14.2c1.7-1.1,4.1-0.7,5.2,1.1
			c1.1,1.7,0.7,4.1-1.1,5.2l-21.7,14.2C4546.8,2442.6,4546.4,2442.8,4546.1,2442.9z"/>
	</g>
	<path class="st33" d="M4570,2425.4l-21.7,14.2c-0.3,0.2-0.7,0.4-1.1,0.5c-1.5,0.4-3.2-0.2-4.1-1.6c-0.4-0.6-0.6-1.3-0.6-2
		c-1.3,1.2-1.5,3.2-0.5,4.7c0.9,1.4,2.6,2,4.1,1.6c0.4-0.1,0.8-0.3,1.1-0.5l21.7-14.2c1.1-0.7,1.7-1.9,1.7-3.2
		C4570.3,2425.1,4570.2,2425.3,4570,2425.4z"/>
	<g>
		<path class="st5" d="M4511.6,2452c-0.4,0.1-0.8,0.1-1.2,0.1l-25.9-1.7c-2.1-0.1-3.6-1.9-3.5-4c0.1-2.1,1.9-3.6,4-3.5l25.9,1.7
			c2.1,0.1,3.6,1.9,3.5,4C4514.3,2450.3,4513.2,2451.6,4511.6,2452z"/>
	</g>
	<path class="st33" d="M4512.3,2445c0.3,0.6,0.5,1.3,0.4,2c-0.1,1.6-1.3,3-2.8,3.4c-0.4,0.1-0.8,0.1-1.2,0.1l-25.9-1.7
		c-0.5,0-0.9-0.2-1.3-0.4c0.6,1.1,1.7,1.9,3,2l25.9,1.7c0.4,0,0.8,0,1.2-0.1c1.5-0.4,2.7-1.7,2.8-3.4
		C4514.5,2447,4513.6,2445.6,4512.3,2445z"/>
	<path class="st30" d="M4575.5,2456.6l-6.1-5.1c-3-2.5-7.2-3-10.7-1.2l-4.9,2.5l1,1.6l4.7-2.5c2.8-1.5,6.2-1.1,8.7,0.9l6.1,5.1
		l4,3.7l1.6-1.1L4575.5,2456.6z"/>
	<path class="st30" d="M4505.3,2464.5c-3.9,0.1-7.4,2.6-8.8,6.3l-2.8,7.5l-1.8,5.9l1.9,0.2l1.7-5.5l2.8-7.5c1.1-3,3.9-5,7.1-5.1
		l4.5-0.2l0.1-1.9L4505.3,2464.5z"/>
</g>
<g>
	<g>
		<path class="st15" d="M1779.8,1500.9c0,0-5.7-11.4-10.4-16.3c-4.6-4.9-9.3,3.9-7.1,8.2c0,0-6.3-6.1-11.2-7.5
			c-17.3-5-28.1,21.4-6.9,31.4c16.3,7.1,23.5,9.6,23.5,9.6L1779.8,1500.9z"/>
	</g>
	<path class="st21" d="M1776.4,1508.1c-0.7-4.7-1.2-8.3-1.2-8.3s-12.2,16.9-15,16.3c-13.8-2.1-24.5-12.7-27.6-16
		c-0.1,6.2,3.2,12.8,11.7,16.8c16.3,7.1,23.5,9.6,23.5,9.6L1776.4,1508.1z"/>
	<g>
		<path class="st15" d="M1945.3,1543.3c0,0,2.6,13.2,5.4,19.3c2.8,6.1,10-0.8,9.4-5.5c0,0,3.1,7.1,7.3,10
			c14.8,10.2,33.5-11.3,16.6-27.5c-13.2-11.9-19.2-16.6-19.2-16.6L1945.3,1543.3z"/>
	</g>
	<path class="st21" d="M1950.7,1562.6c2.5,5.4,8.3,0.7,9.3-3.7c-1,1.5-3.3,1.8-5.2-0.2c-1.9-2-2-17.3-2-17.3c-0.4-0.9-3.6,0-6.5,1
		l-0.9,0.9C1945.3,1543.3,1947.9,1556.5,1950.7,1562.6z"/>
	<g>
		<path class="st15" d="M1775.9,1438c0,0-12.9-1.4-16.2,6.9c-3.4,8.3,7.1,46.1,16.1,46.7c6.1,0.1,13.4-3.5,13.4-3.5L1775.9,1438z"/>
	</g>
	<g>
		<path class="st15" d="M1906.5,1403.5c0,0,10.5-7.6,17.5-2c7,5.6,16.6,43.5,9.1,48.6c-5.2,3.1-13.4,3.5-13.4,3.5L1906.5,1403.5z"/>
	</g>
	<path class="st21" d="M1927.1,1440.5c-0.3-15.7-10.3-33.5-14.4-40.1c-3.5,1.2-6.2,3.1-6.2,3.1l13.2,50.1c0,0,8.2-0.4,13.4-3.5
		c1.8-1.2,2.6-4.3,2.7-8.4C1931.6,1442.8,1927.3,1443.2,1927.1,1440.5z"/>
	<path class="st21" d="M1776.2,1480.3c-7.5-13.8-7.6-34.2-7.3-42c3.7-0.7,6.9-0.4,6.9-0.4l13.2,50.1c0,0-7.4,3.7-13.4,3.5
		c-2.1-0.2-4.4-2.5-6.5-6C1773.5,1484.6,1777.4,1482.8,1776.2,1480.3z"/>
	<g>
		<path class="st22" d="M1844.1,1440.8L1844.1,1440.8c-37.6,9.9-60,48.4-50.1,86l16.3,61.5c4,15.1,19.5,24.1,34.6,20.1l81.4-21.5
			c15.1-4,24.1-19.5,20.1-34.6l-16.3-61.5C1920.2,1453.3,1881.6,1430.9,1844.1,1440.8z"/>
		<g>
			<path class="st23" d="M1930.5,1492.4c-21.7,18.1-31,47.2-23.8,74.6l6.2,23.5l13.3-3.5c15.1-4,24.1-19.5,20.1-34.6L1930.5,1492.4
				L1930.5,1492.4z"/>
			<path class="st23" d="M1794.4,1528.3L1794.4,1528.3l15.9,60c4,15.1,19.5,24.1,34.6,20.1l13.3-3.5l-6.2-23.5
				C1844.7,1554,1822.3,1533.3,1794.4,1528.3z"/>
		</g>
		<path class="st24" d="M1896.7,1447.6c8.7,8.6,15.3,19.5,18.6,32.1l16.3,61.5c4,15.1-5,30.6-20.1,34.6l-81.4,21.5
			c-5.5,1.4-10.9,1.2-15.9-0.5c6.5,9.7,18.7,14.7,30.7,11.6l81.4-21.5c15.1-4,24.1-19.5,20.1-34.6l-16.3-61.5
			C1925,1471.8,1912.6,1456.6,1896.7,1447.6z"/>
	</g>
	<g>
		<path class="st10" d="M1945.3,1543.3l19.5-20.4c-24.7-23.6-46.6-28.9-61.9-28.6c-0.4-1.1-0.6-1.7-0.6-1.7s-11-11.7-42.9-3.2
			c-30.4,8-35.3,22.5-35.7,23.9c-11.2-0.9-26.3-4.1-43.8-12.4l-12.1,25.4c25,11.9,46.5,15.1,61.5,15.4c2.3,10.8,4.9,22.7,7.2,31.5
			c2.1,7.9,5.5,14.7,10.6,19.7c-3.3,12.4-7.4,32-7.4,51.2l31.6-0.1c0-14.4,3.6-31.1,6.7-42.5c3.2-0.4,6.6-1,10.3-2
			c4.1-1.1,7.7-2.4,11-3.8c8.4,8.4,19.8,21.2,27,33.8l27.6-15.5c-9.7-17.2-23.6-32.7-32.6-41.8c1.6-6.5,1.2-13.7-0.8-21.1
			c-2.1-7.8-5.1-17.9-8.2-27.5C1921,1525.4,1932.2,1530.8,1945.3,1543.3z"/>
	</g>
	<g>
		<path class="st10" d="M1916.9,1415.1c-24.9-59.2-87.8-39.8-87.8-39.8s-64.3,14.2-56.7,78c7.6,63.8,65.9,60.2,91.4,53.4
			C1889.4,1499.9,1941.8,1474.3,1916.9,1415.1z"/>
	</g>
	<path class="st22" d="M1916.9,1415.1c-6.3-14.9-14.9-24.8-24.4-31.3c7.3,6.4,13.9,15.1,18.9,27c24.9,59.2-27.5,84.8-53.1,91.6
		c-16.1,4.3-45.4,7.3-66.6-7.3c21.4,19.4,54.5,16.2,72.1,11.6C1889.4,1499.9,1941.8,1474.3,1916.9,1415.1z"/>
	<g>
		<g>
			<path class="st15" d="M1883.4,1580.6c-27.4,7.2-45.4,4-46.1,3.9c-3.8-0.7-6.3-4.4-5.6-8.2c0.7-3.8,4.4-6.3,8.2-5.6
				c0.3,0.1,16,2.7,39.9-3.6c24-6.3,35.6-16.2,35.7-16.3c2.9-2.5,7.4-2.2,9.9,0.7c2.5,2.9,2.3,7.3-0.6,9.9
				C1924.2,1561.8,1910.9,1573.3,1883.4,1580.6z"/>
		</g>
	</g>
	<path class="st21" d="M1923.8,1557.5c-0.6,0.5-13.9,12-41.4,19.3c-27.4,7.2-45.4,4-46.1,3.9c-2.1-0.4-3.7-1.7-4.7-3.3
		c-0.1,3.4,2.3,6.4,5.7,7.1c0.7,0.1,18.7,3.4,46.1-3.9c27.5-7.3,40.8-18.8,41.4-19.3c2.6-2.3,3.1-6,1.4-8.9
		C1926.1,1554.3,1925.3,1556.1,1923.8,1557.5z"/>
	<g class="st25">
		<g>
			<path class="st26" d="M1866.3,1516c-23.8,6.3-42.6,2.2-43.8,2c-2.5-0.6-4.1-3.1-3.5-5.6c0.6-2.5,3.1-4.1,5.6-3.5
				c0.6,0.1,39.6,8.4,74.7-19.9c2-1.6,5-1.3,6.6,0.7c1.6,2,1.3,5-0.7,6.6C1892.1,1506.9,1878.5,1512.8,1866.3,1516z"/>
		</g>
	</g>
	<path class="st15" d="M1822.9,1513.7c0.6,0.1,42.2,7.7,80.3-21.4c1-0.8,2.3-1.1,3.5-1.1c-0.2-0.6-0.4-1.1-0.8-1.6
		c-1.6-2-4.6-2.3-6.6-0.7c-35.1,28.2-74.1,20-74.7,19.9c-2.5-0.6-5,1-5.6,3.5c-0.2,0.7-0.1,1.4,0,2.1
		C1820.1,1513.8,1821.5,1513.5,1822.9,1513.7z"/>
	<g>
		<g>
			<path class="st27" d="M1881.5,1514.9l-9,3.4c-3.4,1.3-6.9,2.2-10.5,2.8l-10.2,1.6c-2.6,0.4-4.2,2.9-3.5,5.4l3.9,14.9
				c0.6,2.2,2.7,3.5,4.9,3.2l10.8-1.7c3.6-0.6,7.1-1.5,10.5-2.8l10.2-3.9c2.1-0.8,3.3-3,2.7-5.2l-3.9-14.9
				C1886.6,1515.3,1884,1513.9,1881.5,1514.9z"/>
		</g>
		<g>
			<path class="st28" d="M1859.3,1529c0.5,1.9-0.6,3.8-2.5,4.2s-3.8-0.6-4.2-2.5c-0.5-1.9,0.6-3.8,2.5-4.2
				C1856.9,1526,1858.8,1527.1,1859.3,1529z"/>
		</g>
		<g>
			<path class="st28" d="M1861.8,1538.2c0.5,1.9-0.6,3.8-2.5,4.2c-1.9,0.5-3.8-0.6-4.2-2.5s0.6-3.8,2.5-4.2
				C1859.4,1535.2,1861.3,1536.3,1861.8,1538.2z"/>
		</g>
		<g>
			<g>
				<path class="st29" d="M1872.7,1528.8c-4.7,1.2-8.2,1.6-8.5,1.6c-1.1,0.1-2.2-0.7-2.3-1.9c-0.1-1.1,0.7-2.2,1.9-2.3
					c0.1,0,9.7-1,18.2-5.4c1-0.5,2.3-0.1,2.8,0.9c0.5,1,0.1,2.3-0.9,2.8C1880.1,1526.6,1876.1,1528,1872.7,1528.8z"/>
			</g>
		</g>
		<g>
			<g>
				<path class="st29" d="M1875,1537.5c-4.7,1.2-8.2,1.6-8.5,1.6c-1.1,0.1-2.2-0.7-2.3-1.9c-0.1-1.1,0.7-2.2,1.9-2.3
					c0.1,0,9.7-1,18.2-5.4c1-0.5,2.3-0.1,2.8,0.9c0.5,1,0.1,2.3-0.9,2.8C1882.4,1535.2,1878.4,1536.6,1875,1537.5z"/>
			</g>
		</g>
	</g>
	<path class="st15" d="M1900.6,1545.1l-4.1-3.2c-0.8-0.6-1.8-0.8-2.8-0.4l-4.8,1.9c-0.9,0.4-1.6,1.2-1.7,2.2l-0.8,5.2
		c-0.1,1,0.3,2,1,2.6l4.1,3.2c0.8,0.6,1.8,0.8,2.8,0.4l4.8-1.9c0.9-0.4,1.6-1.2,1.7-2.2l0.8-5.2
		C1901.8,1546.7,1901.4,1545.7,1900.6,1545.1z"/>
	<path class="st15" d="M1851,1558.2l2-4.8c0.4-0.9,1.2-1.6,2.2-1.7l5.2-0.7c1-0.1,2,0.3,2.6,1.1l3.2,4.1c0.6,0.8,0.8,1.8,0.4,2.8
		l-2,4.8c-0.4,0.9-1.2,1.6-2.2,1.7l-5.2,0.7c-1,0.1-2-0.3-2.6-1.1l-3.2-4.1C1850.8,1560.2,1850.6,1559.2,1851,1558.2z"/>
	<g>
		<g>
			<path class="st30" d="M1907.4,1427c-19-42.8-71.7-26.9-71.7-26.9s-53.6,12.1-49,58.8c4.6,46.6,53,42.4,74.3,36.8
				C1882.3,1490.1,1926.4,1469.9,1907.4,1427z"/>
		</g>
		<path class="st31" d="M1907.4,1427c-5-11.3-12.5-18.5-20.6-23c4.3,4.1,8.1,9.4,11,16c19,42.8-25.1,63-46.4,68.7
			c-13,3.4-36,6.3-53.1-2.5c16.8,17,47,13.6,62.6,9.5C1882.3,1490.1,1926.4,1469.9,1907.4,1427z"/>
		<g>
			<path class="st32" d="M1835.7,1400.1c0,0-2.8,0.6-7,2.2c-1.7,18.3-7.8,52.5-29.5,84.8c5.9,5.6,13.4,8.8,21.2,10.5
				c26.1-40.3,31.2-82,32.2-100.2C1842.8,1398,1835.7,1400.1,1835.7,1400.1z"/>
			<path class="st32" d="M1870.8,1398.4c-1.2,18.4-7.2,61.9-36.5,100.6c5.3,0.1,10.5-0.3,15.2-1c25.2-37.3,31.4-76.5,32.9-96.2
				C1878.6,1400.2,1874.7,1399.1,1870.8,1398.4z"/>
		</g>
	</g>
	<g>
		<path class="st30" d="M1917.6,1579.8c-5.9,1.6-12.8-0.7-17.4-4.5c-7.3-5.9-11.1-16.3-9.6-26.6c0.3-1.9,2.1-3.3,4-3
			c1.9,0.3,3.3,2.1,3,4c-1.1,7.8,1.7,15.7,7,20.1c3.6,2.9,9.6,4.6,13,2.4c1.5-1,2-2.4,2.2-3.4c0.3-1.9-0.2-4-1.4-5.5
			c-0.8-1-2.1-2-3.5-3c-2.8-2-6.2-4.5-7.1-9c-0.6-2.9,0-5.9,1.8-8.4c1.9-2.6,4.8-4.4,8.1-4.8c1.9-0.3,3.7,1.1,4,3
			c0.3,1.9-1.1,3.7-3,4c-1.3,0.2-2.5,0.9-3.2,1.9c-0.4,0.6-0.9,1.6-0.6,2.9c0.4,1.7,1.9,3,4.4,4.8c1.7,1.3,3.5,2.6,4.9,4.4
			c2.4,3.1,3.4,7.2,2.8,11c-0.6,3.4-2.5,6.3-5.3,8.2C1920.2,1578.9,1918.9,1579.4,1917.6,1579.8z"/>
	</g>
	<g>
		<path class="st30" d="M1853.3,1596.7c-1.3,0.4-2.7,0.5-4.1,0.4c-3.4-0.2-6.4-1.8-8.6-4.5c-2.4-3-3.6-7.1-3-10.9
			c0.3-2.3,1.2-4.3,2.1-6.3c1.3-2.8,2-4.6,1.5-6.3c-0.4-1.2-1.3-1.9-2-2.2c-1.1-0.5-2.5-0.6-3.8-0.1c-1.8,0.7-3.9-0.1-4.6-1.9
			c-0.7-1.8,0.1-3.9,1.9-4.6c3-1.2,6.5-1.1,9.4,0.2c2.7,1.3,4.8,3.6,5.7,6.4c1.4,4.4-0.3,8.2-1.7,11.4c-0.7,1.6-1.4,3.1-1.6,4.4
			c-0.3,1.9,0.3,4,1.5,5.5c0.7,0.8,1.8,1.8,3.6,1.9c4.1,0.2,8.4-4.2,10.1-8.5c2.5-6.5,1.1-14.7-3.8-20.9c-1.2-1.5-0.9-3.8,0.6-4.9
			c1.5-1.2,3.7-0.9,4.9,0.6c6.3,8.2,8.2,19.1,4.8,27.8C1864.1,1589.8,1859.2,1595.2,1853.3,1596.7z"/>
	</g>
	<path class="st22" d="M1949,1532.6c0,0-20-20.3-40.9-21.1l4.3,11.9c8.6,2,19.8,7.3,32.9,19.9l3.2-3.4L1949,1532.6z"/>
	<g>
		<g>
			<path class="st35" d="M1946.5,1547.8c-1.5,0.4-3.2,0-4.4-1.1c-1.9-1.8-1.9-4.8-0.1-6.6l19.5-20.4c1.8-1.9,4.8-1.9,6.6-0.1
				c1.9,1.8,1.9,4.8,0.1,6.6l-19.5,20.4C1948.1,1547.2,1947.3,1547.6,1946.5,1547.8z"/>
		</g>
	</g>
	<path class="st21" d="M1990.5,1555.5c-15.2,18.7-30.5,1.6-30.5,1.6s3.1,7.1,7.3,10C1977.4,1574.1,1989.3,1566.3,1990.5,1555.5z"/>
	<path class="st15" d="M1946.1,1508c-10.6-6.9-20.4-10.6-29-12.3c0.1,4.2,1.3,12.5,8.6,15.7
		C1933.5,1514.9,1941.9,1513.3,1946.1,1508z"/>
	<path class="st15" d="M1785.6,1533.6c11.8,4,22.4,6.2,31.6,7.2c-0.5-3.1-2.7-13.3-11.6-15.4
		C1796.7,1523.3,1788.4,1527,1785.6,1533.6z"/>
	<path class="st22" d="M1828.2,1530.4c0,0-33-2.9-53.3-12.7c-0.9-0.4-1.7-0.8-2.6-1l-4.6,9.6c25,11.9,46.5,15.1,61.5,15.4
		C1829.2,1541.7,1828.2,1538.1,1828.2,1530.4z"/>
	<g>
		<g>
			<path class="st35" d="M1768.9,1530.9c-1,0.3-2.2,0.2-3.2-0.3c-2.3-1.1-3.3-3.9-2.2-6.3l12.1-25.4c1.1-2.3,3.9-3.3,6.3-2.2
				c2.3,1.1,3.3,3.9,2.2,6.3l-12.1,25.4C1771.3,1529.6,1770.2,1530.5,1768.9,1530.9z"/>
		</g>
	</g>
	<path class="st22" d="M1921.6,1611.4c-2.3-1.3-19.7-19.7-20.6-21.5c-1-1.8-2.6-0.9-5.1,1.4c-2.5,2.2-15.4,6.9-19,5
		c-3.6-1.9-3.9-0.7-4.1,0c-0.3,0.7-7.6,31.7-7.6,31.7s3-0.1,7.3-0.2c1.3-9.7,3.5-19.1,5.5-26.5c3.2-0.4,6.6-1,10.3-2
		c4.1-1.1,7.7-2.4,11-3.8c5.7,5.7,12.8,13.4,19,21.7C1920.8,1614.4,1922.5,1611.9,1921.6,1611.4z"/>
	<g>
		<path class="st15" d="M1840.5,1623.5c-0.2,1.9-1.1,15.8-1.1,15.8s-16.9-9.8-31-1.7c-14.1,8.1-11.1,27.5-11.1,27.5l73.3,7.7
			l2.3-47.2L1840.5,1623.5z"/>
	</g>
	<g>
		<path class="st15" d="M1943.2,1596.4c1.1,1.6,8.7,13.2,8.7,13.2s9.9-16.9,26.2-16.8c16.2,0.1,23.2,18.4,23.2,18.4l-59.9,42.8
			l-25.3-39.9L1943.2,1596.4z"/>
	</g>
	<g>
		<path class="st30" d="M1941.3,1654.1l59.9-42.8c0,0-1.4-3.6-4.3-7.7l-60.2,43.3L1941.3,1654.1z"/>
	</g>
	<g>
		<path class="st30" d="M1797.3,1665.1l73.3,7.7l0.4-9.1l-73.4-9.4C1796.5,1660.2,1797.3,1665.1,1797.3,1665.1z"/>
	</g>
	<g>
		<path class="st35" d="M1917.2,1618.8c-1.9,0.5-4-0.2-5.1-2c-1.4-2.2-0.8-5.1,1.3-6.5l27.2-17.8c2.2-1.4,5.1-0.8,6.5,1.3
			c1.4,2.2,0.8,5.1-1.3,6.5l-27.2,17.8C1918.2,1618.4,1917.7,1618.6,1917.2,1618.8z"/>
	</g>
	<path class="st33" d="M1947.2,1596.9l-27.2,17.8c-0.4,0.3-0.9,0.5-1.4,0.6c-1.9,0.5-4-0.2-5.1-2c-0.5-0.8-0.8-1.7-0.8-2.5
		c-1.6,1.5-1.9,4-0.7,5.9c1.1,1.7,3.2,2.5,5.1,2c0.5-0.1,0.9-0.3,1.4-0.6l27.2-17.8c1.4-0.9,2.1-2.4,2.1-4
		C1947.7,1596.5,1947.4,1596.7,1947.2,1596.9z"/>
	<g>
		<path class="st35" d="M1874.1,1630.2c-0.5,0.1-1,0.2-1.5,0.1l-32.4-2.1c-2.6-0.2-4.5-2.4-4.4-5c0.2-2.6,2.4-4.5,5-4.4l32.4,2.1
			c2.6,0.2,4.5,2.4,4.4,5C1877.4,1628,1876,1629.7,1874.1,1630.2z"/>
	</g>
	<path class="st33" d="M1874.9,1621.4c0.4,0.8,0.6,1.6,0.6,2.5c-0.1,2.1-1.6,3.7-3.5,4.2c-0.5,0.1-1,0.2-1.5,0.1l-32.4-2.1
		c-0.6,0-1.2-0.2-1.7-0.4c0.7,1.4,2.1,2.4,3.8,2.5l32.4,2.1c0.5,0,1,0,1.5-0.1c1.9-0.5,3.3-2.2,3.5-4.2
		C1877.7,1624,1876.6,1622.2,1874.9,1621.4z"/>
	<path class="st30" d="M1954.2,1636l-7.7-6.4c-3.8-3.2-9.1-3.7-13.5-1.4l-6.1,3.2l1.3,2l5.9-3.1c3.5-1.8,7.8-1.4,10.9,1.2l7.6,6.4
		l5,4.7l1.9-1.4L1954.2,1636z"/>
	<path class="st30" d="M1866.1,1645.9c-4.9,0.2-9.2,3.3-11,7.9l-3.5,9.4l-2.3,7.4l2.4,0.3l2.1-6.9l3.5-9.4c1.4-3.7,4.9-6.2,8.9-6.4
		l5.6-0.2l0.1-2.4L1866.1,1645.9z"/>
</g>
<g>
	<path class="st36" d="M2594.3,66.1c20.4,11.6,44,18.2,69.2,18.2c77.6,0,140.6-62.8,140.6-140.3c0-38-15.1-72.5-39.7-97.7
		c25-9.5,42.8-33.7,42.8-62c0-14.7-4.8-28.3-12.9-39.3c28.9-16.8,48.4-48.1,48.4-83.9c0-53.6-43.6-97.1-97.3-97.1
		c-53.8,0-97.3,43.5-97.3,97.1c0,33.3,16.8,62.6,42.3,80.1c-10,11.6-16,26.6-16,43.1c0,7,1.1,13.8,3.1,20.1
		c-4.6-0.4-9.2-0.7-13.9-0.7C2586-196.3,2523-133.5,2523-56c0,4.3,0.2,8.5,0.6,12.7c-8.1-2.2-16.5-3.3-25.3-3.3
		c-53.8,0-97.3,43.5-97.3,97.1c-0.2,53.6,43.4,97.1,97.2,97.1C2546.6,147.6,2586.8,112.3,2594.3,66.1L2594.3,66.1z"/>
	<path class="st37" d="M2575.1-172.3c-0.2,0.1-0.2,0.3,0,0.4c1.5,0.5,5.5,2.3,7.6,9.2c0.1,0.2,0.4,0.2,0.4,0c0.4-2.3,2-7.7,7.9-9.1
		c0.2-0.1,0.2-0.4,0-0.4c-2-0.6-6.8-3-8.1-10.6c-0.1-0.3-0.4-0.3-0.4,0C2582.1-180.2,2580.4-174.6,2575.1-172.3z"/>
	<path class="st38" d="M2498.6-214.8c-0.5,2.6-2.2,8.2-7.4,10.5c-0.2,0.1-0.2,0.3,0,0.4c1.5,0.5,5.5,2.3,7.6,9.2
		c0.1,0.2,0.4,0.2,0.4,0c0.4-2.3,2-7.7,7.9-9.1c0.2-0.1,0.2-0.4,0-0.4c-2-0.7-6.8-3-8.1-10.6
		C2498.9-215.1,2498.6-215.1,2498.6-214.8L2498.6-214.8z"/>
	<path class="st39" d="M2650.1-107.3c-0.2,0.1-0.2,0.3,0,0.4c1.5,0.5,5.5,2.3,7.6,9.2c0.1,0.2,0.4,0.2,0.4,0c0.4-2.3,2-7.7,7.9-9.1
		c0.2-0.1,0.2-0.4,0-0.4c-2-0.6-6.8-3-8.1-10.6c-0.1-0.3-0.4-0.3-0.4,0C2657.1-115.2,2655.4-109.6,2650.1-107.3z"/>
	<path class="st40" d="M2714.6-288.9c-0.5,2.6-2.2,8.2-7.4,10.5c-0.2,0.1-0.2,0.3,0,0.4c1.5,0.5,5.5,2.3,7.6,9.2
		c0.1,0.2,0.4,0.2,0.4,0c0.4-2.3,2-7.7,7.9-9.1c0.2-0.1,0.2-0.4,0-0.4c-2-0.6-6.8-3-8.1-10.6
		C2714.9-289.1,2714.6-289.1,2714.6-288.9L2714.6-288.9z"/>
</g>
<g id="Product-Pages">
	<g id="Header---Postman" transform="translate(-289.000000, -269.000000)">
		<g id="_x31_---Header">
			<g id="Hero">
				<g id="Header-BG">
					<g id="Header---Clouds" transform="translate(-202.000000, 37.000000)">
						<g id="Repeating-Clouds" transform="translate(485.000000, 232.000000)">
							<path id="Shape" class="st36" d="M2886.8,596.7c-11.5-12.6-28-20.5-46.3-20.5c-14,0-26.9,4.6-37.3,12.3
								c-19.6-52.8-70.5-90.5-130.1-90.5c-62,0-114.5,40.7-132.4,96.8c-9.3-5.5-20.2-8.7-31.8-8.7c-34.7,0-62.8,28.1-62.8,62.8
								s28.1,62.8,62.8,62.8c14.9,0,28.6-5.2,39.4-14c22.5,46.1,69.9,77.9,124.7,77.9c58.4,0,108.3-36.1,128.8-87.1
								c10.6,8.3,24,13.3,38.6,13.3c10.9,0,21.1-2.8,30-7.6c13.8,46.4,56.8,80.4,107.7,80.4c62.1,0,112.4-50.3,112.4-112.4
								s-50.4-112.4-112.4-112.4C2940.5,549.8,2907.2,568.3,2886.8,596.7z"/>
							<path id="Shape_1_" class="st41" d="M3684.4,567.6c-19.1-50.1-58.6-92.3-112.5-113.3c-94-36.4-198.8,4.1-244.9,90.9
								c-11.1-7.2-23.1-13.4-36-18.4c-101.3-39.4-215.2,10.8-254.6,112.1c-11.2,28.9-15.2,58.7-12.7,87.6l329.6,128.1
								c15.9-14.6,29.6-32.1,40.1-51.9c11.1,7.2,23.1,13.4,36,18.4c45.3,17.6,93.2,17.3,135.8,2.5c19.1,50,58.6,92.1,112.5,113.1
								c101.3,39.4,215.2-10.8,254.6-112.1c39.4-101.2-10.8-215.1-112-254.5C3774.9,552.5,3727,552.9,3684.4,567.6z"/>
							<path id="Shape_2_" class="st36" d="M3515.6,552.5c-42.6,4.5-78.2,29.4-98,64.1c-14.5-12.9-34.2-19.9-55-17.7
								c-15.8,1.7-29.9,8.4-40.8,18.3c-28.5-57.5-90.7-94.2-158.3-87.1c-70.3,7.4-124.9,59.8-138.5,125.5c-11.2-5.1-23.9-7.4-37.1-6
								c-39.3,4.1-67.8,39.4-63.7,78.7c4.1,39.3,39.4,67.8,78.7,63.7c16.9-1.8,31.8-9.3,43-20.5c31.1,49.6,88.5,79.9,150.6,73.4
								c66.2-7,118.5-53.8,135.6-114.1c13.1,8.1,28.8,12.2,45.4,10.5c12.3-1.3,23.6-5.7,33.1-12.2c21.2,51,73.9,84.3,131.7,78.2
								c70.3-7.4,121.4-70.4,114-140.8C3649,596.1,3585.9,545.1,3515.6,552.5L3515.6,552.5z"/>
							<path id="Shape-Copy" class="st36" d="M3894,565.3c-24.2,2.5-44.4,16.7-55.6,36.4c-8.2-7.3-19.4-11.3-31.2-10
								c-9,0.9-17,4.7-23.2,10.4c-16.2-32.6-51.5-53.4-89.8-49.4c-39.9,4.2-70.9,33.9-78.6,71.2c-6.4-2.9-13.6-4.2-21-3.4
								c-22.3,2.3-38.5,22.3-36.2,44.6s22.3,38.5,44.6,36.2c9.6-1,18.1-5.3,24.4-11.6c17.6,28.1,50.2,45.4,85.5,41.7
								c37.6-3.9,67.3-30.5,77-64.8c7.4,4.6,16.4,6.9,25.8,5.9c7-0.7,13.4-3.2,18.8-6.9c12,28.9,42,47.9,74.8,44.4
								c39.9-4.2,68.9-40,64.7-79.9S3933.9,561.1,3894,565.3L3894,565.3z"/>
							<path id="Shape_3_" class="st40" d="M3281.6,553.2c-0.5,2.6-2.2,8.2-7.4,10.5c-0.2,0.1-0.2,0.3,0,0.4
								c1.5,0.5,5.5,2.3,7.6,9.2c0.1,0.2,0.4,0.2,0.4,0c0.4-2.3,2-7.7,7.9-9.1c0.2-0.1,0.2-0.4,0-0.4c-2-0.7-6.8-3-8.1-10.6
								C3281.9,553,3281.6,553,3281.6,553.2L3281.6,553.2z"/>
							<path id="Shape_4_" class="st38" d="M2955.6,455.2c-0.5,2.6-2.2,8.2-7.4,10.5c-0.2,0.1-0.2,0.3,0,0.4
								c1.5,0.5,5.5,2.3,7.6,9.2c0.1,0.2,0.4,0.2,0.4,0c0.4-2.3,2-7.7,7.9-9.1c0.2-0.1,0.2-0.4,0-0.4c-2-0.6-6.8-3-8.1-10.6
								C2955.9,454.9,2955.6,454.9,2955.6,455.2L2955.6,455.2z"/>
						</g>
					</g>
				</g>
			</g>
		</g>
	</g>
</g>
<g id="Product-Pages_2_">
	<g id="Header---Postman_2_" transform="translate(-289.000000, -269.000000)">
		<g id="_x31_---Header_2_">
			<g id="Hero_2_">
				<g id="Header-BG_2_">
					<g id="Header---Clouds_2_" transform="translate(-202.000000, 37.000000)">
						<g id="Repeating-Clouds_1_" transform="translate(485.000000, 232.000000)">
							<path id="Shape_12_" class="st36" d="M2847.8-1370.3c-11.5-12.6-28-20.5-46.3-20.5c-14,0-26.9,4.6-37.3,12.3
								c-19.6-52.8-70.5-90.5-130.1-90.5c-62,0-114.5,40.7-132.4,96.8c-9.3-5.5-20.2-8.7-31.8-8.7c-34.7,0-62.8,28.1-62.8,62.8
								s28.1,62.8,62.8,62.8c14.9,0,28.6-5.2,39.4-14c22.5,46.1,69.9,77.9,124.7,77.9c58.4,0,108.3-36.1,128.8-87.1
								c10.6,8.3,24,13.3,38.6,13.3c10.9,0,21.1-2.8,30-7.6c13.8,46.4,56.8,80.4,107.7,80.4c62.1,0,112.4-50.3,112.4-112.4
								c0-62.1-50.4-112.4-112.4-112.4C2901.5-1417.2,2868.2-1398.7,2847.8-1370.3z"/>
							<path id="Shape_11_" class="st41" d="M3645.4-1399.4c-19.1-50.1-58.6-92.3-112.5-113.3c-94-36.4-198.8,4.1-244.9,90.9
								c-11.1-7.2-23.1-13.4-36-18.4c-101.3-39.4-215.2,10.8-254.6,112.1c-11.2,28.9-15.2,58.7-12.7,87.6l329.6,128.1
								c15.9-14.6,29.6-32.1,40.1-51.9c11.1,7.2,23.1,13.4,36,18.4c45.3,17.6,93.2,17.3,135.8,2.5c19.1,50,58.6,92.1,112.5,113.1
								c101.3,39.4,215.2-10.8,254.6-112.1c39.4-101.2-10.8-215.1-112-254.5C3735.9-1414.5,3688-1414.1,3645.4-1399.4z"/>
							<path id="Shape_10_" class="st36" d="M3476.6-1414.5c-42.6,4.5-78.2,29.4-98,64.1c-14.5-12.9-34.2-19.9-55-17.7
								c-15.8,1.7-29.9,8.4-40.8,18.3c-28.5-57.5-90.7-94.2-158.3-87.1c-70.3,7.4-124.9,59.8-138.5,125.5c-11.2-5.1-23.9-7.4-37.1-6
								c-39.3,4.1-67.8,39.4-63.7,78.7c4.1,39.3,39.4,67.8,78.7,63.7c16.9-1.8,31.8-9.3,43-20.5c31.1,49.6,88.5,79.9,150.6,73.4
								c66.2-7,118.5-53.8,135.6-114.1c13.1,8.1,28.8,12.2,45.4,10.5c12.3-1.3,23.6-5.7,33.1-12.2c21.2,51,73.9,84.3,131.7,78.2
								c70.3-7.4,121.4-70.4,114-140.8C3610-1370.9,3546.9-1421.9,3476.6-1414.5L3476.6-1414.5z"/>
							<path id="Shape-Copy_1_" class="st36" d="M3855-1401.7c-24.2,2.5-44.4,16.7-55.6,36.4c-8.2-7.3-19.4-11.3-31.2-10
								c-9,0.9-17,4.7-23.2,10.4c-16.2-32.6-51.5-53.4-89.8-49.4c-39.9,4.2-70.9,33.9-78.6,71.2c-6.4-2.9-13.6-4.2-21-3.4
								c-22.3,2.3-38.5,22.3-36.2,44.6c2.3,22.3,22.3,38.5,44.6,36.2c9.6-1,18.1-5.3,24.4-11.6c17.6,28.1,50.2,45.4,85.5,41.7
								c37.6-3.9,67.3-30.5,77-64.8c7.4,4.6,16.4,6.9,25.8,5.9c7-0.7,13.4-3.2,18.8-6.9c12,28.9,42,47.9,74.8,44.4
								c39.9-4.2,68.9-40,64.7-79.9S3894.9-1405.9,3855-1401.7L3855-1401.7z"/>
							<path id="Shape_9_" class="st40" d="M3242.6-1413.8c-0.5,2.6-2.2,8.2-7.4,10.5c-0.2,0.1-0.2,0.3,0,0.4
								c1.5,0.5,5.5,2.3,7.6,9.2c0.1,0.2,0.4,0.2,0.4,0c0.4-2.3,2-7.7,7.9-9.1c0.2-0.1,0.2-0.4,0-0.4c-2-0.7-6.8-3-8.1-10.6
								C3242.9-1414.1,3242.6-1414.1,3242.6-1413.8L3242.6-1413.8z"/>
							<path id="Shape_8_" class="st38" d="M2916.6-1511.8c-0.5,2.6-2.2,8.2-7.4,10.5c-0.2,0.1-0.2,0.3,0,0.4
								c1.5,0.5,5.5,2.3,7.6,9.2c0.1,0.2,0.4,0.2,0.4,0c0.4-2.3,2-7.7,7.9-9.1c0.2-0.1,0.2-0.4,0-0.4c-2-0.6-6.8-3-8.1-10.6
								C2916.9-1512.1,2916.6-1512.1,2916.6-1511.8L2916.6-1511.8z"/>
						</g>
					</g>
				</g>
			</g>
		</g>
	</g>
</g>
<g id="Product-Pages_1_">
	<g id="Header---Postman_1_" transform="translate(0.000000, -215.000000)">
		<g id="_x31_---Header_1_">
			<g id="Hero_1_">
				<g id="Header-BG_1_">
					<g id="Header---Clouds_1_" transform="translate(-202.000000, 37.000000)">
						<g id="Left-Cloud" transform="translate(0.000000, 40.000000)">
							<path id="Shape_7_" class="st41" d="M1227.1-503c-3.5,7.3-5.4,15-6,22.5l-30.2,115L1471.8-226l51.4-94.3
								c3.8-7,6.5-14.5,8.1-22.3l0,0c6.4-21-5.2-45.1-25.7-54.7c-9-4.3-18.8-5.2-27.9-3.4c0.1-19-10.3-37.2-28.2-46.3
								c1.5-1.9,2.9-4,3.9-6.3c7.1-15.2,0.6-33.2-14.5-40.3c-7.7-3.6-16.2-3.7-23.6-0.9c0.1-17.6-9.7-34.5-26.7-42.5
								c-20.8-9.8-45.3-2.7-58,15.7c-5.3-5.3-11.6-9.7-18.9-13C1279.9-548.5,1242-534.6,1227.1-503L1227.1-503z"/>
							<path id="Shape_6_" class="st36" d="M1811.8-330.3c-11.5-12.6-28-20.5-46.3-20.5c-14,0-26.9,4.6-37.3,12.3
								c-19.6-52.8-70.5-90.5-130.1-90.5c-62,0-114.5,40.7-132.4,96.8c-9.3-5.5-20.2-8.7-31.8-8.7c-34.7,0-62.8,28.1-62.8,62.8
								s28.1,62.8,62.8,62.8c14.9,0,28.6-5.2,39.4-14c22.5,46.1,69.9,77.9,124.7,77.9c58.4,0,108.3-36.1,128.8-87.1
								c10.6,8.3,24,13.3,38.6,13.3c10.9,0,21.1-2.8,30-7.6c13.8,46.4,56.8,80.4,107.7,80.4c62.1,0,112.4-50.3,112.4-112.4
								s-50.4-112.4-112.4-112.4C1865.5-377.2,1832.2-358.7,1811.8-330.3z"/>
							<path id="Shape_5_" class="st42" d="M1414.6-365.9c-0.5,2.6-2.2,8.2-7.4,10.5c-0.2,0.1-0.2,0.3,0,0.4
								c1.5,0.5,5.5,2.3,7.6,9.2c0.1,0.2,0.4,0.2,0.4,0c0.4-2.3,2-7.7,7.9-9.1c0.2-0.1,0.2-0.4,0-0.4c-2-0.6-6.8-3-8.1-10.6
								C1414.9-366,1414.7-366,1414.6-365.9L1414.6-365.9z"/>
						</g>
					</g>
				</g>
			</g>
		</g>
	</g>
</g>
<image style="overflow:visible;" width="1400" height="2111" xlink:href="87DD0F05.jpg"  transform="matrix(1 0 0 1 -1631 -868)">
</image>
<rect x="172" y="-1013" class="st43" width="515" height="201"/>
<rect x="135" y="-709" class="st44" width="515" height="201"/>
<rect x="182" y="-422" class="st45" width="515" height="201"/>
<g class="st46">
	<ellipse class="st47" cx="3153.6" cy="-19.3" rx="16.9" ry="16.9"/>
	<ellipse class="st47" cx="3848.8" cy="374.9" rx="23.4" ry="23.4"/>
	
		<ellipse transform="matrix(0.8747 -0.4846 0.4846 0.8747 332.0989 1883.86)" class="st47" cx="3809.9" cy="299.6" rx="13.9" ry="13.9"/>
	<path class="st47" d="M3663.4,291c0,2.5-2,4.5-4.5,4.5s-4.5-2-4.5-4.5s2-4.5,4.5-4.5S3663.4,288.5,3663.4,291z"/>
	<path class="st47" d="M3280.8,76.2c0,4-3.3,7.2-7.3,7.2s-7.2-3.3-7.2-7.3s3.3-7.2,7.3-7.2C3277.5,68.9,3280.8,72.2,3280.8,76.2z"/>
	<path class="st47" d="M3216-20c0,6.3-5.1,11.4-11.5,11.4s-11.4-5.1-11.4-11.5c0-6.3,5.1-11.4,11.5-11.4
		C3210.9-31.4,3216-26.3,3216-20z"/>
	<ellipse class="st48" cx="3566.9" cy="312.1" rx="16.9" ry="16.9"/>
	<path class="st48" d="M3305.9,221.1c0.1,2.5-1.9,4.5-4.4,4.6s-4.5-1.9-4.6-4.4c-0.1-2.5,1.9-4.5,4.4-4.6
		C3303.8,216.7,3305.8,218.6,3305.9,221.1z"/>
	<ellipse class="st45" cx="3197.4" cy="58.6" rx="12.4" ry="12.4"/>
	<path class="st45" d="M3224,176.5c0.1,2.9-2.2,5.2-5,5.3c-2.9,0.1-5.2-2.2-5.3-5c-0.1-2.9,2.2-5.2,5-5.3
		C3221.6,171.4,3224,173.6,3224,176.5z"/>
	<path class="st45" d="M3653.5,381.7c0.2,6.8-5.2,12.5-12.1,12.7c-6.9,0.2-12.5-5.2-12.7-12.1c-0.2-6.8,5.2-12.5,12.1-12.7
		C3647.6,369.4,3653.3,374.8,3653.5,381.7z"/>
	<ellipse class="st45" cx="3724.2" cy="342.7" rx="4.5" ry="4.5"/>
	<ellipse class="st45" cx="3776.9" cy="381.4" rx="6.2" ry="6.2"/>
	
		<ellipse transform="matrix(0.9788 -0.205 0.205 0.9788 8.4405 674.0961)" class="st45" cx="3257.7" cy="296.3" rx="17.2" ry="17.2"/>
	<g>
		<path class="st47" d="M3833.8,423.9c4.5-43.5-27-82.5-70.6-87c-5.5-0.6-11-0.6-16.3,0c-3.6-15.4-16.5-27.5-33.1-29.2
			c-13.7-1.4-26.5,4.6-34.2,14.8c-15.1-0.2-29.2,5.5-39.8,15.2c-3.5-3.8-8.3-6.5-13.9-7c-11.4-1.2-21.7,6.6-23.8,17.7
			c-4.8-4.8-11.2-8.1-18.5-8.8c-7.5-0.8-14.7,1.2-20.5,5.1c-6-9.5-16.1-16.3-28.2-17.5c-16.2-1.7-31.1,7.1-38,20.9
			c-7.3-6.3-16.6-10.5-26.9-11.6c-12.3-1.3-23.9,2.1-33.3,8.6c-2.9-7.5-9.7-13.1-18.2-14c-10.2-1.1-19.5,5-22.9,14.2
			c-6.1-7-14.8-11.9-24.7-12.9c-6.5-0.7-12.9,0.3-18.6,2.7c-5.2-12.3-16.8-21.5-31-23c-4.8-0.5-9.5-0.1-13.9,1.1
			c-8.9-16.5-23.5-29.6-41.4-36.4c1.4-2.7,2.4-5.8,2.8-9c1.1-10.7-4.8-20.6-14-25c7.3-6.1,12.4-15,13.4-25.2
			c1.4-13.8-4.7-26.7-15.1-34.4c10.4-0.7,19.1-8.9,20.3-19.6c0.9-8.3-3-16-9.5-20.4c4.2-3.5,7.1-8.6,7.7-14.5
			c1.3-12.1-7.5-22.9-19.6-24.1c-2.5-0.3-5-0.1-7.3,0.5c2.3-4.3,3.8-9.1,4.3-14.2c1.9-18.2-9.1-34.7-25.6-40.4
			c0.3-1.4,0.6-2.8,0.8-4.3c1.8-16.9-10.5-32-27.4-33.8s-32,10.5-33.8,27.4c-0.4,3.6-0.1,7.1,0.7,10.4l-93.5,26.5l40.8,380.1
			l650.9,60.8l-2.7-22.8C3797.5,492.9,3829.7,463.3,3833.8,423.9z"/>
		<path class="st48" d="M3881.3,404.7c0.7-18.8-14-34.6-32.8-35.3c-7.7-0.3-14.8,2-20.7,6.1c-11.2-10.1-25.9-16.5-42.1-17.1
			c-22-0.8-41.9,9.2-54.5,25.2c-10.5-8.1-23.6-13.1-37.9-13.6c-2.3-0.1-4.7,0-7,0.1c-1.2-9.3-9-16.7-18.7-17
			c-6.9-0.2-13.1,3.1-16.7,8.4c-5.9-6.2-14.2-10.2-23.4-10.5c-8.1-0.3-15.6,2.3-21.6,6.8c-5.7-4.9-13-8-21.1-8.3
			c-18-0.7-33.2,12.7-35.1,30.3c-0.7-0.4-1.5-0.7-2.2-1.1c-8.1-3.4-16.9-3.4-24.6-0.7c-1.2-11.5-10.7-20.7-22.6-21.2
			c-6.5-0.2-12.5,2.2-16.9,6.3c-5.6-4.5-12.6-7.4-20.3-7.6c-14.4-0.5-27,8-32.4,20.4c-4.9-2.5-10.3-4-16.1-4.2
			c-4.5-0.2-8.9,0.5-13,1.8c-6.9-21.8-26.9-37.9-51-38.8c-8.8-0.3-17.2,1.4-24.8,4.8c-0.8-9.3-8.4-16.8-17.9-17.1c-1,0-2,0-3,0.2
			c-4-8.1-12.1-13.8-21.7-14.1c-2.1-0.1-4.1,0.1-6,0.5c-1.3-11.8-8.5-21.8-18.8-26.9c3.8-10.3,2.2-21.3-3.2-29.9
			c2.5-2.4,4.2-5.7,4.3-9.5c0.2-6.3-3.9-11.8-9.7-13.5c3.8-4,6.2-9.4,6.5-15.3c0.3-8.7-4.1-16.5-11-20.8c4.9-5.7,8-13,8.3-21.1
			c0.5-13.4-6.8-25.2-17.8-31.2c2.9-3.3,4.8-7.6,4.9-12.3c0.4-10.8-8.1-19.9-18.9-20.3c-0.4,0-0.9,0-1.3,0c0.9-3.1,1.5-6.4,1.6-9.8
			c0.6-16.3-9.1-30.6-23.3-36.6c0.8-3.8,1.4-7.8,1.5-11.9c1.3-36.7-27.3-67.4-64-68.8c-36.7-1.3-67.4,27.3-68.8,64
			c-1.3,36.7,27.3,67.4,64,68.8c3.5,0.1,7,0,10.4-0.4L3122.8,353l165.5,162.9l550.4-11.6l12.7-67.1
			C3867.7,435.3,3880.6,421.7,3881.3,404.7z"/>
		<path class="st49" d="M3724.3,457.6c4.7-37.4-21.8-71.6-59.3-76.3c-4.8-0.6-9.5-0.7-14-0.3c-2.8-13.3-13.7-24-28-25.8
			c-11.8-1.5-22.9,3.5-29.8,12.2c-13.1-0.4-25.3,4.3-34.6,12.4c-2.9-3.4-7.1-5.7-11.9-6.3c-9.8-1.2-18.8,5.3-20.9,14.8
			c-4.1-4.2-9.5-7.2-15.8-8c-6.5-0.8-12.7,0.8-17.7,4.1c-5-8.3-13.6-14.3-24-15.6c-14-1.8-27,5.5-33.1,17.3
			c-6.2-5.5-14.1-9.3-23-10.5c-10.6-1.3-20.7,1.4-28.9,6.8c-2.3-6.5-8.1-11.5-15.5-12.4c-8.8-1.1-16.9,4-20,11.9
			c-5.1-6.2-12.5-10.5-21.1-11.6c-5.6-0.7-11.1,0.1-16.1,2c-4.3-10.7-14.1-18.8-26.3-20.4c-4.2-0.5-8.2-0.2-12.1,0.7
			c-7.4-14.4-19.7-25.9-35.1-32.2c1.3-2.3,2.2-4.9,2.5-7.7c1.2-9.2-3.8-17.8-11.6-21.8c6.4-5.1,10.9-12.7,12-21.5
			c1.5-11.9-3.6-23.1-12.4-30c9-0.5,16.7-7.3,17.8-16.5c0.9-7.1-2.3-13.9-7.8-17.8c3.7-3,6.3-7.3,6.9-12.4
			c1.3-10.4-6.1-19.9-16.4-21.2c-2.2-0.3-4.3-0.1-6.3,0.3c2.1-3.6,3.5-7.7,4-12.2c2-15.6-7.2-30.1-21.4-35.3
			c0.3-1.2,0.6-2.4,0.7-3.7c1.8-14.5-8.5-27.8-23-29.6s-27.8,8.5-29.6,23c-0.4,3.1-0.2,6.1,0.4,9l-81.1,21.1l28.2,328.6l560.2,64.2
			l-1.9-19.7C3691.8,516.4,3720.1,491.5,3724.3,457.6z"/>
		<path class="st45" d="M3701.7,460.3c2.1-15.6-8.8-29.9-24.3-32c-6.3-0.9-12.5,0.4-17.7,3.3c-8.5-9.3-20.1-15.9-33.6-17.7
			c-18.2-2.5-35.5,4.2-47.4,16.5c-8.1-7.6-18.5-12.8-30.4-14.4c-1.9-0.3-3.9-0.4-5.8-0.5c-0.2-7.8-6.1-14.6-14.1-15.7
			c-5.7-0.8-11.1,1.5-14.6,5.6c-4.4-5.6-10.9-9.6-18.6-10.7c-6.7-0.9-13.1,0.6-18.5,3.8c-4.3-4.5-10.1-7.7-16.8-8.6
			c-14.9-2-28.6,7.9-31.6,22.3c-0.6-0.4-1.2-0.7-1.8-1.1c-6.5-3.5-13.7-4.2-20.4-2.6c0-9.7-7.2-18.1-17-19.4
			c-5.4-0.7-10.6,0.8-14.6,3.8c-4.2-4.2-9.8-7.1-16.2-8c-11.9-1.6-23.1,4.4-28.6,14.3c-3.8-2.5-8.2-4.2-13.1-4.8
			c-3.7-0.5-7.4-0.3-10.9,0.4c-3.9-18.7-19.2-33.7-39.2-36.4c-7.3-1-14.4-0.2-21,2c0.1-7.8-5.6-14.6-13.5-15.7
			c-0.8-0.1-1.7-0.1-2.5-0.1c-2.6-7-8.9-12.5-16.9-13.5c-1.7-0.2-3.4-0.2-5-0.1c-0.1-9.9-5.3-18.8-13.4-23.8
			c4-8.2,3.6-17.5-0.2-25.1c2.3-1.8,4-4.4,4.4-7.5c0.7-5.2-2.3-10.1-6.9-12c3.5-3,6-7.3,6.6-12.2c1-7.2-2.1-14-7.4-18.2
			c4.5-4.3,7.7-10.1,8.6-16.8c1.5-11.1-3.6-21.5-12.3-27.4c2.7-2.5,4.6-5.9,5.1-9.8c1.2-8.9-5.1-17.2-14-18.4
			c-0.4,0-0.7-0.1-1.1-0.1c1-2.5,1.8-5.2,2.2-8c1.8-13.5-5.1-26.2-16.4-32.4c1-3.1,1.8-6.4,2.2-9.7c4.1-30.3-17.2-58.3-47.5-62.4
			c-30.3-4.1-58.3,17.2-62.4,47.5c-4.1,30.3,17.2,58.3,47.5,62.4c2.9,0.4,5.8,0.6,8.7,0.5l-35.5,197.5L3200,504l458.2,35.5l16-54.7
			C3687.9,484.6,3699.8,474.3,3701.7,460.3z"/>
		<path class="st48" d="M3315.3,261.4c0.1,4.4-3.4,8-7.7,8.1c-4.4,0.1-8-3.4-8.1-7.7c-0.1-4.4,3.4-8,7.7-8.1
			C3311.5,253.6,3315.1,257,3315.3,261.4z"/>
		<ellipse class="st48" cx="3422" cy="303.9" rx="4.5" ry="4.5"/>
		<path class="st45" d="M3334.4,361.3c0.1,4.2-3.2,7.7-7.4,7.8s-7.7-3.2-7.8-7.4c-0.1-4.2,3.2-7.7,7.4-7.8
			C3330.8,353.8,3334.3,357.1,3334.4,361.3z"/>
		<path class="st45" d="M3378,352.6c-0.1-3.2-2.8-5.8-6-5.7c-3.2,0.1-5.8,2.8-5.7,6c0.1,3.2,2.8,5.8,6,5.7
			C3375.5,358.6,3378.1,355.9,3378,352.6z"/>
		<rect x="3164.7" y="-92" class="st9" width="813.3" height="507.5"/>
	</g>
</g>
<path class="st20" d="M2365.3-336.5l79.8-116.2c-4.1-82.3-62.1-78.1-66.6-78.1c-10.8-0.1-20.2,6-24.9,15
	c-10.8-9.6-25-15.5-40.7-15.6c-13.1-0.1-25.3,3.9-35.4,10.7c-6.7-18.3-24.1-31.5-44.8-31.6c-15.3-0.1-29,6.9-37.9,18
	c-6.7-5.8-15.4-9.3-25-9.4c-9.3-0.1-17.8,3.1-24.5,8.5c-1.1-14.2-12.9-25.5-27.5-25.6c-7.1-0.1-13.5,2.6-18.5,6.9
	c-29.3-49.1-57.8-49.9-75.3-50.1c-21.1-0.2-52.5,15-59.2,33.8c-6.6-1.4-13.5-2.2-20.5-2.3c-55.4-0.5-100.6,44-101.1,99.4
	c-0.4,50,35.9,91.8,83.7,99.7l-6.6,28.2L2365.3-336.5z"/>
<path class="st15" d="M718.1,792.5c-14-51.9-67.5-82.7-119.4-68.7c-4.9,1.3-9.6,3-14.1,5.1c-12.1-28.8-40-48.9-72.5-48.9
	c-17.4,0-33.5,5.8-46.5,15.5c-2.3,1.4-4.3,3.1-6,5c-0.9,0.8-1.8,1.7-2.6,2.5c-3.1-3.4-6.7-6.4-10.5-8.9
	C423.4,670.6,391.4,656,356,656c-46,0-86.3,24.7-108.3,61.6c-10.6-13-27.4-20-44.6-17.9c-0.1-2.9-0.4-5.8-1.2-8.8
	c-3.7-13.6-14.5-23.4-27.4-26.4c-0.2-1.4-0.4-2.9-0.8-4.3c-3.7-13.6-16.9-22-30.4-20c2.3-11.9,2.1-24.5-1.3-37
	c-7.6-28-28.8-48.7-54.6-56.7c10-18.3,15.6-39.3,15.6-61.6c0-49.2-27.6-91.9-68.1-113.7c0-0.8,0.1-1.5,0.1-2.3
	c0-15.6-8.5-29.1-21.1-36.4c23.1-9.3,36.2-34.6,29.5-59.3c-3.1-11.4-9.9-20.9-18.8-27.4c4.4-10.1,5.6-21.7,2.5-33.1
	c-3.5-13.1-11.9-23.5-22.8-29.9c6.3-7,9-16.9,6.4-26.7C7.1,142.5-6,133.8-19.7,135.1c-0.5-3.3-1.2-6.7-2.1-10
	c-5.5-20.2-16.9-37.2-31.9-49.6c18.7-23.4,26.4-55.1,18-86.3c-6.2-23.1-20.2-41.9-38.4-54.6c3.9-9.7,4.8-20.7,1.8-31.5
	c-7.2-26.6-34.6-42.4-61.2-35.2c-24.1,6.5-39.2,29.5-36.7,53.5l-91.7,40.3l107.3,512.7c-0.3,3.5-0.4,7-0.4,10.6
	c0,22.2,5.6,43.1,15.5,61.3l43.1,205.8L191,934.7L306.8,898c15.1,6.4,31.8,10,49.2,10c45.2,0,84.8-23.8,107-59.5l28.9-9.2
	c6.4,1.7,13.1,2.6,20,2.6c5.9,0,11.7-0.7,17.2-1.9c0.3,1.1,0.5,2.1,0.8,3.2c14,51.9,67.5,82.7,119.4,68.7
	C701.4,897.9,732.1,844.5,718.1,792.5z"/>
<path class="st16" d="M2241-938c-1.7,0-3.3,0.1-4.9,0.4c-10.7-28.3-38.1-48.4-70.1-48.4c-35,0-64.4,24-72.7,56.4
	c-6-1.9-12.4-2.8-19-2.6c-8.5,0.3-16.6,2.5-23.7,6.2c-8-18.2-26.5-30.7-47.6-29.9c-11.3,0.4-21.6,4.6-29.8,11.2
	c-6.5-6-15.3-9.6-24.8-9.2c-12,0.4-22.4,7-28.2,16.5c-7-7.7-17-12.6-28.2-12.6c-6.5,0-12.7,1.7-18.1,4.6
	c-6-33.3-36.3-58.6-72.9-58.6c-35.6,0-65.3,23.9-72.4,55.8c-0.3,0.4-0.6,0.8-1,1.1c-5.4-7.7-14.5-12.6-24.6-12.3
	c-10.5,0.4-19.5,6.4-24.2,15.1c-5.8-1.7-12-2.7-18.4-2.7c-22.4,0-42.1,11.4-53.6,28.7c-18.6-21.3-46.4-34.4-76.9-33.3
	c-23.9,0.9-45.4,10.3-61.8,25.1c-9.2-6.4-20.6-9.8-32.7-8.8c-9.6,0.8-18.4,4.3-25.6,9.8c-5.2-7.5-13.9-12.5-23.8-12.5
	c-16,0-29,13-29,29s13,29,29,29c1.4,0,2.7-0.1,4-0.3c2.4,23.3,20.8,41.5,43.6,44.3l18.6,98.4l703.2,14.8L2219-858
	c6.5-6.5,11.8-14.2,15.6-22.7c2.1,0.5,4.2,0.7,6.4,0.7c16,0,29-13,29-29S2257-938,2241-938z"/>
<circle class="st16" cx="1580" cy="-1091" r="6"/>
<circle class="st16" cx="1868" cy="-1109" r="9"/>
<circle class="st16" cx="2073" cy="-1168" r="8"/>
<circle class="st16" cx="1695" cy="-1007" r="16"/>
<circle class="st15" cx="81" cy="229.5" r="13"/>
<circle class="st16" cx="87.5" cy="326.5" r="13.5"/>
<circle class="st15" cx="169" cy="325" r="6"/>
<circle class="st15" cx="493" cy="437" r="6"/>
<circle class="st15" cx="481" cy="600" r="14"/>
<circle class="st15" cx="586" cy="618" r="9"/>
<circle class="st15" cx="637" cy="412" r="3"/>
<circle class="st15" cx="1520.5" cy="-1013.5" r="3.5"/>
<circle class="st15" cx="1772" cy="-1154" r="6"/>
<path class="st17" d="M56.9,618.1C48.3,548.7-10.8,495-82.5,495c-77.6,0-140.5,62.9-140.5,140.5S-160.1,776-82.5,776
	c11.5,0,22.7-1.4,33.4-4c18,28.3,49.6,47,85.6,47C92.6,819,138,773.6,138,717.5C138,668.4,103.2,627.5,56.9,618.1z"/>
<path class="st16" d="M242,722c-5,0-9.9,0.6-14.7,1.6c-15-16.9-36.9-27.6-61.3-27.6c-10.6,0-20.7,2-30,5.7
	c-8.5-12.4-20.5-22.1-34.7-27.7c-12.8-22.7-37-38-64.8-38c-5.6,0-11.1,0.6-16.4,1.8c-1.3-0.4-2.7-0.7-4-1.1
	c-4.5-25.5-26.5-45-53.1-45.7c-10.2-30.8-39.3-53-73.5-53c-42.8,0-77.5,34.7-77.5,77.5c0,26.8,13.6,50.4,34.3,64.3
	c-35.8,33.3-58.3,80.9-58.3,133.7C-212,914.3-130.3,996-29.5,996c85.5,0,157.2-58.8,177.1-138.1c5.9,1.4,12.1,2.1,18.4,2.1
	c14.4,0,28-3.7,39.8-10.3c10.5,6.5,22.9,10.3,36.2,10.3c38.1,0,69-30.9,69-69C311,752.9,280.1,722,242,722z"/>
<path class="st15" d="M2022.7,355.1c0-53.6-43.6-97.1-97.3-97.1c-53.8,0-97.3,43.5-97.3,97.1c0,33.3,16.8,62.6,42.3,80.1
	c-10,11.6-16,26.6-16,43.1c0,7,1.1,13.8,3.1,20.1c-4.6-0.4-9.2-0.7-13.9-0.7c-50,0-93.9,26.1-118.9,65.4c-9.5-3.3-19.6-5.1-30.2-5.1
	c-17.2,0-33.2,4.7-47,12.8c-17.8-19-43-30.8-71.1-30.8c-53.8,0-97.3,43.5-97.3,97.1c0,33.3,16.8,62.6,42.3,80.1
	c-10,11.6-16,26.6-16,43.1c0,7,1.1,13.8,3.1,20.1c-4.6-0.4-9.2-0.7-13.9-0.7c-5.9,0-11.7,0.4-17.5,1.1h241.8v51.9
	c28.9-13.3,50.1-40.3,55.4-72.6v0c20.4,11.6,44,18.2,69.2,18.2c77.6,0,140.6-62.8,140.6-140.3c0-38-15.1-72.5-39.7-97.7
	c25-9.5,42.8-33.7,42.8-62c0-14.7-4.8-28.3-12.9-39.3C2003.2,422.2,2022.7,390.9,2022.7,355.1z"/>
<path class="st17" d="M2072.2,229.2c1.2-4.9,1.6-10,1-15.2c-2.6-24.8-24.8-42.7-49.5-40.1c-24.8,2.6-42.7,24.8-40.1,49.5
	c0.2,2.2,0.6,4.3,1.1,6.3c-24.2,8.4-40.4,32.7-37.6,59.3c0.6,5.3,1.9,10.4,3.7,15.1c-0.3,0-0.5,0-0.8,0c-33.1,0-60,26.9-60,60
	c0,24,14.1,44.7,34.4,54.3c4.8,3.5,10.5,5.7,16.7,6.1c-15.3,11.4-24.3,30.2-22.2,50.5c1.6,15,9,28,19.7,37
	c-13.5,6.5-22.2,20.9-20.5,36.6c0.5,4.8,1.9,9.2,4,13.2c-0.3,0.1-0.5,0.2-0.8,0.3c-5.1-2-10.5-3.1-16.3-3.1c-24.9,0-45,20.1-45,45
	c0,3.8,0.5,7.5,1.4,11c0,0-0.1,0.1-0.1,0.1c-6.5-1.8-13.4-2.4-20.5-1.7c-20.9,2.2-37.9,15.6-45.5,33.7c-0.8-0.3-1.5-0.6-2.3-0.9
	c-18.6-36.9-56.8-62.3-101-62.3c-41.7,0-78.2,22.7-97.7,56.3c-6.3-0.9-12.7-1.3-19.3-1.3c-57.3,0-106.5,34.4-128.2,83.7
	c-12.5-8-27.4-12.7-43.3-12.7c-44.5,0-80.5,36-80.5,80.5s36,80.5,80.5,80.5c19.8,0,38-7.2,52-19.1c24.6,40.2,68.9,67.1,119.5,67.1
	c42.9,0,81.3-19.3,107-49.7l467.5-43.7l59.7-557.6L2072.2,229.2z"/>
</svg>
