<?xml version="1.0" encoding="utf-8"?>
<!-- Generator: Adobe Illustrator 22.1.0, SVG Export Plug-In . SVG Version: 6.00 Build 0)  -->
<svg version="1.1" id="Capa_1" xmlns="http://www.w3.org/2000/svg" xmlns:xlink="http://www.w3.org/1999/xlink" x="0px" y="0px"
	 viewBox="0 0 949 807" style="enable-background:new 0 0 949 807;" xml:space="preserve">
<style type="text/css">
	.st0{fill:url(#SVGID_1_);}
	.st1{fill:url(#SVGID_2_);}
	.st2{fill:url(#SVGID_3_);}
	.st3{clip-path:url(#SVGID_5_);fill:url(#SVGID_6_);}
	.st4{fill:#20876E;}
	.st5{fill:#93F5E5;}
	.st6{fill:#5DC2AE;}
	.st7{fill:#164377;}
	.st8{fill:#105697;}
	.st9{fill:none;}
	.st10{fill:#FFFFFF;}
	.st11{fill:#D2D3D3;}
	.st12{opacity:0.21;}
	.st13{fill:#386D7C;}
	.st14{fill:#182B3A;}
	.st15{fill:#20C997;}
	.st16{fill:#114449;}
	.st17{fill:#18635A;}
	.st18{opacity:0.11;fill:#DDDDDD;}
	.st19{opacity:0.11;fill:#CACACA;}
	.st20{opacity:0.11;fill:#B4B4B4;}
	.st21{opacity:0.5;fill:#A7CBED;}
	.st22{fill:#E4E4E5;}
	.st23{fill:#11464A;}
	.st24{opacity:0.5;fill:#E4E4E5;}
	.st25{opacity:0.71;}
	.st26{fill:#257258;}
	.st27{fill:#DDEBF8;}
	.st28{fill:#D0533C;}
	.st29{fill:#A7CBED;}
	.st30{fill:#233B4A;}
	.st31{opacity:0.5;fill:#233B4A;}
	.st32{opacity:0.5;fill:#FFFFFF;}
	.st33{opacity:0.5;fill:#DF7666;}
	.st34{opacity:0.11;fill:#989898;}
	.st35{fill:#03A9F4;}
	.st36{fill:#EB816F;}
	.st37{fill:#4E687A;}
	.st38{fill:#FC906B;}
	.st39{fill:#4F485C;}
	.st40{fill:#E8E0CB;}
	.st41{fill:#F99D78;}
	.st42{fill:#FFF2D9;}
	.st43{fill:#3F2E7A;}
	.st44{fill:#352B6F;}
	.st45{fill:#21265C;}
	.st46{opacity:0.59;}
	.st47{fill:#463388;}
	.st48{fill:#3A2D78;}
	.st49{fill:#322B6D;}
</style>
<linearGradient id="SVGID_1_" gradientUnits="userSpaceOnUse" x1="-84.162" y1="2097.4565" x2="154.4523" y2="1056.0796">
	<stop  offset="0" style="stop-color:#001C4E"/>
	<stop  offset="0.9987" style="stop-color:#CBCAE5"/>
</linearGradient>
<rect x="-649" y="1569" class="st0" width="1200" height="750"/>
<linearGradient id="SVGID_2_" gradientUnits="userSpaceOnUse" x1="1062.2051" y1="1367.2478" x2="297.037" y2="2073.9133">
	<stop  offset="0" style="stop-color:#C4E5F7"/>
	<stop  offset="0.9936" style="stop-color:#FFFFFF"/>
</linearGradient>
<rect x="-70.7" y="1522" class="st1" width="1185.5" height="688.2"/>
<linearGradient id="SVGID_3_" gradientUnits="userSpaceOnUse" x1="-2640.3577" y1="638.4763" x2="-2505.2234" y2="48.7141">
	<stop  offset="0" style="stop-color:#0D2136"/>
	<stop  offset="0.9987" style="stop-color:#406EAE"/>
</linearGradient>
<path class="st2" d="M-2251.4,544c-44.5-18.3-102.5-6.5-135.9-41.2c-20.6-21.4-24.2-54-40.1-79.2c-24.1-38.2-72.4-53.3-117.3-58.2
	c-40.7-4.4-85.6-4.1-117-30.4c-28.5-24-38.6-64.8-67.3-88.6c-32.9-27.4-80.7-25.1-123.1-19.6c-36.9,4.9-73.7,11.1-110.1,18.9
	c-12.6,2.7-29.3,4.7-45.8,7.8V753h749c4.3-3.3,8.5-6.7,12.7-10.2c23-19.3,44.3-42.4,53.7-70.9
	C-2176.4,622.9-2203.6,563.7-2251.4,544z"/>
<g>
	<defs>
		<path id="SVGID_4_" d="M-2820.9,152.9c42.4-5.6,90.2-7.8,123.1,19.6c28.7,23.8,38.7,64.6,67.3,88.6c31.4,26.4,76.2,26,117,30.4
			c44.9,4.8,93.2,20,117.3,58.2c15.9,25.2,19.5,57.7,40.1,79.2c33.4,34.7,91.4,22.9,135.9,41.2c47.8,19.6,75,78.9,58.8,127.9
			c-9.4,28.5-30.8,51.5-53.7,70.9c-45.6,38.4-100.2,66.1-158.1,80.2c-73,17.8-149.3,14-224.5,12.8c-91.2-1.4-183.2,1.1-272.8-15.9
			c-45.9-8.7-91.7-22.9-129.3-50.6c-50.2-37-80.9-94.4-106.5-151.2c-10.2-22.7-20.1-46.5-19.8-71.4c0.5-45,33.1-82.1,54.4-121.7
			c15.6-29,25.7-61,29.5-93.7c2.2-18.8-3.4-46.6,13.6-59.5c22.8-17.3,69.9-20.2,97.5-26C-2894.6,164-2857.8,157.7-2820.9,152.9z"/>
	</defs>
	<clipPath id="SVGID_5_">
		<use xlink:href="#SVGID_4_"  style="overflow:visible;"/>
	</clipPath>
	<linearGradient id="SVGID_6_" gradientUnits="userSpaceOnUse" x1="-2471.9602" y1="527.593" x2="-2293.8728" y2="-186.2038">
		<stop  offset="0" style="stop-color:#0D2136"/>
		<stop  offset="0.9987" style="stop-color:#406EAE"/>
	</linearGradient>
	<rect x="-2976.8" y="24.5" class="st3" width="1097.5" height="654.4"/>
</g>
<ellipse transform="matrix(0.9486 -0.3165 0.3165 0.9486 -498.0524 -380.0413)" class="st4" cx="-1418.7" cy="1342.9" rx="18.6" ry="18.6"/>
<g>
	<g>
		
			<rect x="-853.3" y="563.3" transform="matrix(0.7397 0.673 -0.673 0.7397 238.4492 747.2498)" class="st4" width="13.3" height="237.1"/>
		
			<rect x="-838.8" y="573.1" transform="matrix(0.7397 0.673 -0.673 0.7397 247.84 742.5579)" class="st4" width="6" height="237.1"/>
		
			<rect x="-860.4" y="553.5" transform="matrix(0.7397 0.673 -0.673 0.7397 229.0578 751.9507)" class="st4" width="6" height="237.1"/>
	</g>
	<g>
		<g>
			<path class="st5" d="M-770.9,593c-1.4-3.1-2.9-6.1-4.7-8.9c-1.8-3-3.9-6.2-4.2-9.5l-7.3,6c-0.1,0.1-0.2,0.1-0.2,0.2
				c-1.9,2.1,4.6,11.2,14.5,20.2c0.9,0.8,1.8,1.6,2.7,2.4c0.5-1.1,0.9-2.3,1-3.5C-769,597.5-769.9,595.2-770.9,593z"/>
			<path class="st6" d="M-751.4,613.5c0.1-0.1,0.1-0.2,0.2-0.3l20.8-30.8l-28.1-25.6l-21.3,17.6c0.4,3.3,2.4,6.6,4.2,9.5
				c1.7,2.9,3.3,5.9,4.7,8.9c1,2.2,1.9,4.5,1.7,6.9c-0.1,1.2-0.4,2.4-1,3.5C-761.2,611-753.1,615.4-751.4,613.5z"/>
		</g>
		<g>
			<path class="st7" d="M-731.5,497.2c-12.7,15.6-26,30.6-42.3,42.2c-6.5,4.6-13.5,8.7-21.2,11c-5.3,1.6-11,2.3-16.5,1.7l-10.2,11.9
				l0,0c8.5,7.8,20.6,9.1,29.3,3.2l79.1-53.7L-731.5,497.2z"/>
			<path class="st8" d="M-795,550.4c7.7-2.3,14.7-6.4,21.2-11c16.3-11.6,29.6-26.7,42.3-42.2l-1.3-1.2c-9.5-8.7-23.6-8.2-31.4,0.9
				l-47.3,55.3C-806,552.8-800.3,552.1-795,550.4z"/>
		</g>
		<g>
			<path class="st8" d="M-689.2,587.7c8.2-7.7,16.4-15.4,24.5-23.2c-0.8-4.9-3.3-9.6-7.4-13.3l-19.5-17.7l-44.4,80.9
				c7-0.3,14-2.5,20.2-5.8C-705.8,603.3-697.4,595.5-689.2,587.7z"/>
			<path class="st7" d="M-664.7,564.5c-8.2,7.7-16.4,15.4-24.5,23.2c-8.2,7.7-16.6,15.6-26.5,20.9c-6.2,3.3-13.2,5.5-20.2,5.8
				l-1.6,2.9c-5,9.2-2.5,21.1,6,28.8l61.5-63.6C-665.3,577.7-663.5,571-664.7,564.5z"/>
		</g>
		<path class="st9" d="M-736.2,595.4c1.5,0.7,3,1.2,4.3,1.6C-733.2,596.6-734.7,596.1-736.2,595.4z"/>
		<path class="st9" d="M-744.6,590.6c1.2,0.8,2.3,1.5,3.5,2.2C-742.2,592.1-743.4,591.4-744.6,590.6z"/>
		<path class="st9" d="M-741.1,592.8c1.1,0.7,2.2,1.3,3.3,1.8C-738.8,594.1-739.9,593.5-741.1,592.8z"/>
		<path class="st5" d="M-762.3,575.2c-6.2-6.8-10.3-13.3-11.2-17.7l-4.6,6.2c-1.7,2.2,0.1,7.2,4.2,13.1c1.8-0.7,3.8-1.2,5.7-1.4
			C-766.2,575.1-764.3,575.2-762.3,575.2z"/>
		<path class="st6" d="M-736.2,595.4c-0.5-0.2-1-0.5-1.6-0.8c-1.1-0.5-2.2-1.1-3.3-1.8c-1.1-0.7-2.3-1.4-3.5-2.2
			c-3.6-2.4-7.3-5.3-11-8.7c-2.4-2.2-4.7-4.5-6.7-6.7c-2,0-3.9,0-5.9,0.2c-2,0.2-3.9,0.7-5.7,1.4c2.9,4,6.8,8.5,11.5,12.7
			c11.6,10.6,23.8,16.5,27.2,13.2l5.7-5.2c-0.8-0.1-1.6-0.3-2.5-0.5C-733.2,596.6-734.7,596.1-736.2,595.4z"/>
		<path class="st10" d="M-754.3,574.6c5.4-1.2,9.9-4.8,14.1-8.3c27.2-22.6,52.4-47.7,75.3-74.8c-1.6-1.3-3.2-2.6-4.7-4
			c-8.5-7.8-14.9-16.4-18.4-23.6c-19.1,12-35.1,26.6-47.1,42.6l-38.3,50.9c0.9,4.5,5.1,11,11.2,17.7
			C-759.6,575.2-756.9,575.2-754.3,574.6z"/>
		<path class="st11" d="M-644.4,503.6c-6.2-2.3-13.4-6.4-20.5-12c-22.8,27.1-48,52.1-75.3,74.8c-4.2,3.5-8.7,7.1-14.1,8.3
			c-2.6,0.6-5.3,0.6-8,0.6c2,2.2,4.3,4.5,6.7,6.7c3.7,3.4,7.4,6.3,11,8.7c1.2,0.8,2.3,1.5,3.5,2.2c1.1,0.7,2.2,1.3,3.3,1.8
			c0.5,0.3,1.1,0.5,1.6,0.8c1.5,0.7,3,1.2,4.3,1.6c0.9,0.2,1.7,0.4,2.5,0.5l47.1-42.9C-667.6,541-654.5,523.7-644.4,503.6z"/>
		<path class="st5" d="M-664.9,491.5c14.5-17.2,28.1-35.2,40.6-54c-23.5,5.4-45.1,14.6-63.7,26.3c3.5,7.2,9.9,15.8,18.4,23.6
			C-668.1,488.9-666.5,490.3-664.9,491.5z"/>
		<path class="st6" d="M-644.4,503.6c9.9-19.7,17.1-42.1,20.2-66.1v0h0c-0.1,0-0.1,0-0.2,0c-12.5,18.7-26.1,36.8-40.6,54
			C-657.8,497.2-650.6,501.3-644.4,503.6z"/>
		<path class="st12" d="M-673.8,523.2c-0.6-6.1-3.4-11.9-8.2-16.3c-10.5-9.5-26.7-8.8-36.2,1.7c-3.6,3.9-5.7,8.7-6.4,13.6
			c-1.2,8.1,1.6,16.7,8.1,22.7c10.5,9.5,26.7,8.8,36.2-1.7C-675.2,537.4-673,530.2-673.8,523.2z"/>
		<g>
			<path class="st5" d="M-695.4,529.6c8.8-1.4,16.7-6.5,22.6-13.2c-0.6-6.1-3.4-11.9-8.2-16.3c-10.5-9.5-26.7-8.8-36.2,1.7
				c-3.6,3.9-5.7,8.7-6.4,13.6c1,1.9,2,3.7,3.4,5.4C-714.6,527.9-704.6,531-695.4,529.6z"/>
			<path class="st6" d="M-672.8,516.4c-5.9,6.7-13.8,11.9-22.6,13.2c-9.1,1.4-19.2-1.7-24.9-8.9c-1.3-1.7-2.4-3.5-3.4-5.4
				c-1.2,8.1,1.6,16.7,8.1,22.7c10.5,9.5,26.7,8.8,36.2-1.7C-674.2,530.7-672.1,523.4-672.8,516.4z"/>
		</g>
		<g>
			<path class="st13" d="M-681.6,508.1L-715,508c-0.8,1.2-1.4,2.4-1.9,3.6l37.2,0.1C-680.2,510.4-680.8,509.2-681.6,508.1z"/>
			<path class="st14" d="M-679.7,511.7l-37.2-0.1c-0.7,1.7-1.1,3.5-1.3,5.3l39.8,0.1C-678.6,515.2-679,513.4-679.7,511.7z"/>
			<path class="st14" d="M-684.9,504.2c-8.2-7.4-20.8-6.8-28.3,1.3c-0.7,0.8-1.3,1.6-1.9,2.4l33.4,0.1
				C-682.5,506.7-683.6,505.4-684.9,504.2z"/>
			<path class="st13" d="M-687.1,535.6l-22.4-0.1C-702.8,540.2-693.9,540.1-687.1,535.6z"/>
			<path class="st14" d="M-683.5,532.5c1.5-1.7,2.7-3.5,3.5-5.5l-36.7-0.1c1.1,2.5,2.7,4.9,4.9,6.9c0.7,0.6,1.4,1.2,2.2,1.7
				l22.4,0.1C-685.8,534.7-684.6,533.7-683.5,532.5z"/>
			<path class="st13" d="M-678.4,517l-39.8-0.1c-0.4,3.4,0.1,6.9,1.5,10l36.7,0.1C-678.6,523.8-678.1,520.4-678.4,517z"/>
		</g>
	</g>
</g>
<g>
	
		<ellipse transform="matrix(0.7071 -0.7071 0.7071 0.7071 130.0519 2197.467)" class="st15" cx="2717.6" cy="941.7" rx="16.9" ry="16.9"/>
	
		<ellipse transform="matrix(0.3923 -0.9198 0.9198 0.3923 845.061 3950.9475)" class="st15" cx="3412.8" cy="1335.9" rx="23.4" ry="23.4"/>
	
		<ellipse transform="matrix(0.8747 -0.4846 0.4846 0.8747 -188.2461 1792.8671)" class="st15" cx="3373.9" cy="1260.6" rx="13.9" ry="13.9"/>
	<path class="st15" d="M3227.4,1252c0,2.5-2,4.5-4.5,4.5s-4.5-2-4.5-4.5c0-2.5,2-4.5,4.5-4.5
		C3225.4,1247.5,3227.4,1249.5,3227.4,1252z"/>
	<path class="st15" d="M2844.8,1037.2c0,4-3.3,7.2-7.3,7.2s-7.2-3.3-7.2-7.3c0-4,3.3-7.2,7.3-7.2S2844.8,1033.2,2844.8,1037.2z"/>
	<path class="st15" d="M2780,941c0,6.3-5.1,11.4-11.5,11.4c-6.3,0-11.4-5.1-11.4-11.5c0-6.3,5.1-11.4,11.5-11.4
		C2774.9,929.6,2780,934.7,2780,941z"/>
	
		<ellipse transform="matrix(0.6853 -0.7283 0.7283 0.6853 58.152 2680.8074)" class="st4" cx="3130.9" cy="1273.1" rx="16.9" ry="16.9"/>
	<path class="st4" d="M2869.9,1182.1c0.1,2.5-1.9,4.5-4.4,4.6c-2.5,0.1-4.5-1.9-4.6-4.4s1.9-4.5,4.4-4.6
		C2867.8,1177.7,2869.8,1179.6,2869.9,1182.1z"/>
	
		<ellipse transform="matrix(0.3753 -0.9269 0.9269 0.3753 779.8748 3196.3213)" class="st16" cx="2761.3" cy="1019.6" rx="12.4" ry="12.4"/>
	<path class="st16" d="M2788,1137.5c0.1,2.9-2.2,5.2-5,5.3c-2.9,0.1-5.2-2.2-5.3-5c-0.1-2.9,2.2-5.2,5-5.3
		C2785.6,1132.4,2788,1134.6,2788,1137.5z"/>
	<path class="st16" d="M3217.5,1342.7c0.2,6.8-5.2,12.5-12.1,12.7c-6.8,0.2-12.5-5.2-12.7-12.1c-0.2-6.8,5.2-12.5,12.1-12.7
		C3211.6,1330.4,3217.3,1335.8,3217.5,1342.7z"/>
	
		<ellipse transform="matrix(0.2511 -0.968 0.968 0.2511 1200.5249 4159.1465)" class="st16" cx="3288.2" cy="1303.7" rx="4.5" ry="4.5"/>
	
		<ellipse transform="matrix(0.3711 -0.9286 0.9286 0.3711 854.558 3946.5623)" class="st16" cx="3340.9" cy="1342.4" rx="6.2" ry="6.2"/>
	
		<ellipse transform="matrix(0.9788 -0.205 0.205 0.9788 -197.8221 605.1389)" class="st16" cx="2821.7" cy="1257.3" rx="17.2" ry="17.2"/>
	<g>
		<path class="st15" d="M3397.8,1384.9c4.5-43.5-27-82.5-70.6-87c-5.5-0.6-11-0.6-16.3,0c-3.6-15.4-16.5-27.5-33.1-29.2
			c-13.7-1.4-26.5,4.6-34.2,14.8c-15.1-0.2-29.2,5.5-39.8,15.2c-3.5-3.8-8.3-6.5-13.9-7c-11.4-1.2-21.7,6.6-23.8,17.7
			c-4.8-4.8-11.2-8.1-18.5-8.8c-7.5-0.8-14.7,1.2-20.5,5.1c-6-9.5-16.1-16.3-28.2-17.5c-16.2-1.7-31.1,7.1-38,20.9
			c-7.3-6.3-16.6-10.5-26.9-11.6c-12.3-1.3-23.9,2.1-33.3,8.6c-2.9-7.5-9.7-13.1-18.2-14c-10.2-1.1-19.5,5-22.9,14.2
			c-6.1-7-14.8-11.9-24.7-12.9c-6.5-0.7-12.9,0.3-18.6,2.7c-5.2-12.3-16.8-21.5-31-23c-4.8-0.5-9.5-0.1-13.9,1.1
			c-8.9-16.5-23.5-29.6-41.4-36.4c1.4-2.7,2.4-5.8,2.8-9c1.1-10.7-4.8-20.6-14-25c7.3-6.1,12.4-15,13.4-25.2
			c1.4-13.8-4.7-26.7-15.1-34.4c10.4-0.7,19.1-8.9,20.3-19.6c0.9-8.3-3-16-9.5-20.4c4.2-3.5,7.1-8.6,7.7-14.5
			c1.3-12.1-7.5-22.9-19.6-24.1c-2.5-0.3-5-0.1-7.3,0.5c2.3-4.3,3.8-9.1,4.3-14.2c1.9-18.2-9.1-34.7-25.6-40.4
			c0.3-1.4,0.6-2.8,0.8-4.3c1.8-16.9-10.5-32-27.4-33.8s-32,10.5-33.8,27.4c-0.4,3.6-0.1,7.1,0.7,10.4l-93.5,26.5l40.7,380.2
			l650.9,60.8l-2.7-22.8C3361.5,1453.9,3393.7,1424.3,3397.8,1384.9z"/>
		<path class="st4" d="M3445.3,1365.7c0.7-18.8-14-34.6-32.8-35.3c-7.7-0.3-14.8,2-20.7,6.1c-11.2-10.1-25.9-16.5-42.1-17.1
			c-22-0.8-41.9,9.2-54.5,25.2c-10.5-8.1-23.6-13.1-37.9-13.6c-2.3-0.1-4.7,0-7,0.1c-1.2-9.3-9-16.7-18.7-17
			c-6.9-0.2-13.1,3.1-16.7,8.4c-5.9-6.2-14.2-10.2-23.4-10.5c-8.1-0.3-15.6,2.3-21.6,6.8c-5.7-4.9-13-8-21.1-8.3
			c-18-0.7-33.2,12.7-35.1,30.3c-0.7-0.4-1.5-0.7-2.2-1.1c-8.1-3.4-16.9-3.4-24.6-0.7c-1.2-11.5-10.7-20.7-22.6-21.2
			c-6.5-0.2-12.5,2.2-16.9,6.3c-5.6-4.5-12.6-7.4-20.3-7.6c-14.4-0.5-27,8-32.4,20.4c-4.9-2.5-10.3-4-16.1-4.2
			c-4.5-0.2-8.9,0.5-13,1.8c-6.9-21.8-26.9-37.9-51-38.8c-8.8-0.3-17.2,1.4-24.8,4.8c-0.8-9.3-8.4-16.8-17.9-17.1c-1,0-2,0-3,0.2
			c-4-8.1-12.1-13.8-21.7-14.1c-2.1-0.1-4.1,0.1-6,0.5c-1.3-11.8-8.5-21.8-18.8-26.9c3.8-10.3,2.2-21.3-3.2-29.9
			c2.5-2.4,4.2-5.7,4.3-9.5c0.2-6.3-3.9-11.8-9.7-13.5c3.8-4,6.2-9.4,6.5-15.3c0.3-8.7-4.1-16.5-11-20.8c4.9-5.7,8-13,8.3-21.1
			c0.5-13.4-6.8-25.2-17.8-31.2c2.9-3.3,4.8-7.6,4.9-12.3c0.4-10.8-8.1-19.9-18.9-20.3c-0.4,0-0.9,0-1.3,0c0.9-3.1,1.5-6.4,1.6-9.8
			c0.6-16.3-9.1-30.6-23.3-36.6c0.8-3.8,1.4-7.8,1.5-11.9c1.3-36.7-27.3-67.4-64-68.8c-36.7-1.3-67.4,27.3-68.8,64
			c-1.3,36.7,27.3,67.4,64,68.8c3.5,0.1,7,0,10.4-0.4l-19.1,239.6l165.5,162.9l550.4-11.6l12.7-67.1
			C3431.7,1396.3,3444.6,1382.7,3445.3,1365.7z"/>
		<path class="st17" d="M3288.3,1418.6c4.7-37.4-21.8-71.6-59.3-76.3c-4.8-0.6-9.5-0.7-14-0.3c-2.8-13.3-13.7-24-28-25.8
			c-11.8-1.5-22.9,3.5-29.8,12.2c-13.1-0.4-25.3,4.3-34.6,12.4c-2.9-3.4-7.1-5.7-11.9-6.3c-9.8-1.2-18.8,5.3-20.9,14.8
			c-4.1-4.2-9.5-7.2-15.8-8c-6.5-0.8-12.7,0.8-17.7,4.1c-5-8.3-13.6-14.3-24-15.6c-14-1.8-27,5.5-33.1,17.3
			c-6.2-5.5-14.1-9.3-23-10.5c-10.6-1.3-20.7,1.4-28.9,6.8c-2.3-6.5-8.1-11.5-15.5-12.4c-8.8-1.1-16.9,4-20,11.9
			c-5.1-6.2-12.5-10.5-21.1-11.6c-5.6-0.7-11.1,0.1-16.1,2c-4.3-10.7-14.1-18.8-26.3-20.4c-4.2-0.5-8.2-0.2-12.1,0.7
			c-7.4-14.4-19.7-25.9-35.1-32.2c1.3-2.3,2.2-4.9,2.5-7.7c1.2-9.2-3.8-17.8-11.6-21.8c6.4-5.1,10.9-12.7,12-21.5
			c1.5-11.9-3.6-23.1-12.4-30c9-0.5,16.7-7.3,17.8-16.5c0.9-7.1-2.3-13.9-7.8-17.8c3.7-3,6.3-7.3,6.9-12.4
			c1.3-10.4-6.1-19.9-16.4-21.2c-2.2-0.3-4.3-0.1-6.3,0.3c2.1-3.6,3.5-7.7,4-12.2c2-15.6-7.2-30.1-21.4-35.3
			c0.3-1.2,0.6-2.4,0.7-3.7c1.8-14.5-8.5-27.8-23-29.6c-14.5-1.8-27.8,8.5-29.6,23c-0.4,3.1-0.2,6.1,0.4,9l-81.1,21.1l28.2,328.6
			l560.2,64.2l-1.9-19.7C3255.8,1477.4,3284.1,1452.5,3288.3,1418.6z"/>
		<path class="st16" d="M3265.7,1421.3c2.1-15.6-8.8-29.9-24.3-32c-6.3-0.9-12.5,0.4-17.7,3.3c-8.5-9.3-20.1-15.9-33.6-17.7
			c-18.2-2.5-35.5,4.2-47.4,16.5c-8.1-7.6-18.5-12.8-30.4-14.4c-1.9-0.3-3.9-0.4-5.8-0.5c-0.2-7.8-6.1-14.6-14.1-15.7
			c-5.7-0.8-11.1,1.5-14.6,5.6c-4.4-5.6-10.9-9.6-18.6-10.7c-6.7-0.9-13.1,0.6-18.5,3.8c-4.3-4.5-10.1-7.7-16.8-8.6
			c-14.9-2-28.6,7.9-31.6,22.3c-0.6-0.4-1.2-0.7-1.8-1.1c-6.5-3.5-13.7-4.2-20.4-2.6c0-9.7-7.2-18.1-17-19.4
			c-5.4-0.7-10.6,0.8-14.6,3.8c-4.2-4.2-9.8-7.1-16.2-8c-11.9-1.6-23.1,4.4-28.6,14.3c-3.8-2.5-8.2-4.2-13.1-4.8
			c-3.7-0.5-7.4-0.3-10.9,0.4c-3.9-18.7-19.2-33.7-39.2-36.4c-7.3-1-14.4-0.2-21,2c0.1-7.8-5.6-14.6-13.5-15.7
			c-0.8-0.1-1.7-0.1-2.5-0.1c-2.6-7-8.9-12.5-16.9-13.5c-1.7-0.2-3.4-0.2-5-0.1c-0.1-9.9-5.3-18.8-13.4-23.8
			c4-8.2,3.6-17.5-0.2-25.1c2.3-1.8,4-4.4,4.4-7.5c0.7-5.2-2.3-10.1-6.9-12c3.5-3,6-7.3,6.6-12.2c1-7.2-2.1-14-7.4-18.2
			c4.5-4.3,7.7-10.1,8.6-16.8c1.5-11.1-3.6-21.5-12.3-27.4c2.7-2.5,4.6-5.9,5.1-9.8c1.2-8.9-5.1-17.2-14-18.4
			c-0.4,0-0.7-0.1-1.1-0.1c1-2.5,1.8-5.2,2.2-8c1.8-13.5-5.1-26.2-16.4-32.4c1-3.1,1.8-6.4,2.2-9.7c4.1-30.3-17.2-58.3-47.5-62.4
			c-30.3-4.1-58.3,17.2-62.4,47.5c-4.1,30.3,17.2,58.3,47.5,62.4c2.9,0.4,5.8,0.6,8.7,0.5l-35.5,197.5L2764,1465l458.2,35.5l16-54.7
			C3251.9,1445.6,3263.8,1435.3,3265.7,1421.3z"/>
		<path class="st4" d="M2879.3,1222.4c0.1,4.4-3.4,8-7.7,8.1c-4.4,0.1-8-3.4-8.1-7.7c-0.1-4.4,3.4-8,7.7-8.1
			C2875.5,1214.6,2879.1,1218,2879.3,1222.4z"/>
		
			<ellipse transform="matrix(0.2348 -0.972 0.972 0.2348 1055.1974 3870.4104)" class="st4" cx="2986" cy="1265" rx="4.5" ry="4.5"/>
		<path class="st16" d="M2898.4,1322.3c0.1,4.2-3.2,7.7-7.4,7.8c-4.2,0.1-7.7-3.2-7.8-7.4c-0.1-4.2,3.2-7.7,7.4-7.8
			C2894.8,1314.8,2898.3,1318.1,2898.4,1322.3z"/>
		<path class="st16" d="M2942,1313.6c-0.1-3.2-2.8-5.8-6-5.7s-5.8,2.8-5.7,6c0.1,3.2,2.8,5.8,6,5.7
			C2939.5,1319.6,2942.1,1316.9,2942,1313.6z"/>
		<rect x="2728.7" y="869" class="st9" width="813.3" height="507.5"/>
	</g>
</g>
<g>
	<rect x="247" y="-1094.8" class="st9" width="894.4" height="248.8"/>
</g>
<g>
	<path class="st18" d="M2484-619c0,0,27.6-71.2,24-125c-2.1-31.2-35.6-59.5-36.5-57.2c-13.7-9.6-30.9-14.5-48.9-12.7
		c-15.1,1.6-28.7,7.7-39.4,17c-10.1-20.2-31.9-33.1-55.7-30.6c-17.7,1.8-32.5,11.8-41.3,25.7c-8.5-5.8-19-8.7-30-7.5
		c-10.7,1.1-20.1,5.9-27.2,13c-3.1-16.3-18.2-27.7-35-25.9c-8.2,0.9-15.3,4.7-20.4,10.3c-15.5-14.2-36.1-22.6-58.3-22.3
		c-11.4-15-30.1-23.8-50.2-21.7c-24.3,2.5-43.3,20.3-48.5,42.8c-7.8-0.8-15.8-0.8-23.9,0c-63.8,6.7-110.2,63.8-103.5,127.7
		c6,57.7,53.3,101.1,109.5,104l-3.9,33.4l590.6-55.2V-619H2484z"/>
	<path class="st19" d="M2552.8-800.7c-13.8,10.1-24.2,24.5-29.5,41.1c-6-1.9-12.4-2.8-19-2.6c-8.5,0.3-16.6,2.5-23.7,6.2
		c-8-18.2-26.5-30.7-47.6-29.9c-11.3,0.4-21.6,4.6-29.8,11.2c-6.5-6-15.3-9.6-24.8-9.2c-17.5,0.6-31.4,14.1-33.1,31.1
		c-11.3-4-24.1-4-36.1,1c-1.1,0.5-2.2,1-3.3,1.5c-2.8-25.8-25.1-45.4-51.4-44.5c-11.9,0.4-22.6,5-30.9,12.2
		c-8.8-6.6-19.8-10.3-31.7-9.9c-13.5,0.5-25.6,6.3-34.3,15.4c-5.4-7.7-14.5-12.6-24.6-12.3c-14.2,0.5-25.6,11.3-27.4,24.9
		c-3.4-0.2-6.8-0.3-10.2-0.2c-20.9,0.8-40.1,8.1-55.6,19.9c-18.6-23.5-47.7-38.2-80-37c-23.9,0.9-45.4,10.3-61.8,25.1
		c-9.2-6.4-20.6-9.8-32.7-8.8c-25.5,2.1-45.4,23.6-45.7,49.1c-0.3,26,19.1,47.3,43.9,50.2l18.6,98.4l703.2,14.8
		c0,0,62.4-162,50.6-216.2c-0.1-0.6-0.3-1.3-0.4-1.9C2626.7-807.4,2583.1-823,2552.8-800.7z"/>
	<path class="st20" d="M2594.4-572.2L2658-698c-15-81-71.9-69.1-76.4-68.6c-10.7,1.4-19.3,8.7-22.7,18.2c-12-8.1-26.9-12-42.4-10
		c-13,1.6-24.6,7.2-33.7,15.3c-9-17.3-28.1-28-48.6-25.4c-15.2,1.9-27.8,10.7-35.2,22.9c-7.4-4.8-16.5-7.2-26-6
		c-9.2,1.2-17.2,5.4-23.2,11.7c-3-14-16.2-23.6-30.6-21.7c-7,0.9-13.1,4.3-17.4,9.3c-13.6-11.9-31.6-18.8-50.7-18.2
		c-10.1-12.7-26.4-20-43.7-17.8c-20.9,2.6-36.9,18.3-41,37.8c-6.7-0.5-13.6-0.4-20.6,0.5c-54.9,6.9-93.9,57-86.9,112
		c6.2,49.6,47.8,86.2,96.3,87.7l-2.8,28.8L2594.4-572.2z"/>
	<rect x="1691" y="-960.8" class="st9" width="894.4" height="248.8"/>
</g>
<g>
	<g>
		<path class="st15" d="M-253-1440.3c0,0-3.3-8.9-6.3-12.9s-7.2,2.1-5.9,5.5c0,0-4.1-5-7.6-6.5c-12.4-5.1-22.6,13.5-7.7,22.7
			c11.5,6.6,16.6,9,16.6,9L-253-1440.3z"/>
	</g>
	<path class="st21" d="M-256.1-1435.3c-0.1-3.5-0.2-6.3-0.2-6.3s-10.5,11.5-12.5,10.8c-10.1-2.7-17.1-11.4-19.1-14.2
		c-0.6,4.6,1.3,9.7,7.3,13.4c11.5,6.6,16.6,9,16.6,9L-256.1-1435.3z"/>
	<g>
		<path class="st15" d="M-134-1395.1c0,0,0.8,10,2.4,14.7c1.6,4.8,7.5,0.3,7.4-3.3c0,0,1.7,5.5,4.6,8c10.1,8.8,25.7-5.6,14.6-19
			c-8.8-9.9-12.8-13.9-12.8-13.9L-134-1395.1z"/>
	</g>
	<path class="st21" d="M-131.6-1380.4c1.4,4.2,6.1,1.2,7.2-2c-0.9,1-2.6,1-3.9-0.6c-1.3-1.6-0.1-13-0.1-13c-0.3-0.7-2.7-0.3-4.9,0.2
		l-0.7,0.6C-134-1395.1-133.2-1385.2-131.6-1380.4z"/>
	<g>
		<path class="st15" d="M-250.7-1487.3c0,0-9.4-2.1-12.6,3.8c-3.2,5.9,1.4,34.7,8,36c4.5,0.6,10.2-1.5,10.2-1.5L-250.7-1487.3z"/>
	</g>
	<g>
		<path class="st15" d="M-151.1-1502c0,0,8.4-4.7,13.1,0c4.7,4.7,8.7,33.6,2.7,36.7c-4.1,1.9-10.2,1.5-10.2,1.5L-151.1-1502z"/>
	</g>
	<path class="st21" d="M-138.9-1472.8c1.1-11.6-4.9-25.6-7.3-30.9c-2.7,0.6-4.8,1.8-4.8,1.8l5.6,38.2c0,0,6.1,0.4,10.2-1.5
		c1.4-0.7,2.3-3,2.7-6C-135.7-1470.7-139-1470.8-138.9-1472.8z"/>
	<path class="st21" d="M-253.9-1455.8c-4.4-10.8-2.8-26-1.9-31.7c2.8-0.2,5.2,0.3,5.2,0.3l5.6,38.2c0,0-5.8,2.1-10.2,1.5
		c-1.6-0.3-3-2.2-4.3-5C-256.4-1452.9-253.3-1453.9-253.9-1455.8z"/>
	<g>
		<path class="st22" d="M-200.4-1479.5L-200.4-1479.5c-28.7,4.2-48.5,30.9-44.2,59.5l6.9,46.9c1.7,11.5,12.4,19.5,23.9,17.8
			l62.1-9.2c11.5-1.7,19.5-12.4,17.8-23.9l-6.9-46.9C-145.1-1463.9-171.7-1483.7-200.4-1479.5z"/>
		<g>
			<path class="st23" d="M-140.7-1434.1c-17.6,11.6-26.9,32.4-23.8,53.3l2.6,17.9l10.2-1.5c11.5-1.7,19.5-12.4,17.8-23.9
				L-140.7-1434.1L-140.7-1434.1z"/>
			<path class="st23" d="M-244.5-1418.8L-244.5-1418.8l6.8,45.8c1.7,11.5,12.4,19.5,23.9,17.8l10.2-1.5l-2.6-17.9
				C-209.3-1395.6-224.2-1412.8-244.5-1418.8z"/>
		</g>
		<path class="st24" d="M-162-1470.1c5.7,7.1,9.7,15.7,11.1,25.3l6.9,46.9c1.7,11.5-6.3,22.2-17.8,23.9l-62.1,9.2
			c-4.2,0.6-8.2,0-11.8-1.7c4,7.7,12.6,12.5,21.8,11.1l62.1-9.2c11.5-1.7,19.5-12.4,17.8-23.9l-6.9-46.9
			C-143-1449.8-150.9-1462.1-162-1470.1z"/>
	</g>
	<g>
		<path class="st10" d="M-134-1395.1l16.1-13.5c-16.3-19.5-32.1-25.3-43.5-26.3c-0.2-0.9-0.3-1.3-0.3-1.3s-7.2-9.5-31.5-6
			c-23.2,3.4-28,13.7-28.4,14.7c-8.2-1.6-19.1-5.2-31.4-12.8l-11.1,17.8c17.5,10.9,33.2,15,44.3,16.5c0.8,8.2,1.7,17.2,2.7,23.9
			c0.9,6,2.9,11.3,6.2,15.5c-3.5,8.9-8.2,23.1-9.7,37.3l23.4,2.5c1.2-10.6,5.2-22.7,8.5-30.9c2.4,0,5-0.2,7.8-0.6
			c3.1-0.5,5.9-1.1,8.5-1.9c5.5,6.9,12.9,17.4,17.2,27.3l21.7-9.2c-5.8-13.6-14.8-26.2-20.7-33.6c1.7-4.7,2-10.1,1.2-15.7
			c-0.9-6-2.3-13.7-3.8-21C-150.5-1410.4-142.6-1405.5-134-1395.1z"/>
	</g>
	<g>
		<path class="st10" d="M-144.3-1492.5c-13.5-45.9-61.7-36.8-61.7-36.8s-48.8,5.1-48.4,53c0.3,47.9,43.8,50,63.2,47.2
			C-171.8-1431.9-130.8-1446.6-144.3-1492.5z"/>
	</g>
	<path class="st22" d="M-144.3-1492.5c-3.4-11.5-9-19.6-15.5-25.2c4.9,5.3,9,12.3,11.8,21.6c13.5,45.9-27.5,60.5-46.9,63.4
		c-12.3,1.8-34.2,1.6-48.7-10.9c14.2,16.1,39,16.5,52.4,14.6C-171.8-1431.9-130.8-1446.6-144.3-1492.5z"/>
	<g>
		<g>
			<path class="st15" d="M-182.9-1372.7c-20.9,3.1-33.9-0.8-34.5-1c-2.8-0.9-4.3-3.8-3.5-6.6c0.9-2.8,3.8-4.3,6.5-3.5
				c0.2,0.1,11.6,3.3,29.9,0.6c18.3-2.7,27.7-9,27.8-9.1c2.4-1.6,5.6-1,7.3,1.3c1.6,2.4,1.1,5.6-1.3,7.3
				C-151.1-1383.2-161.9-1375.8-182.9-1372.7z"/>
		</g>
	</g>
	<path class="st21" d="M-151.1-1386.4c-0.5,0.3-11.3,7.8-32.3,10.9c-20.9,3.1-33.9-0.8-34.5-1c-1.5-0.5-2.6-1.5-3.2-2.9
		c-0.3,2.5,1.1,5,3.6,5.7c0.5,0.2,13.5,4.1,34.5,1c21-3.1,31.8-10.5,32.3-10.9c2.1-1.5,2.8-4.2,1.7-6.5
		C-149.1-1388.6-149.8-1387.3-151.1-1386.4z"/>
	<g class="st25">
		<g>
			<path class="st26" d="M-190.2-1421.9c-18.2,2.7-31.7-1.9-32.6-2.2c-1.8-0.6-2.8-2.6-2.2-4.5c0.6-1.8,2.6-2.8,4.5-2.2
				c0.4,0.1,28.6,9.5,57-8.5c1.6-1,3.8-0.6,4.8,1.1c1,1.6,0.6,3.8-1.1,4.8C-170.4-1426.6-180.9-1423.3-190.2-1421.9z"/>
		</g>
	</g>
	<path class="st15" d="M-222.1-1427.2c0.4,0.1,30.6,9.2,61.3-9.1c0.8-0.5,1.8-0.7,2.7-0.5c-0.1-0.4-0.2-0.9-0.5-1.3
		c-1-1.6-3.2-2.1-4.8-1.1c-28.3,18-56.6,8.6-57,8.5c-1.8-0.6-3.8,0.3-4.5,2.2c-0.2,0.5-0.2,1-0.2,1.5
		C-224.2-1427.4-223.1-1427.5-222.1-1427.2z"/>
	<g>
		<g>
			<path class="st27" d="M-178.8-1421.5l-7,1.8c-2.6,0.7-5.3,1.1-8,1.2l-7.7,0.4c-1.9,0.1-3.4,1.8-3.1,3.7l1.7,11.4
				c0.2,1.7,1.7,2.8,3.4,2.8l8.1-0.4c2.7-0.1,5.4-0.5,8-1.2l7.9-2c1.6-0.4,2.7-2,2.4-3.6l-1.7-11.4
				C-175.1-1420.7-177-1422-178.8-1421.5z"/>
		</g>
		<g>
			<path class="st28" d="M-196.4-1412.9c0.2,1.4-0.8,2.7-2.2,2.9c-1.4,0.2-2.7-0.8-2.9-2.2c-0.2-1.4,0.8-2.7,2.2-2.9
				C-198-1415.3-196.7-1414.3-196.4-1412.9z"/>
		</g>
		<g>
			<path class="st28" d="M-195.4-1405.9c0.2,1.4-0.8,2.7-2.2,2.9c-1.4,0.2-2.7-0.8-2.9-2.2c-0.2-1.4,0.8-2.7,2.2-2.9
				C-196.9-1408.3-195.6-1407.3-195.4-1405.9z"/>
		</g>
		<g>
			<g>
				<path class="st29" d="M-186.5-1411.9c-3.6,0.5-6.2,0.5-6.4,0.5c-0.9,0-1.5-0.7-1.5-1.6c0-0.9,0.7-1.5,1.6-1.5
					c0.1,0,7.3,0.1,13.9-2.5c0.8-0.3,1.7,0.1,2,0.9c0.3,0.8-0.1,1.7-0.9,2C-180.8-1412.9-183.9-1412.3-186.5-1411.9z"/>
			</g>
		</g>
		<g>
			<g>
				<path class="st29" d="M-185.5-1405.3c-3.6,0.5-6.2,0.5-6.4,0.5c-0.9,0-1.5-0.7-1.5-1.6c0-0.9,0.7-1.5,1.6-1.5
					c0.1,0,7.3,0.1,13.9-2.5c0.8-0.3,1.7,0.1,2,0.9c0.3,0.8-0.1,1.7-0.9,2C-179.9-1406.4-183-1405.7-185.5-1405.3z"/>
			</g>
		</g>
	</g>
	<path class="st15" d="M-167.2-1397.5l-2.8-2.7c-0.5-0.5-1.3-0.7-2-0.5l-3.7,1c-0.7,0.2-1.3,0.8-1.5,1.5l-1,3.8
		c-0.2,0.7,0,1.5,0.6,2l2.8,2.7c0.5,0.5,1.3,0.7,2,0.5l3.7-1c0.7-0.2,1.3-0.8,1.5-1.5l1-3.8C-166.5-1396.2-166.7-1397-167.2-1397.5z
		"/>
	<path class="st15" d="M-205.1-1391.9l1.9-3.4c0.4-0.7,1-1.1,1.8-1.1l3.9-0.1c0.7,0,1.4,0.4,1.8,1l2,3.3c0.4,0.6,0.4,1.4,0.1,2.1
		l-1.9,3.4c-0.4,0.7-1,1.1-1.8,1.1l-3.9,0.1c-0.7,0-1.4-0.4-1.8-1l-2-3.3C-205.4-1390.5-205.4-1391.3-205.1-1391.9z"/>
	<g>
		<g>
			<path class="st30" d="M-152.4-1484.4c-10.5-33.3-50.8-25.9-50.8-25.9s-40.7,4.5-41.2,39.4c-0.5,34.9,35.7,35.8,51.9,33.4
				C-176.2-1439.8-141.8-1451.1-152.4-1484.4z"/>
		</g>
		<path class="st31" d="M-152.4-1484.4c-2.8-8.8-7.7-14.8-13.4-18.8c2.8,3.4,5.2,7.6,6.8,12.8c10.5,33.3-23.8,44.6-40.1,47
			c-9.9,1.5-27.2,1.7-39.1-6.3c11,14,33.7,14,45.6,12.2C-176.2-1439.8-141.8-1451.1-152.4-1484.4z"/>
		<g>
			<path class="st32" d="M-203.2-1510.3c0,0-2.1,0.2-5.4,1c-2.8,13.4-10.1,38.2-28.9,60.4c3.9,4.6,9.2,7.6,14.9,9.5
				c22.7-27.6,30-58.1,32.2-71.5C-197.8-1511.3-203.2-1510.3-203.2-1510.3z"/>
			<path class="st32" d="M-177.1-1508.7c-2.4,13.5-10.5,45.2-35.4,71.5c3.9,0.5,7.8,0.6,11.4,0.5c21.8-25.5,29.6-54.1,32.3-68.5
				C-171.5-1506.7-174.3-1507.8-177.1-1508.7z"/>
		</g>
	</g>
	<g>
		<path class="st30" d="M-157.5-1370.4c-4.5,0.7-9.4-1.6-12.5-4.8c-4.9-5-6.8-13-4.9-20.5c0.4-1.4,1.8-2.2,3.2-1.9
			c1.4,0.4,2.2,1.8,1.9,3.2c-1.5,5.7-0.1,11.8,3.5,15.5c2.4,2.4,6.7,4.2,9.4,2.8c1.2-0.6,1.7-1.6,1.9-2.4c0.4-1.4,0.2-3-0.6-4.2
			c-0.5-0.8-1.4-1.7-2.4-2.5c-1.9-1.7-4.2-3.9-4.5-7.3c-0.2-2.2,0.5-4.4,2-6.1c1.6-1.8,3.9-2.9,6.4-2.9c1.4,0,2.6,1.1,2.7,2.6
			c0,1.5-1.1,2.7-2.6,2.7c-1,0-1.9,0.5-2.6,1.2c-0.4,0.4-0.8,1.1-0.7,2.1c0.1,1.3,1.2,2.3,2.9,3.9c1.2,1.1,2.4,2.2,3.3,3.7
			c1.5,2.5,1.9,5.6,1.2,8.4c-0.7,2.5-2.3,4.5-4.6,5.6C-155.5-1370.9-156.5-1370.6-157.5-1370.4z"/>
	</g>
	<g>
		<path class="st30" d="M-206.5-1363.2c-1,0.2-2.1,0.2-3.1,0c-2.5-0.4-4.6-1.9-6-4c-1.6-2.4-2-5.5-1.3-8.4c0.4-1.7,1.3-3.1,2.1-4.5
			c1.2-2,1.9-3.3,1.6-4.6c-0.2-1-0.8-1.5-1.3-1.8c-0.8-0.5-1.8-0.6-2.8-0.4c-1.4,0.4-2.8-0.4-3.2-1.8c-0.4-1.4,0.4-2.8,1.8-3.2
			c2.4-0.7,4.9-0.3,6.9,1c1.9,1.2,3.2,3,3.7,5.2c0.7,3.4-0.9,6.1-2.2,8.3c-0.7,1.1-1.3,2.2-1.5,3.1c-0.4,1.4-0.1,3,0.6,4.2
			c0.4,0.7,1.2,1.5,2.5,1.7c3,0.5,6.6-2.4,8.2-5.4c2.4-4.6,2-10.8-1.1-15.8c-0.8-1.2-0.4-2.9,0.9-3.6c1.2-0.8,2.9-0.4,3.6,0.9
			c4,6.6,4.5,14.8,1.2,21C-197.9-1367.5-202-1363.9-206.5-1363.2z"/>
	</g>
	<path class="st22" d="M-130.3-1402.7c0,0-13.1-16.7-28.5-19.1l2.2,9.2c6.2,2.2,14,7.1,22.7,17.4l2.7-2.2L-130.3-1402.7z"/>
	<g>
		<g>
			<path class="st5" d="M-133.4-1391.7c-1.2,0.2-2.4-0.2-3.2-1.2c-1.2-1.5-1-3.7,0.4-4.9l16.1-13.5c1.5-1.2,3.7-1,4.9,0.4
				c1.2,1.5,1,3.7-0.4,4.9l-16.1,13.5C-132.2-1392-132.8-1391.8-133.4-1391.7z"/>
		</g>
	</g>
	<path class="st21" d="M-101.5-1382.4c-12.8,12.6-22.7-1.3-22.7-1.3s1.7,5.5,4.6,8C-112.7-1369.7-103.3-1374.5-101.5-1382.4z"/>
	<path class="st15" d="M-130.4-1421.2c-7.3-6-14.2-9.5-20.5-11.6c-0.3,3.1-0.1,9.4,5,12.4C-140.3-1417.1-134-1417.7-130.4-1421.2z"
		/>
	<path class="st15" d="M-251.5-1415.6c8.4,4,16.1,6.5,22.8,8c-0.1-2.3-0.9-10.1-7.3-12.4C-242.3-1422.3-248.8-1420.3-251.5-1415.6z"
		/>
	<path class="st22" d="M-219.6-1414.4c0,0-24.2-4.9-38.4-13.8c-0.6-0.4-1.2-0.7-1.8-1l-4.2,6.7c17.5,10.9,33.2,15,44.3,16.5
		C-219.8-1406-220.2-1408.7-219.6-1414.4z"/>
	<g>
		<g>
			<path class="st5" d="M-263.6-1419c-0.8,0.1-1.6,0-2.4-0.5c-1.6-1-2.1-3.2-1.1-4.8l11.1-17.8c1-1.6,3.2-2.1,4.8-1.1
				c1.6,1,2.1,3.2,1.1,4.8l-11.1,17.8C-261.7-1419.7-262.6-1419.2-263.6-1419z"/>
		</g>
	</g>
	<path class="st22" d="M-157.2-1346.7c-1.6-1.1-12.9-16.2-13.5-17.6c-0.6-1.4-1.8-0.8-3.9,0.6c-2.1,1.4-12,3.8-14.5,2.1
		c-2.5-1.7-2.8-0.8-3.1-0.3c-0.3,0.5-8.2,22.9-8.2,22.9s2.2,0.2,5.4,0.5c1.8-7,4.2-13.9,6.3-19.2c2.4,0,5-0.2,7.8-0.6
		c3.1-0.5,5.9-1.1,8.5-1.9c3.7,4.7,8.3,11,12.2,17.6C-158-1344.5-156.5-1346.2-157.2-1346.7z"/>
	<g>
		<path class="st15" d="M-218.3-1344.4c-0.3,1.4-2.1,11.6-2.1,11.6s-11.7-8.6-22.8-3.8c-11.1,4.8-10.5,19.4-10.5,19.4l53.6,11.8
			l5.7-34.7L-218.3-1344.4z"/>
	</g>
	<g>
		<path class="st15" d="M-139.9-1356c0.7,1.3,5.4,10.5,5.4,10.5s8.7-11.7,20.8-10.2c12,1.4,15.6,15.6,15.6,15.6l-48,26.7l-15.4-31.6
			L-139.9-1356z"/>
	</g>
	<g>
		<path class="st30" d="M-146.1-1313.4l48-26.7c0,0-0.7-2.8-2.6-6l-48.2,27.1L-146.1-1313.4z"/>
	</g>
	<g>
		<path class="st30" d="M-253.7-1317.2l53.6,11.8l1.1-6.7l-53.6-13.1C-253.9-1320.9-253.7-1317.2-253.7-1317.2z"/>
	</g>
	<g>
		<path class="st5" d="M-161-1341.6c-1.4,0.2-2.9-0.5-3.6-1.9c-0.9-1.7-0.2-3.8,1.5-4.7l21.6-11c1.7-0.9,3.8-0.2,4.7,1.5
			c0.9,1.7,0.2,3.8-1.5,4.7l-21.6,11C-160.3-1341.8-160.7-1341.6-161-1341.6z"/>
	</g>
	<path class="st33" d="M-137-1355.3l-21.6,11c-0.3,0.2-0.7,0.3-1.1,0.3c-1.4,0.2-2.9-0.5-3.6-1.9c-0.3-0.6-0.4-1.3-0.4-1.9
		c-1.3,1-1.8,2.8-1,4.3c0.7,1.4,2.2,2.1,3.6,1.9c0.4-0.1,0.7-0.2,1.1-0.3l21.6-11c1.1-0.6,1.8-1.6,1.9-2.8
		C-136.6-1355.5-136.8-1355.4-137-1355.3z"/>
	<g>
		<path class="st5" d="M-193.9-1336.7c-0.4,0.1-0.7,0.1-1.1,0l-23.8-4.3c-1.9-0.3-3.2-2.2-2.8-4.1c0.3-1.9,2.2-3.2,4.1-2.8l23.8,4.3
			c1.9,0.3,3.2,2.2,2.8,4.1C-191.3-1338-192.5-1336.9-193.9-1336.7z"/>
	</g>
	<path class="st33" d="M-192.6-1343.2c0.2,0.6,0.3,1.2,0.2,1.9c-0.3,1.5-1.5,2.6-2.9,2.8c-0.4,0.1-0.7,0.1-1.1,0l-23.8-4.3
		c-0.4-0.1-0.8-0.2-1.2-0.5c0.4,1.1,1.4,1.9,2.6,2.1l23.8,4.3c0.4,0.1,0.8,0.1,1.1,0c1.4-0.2,2.7-1.3,2.9-2.8
		C-190.7-1341-191.4-1342.4-192.6-1343.2z"/>
	<path class="st30" d="M-135.1-1325.7l-5.2-5.4c-2.5-2.7-6.4-3.5-9.8-2.2l-4.8,1.8l0.8,1.6l4.6-1.8c2.8-1.1,5.9-0.4,8,1.8l5.1,5.3
		l3.3,3.9l1.6-0.9L-135.1-1325.7z"/>
	<path class="st30" d="M-201.2-1325.8c-3.7-0.3-7.1,1.7-8.8,4.9l-3.4,6.7l-2.3,5.3l1.7,0.4l2.1-4.9l3.4-6.6c1.3-2.6,4.1-4.2,7.1-4
		l4.2,0.3l0.3-1.7L-201.2-1325.8z"/>
</g>
<g>
	<g>
		<path class="st15" d="M1428.4,1151.8c0,0-4.6-9.1-8.3-13c-3.7-3.9-7.4,3.1-5.7,6.6c0,0-5-4.8-8.9-6c-13.8-4-22.4,17.1-5.5,25
			c13,5.6,18.7,7.6,18.7,7.6L1428.4,1151.8z"/>
	</g>
	<path class="st21" d="M1425.7,1157.6c-0.5-3.7-1-6.6-1-6.6s-9.8,13.5-12,13c-11-1.7-19.5-10.1-22-12.8c-0.1,4.9,2.6,10.2,9.3,13.4
		c13,5.6,18.7,7.6,18.7,7.6L1425.7,1157.6z"/>
	<g>
		<path class="st15" d="M1560.4,1185.7c0,0,2,10.5,4.3,15.4c2.3,4.9,8-0.6,7.5-4.4c0,0,2.5,5.7,5.8,8c11.8,8.2,26.7-9,13.2-21.9
			c-10.5-9.5-15.3-13.3-15.3-13.3L1560.4,1185.7z"/>
	</g>
	<path class="st21" d="M1564.8,1201.1c2,4.3,6.7,0.6,7.4-3c-0.8,1.2-2.6,1.4-4.2-0.2c-1.5-1.6-1.6-13.8-1.6-13.8
		c-0.3-0.7-2.9,0-5.2,0.8l-0.7,0.7C1560.4,1185.7,1562.5,1196.2,1564.8,1201.1z"/>
	<g>
		<path class="st15" d="M1425.3,1101.6c0,0-10.3-1.1-12.9,5.5c-2.7,6.6,5.7,36.7,12.8,37.3c4.8,0.1,10.7-2.8,10.7-2.8L1425.3,1101.6
			z"/>
	</g>
	<g>
		<path class="st15" d="M1529.5,1074.1c0,0,8.4-6,14-1.6c5.6,4.4,13.2,34.7,7.3,38.7c-4.1,2.5-10.7,2.8-10.7,2.8L1529.5,1074.1z"/>
	</g>
	<path class="st21" d="M1545.9,1103.6c-0.2-12.5-8.2-26.7-11.5-32c-2.8,1-4.9,2.5-4.9,2.5l10.6,40c0,0,6.6-0.3,10.7-2.8
		c1.4-1,2.1-3.4,2.1-6.7C1549.5,1105.5,1546.1,1105.8,1545.9,1103.6z"/>
	<path class="st21" d="M1425.6,1135.4c-6-11-6-27.3-5.8-33.5c2.9-0.6,5.5-0.3,5.5-0.3l10.6,40c0,0-5.9,2.9-10.7,2.8
		c-1.7-0.1-3.5-2-5.2-4.8C1423.3,1138.8,1426.5,1137.4,1425.6,1135.4z"/>
	<g>
		<path class="st22" d="M1479.7,1103.9L1479.7,1103.9c-30,7.9-47.9,38.6-39.9,68.6l13,49.1c3.2,12,15.5,19.2,27.6,16l64.9-17.2
			c12-3.2,19.2-15.5,16-27.6l-13-49.1C1540.4,1113.8,1509.7,1096,1479.7,1103.9z"/>
		<g>
			<path class="st23" d="M1548.6,1145c-17.4,14.5-24.8,37.7-19,59.5l5,18.8l10.6-2.8c12-3.2,19.2-15.5,16-27.6L1548.6,1145
				L1548.6,1145z"/>
			<path class="st23" d="M1440.1,1173.7L1440.1,1173.7l12.7,47.9c3.2,12,15.5,19.2,27.6,16l10.6-2.8l-5-18.8
				C1480.2,1194.2,1462.3,1177.7,1440.1,1173.7z"/>
		</g>
		<path class="st24" d="M1521.7,1109.3c6.9,6.8,12.2,15.5,14.8,25.6l13,49.1c3.2,12-4,24.4-16,27.6l-64.9,17.2
			c-4.4,1.1-8.7,0.9-12.7-0.4c5.2,7.8,14.9,11.8,24.5,9.2l64.9-17.2c12-3.2,19.2-15.5,16-27.6l-13-49.1
			C1544.3,1128.6,1534.4,1116.5,1521.7,1109.3z"/>
	</g>
	<g>
		<path class="st10" d="M1560.4,1185.7l15.5-16.2c-19.7-18.8-37.2-23.1-49.4-22.8c-0.3-0.9-0.5-1.4-0.5-1.4s-8.8-9.3-34.3-2.6
			c-24.2,6.4-28.2,17.9-28.5,19.1c-8.9-0.7-21-3.2-35-9.9l-9.7,20.3c19.9,9.5,37.1,12,49.1,12.3c1.8,8.6,3.9,18.1,5.8,25.1
			c1.7,6.3,4.4,11.7,8.5,15.7c-2.6,9.9-5.9,25.6-5.9,40.8l25.2-0.1c0-11.5,2.9-24.8,5.4-33.9c2.6-0.3,5.3-0.8,8.2-1.6
			c3.3-0.9,6.2-1.9,8.8-3c6.7,6.7,15.8,16.9,21.5,26.9l22-12.4c-7.7-13.8-18.8-26.1-26-33.3c1.3-5.2,0.9-10.9-0.6-16.9
			c-1.7-6.2-4.1-14.3-6.5-21.9C1541,1171.4,1550,1175.7,1560.4,1185.7z"/>
	</g>
	<g>
		<path class="st10" d="M1537.8,1083.4c-19.9-47.2-70-31.7-70-31.7s-51.3,11.3-45.2,62.2c6.1,50.9,52.5,48,72.9,42.6
			C1515.9,1151,1557.7,1130.6,1537.8,1083.4z"/>
	</g>
	<path class="st22" d="M1537.8,1083.4c-5-11.9-11.9-19.8-19.4-25c5.8,5.1,11.1,12,15.1,21.5c19.9,47.2-22,67.7-42.3,73.1
		c-12.9,3.4-36.2,5.8-53.2-5.8c17.1,15.4,43.5,12.9,57.5,9.2C1515.9,1151,1557.7,1130.6,1537.8,1083.4z"/>
	<g>
		<g>
			<path class="st15" d="M1511.1,1215.4c-21.9,5.8-36.2,3.2-36.8,3.1c-3-0.6-5.1-3.5-4.5-6.6c0.6-3,3.5-5,6.5-4.5
				c0.3,0,12.7,2.1,31.8-2.9c19.1-5.1,28.4-12.9,28.5-13c2.3-2,5.9-1.8,7.9,0.6c2,2.3,1.8,5.9-0.5,7.9
				C1543.6,1200.4,1533,1209.6,1511.1,1215.4z"/>
		</g>
	</g>
	<path class="st21" d="M1543.3,1197c-0.4,0.4-11.1,9.6-33,15.4c-21.9,5.8-36.2,3.2-36.8,3.1c-1.6-0.3-3-1.3-3.8-2.7
		c-0.1,2.7,1.8,5.1,4.6,5.7c0.6,0.1,14.9,2.7,36.8-3.1c21.9-5.8,32.6-15,33-15.4c2.1-1.8,2.5-4.8,1.1-7.1
		C1545.1,1194.4,1544.5,1195.9,1543.3,1197z"/>
	<g class="st25">
		<g>
			<path class="st26" d="M1497.4,1163.9c-19,5-34,1.8-34.9,1.6c-2-0.5-3.3-2.5-2.8-4.5c0.5-2,2.5-3.3,4.5-2.8
				c0.5,0.1,31.6,6.7,59.6-15.9c1.6-1.3,4-1,5.3,0.6c1.3,1.6,1,4-0.6,5.3C1518,1156.6,1507.2,1161.3,1497.4,1163.9z"/>
		</g>
	</g>
	<path class="st15" d="M1462.8,1162.1c0.5,0.1,33.7,6.1,64.1-17c0.8-0.6,1.8-0.9,2.8-0.9c-0.1-0.5-0.4-0.9-0.7-1.3
		c-1.3-1.6-3.7-1.9-5.3-0.6c-28,22.5-59.1,16-59.6,15.9c-2-0.5-4,0.8-4.5,2.8c-0.1,0.6-0.1,1.1,0,1.7
		C1460.6,1162.1,1461.7,1161.8,1462.8,1162.1z"/>
	<g>
		<g>
			<path class="st27" d="M1509.6,1163l-7.2,2.7c-2.7,1-5.5,1.8-8.3,2.2l-8.2,1.3c-2,0.3-3.4,2.3-2.8,4.3l3.2,11.9
				c0.5,1.7,2.1,2.8,3.9,2.6l8.6-1.3c2.8-0.4,5.6-1.2,8.3-2.2l8.1-3.1c1.7-0.6,2.6-2.4,2.1-4.1l-3.1-11.9
				C1513.6,1163.3,1511.5,1162.2,1509.6,1163z"/>
		</g>
		<g>
			<path class="st28" d="M1491.9,1174.2c0.4,1.5-0.5,3-2,3.4c-1.5,0.4-3-0.5-3.4-2s0.5-3,2-3.4S1491.5,1172.8,1491.9,1174.2z"/>
		</g>
		<g>
			<path class="st28" d="M1493.8,1181.6c0.4,1.5-0.5,3-2,3.4c-1.5,0.4-3-0.5-3.4-2c-0.4-1.5,0.5-3,2-3.4
				S1493.4,1180.1,1493.8,1181.6z"/>
		</g>
		<g>
			<g>
				<path class="st29" d="M1502.5,1174.1c-3.8,1-6.5,1.3-6.7,1.3c-0.9,0.1-1.7-0.6-1.8-1.5c-0.1-0.9,0.6-1.7,1.5-1.8
					c0.1,0,7.7-0.8,14.5-4.3c0.8-0.4,1.8-0.1,2.2,0.7c0.4,0.8,0.1,1.8-0.7,2.2C1508.4,1172.3,1505.2,1173.4,1502.5,1174.1z"/>
			</g>
		</g>
		<g>
			<g>
				<path class="st29" d="M1504.4,1181c-3.8,1-6.5,1.3-6.7,1.3c-0.9,0.1-1.7-0.6-1.8-1.5c-0.1-0.9,0.6-1.7,1.5-1.8
					c0.1,0,7.7-0.8,14.5-4.3c0.8-0.4,1.8-0.1,2.2,0.7c0.4,0.8,0.1,1.8-0.7,2.2C1510.3,1179.2,1507.1,1180.3,1504.4,1181z"/>
			</g>
		</g>
	</g>
	<path class="st15" d="M1524.8,1187.1l-3.3-2.6c-0.6-0.5-1.5-0.6-2.2-0.3l-3.9,1.5c-0.7,0.3-1.3,1-1.4,1.8l-0.6,4.1
		c-0.1,0.8,0.2,1.6,0.8,2.1l3.3,2.6c0.6,0.5,1.5,0.6,2.2,0.3l3.9-1.5c0.7-0.3,1.3-1,1.4-1.8l0.6-4.1
		C1525.7,1188.4,1525.4,1187.6,1524.8,1187.1z"/>
	<path class="st15" d="M1485.2,1197.6l1.6-3.8c0.3-0.7,1-1.3,1.8-1.4l4.1-0.6c0.8-0.1,1.6,0.2,2.1,0.8l2.6,3.3
		c0.5,0.6,0.6,1.5,0.3,2.2l-1.6,3.8c-0.3,0.7-1,1.3-1.8,1.4l-4.1,0.6c-0.8,0.1-1.6-0.2-2.1-0.8l-2.6-3.3
		C1485,1199.2,1484.9,1198.3,1485.2,1197.6z"/>
	<g>
		<g>
			<path class="st30" d="M1530.2,1092.9c-15.2-34.2-57.2-21.4-57.2-21.4s-42.8,9.7-39.1,46.9c3.7,37.2,42.2,33.8,59.3,29.4
				C1510.2,1143.2,1545.4,1127.1,1530.2,1092.9z"/>
		</g>
		<path class="st31" d="M1530.2,1092.9c-4-9.1-9.9-14.8-16.4-18.4c3.4,3.3,6.4,7.5,8.8,12.8c15.2,34.2-20,50.3-37,54.8
			c-10.4,2.7-28.7,5-42.3-2c13.4,13.5,37.5,10.9,50,7.6C1510.2,1143.2,1545.4,1127.1,1530.2,1092.9z"/>
		<g>
			<path class="st32" d="M1473,1071.5c0,0-2.2,0.5-5.6,1.7c-1.3,14.6-6.2,41.9-23.5,67.7c4.7,4.5,10.7,7,16.9,8.4
				c20.8-32.1,24.9-65.4,25.7-79.9C1478.7,1069.8,1473,1071.5,1473,1071.5z"/>
			<path class="st32" d="M1501,1070.1c-0.9,14.7-5.7,49.4-29.1,80.3c4.2,0.1,8.4-0.3,12.2-0.8c20.1-29.8,25.1-61,26.2-76.7
				C1507.2,1071.5,1504.1,1070.6,1501,1070.1z"/>
		</g>
	</g>
	<g>
		<path class="st30" d="M1538.3,1214.8c-4.7,1.2-10.2-0.6-13.9-3.6c-5.8-4.7-8.8-13-7.7-21.2c0.2-1.5,1.6-2.6,3.2-2.4
			c1.5,0.2,2.6,1.6,2.4,3.2c-0.9,6.3,1.3,12.5,5.6,16c2.8,2.3,7.6,3.7,10.4,1.9c1.2-0.8,1.6-1.9,1.7-2.7c0.3-1.5-0.2-3.2-1.1-4.4
			c-0.6-0.8-1.7-1.6-2.8-2.4c-2.2-1.6-4.9-3.6-5.7-7.2c-0.5-2.3,0-4.7,1.4-6.7c1.5-2.1,3.8-3.5,6.4-3.9c1.5-0.2,3,0.9,3.2,2.4
			c0.2,1.5-0.9,3-2.4,3.2c-1,0.1-2,0.7-2.6,1.5c-0.3,0.5-0.7,1.3-0.5,2.3c0.3,1.4,1.5,2.4,3.5,3.8c1.4,1,2.8,2.1,3.9,3.5
			c1.9,2.5,2.7,5.7,2.2,8.8c-0.5,2.7-2,5-4.2,6.5C1540.4,1214,1539.4,1214.5,1538.3,1214.8z"/>
	</g>
	<g>
		<path class="st30" d="M1487.1,1228.3c-1.1,0.3-2.2,0.4-3.3,0.3c-2.7-0.2-5.1-1.4-6.9-3.6c-1.9-2.4-2.8-5.6-2.4-8.7
			c0.3-1.8,1-3.4,1.7-5c1-2.2,1.6-3.7,1.2-5c-0.3-1-1-1.5-1.6-1.8c-0.9-0.4-2-0.4-3-0.1c-1.4,0.6-3.1-0.1-3.7-1.6
			c-0.6-1.4,0.1-3.1,1.6-3.7c2.4-1,5.2-0.9,7.5,0.2c2.2,1,3.8,2.8,4.5,5.1c1.1,3.5-0.3,6.6-1.4,9.1c-0.6,1.3-1.1,2.5-1.3,3.5
			c-0.2,1.5,0.2,3.2,1.2,4.4c0.5,0.6,1.5,1.4,2.9,1.5c3.3,0.2,6.7-3.4,8.1-6.8c2-5.1,0.8-11.7-3-16.7c-0.9-1.2-0.7-3,0.5-3.9
			c1.2-0.9,3-0.7,3.9,0.5c5.1,6.5,6.5,15.3,3.8,22.2C1495.7,1222.7,1491.8,1227.1,1487.1,1228.3z"/>
	</g>
	<path class="st22" d="M1563.4,1177.2c0,0-15.9-16.2-32.6-16.9l3.5,9.5c6.8,1.6,15.8,5.8,26.2,15.8l2.6-2.7L1563.4,1177.2z"/>
	<g>
		<g>
			<path class="st5" d="M1561.4,1189.3c-1.2,0.3-2.6,0-3.5-0.9c-1.5-1.4-1.5-3.8-0.1-5.3l15.5-16.2c1.4-1.5,3.8-1.5,5.3-0.1
				c1.5,1.4,1.5,3.8,0.1,5.3l-15.5,16.2C1562.7,1188.8,1562,1189.1,1561.4,1189.3z"/>
		</g>
	</g>
	<path class="st21" d="M1596.5,1195.4c-12.1,14.9-24.3,1.3-24.3,1.3s2.5,5.7,5.8,8C1586.1,1210.2,1595.6,1204,1596.5,1195.4z"/>
	<path class="st15" d="M1561.1,1157.5c-8.5-5.5-16.3-8.4-23.1-9.8c0.1,3.3,1.1,10,6.8,12.6C1551.1,1163,1557.7,1161.7,1561.1,1157.5
		z"/>
	<path class="st15" d="M1433,1177.9c9.4,3.2,17.9,4.9,25.2,5.8c-0.4-2.4-2.2-10.6-9.3-12.3C1441.9,1169.7,1435.2,1172.7,1433,1177.9
		z"/>
	<path class="st22" d="M1467,1175.4c0,0-26.4-2.3-42.5-10.1c-0.7-0.3-1.4-0.6-2.1-0.8l-3.6,7.7c19.9,9.5,37.1,12,49.1,12.3
		C1467.9,1184.4,1467,1181.5,1467,1175.4z"/>
	<g>
		<g>
			<path class="st5" d="M1419.7,1175.7c-0.8,0.2-1.7,0.2-2.6-0.2c-1.9-0.9-2.7-3.1-1.8-5l9.7-20.3c0.9-1.9,3.1-2.7,5-1.8
				c1.9,0.9,2.7,3.1,1.8,5l-9.7,20.3C1421.6,1174.8,1420.7,1175.5,1419.7,1175.7z"/>
		</g>
	</g>
	<path class="st22" d="M1541.6,1240c-1.8-1-15.7-15.7-16.5-17.2c-0.8-1.5-2.1-0.7-4.1,1.1c-2,1.8-12.3,5.5-15.1,4s-3.1-0.5-3.3,0
		c-0.2,0.6-6,25.3-6,25.3s2.4-0.1,5.9-0.1c1.1-7.7,2.8-15.3,4.4-21.1c2.6-0.3,5.3-0.8,8.2-1.6c3.3-0.9,6.2-1.9,8.8-3
		c4.5,4.5,10.2,10.7,15.1,17.3C1540.9,1242.4,1542.3,1240.4,1541.6,1240z"/>
	<g>
		<path class="st15" d="M1476.8,1249.7c-0.2,1.6-0.9,12.6-0.9,12.6s-13.5-7.8-24.8-1.3c-11.2,6.5-8.8,21.9-8.8,21.9l58.5,6.2
			l1.9-37.6L1476.8,1249.7z"/>
	</g>
	<g>
		<path class="st15" d="M1558.8,1228c0.9,1.3,6.9,10.5,6.9,10.5s7.9-13.4,20.9-13.4c13,0.1,18.5,14.7,18.5,14.7l-47.8,34.2
			l-20.2-31.8L1558.8,1228z"/>
	</g>
	<g>
		<path class="st30" d="M1557.3,1274l47.8-34.2c0,0-1.1-2.9-3.5-6.1l-48,34.6L1557.3,1274z"/>
	</g>
	<g>
		<path class="st30" d="M1442.4,1282.8l58.5,6.2l0.4-7.2l-58.6-7.5C1441.8,1278.9,1442.4,1282.8,1442.4,1282.8z"/>
	</g>
	<g>
		<path class="st5" d="M1538.1,1245.9c-1.5,0.4-3.2-0.2-4.1-1.6c-1.1-1.7-0.7-4.1,1.1-5.2l21.7-14.2c1.7-1.1,4.1-0.7,5.2,1.1
			c1.1,1.7,0.7,4.1-1.1,5.2l-21.7,14.2C1538.8,1245.6,1538.4,1245.8,1538.1,1245.9z"/>
	</g>
	<path class="st33" d="M1562,1228.4l-21.7,14.2c-0.3,0.2-0.7,0.4-1.1,0.5c-1.5,0.4-3.2-0.2-4.1-1.6c-0.4-0.6-0.6-1.3-0.6-2
		c-1.3,1.2-1.5,3.2-0.5,4.7c0.9,1.4,2.6,2,4.1,1.6c0.4-0.1,0.8-0.3,1.1-0.5l21.7-14.2c1.1-0.7,1.7-1.9,1.7-3.2
		C1562.3,1228.1,1562.2,1228.3,1562,1228.4z"/>
	<g>
		<path class="st5" d="M1503.6,1255c-0.4,0.1-0.8,0.1-1.2,0.1l-25.9-1.7c-2.1-0.1-3.6-1.9-3.5-4c0.1-2.1,1.9-3.6,4-3.5l25.9,1.7
			c2.1,0.1,3.6,1.9,3.5,4C1506.3,1253.3,1505.2,1254.6,1503.6,1255z"/>
	</g>
	<path class="st33" d="M1504.3,1248c0.3,0.6,0.5,1.3,0.4,2c-0.1,1.6-1.3,3-2.8,3.4c-0.4,0.1-0.8,0.1-1.2,0.1l-25.9-1.7
		c-0.5,0-0.9-0.2-1.3-0.4c0.6,1.1,1.7,1.9,3,2l25.9,1.7c0.4,0,0.8,0,1.2-0.1c1.5-0.4,2.7-1.7,2.8-3.4
		C1506.5,1250,1505.6,1248.6,1504.3,1248z"/>
	<path class="st30" d="M1567.5,1259.6l-6.1-5.1c-3-2.5-7.2-3-10.7-1.2l-4.9,2.5l1,1.6l4.7-2.5c2.8-1.5,6.2-1.1,8.7,0.9l6.1,5.1
		l4,3.7l1.6-1.1L1567.5,1259.6z"/>
	<path class="st30" d="M1497.3,1267.5c-3.9,0.1-7.4,2.6-8.8,6.3l-2.8,7.5l-1.8,5.9l1.9,0.2l1.7-5.5l2.8-7.5c1.1-3,3.9-5,7.1-5.1
		l4.5-0.2l0.1-1.9L1497.3,1267.5z"/>
</g>
<g>
	<g>
		
			<rect x="1857.7" y="2425.3" transform="matrix(0.7397 0.673 -0.673 0.7397 2197.2751 -592.4371)" class="st4" width="13.3" height="237.1"/>
		
			<rect x="1872.2" y="2435.1" transform="matrix(0.7397 0.673 -0.673 0.7397 2206.6699 -597.13)" class="st4" width="6" height="237.1"/>
		
			<rect x="1850.6" y="2415.5" transform="matrix(0.7397 0.673 -0.673 0.7397 2187.906 -587.7415)" class="st4" width="6" height="237.1"/>
	</g>
	<g>
		<g>
			<path class="st5" d="M1940.1,2455c-1.4-3.1-2.9-6.1-4.7-8.9c-1.8-3-3.9-6.2-4.2-9.5l-7.3,6c-0.1,0.1-0.2,0.1-0.2,0.2
				c-1.9,2.1,4.6,11.2,14.5,20.2c0.9,0.8,1.8,1.6,2.7,2.4c0.5-1.1,0.9-2.3,1-3.5C1942,2459.5,1941.1,2457.2,1940.1,2455z"/>
			<path class="st6" d="M1959.6,2475.5c0.1-0.1,0.1-0.2,0.2-0.3l20.8-30.8l-28.1-25.6l-21.3,17.6c0.4,3.3,2.4,6.6,4.2,9.5
				c1.7,2.9,3.3,5.9,4.7,8.9c1,2.2,1.9,4.5,1.7,6.9c-0.1,1.2-0.4,2.4-1,3.5C1949.8,2473,1957.9,2477.4,1959.6,2475.5z"/>
		</g>
		<g>
			<path class="st7" d="M1979.5,2359.2c-12.7,15.6-26,30.6-42.3,42.2c-6.5,4.6-13.5,8.7-21.2,11c-5.3,1.6-11,2.3-16.5,1.7
				l-10.2,11.9h0c8.5,7.8,20.6,9.1,29.3,3.2l79.1-53.7L1979.5,2359.2z"/>
			<path class="st8" d="M1916,2412.4c7.7-2.3,14.7-6.4,21.2-11c16.3-11.6,29.6-26.7,42.3-42.2l-1.3-1.2c-9.5-8.7-23.6-8.2-31.4,0.9
				l-47.3,55.3C1905,2414.8,1910.7,2414.1,1916,2412.4z"/>
		</g>
		<g>
			<path class="st8" d="M2021.8,2449.7c8.2-7.7,16.4-15.4,24.5-23.2c-0.8-4.9-3.3-9.6-7.4-13.3l-19.5-17.7l-44.4,80.9
				c7-0.3,14-2.5,20.2-5.8C2005.2,2465.3,2013.6,2457.5,2021.8,2449.7z"/>
			<path class="st7" d="M2046.3,2426.5c-8.2,7.7-16.4,15.4-24.5,23.2c-8.2,7.7-16.6,15.6-26.5,20.9c-6.2,3.3-13.2,5.5-20.2,5.8
				l-1.6,2.9c-5,9.2-2.5,21.1,6,28.8l61.5-63.6C2045.7,2439.7,2047.5,2433,2046.3,2426.5z"/>
		</g>
		<path class="st9" d="M1974.8,2457.4c1.5,0.7,3,1.2,4.3,1.6C1977.8,2458.6,1976.3,2458.1,1974.8,2457.4z"/>
		<path class="st9" d="M1966.4,2452.6c1.2,0.8,2.3,1.5,3.5,2.2C1968.8,2454.1,1967.6,2453.4,1966.4,2452.6z"/>
		<path class="st9" d="M1969.9,2454.8c1.1,0.7,2.2,1.3,3.3,1.8C1972.2,2456.1,1971.1,2455.5,1969.9,2454.8z"/>
		<path class="st5" d="M1948.7,2437.2c-6.2-6.8-10.3-13.3-11.2-17.7l-4.6,6.2c-1.7,2.2,0.1,7.2,4.2,13.1c1.8-0.7,3.8-1.2,5.7-1.4
			C1944.8,2437.1,1946.7,2437.2,1948.7,2437.2z"/>
		<path class="st6" d="M1974.8,2457.4c-0.5-0.2-1-0.5-1.6-0.8c-1.1-0.5-2.2-1.1-3.3-1.8c-1.1-0.7-2.3-1.4-3.5-2.2
			c-3.6-2.4-7.3-5.3-11-8.7c-2.4-2.2-4.7-4.5-6.7-6.7c-2,0-3.9,0-5.9,0.2c-2,0.2-3.9,0.7-5.7,1.4c2.9,4,6.8,8.5,11.5,12.7
			c11.6,10.6,23.8,16.5,27.2,13.2l5.7-5.2c-0.8-0.1-1.6-0.3-2.5-0.5C1977.8,2458.6,1976.3,2458.1,1974.8,2457.4z"/>
		<path class="st10" d="M1956.7,2436.6c5.4-1.2,9.9-4.8,14.1-8.3c27.2-22.6,52.4-47.7,75.3-74.8c-1.6-1.3-3.2-2.6-4.7-4
			c-8.5-7.8-14.9-16.4-18.4-23.6c-19.1,12-35.1,26.6-47.1,42.6l-38.3,50.9c0.9,4.5,5.1,11,11.2,17.7
			C1951.4,2437.2,1954.1,2437.2,1956.7,2436.6z"/>
		<path class="st11" d="M2066.6,2365.6c-6.2-2.3-13.4-6.4-20.5-12c-22.8,27.1-48,52.1-75.3,74.8c-4.2,3.5-8.7,7.1-14.1,8.3
			c-2.6,0.6-5.3,0.6-8,0.6c2,2.2,4.3,4.5,6.7,6.7c3.7,3.4,7.4,6.3,11,8.7c1.2,0.8,2.3,1.5,3.5,2.2c1.1,0.7,2.2,1.3,3.3,1.8
			c0.5,0.3,1.1,0.5,1.6,0.8c1.5,0.7,3,1.2,4.3,1.6c0.9,0.2,1.7,0.4,2.5,0.5l47.1-42.9C2043.4,2403,2056.5,2385.7,2066.6,2365.6z"/>
		<path class="st5" d="M2046.1,2353.5c14.5-17.2,28.1-35.2,40.6-54c-23.5,5.4-45.1,14.6-63.7,26.3c3.5,7.2,9.9,15.8,18.4,23.6
			C2042.9,2350.9,2044.5,2352.3,2046.1,2353.5z"/>
		<path class="st6" d="M2066.6,2365.6c9.9-19.7,17.1-42.1,20.2-66.1l0,0h0c-0.1,0-0.1,0-0.2,0c-12.5,18.7-26.1,36.8-40.6,54
			C2053.2,2359.2,2060.4,2363.3,2066.6,2365.6z"/>
		<path class="st12" d="M2037.2,2385.2c-0.6-6.1-3.4-11.9-8.2-16.3c-10.5-9.5-26.7-8.8-36.2,1.7c-3.6,3.9-5.7,8.7-6.4,13.6
			c-1.2,8.1,1.6,16.7,8.1,22.7c10.5,9.5,26.7,8.8,36.2-1.7C2035.8,2399.4,2038,2392.2,2037.2,2385.2z"/>
		<g>
			<path class="st5" d="M2015.6,2391.6c8.8-1.4,16.7-6.5,22.6-13.2c-0.6-6.1-3.4-11.9-8.2-16.3c-10.5-9.5-26.7-8.8-36.2,1.7
				c-3.6,3.9-5.7,8.7-6.4,13.6c1,1.9,2,3.7,3.4,5.4C1996.4,2389.9,2006.4,2393,2015.6,2391.6z"/>
			<path class="st6" d="M2038.2,2378.4c-5.9,6.7-13.8,11.9-22.6,13.2c-9.1,1.4-19.2-1.7-24.9-8.9c-1.3-1.7-2.4-3.5-3.4-5.4
				c-1.2,8.1,1.6,16.7,8.1,22.7c10.5,9.5,26.7,8.8,36.2-1.7C2036.8,2392.7,2038.9,2385.4,2038.2,2378.4z"/>
		</g>
		<g>
			<path class="st13" d="M2029.4,2370.1l-33.4-0.1c-0.8,1.2-1.4,2.4-1.9,3.6l37.2,0.1C2030.8,2372.4,2030.2,2371.2,2029.4,2370.1z"
				/>
			<path class="st14" d="M2031.3,2373.7l-37.2-0.1c-0.7,1.7-1.1,3.5-1.3,5.3l39.8,0.1C2032.4,2377.2,2032,2375.4,2031.3,2373.7z"/>
			<path class="st14" d="M2026.1,2366.2c-8.2-7.4-20.8-6.8-28.3,1.3c-0.7,0.8-1.3,1.6-1.9,2.4l33.4,0.1
				C2028.5,2368.7,2027.4,2367.4,2026.1,2366.2z"/>
			<path class="st13" d="M2023.9,2397.6l-22.4-0.1C2008.2,2402.2,2017.1,2402.1,2023.9,2397.6z"/>
			<path class="st14" d="M2027.5,2394.5c1.5-1.7,2.7-3.5,3.5-5.5l-36.7-0.1c1.1,2.5,2.7,4.9,4.9,6.9c0.7,0.6,1.4,1.2,2.2,1.7
				l22.4,0.1C2025.2,2396.7,2026.4,2395.7,2027.5,2394.5z"/>
			<path class="st13" d="M2032.6,2379l-39.8-0.1c-0.4,3.4,0.1,6.9,1.5,10l36.7,0.1C2032.4,2385.8,2032.9,2382.4,2032.6,2379z"/>
		</g>
	</g>
</g>
<g>
	<path class="st18" d="M1570.7,1775c60.7-20.9,126.8,11.4,147.7,72.1c2.6,7.7,4.4,15.5,5.4,23.3c23.1,0,44.7,14.5,52.7,37.6
		c6.6,19.1,2.2,39.3-9.9,53.8c5.3,21.6,1.7,43.6-8.6,61.9c6.6,3.7,12,9.8,14.7,17.6c5.5,15.9-2.3,33.2-17.4,39.9
		c8.5,5.3,15.2,13.4,18.7,23.6c3.6,10.5,3.1,21.4-0.6,30.9c15.6,5.4,28.6,17.7,34.3,34.5c7.8,22.6,0.2,46.8-17.3,61.2
		c11.4,8.4,20.5,20.2,25.4,34.6c5.9,17.1,5,34.9-1.3,50.5c11.6,1.6,22,9.5,26.1,21.4c4.9,14.2-0.8,29.5-12.8,37.4
		c12.1,6.4,21.8,17.2,26.6,31.1c3.1,9.1,3.8,18.5,2.3,27.4c19.3,3.4,36.2,16.9,43.1,36.8c2.3,6.7,3.3,13.6,3,20.3
		c26.5,7.3,50,23.8,65.8,47.2c3.4-3,7.4-5.4,12-6.9c15-5.2,31,0,40.3,11.8c6.3-12.5,17.3-22.6,31.6-27.5
		c19.3-6.6,39.7-2.1,54.2,10.3c-2.4-15.1,6.3-30.3,21.3-35.4c11.6-4,23.9-1,32.3,6.8c3.7-7.2,10-13,18.2-15.8
		c16.8-5.8,35.2,3.2,41,20c1.2,3.5,1.7,7.1,1.7,10.7c5.4-4.7,11.7-8.4,18.8-10.9c25.3-8.7,52.6,1.6,66.2,23.3c1.9-1,3.8-1.8,5.9-2.5
		c23.5-8.1,49.2,4.4,57.3,28s-4.4,49.2-28,57.3c-5,1.7-10.1,2.5-15.1,2.5l-7,142.3l-556.7,67.4l-302-910.1l33.4-3.7
		C1484.2,1849.7,1515.8,1793.9,1570.7,1775z"/>
	<path class="st19" d="M1582.5,1700.9c26.6-7.2,54,8.6,61.2,35.2c2.9,10.9,2,21.8-1.8,31.5c18.2,12.6,32.2,31.5,38.4,54.6
		c8.4,31.2,0.7,62.9-18,86.3c15,12.4,26.5,29.4,31.9,49.6c0.9,3.3,1.6,6.7,2.1,10c13.7-1.3,26.8,7.3,30.5,21.1
		c2.6,9.8-0.1,19.7-6.4,26.7c10.8,6.4,19.2,16.9,22.8,29.9c3.1,11.4,1.9,23-2.5,33.1c8.9,6.5,15.7,15.9,18.8,27.4
		c6.9,25.4-7.2,51.6-31.7,60.1c0.8,0.9,1.5,1.9,2.2,2.9c7.6,10.5,10.5,23,9.1,34.9c16.9-2.1,33.2,8.4,37.7,25.3
		c2.5,9.2,1,18.6-3.4,26.3c8.3,6.4,14.7,15.5,17.6,26.5c5.5,20.4-2.5,41.2-18.4,53.1c5.2,6.1,9.1,13.4,11.4,21.7
		c1.7,6.4,2.3,12.9,1.8,19.1c33.4,2.7,63.1,25.9,72.3,60.1c3.4,12.5,3.6,25.1,1.3,37c13.6-2,26.8,6.4,30.4,20
		c0.4,1.4,0.6,2.9,0.8,4.3c12.9,3,23.7,12.8,27.4,26.4c0.8,2.9,1.2,5.9,1.2,8.8c17.2-2.1,34,5,44.6,18c13.4-8.7,29.6-10.2,43.8-5.3
		c2.5-4.4,6.8-7.9,12.1-9.3c9-2.4,18.1,1.7,22.5,9.4c4.5-6.8,11.3-12,19.8-14.3c12.3-3.3,24.9,0.5,33.4,8.9
		c6.5-8.9,15.9-15.7,27.3-18.8c19-5.1,38.3,1.4,50.5,15.2c3.7-5.3,9.2-9.3,16-11.1c15.3-4.1,31.1,4.9,35.2,20.2
		c0.2,0.6,0.3,1.2,0.4,1.8c4.1-2.4,8.6-4.3,13.4-5.6c23.1-6.2,46.8,2.9,60.1,21.2c5.2-2.5,10.7-4.5,16.5-6.1
		c51.9-14,105.4,16.7,119.4,68.7s-16.7,105.4-68.7,119.4s-105.4-16.7-119.4-68.7c-1.4-5-2.3-10.1-2.8-15.1L1907,2767.7l-287.5-182.6
		l-165.4-790.4l91.7-40.3C1543.3,1730.4,1558.4,1707.4,1582.5,1700.9z"/>
	<path class="st20" d="M1558.7,1942.6c52-19.1,109.6,7.5,128.7,59.5c2.4,6.6,4.1,13.3,5.1,20c19.9-0.4,38.8,11.7,46.1,31.5
		c6,16.4,2.6,33.9-7.5,46.6c4.9,18.5,2.3,37.6-6.3,53.5c5.8,3.1,10.5,8.2,13,14.9c5,13.6-1.4,28.7-14.3,34.7
		c7.4,4.4,13.4,11.3,16.6,20c3.3,9,3.1,18.4,0,26.7c13.5,4.4,25,14.7,30.2,29.1c7.1,19.4,1,40.4-13.8,53.1c10,7,18,17,22.5,29.4
		c5.4,14.6,4.9,30-0.2,43.5c10.1,1.2,19.1,7.8,22.9,18c4.5,12.2-0.1,25.5-10.4,32.5c10.5,5.3,19.1,14.4,23.5,26.3
		c2.9,7.8,3.6,15.9,2.4,23.6c16.7,2.6,31.6,13.9,37.8,30.9c2.1,5.8,3.1,11.7,2.9,17.5c23,5.8,43.6,19.6,57.6,39.5
		c2.9-2.6,6.3-4.8,10.2-6.2c12.8-4.7,26.7-0.5,35,9.4c5.2-10.9,14.5-19.8,26.7-24.3c16.5-6.1,34.2-2.5,46.9,7.9
		c-2.3-13,4.9-26.2,17.8-30.9c9.9-3.6,20.6-1.3,28,5.2c3-6.2,8.4-11.4,15.4-14c14.4-5.3,30.4,2.1,35.7,16.5c1.1,3,1.6,6.1,1.7,9.2
		c4.5-4.1,9.9-7.5,16-9.7c21.7-8,45.4,0.4,57.5,18.9c1.6-0.9,3.3-1.6,5-2.3c20.2-7.4,42.5,2.9,49.9,23.1s-2.9,42.5-23.1,49.9
		c-4.3,1.6-8.6,2.3-12.9,2.4l-3.4,122.8l-478.9,68.2L1466.2,2060l28.7-3.8C1485.5,2008.6,1511.8,1959.9,1558.7,1942.6z"/>
	<path class="st34" d="M1562.5,1975.9c21.5-8.2,45.6,2.7,53.7,24.2c3.3,8.8,3.5,18,1.1,26.4c16.1,9,29.3,23.5,36.4,42.2
		c9.5,25.2,5.7,52.2-7.9,73.1c13.5,9.1,24.4,22.3,30.6,38.6c1,2.7,1.9,5.4,2.6,8.1c11.3-2.2,22.8,3.9,27,15c3,7.9,1.5,16.4-3.1,22.7
		c9.5,4.4,17.4,12.4,21.4,23c3.5,9.3,3.5,19,0.6,27.7c7.9,4.6,14.4,11.9,17.9,21.2c7.8,20.6-1.8,43.4-21.4,52.6
		c0.7,0.7,1.4,1.4,2.1,2.2c7.2,8.1,10.6,18.2,10.4,28.3c13.8-3.2,28.2,4.3,33.4,17.9c2.8,7.5,2.4,15.3-0.7,22.1
		c7.4,4.7,13.5,11.7,16.8,20.5c6.2,16.5,1.3,34.4-11,45.6c4.8,4.7,8.7,10.4,11.2,17.1c2,5.2,2.9,10.5,3,15.8c28-0.5,54.5,16.3,65,44
		c3.8,10.1,5.1,20.5,4.1,30.6c11.1-2.8,22.8,3.1,26.9,14.1c0.4,1.2,0.7,2.3,1,3.5c10.9,1.4,20.8,8.7,24.9,19.7
		c0.9,2.4,1.4,4.8,1.7,7.2c14.1-3.1,28.6,1.4,38.5,11.3c10.4-8.4,23.8-10.9,36-8c1.8-3.9,5-7.1,9.3-8.7c7.3-2.7,15.2-0.1,19.5,6
		c3.2-6,8.4-10.9,15.3-13.5c10-3.8,20.7-1.6,28.4,4.6c4.6-7.9,11.9-14.4,21.2-17.9c15.3-5.8,31.9-2,43.2,8.5
		c2.7-4.7,6.9-8.5,12.3-10.5c12.4-4.7,26.2,1.5,30.9,13.9c0.2,0.5,0.3,1,0.5,1.5c3.2-2.3,6.8-4.3,10.7-5.7
		c18.7-7.1,39.1-1.4,51.6,12.7c4.1-2.5,8.5-4.6,13.2-6.4c42-15.9,88.9,5.3,104.8,47.3s-5.3,88.9-47.3,104.8
		c-42,15.9-88.9-5.3-104.8-47.3c-1.5-4.1-2.7-8.2-3.6-12.3l-270.5,116l-253.8-128.1l-202.2-643l72.8-41
		C1532.3,2003.6,1543,1983.3,1562.5,1975.9z"/>
	
		<rect x="1452.3" y="1701" transform="matrix(-0.2253 -0.9743 0.9743 -0.2253 492.157 4543.2939)" class="st9" width="1200" height="750"/>
</g>
<g>
	<path class="st18" d="M2861.3,2658.5c-6.7-63.8,39.7-121,103.5-127.7c8.1-0.8,16.1-0.8,23.9,0c5.2-22.5,24.2-40.3,48.5-42.8
		c20.1-2.1,38.8,6.8,50.2,21.7c22.2-0.3,42.8,8.1,58.3,22.3c5.1-5.6,12.2-9.5,20.4-10.3c16.8-1.8,31.9,9.7,35,25.9
		c7.1-7.1,16.5-11.8,27.2-13c11-1.2,21.5,1.8,30,7.5c8.8-13.9,23.7-23.8,41.3-25.7c23.8-2.5,45.6,10.4,55.7,30.6
		c10.7-9.2,24.3-15.4,39.4-17c18-1.9,35.1,3,48.9,12.7c4.2-11,14.2-19.3,26.7-20.6c15-1.6,28.6,7.4,33.5,20.9
		c8.9-10.3,21.7-17.4,36.3-18.9c9.6-1,18.9,0.5,27.2,4c7.7-18.1,24.6-31.5,45.5-33.7c7.1-0.7,14-0.1,20.5,1.7
		c13-24.2,34.5-43.4,60.8-53.4c-2.1-4-3.5-8.5-4-13.2c-1.6-15.7,7-30.2,20.5-36.6c-10.7-9-18.1-21.9-19.7-37
		c-2.1-20.3,6.9-39.2,22.2-50.5c-15.3-1.1-28.1-13-29.7-28.8c-1.3-12.2,4.4-23.5,13.9-30c-6.2-5.2-10.4-12.6-11.3-21.3
		c-1.8-17.7,11-33.6,28.7-35.4c3.7-0.4,7.3-0.1,10.8,0.7c-3.4-6.3-5.6-13.3-6.4-20.8c-2.8-26.6,13.4-50.9,37.6-59.3
		c-0.5-2-0.9-4.1-1.1-6.3c-2.6-24.8,15.4-46.9,40.1-49.5c24.8-2.6,46.9,15.4,49.5,40.1c0.5,5.2,0.2,10.4-1,15.2l137.1,38.8
		l-59.7,557.6l-954.7,89.2l3.9-33.4C2914.6,2759.5,2867.3,2716.1,2861.3,2658.5z"/>
	<path class="st19" d="M2791.7,2630.3c-1-27.6,20.5-50.7,48.1-51.7c11.2-0.4,21.7,2.9,30.3,8.9c16.4-14.9,38-24.3,61.8-25.1
		c32.2-1.2,61.4,13.5,80,37c15.5-11.8,34.6-19.2,55.6-19.9c3.4-0.1,6.8-0.1,10.2,0.2c1.8-13.7,13.2-24.4,27.4-24.9
		c10.1-0.4,19.2,4.6,24.6,12.3c8.7-9.1,20.8-14.9,34.3-15.4c11.9-0.4,22.9,3.3,31.7,9.9c8.3-7.2,19-11.7,30.9-12.2
		c26.3-1,48.6,18.7,51.4,44.5c1.1-0.5,2.2-1.1,3.3-1.5c12-5,24.8-5,36.1-1c1.7-16.9,15.7-30.4,33.1-31.1c9.5-0.3,18.3,3.2,24.8,9.2
		c8.1-6.7,18.4-10.8,29.8-11.2c21.1-0.8,39.6,11.7,47.6,29.9c7.1-3.7,15.1-5.9,23.7-6.2c6.6-0.2,13.1,0.7,19,2.6
		c10.1-32,39.4-55.6,74.9-56.9c12.9-0.5,25.2,2.1,36.3,7.1c1.1-13.7,12.3-24.6,26.3-25.1c1.5-0.1,2.9,0,4.4,0.2
		c5.8-11.9,17.8-20.2,31.9-20.7c3-0.1,6,0.2,8.8,0.8c1.8-17.2,12.5-32,27.5-39.4c-5.5-15-3.3-31.2,4.8-43.9
		c-3.7-3.5-6.2-8.4-6.4-13.9c-0.3-9.3,5.7-17.3,14.2-19.8c-5.6-5.9-9.2-13.8-9.5-22.5c-0.5-12.8,6.1-24.1,16.1-30.5
		c-7.2-8.3-11.7-19-12.2-30.9c-0.7-19.6,10-37,26.2-45.7c-4.3-4.8-7-11.1-7.2-18c-0.6-15.8,11.8-29.2,27.7-29.7c0.6,0,1.3,0,1.9,0
		c-1.4-4.6-2.2-9.4-2.4-14.4c-0.9-23.9,13.4-44.9,34.2-53.7c-1.2-5.6-2-11.4-2.2-17.4c-1.9-53.8,40.1-98.9,93.8-100.9
		c53.8-1.9,98.9,40.1,100.9,93.8c1.9,53.8-40.1,98.9-93.8,100.9c-5.2,0.2-10.3,0-15.3-0.6l28,351.5l-242.7,239l-807.3-17l-18.6-98.4
		C2811.6,2675.1,2792.6,2655.2,2791.7,2630.3z"/>
	<path class="st20" d="M3021.9,2707.9c-6.9-54.9,32-105.1,86.9-112c7-0.9,13.9-1,20.6-0.5c4.1-19.5,20.1-35.2,41-37.8
		c17.3-2.2,33.6,5.1,43.7,17.8c19.1-0.6,37.1,6.2,50.7,18.2c4.3-4.9,10.4-8.4,17.4-9.3c14.4-1.8,27.6,7.8,30.6,21.7
		c6-6.2,14-10.5,23.2-11.7c9.5-1.2,18.6,1.1,26,6c7.3-12.2,20-21,35.2-22.9c20.5-2.6,39.5,8.1,48.6,25.4
		c9.1-8.1,20.7-13.7,33.7-15.3c15.5-1.9,30.3,2,42.4,10c3.4-9.5,11.9-16.9,22.7-18.2c12.9-1.6,24.8,5.9,29.3,17.4
		c7.5-9.1,18.4-15.4,31-17c8.3-1,16.3,0.1,23.5,2.9c6.3-15.7,20.7-27.6,38.6-29.9c6.1-0.8,12.1-0.3,17.7,1.1
		c10.8-21.1,28.9-38,51.5-47.2c-1.9-3.4-3.2-7.2-3.7-11.4c-1.7-13.6,5.5-26.1,17.1-32c-9.4-7.5-16-18.6-17.7-31.5
		c-2.2-17.5,5.3-33.9,18.2-44c-13.2-0.7-24.4-10.7-26.1-24.3c-1.3-10.5,3.4-20.3,11.4-26.1c-5.4-4.4-9.2-10.7-10.1-18.1
		c-1.9-15.2,8.9-29.1,24.1-31c3.2-0.4,6.3-0.2,9.3,0.4c-3-5.4-5.1-11.4-5.9-17.8c-2.9-22.9,10.6-44.1,31.4-51.8
		c-0.5-1.8-0.8-3.6-1.1-5.4c-2.7-21.3,12.4-40.7,33.7-43.4c21.3-2.7,40.7,12.4,43.4,33.7c0.6,4.5,0.3,8.9-0.6,13.1l118.9,31
		l-41.4,481.9l-821.7,94.2l2.8-28.8C3069.7,2794.1,3028.1,2757.5,3021.9,2707.9z"/>
	<path class="st34" d="M3055.1,2711.7c-3.1-22.8,12.9-43.8,35.7-46.9c9.3-1.3,18.3,0.7,25.9,4.9c12.4-13.7,29.5-23.3,49.3-25.9
		c26.7-3.6,52.1,6.2,69.5,24.2c11.9-11.1,27.2-18.8,44.5-21.1c2.8-0.4,5.7-0.6,8.5-0.7c0.4-11.5,8.9-21.4,20.7-23
		c8.4-1.1,16.3,2.2,21.4,8.2c6.5-8.3,16-14.1,27.2-15.6c9.8-1.3,19.3,0.9,27.1,5.6c6.3-6.7,14.9-11.3,24.7-12.6
		c21.8-3,41.9,11.5,46.4,32.7c0.8-0.5,1.7-1.1,2.6-1.6c9.5-5.2,20.1-6.2,29.9-3.8c0-14.2,10.5-26.6,25-28.5
		c7.9-1.1,15.5,1.2,21.4,5.6c6.2-6.2,14.4-10.5,23.8-11.8c17.5-2.4,33.9,6.5,42,20.9c5.6-3.6,12.1-6.1,19.2-7.1
		c5.5-0.7,10.9-0.5,16,0.6c5.8-27.4,28.2-49.4,57.5-53.4c10.7-1.4,21.1-0.3,30.7,2.9c-0.2-11.4,8.2-21.5,19.8-23
		c1.2-0.2,2.4-0.2,3.6-0.2c3.8-10.3,13.1-18.3,24.8-19.9c2.5-0.3,5-0.3,7.4-0.1c0.1-14.5,7.8-27.6,19.6-35
		c-5.8-12-5.3-25.6,0.4-36.8c-3.4-2.6-5.8-6.5-6.4-11c-1-7.7,3.3-14.8,10.2-17.6c-5.1-4.4-8.7-10.7-9.7-17.9
		c-1.4-10.6,3.1-20.6,10.9-26.7c-6.7-6.3-11.3-14.8-12.6-24.7c-2.2-16.2,5.3-31.6,18-40.1c-4-3.6-6.7-8.6-7.5-14.4
		c-1.8-13.1,7.4-25.2,20.5-27c0.5-0.1,1-0.1,1.6-0.1c-1.5-3.7-2.6-7.6-3.2-11.7c-2.7-19.8,7.4-38.4,24-47.5
		c-1.5-4.6-2.6-9.3-3.3-14.3c-6-44.5,25.2-85.5,69.7-91.5c44.5-6,85.5,25.2,91.5,69.7c6,44.5-25.2,85.5-69.7,91.5
		c-4.3,0.6-8.6,0.8-12.8,0.7l52.1,289.7l-182,218.4l-672,52.1l-23.5-80.2C3075.3,2747.4,3057.9,2732.3,3055.1,2711.7z"/>
	<rect x="2663" y="1882" transform="matrix(-1 -4.489754e-11 4.489754e-11 -1 6526 4514)" class="st9" width="1200" height="750"/>
</g>
<g>
	<g>
		<path class="st15" d="M3426.4,2404.8c0,0-4.6-9.1-8.3-13c-3.7-3.9-7.4,3.1-5.7,6.6c0,0-5-4.8-8.9-6c-13.8-4-22.4,17.1-5.5,25
			c13,5.6,18.7,7.6,18.7,7.6L3426.4,2404.8z"/>
	</g>
	<path class="st21" d="M3423.7,2410.6c-0.5-3.7-1-6.6-1-6.6s-9.8,13.5-12,13c-11-1.7-19.5-10.1-22-12.8c-0.1,4.9,2.6,10.2,9.3,13.4
		c13,5.6,18.7,7.6,18.7,7.6L3423.7,2410.6z"/>
	<g>
		<path class="st15" d="M3558.4,2438.7c0,0,2,10.5,4.3,15.4s8-0.6,7.5-4.4c0,0,2.5,5.7,5.8,8c11.8,8.2,26.7-9,13.2-21.9
			c-10.5-9.5-15.3-13.3-15.3-13.3L3558.4,2438.7z"/>
	</g>
	<path class="st21" d="M3562.8,2454.1c2,4.3,6.7,0.6,7.4-3c-0.8,1.2-2.6,1.4-4.2-0.2c-1.5-1.6-1.6-13.8-1.6-13.8
		c-0.3-0.7-2.9,0-5.2,0.8l-0.7,0.7C3558.4,2438.7,3560.5,2449.2,3562.8,2454.1z"/>
	<g>
		<path class="st15" d="M3423.3,2354.6c0,0-10.3-1.1-12.9,5.5c-2.7,6.6,5.7,36.7,12.8,37.3c4.8,0.1,10.7-2.8,10.7-2.8L3423.3,2354.6
			z"/>
	</g>
	<g>
		<path class="st15" d="M3527.5,2327.1c0,0,8.4-6,14-1.6c5.6,4.4,13.2,34.7,7.3,38.7c-4.1,2.5-10.7,2.8-10.7,2.8L3527.5,2327.1z"/>
	</g>
	<path class="st21" d="M3543.9,2356.6c-0.2-12.5-8.2-26.7-11.5-32c-2.8,1-4.9,2.5-4.9,2.5l10.6,40c0,0,6.6-0.3,10.7-2.8
		c1.4-1,2.1-3.4,2.1-6.7C3547.5,2358.5,3544.1,2358.8,3543.9,2356.6z"/>
	<path class="st21" d="M3423.6,2388.4c-6-11-6-27.3-5.8-33.5c2.9-0.6,5.5-0.3,5.5-0.3l10.6,40c0,0-5.9,2.9-10.7,2.8
		c-1.7-0.1-3.5-2-5.2-4.8C3421.3,2391.8,3424.5,2390.4,3423.6,2388.4z"/>
	<g>
		<path class="st22" d="M3477.7,2356.9L3477.7,2356.9c-30,7.9-47.9,38.6-39.9,68.6l13,49.1c3.2,12,15.5,19.2,27.6,16l64.9-17.2
			c12-3.2,19.2-15.5,16-27.6l-13-49.1C3538.4,2366.8,3507.7,2349,3477.7,2356.9z"/>
		<g>
			<path class="st23" d="M3546.6,2398c-17.4,14.5-24.8,37.7-19,59.5l5,18.8l10.6-2.8c12-3.2,19.2-15.5,16-27.6L3546.6,2398
				L3546.6,2398z"/>
			<path class="st23" d="M3438.1,2426.7L3438.1,2426.7l12.7,47.9c3.2,12,15.5,19.2,27.6,16l10.6-2.8l-5-18.8
				C3478.2,2447.2,3460.3,2430.7,3438.1,2426.7z"/>
		</g>
		<path class="st24" d="M3519.7,2362.3c6.9,6.8,12.2,15.5,14.8,25.6l13,49.1c3.2,12-4,24.4-16,27.6l-64.9,17.2
			c-4.4,1.1-8.7,0.9-12.7-0.4c5.2,7.8,14.9,11.8,24.5,9.2l64.9-17.2c12-3.2,19.2-15.5,16-27.6l-13-49.1
			C3542.3,2381.6,3532.4,2369.5,3519.7,2362.3z"/>
	</g>
	<g>
		<path class="st10" d="M3558.4,2438.7l15.5-16.2c-19.7-18.8-37.2-23.1-49.4-22.8c-0.3-0.9-0.5-1.4-0.5-1.4s-8.8-9.3-34.3-2.6
			c-24.2,6.4-28.2,17.9-28.5,19.1c-8.9-0.7-21-3.2-35-9.9l-9.7,20.3c19.9,9.5,37.1,12,49.1,12.3c1.8,8.6,3.9,18.1,5.8,25.1
			c1.7,6.3,4.4,11.7,8.5,15.7c-2.6,9.9-5.9,25.6-5.9,40.8l25.2-0.1c0-11.5,2.9-24.8,5.4-33.9c2.6-0.3,5.3-0.8,8.2-1.6
			c3.3-0.9,6.2-1.9,8.8-3c6.7,6.7,15.8,16.9,21.5,26.9l22-12.4c-7.7-13.8-18.8-26.1-26-33.3c1.3-5.2,0.9-10.9-0.6-16.9
			c-1.7-6.2-4.1-14.3-6.5-21.9C3539,2424.4,3548,2428.7,3558.4,2438.7z"/>
	</g>
	<g>
		<path class="st10" d="M3535.8,2336.4c-19.9-47.2-70-31.7-70-31.7s-51.3,11.3-45.2,62.2c6.1,50.9,52.5,48,72.9,42.6
			C3513.9,2404,3555.7,2383.6,3535.8,2336.4z"/>
	</g>
	<path class="st22" d="M3535.8,2336.4c-5-11.9-11.9-19.8-19.4-25c5.8,5.1,11.1,12,15.1,21.5c19.9,47.2-22,67.7-42.3,73.1
		c-12.9,3.4-36.2,5.8-53.2-5.8c17.1,15.4,43.5,12.9,57.5,9.2C3513.9,2404,3555.7,2383.6,3535.8,2336.4z"/>
	<g>
		<g>
			<path class="st15" d="M3509.1,2468.4c-21.9,5.8-36.2,3.2-36.8,3.1c-3-0.6-5.1-3.5-4.5-6.6c0.6-3,3.5-5,6.5-4.5
				c0.3,0,12.7,2.1,31.8-2.9c19.1-5.1,28.4-12.9,28.5-13c2.3-2,5.9-1.8,7.9,0.6c2,2.3,1.8,5.9-0.5,7.9
				C3541.6,2453.4,3531,2462.6,3509.1,2468.4z"/>
		</g>
	</g>
	<path class="st21" d="M3541.3,2450c-0.4,0.4-11.1,9.6-33,15.4c-21.9,5.8-36.2,3.2-36.8,3.1c-1.6-0.3-3-1.3-3.8-2.7
		c-0.1,2.7,1.8,5.1,4.6,5.7c0.6,0.1,14.9,2.7,36.8-3.1c21.9-5.8,32.6-15,33-15.4c2.1-1.8,2.5-4.8,1.1-7.1
		C3543.1,2447.4,3542.5,2448.9,3541.3,2450z"/>
	<g class="st25">
		<g>
			<path class="st26" d="M3495.4,2416.9c-19,5-34,1.8-34.9,1.6c-2-0.5-3.3-2.5-2.8-4.5c0.5-2,2.5-3.3,4.5-2.8
				c0.5,0.1,31.6,6.7,59.6-15.9c1.6-1.3,4-1,5.3,0.6c1.3,1.6,1,4-0.6,5.3C3516,2409.6,3505.2,2414.3,3495.4,2416.9z"/>
		</g>
	</g>
	<path class="st15" d="M3460.8,2415.1c0.5,0.1,33.7,6.1,64.1-17c0.8-0.6,1.8-0.9,2.8-0.9c-0.1-0.5-0.4-0.9-0.7-1.3
		c-1.3-1.6-3.7-1.9-5.3-0.6c-28,22.5-59.1,16-59.6,15.9c-2-0.5-4,0.8-4.5,2.8c-0.1,0.6-0.1,1.1,0,1.7
		C3458.6,2415.1,3459.7,2414.8,3460.8,2415.1z"/>
	<g>
		<g>
			<path class="st27" d="M3507.6,2416l-7.2,2.7c-2.7,1-5.5,1.8-8.3,2.2l-8.2,1.3c-2,0.3-3.4,2.3-2.8,4.3l3.2,11.9
				c0.5,1.7,2.1,2.8,3.9,2.6l8.6-1.3c2.8-0.4,5.6-1.2,8.3-2.2l8.1-3.1c1.7-0.6,2.6-2.4,2.1-4.1l-3.1-11.9
				C3511.6,2416.3,3509.5,2415.2,3507.6,2416z"/>
		</g>
		<g>
			<path class="st28" d="M3489.9,2427.2c0.4,1.5-0.5,3-2,3.4s-3-0.5-3.4-2c-0.4-1.5,0.5-3,2-3.4S3489.5,2425.8,3489.9,2427.2z"/>
		</g>
		<g>
			<path class="st28" d="M3491.8,2434.6c0.4,1.5-0.5,3-2,3.4s-3-0.5-3.4-2s0.5-3,2-3.4S3491.4,2433.1,3491.8,2434.6z"/>
		</g>
		<g>
			<g>
				<path class="st29" d="M3500.5,2427.1c-3.8,1-6.5,1.3-6.7,1.3c-0.9,0.1-1.7-0.6-1.8-1.5c-0.1-0.9,0.6-1.7,1.5-1.8
					c0.1,0,7.7-0.8,14.5-4.3c0.8-0.4,1.8-0.1,2.2,0.7c0.4,0.8,0.1,1.8-0.7,2.2C3506.4,2425.3,3503.2,2426.4,3500.5,2427.1z"/>
			</g>
		</g>
		<g>
			<g>
				<path class="st29" d="M3502.4,2434c-3.8,1-6.5,1.3-6.7,1.3c-0.9,0.1-1.7-0.6-1.8-1.5c-0.1-0.9,0.6-1.7,1.5-1.8
					c0.1,0,7.7-0.8,14.5-4.3c0.8-0.4,1.8-0.1,2.2,0.7c0.4,0.8,0.1,1.8-0.7,2.2C3508.3,2432.2,3505.1,2433.3,3502.4,2434z"/>
			</g>
		</g>
	</g>
	<path class="st15" d="M3522.8,2440.1l-3.3-2.6c-0.6-0.5-1.5-0.6-2.2-0.3l-3.9,1.5c-0.7,0.3-1.3,1-1.4,1.8l-0.6,4.1
		c-0.1,0.8,0.2,1.6,0.8,2.1l3.3,2.6c0.6,0.5,1.5,0.6,2.2,0.3l3.9-1.5c0.7-0.3,1.3-1,1.4-1.8l0.6-4.1
		C3523.7,2441.4,3523.4,2440.6,3522.8,2440.1z"/>
	<path class="st15" d="M3483.2,2450.6l1.6-3.8c0.3-0.7,1-1.3,1.8-1.4l4.1-0.6c0.8-0.1,1.6,0.2,2.1,0.8l2.6,3.3
		c0.5,0.6,0.6,1.5,0.3,2.2l-1.6,3.8c-0.3,0.7-1,1.3-1.8,1.4l-4.1,0.6c-0.8,0.1-1.6-0.2-2.1-0.8l-2.6-3.3
		C3483,2452.2,3482.9,2451.3,3483.2,2450.6z"/>
	<g>
		<g>
			<path class="st30" d="M3528.2,2345.9c-15.2-34.2-57.2-21.4-57.2-21.4s-42.8,9.7-39.1,46.9s42.2,33.8,59.3,29.4
				C3508.2,2396.2,3543.4,2380.1,3528.2,2345.9z"/>
		</g>
		<path class="st31" d="M3528.2,2345.9c-4-9.1-9.9-14.8-16.4-18.4c3.4,3.3,6.4,7.5,8.8,12.8c15.2,34.2-20,50.3-37,54.8
			c-10.4,2.7-28.7,5-42.3-2c13.4,13.5,37.5,10.9,50,7.6C3508.2,2396.2,3543.4,2380.1,3528.2,2345.9z"/>
		<g>
			<path class="st32" d="M3471,2324.5c0,0-2.2,0.5-5.6,1.7c-1.3,14.6-6.2,41.9-23.5,67.7c4.7,4.5,10.7,7,16.9,8.4
				c20.8-32.1,24.9-65.4,25.7-79.9C3476.7,2322.8,3471,2324.5,3471,2324.5z"/>
			<path class="st32" d="M3499,2323.1c-0.9,14.7-5.7,49.4-29.1,80.3c4.2,0.1,8.4-0.3,12.2-0.8c20.1-29.8,25.1-61,26.2-76.7
				C3505.2,2324.5,3502.1,2323.6,3499,2323.1z"/>
		</g>
	</g>
	<g>
		<path class="st30" d="M3536.3,2467.8c-4.7,1.2-10.2-0.6-13.9-3.6c-5.8-4.7-8.8-13-7.7-21.2c0.2-1.5,1.6-2.6,3.2-2.4
			c1.5,0.2,2.6,1.6,2.4,3.2c-0.9,6.3,1.3,12.5,5.6,16c2.8,2.3,7.6,3.7,10.4,1.9c1.2-0.8,1.6-1.9,1.7-2.7c0.3-1.5-0.2-3.2-1.1-4.4
			c-0.6-0.8-1.7-1.6-2.8-2.4c-2.2-1.6-4.9-3.6-5.7-7.2c-0.5-2.3,0-4.7,1.4-6.7c1.5-2.1,3.8-3.5,6.4-3.9c1.5-0.2,3,0.9,3.2,2.4
			c0.2,1.5-0.9,3-2.4,3.2c-1,0.1-2,0.7-2.6,1.5c-0.3,0.5-0.7,1.3-0.5,2.3c0.3,1.4,1.5,2.4,3.5,3.8c1.4,1,2.8,2.1,3.9,3.5
			c1.9,2.5,2.7,5.7,2.2,8.8c-0.5,2.7-2,5-4.2,6.5C3538.4,2467,3537.4,2467.5,3536.3,2467.8z"/>
	</g>
	<g>
		<path class="st30" d="M3485.1,2481.3c-1.1,0.3-2.2,0.4-3.3,0.3c-2.7-0.2-5.1-1.4-6.9-3.6c-1.9-2.4-2.8-5.6-2.4-8.7
			c0.3-1.8,1-3.4,1.7-5c1-2.2,1.6-3.7,1.2-5c-0.3-1-1-1.5-1.6-1.8c-0.9-0.4-2-0.4-3-0.1c-1.4,0.6-3.1-0.1-3.7-1.6
			c-0.6-1.4,0.1-3.1,1.6-3.7c2.4-1,5.2-0.9,7.5,0.2c2.2,1,3.8,2.8,4.5,5.1c1.1,3.5-0.3,6.6-1.4,9.1c-0.6,1.3-1.1,2.5-1.3,3.5
			c-0.2,1.5,0.2,3.2,1.2,4.4c0.5,0.6,1.5,1.4,2.9,1.5c3.3,0.2,6.7-3.4,8.1-6.8c2-5.1,0.8-11.7-3-16.7c-0.9-1.2-0.7-3,0.5-3.9
			c1.2-0.9,3-0.7,3.9,0.5c5.1,6.5,6.5,15.3,3.8,22.2C3493.7,2475.7,3489.8,2480.1,3485.1,2481.3z"/>
	</g>
	<path class="st22" d="M3561.4,2430.2c0,0-15.9-16.2-32.6-16.9l3.5,9.5c6.8,1.6,15.8,5.8,26.2,15.8l2.6-2.7L3561.4,2430.2z"/>
	<g>
		<g>
			<path class="st5" d="M3559.4,2442.3c-1.2,0.3-2.6,0-3.5-0.9c-1.5-1.4-1.5-3.8-0.1-5.3l15.5-16.2c1.4-1.5,3.8-1.5,5.3-0.1
				c1.5,1.4,1.5,3.8,0.1,5.3l-15.5,16.2C3560.7,2441.8,3560,2442.1,3559.4,2442.3z"/>
		</g>
	</g>
	<path class="st21" d="M3594.5,2448.4c-12.1,14.9-24.3,1.3-24.3,1.3s2.5,5.7,5.8,8C3584.1,2463.2,3593.6,2457,3594.5,2448.4z"/>
	<path class="st15" d="M3559.1,2410.5c-8.5-5.5-16.3-8.4-23.1-9.8c0.1,3.3,1.1,10,6.8,12.6C3549.1,2416,3555.7,2414.7,3559.1,2410.5
		z"/>
	<path class="st15" d="M3431,2430.9c9.4,3.2,17.9,4.9,25.2,5.8c-0.4-2.4-2.2-10.6-9.3-12.3C3439.9,2422.7,3433.2,2425.7,3431,2430.9
		z"/>
	<path class="st22" d="M3465,2428.4c0,0-26.4-2.3-42.5-10.1c-0.7-0.3-1.4-0.6-2.1-0.8l-3.6,7.7c19.9,9.5,37.1,12,49.1,12.3
		C3465.9,2437.4,3465,2434.5,3465,2428.4z"/>
	<g>
		<g>
			<path class="st5" d="M3417.7,2428.7c-0.8,0.2-1.7,0.2-2.6-0.2c-1.9-0.9-2.7-3.1-1.8-5l9.7-20.3c0.9-1.9,3.1-2.7,5-1.8
				c1.9,0.9,2.7,3.1,1.8,5l-9.7,20.3C3419.6,2427.8,3418.7,2428.5,3417.7,2428.7z"/>
		</g>
	</g>
	<path class="st22" d="M3539.6,2493c-1.8-1-15.7-15.7-16.5-17.2c-0.8-1.5-2.1-0.7-4.1,1.1s-12.3,5.5-15.1,4c-2.8-1.5-3.1-0.5-3.3,0
		c-0.2,0.6-6,25.3-6,25.3s2.4-0.1,5.9-0.1c1.1-7.7,2.8-15.3,4.4-21.1c2.6-0.3,5.3-0.8,8.2-1.6c3.3-0.9,6.2-1.9,8.8-3
		c4.5,4.5,10.2,10.7,15.1,17.3C3538.9,2495.4,3540.3,2493.4,3539.6,2493z"/>
	<g>
		<path class="st15" d="M3474.8,2502.7c-0.2,1.6-0.9,12.6-0.9,12.6s-13.5-7.8-24.8-1.3c-11.2,6.5-8.8,21.9-8.8,21.9l58.5,6.2
			l1.9-37.6L3474.8,2502.7z"/>
	</g>
	<g>
		<path class="st15" d="M3556.8,2481c0.9,1.3,6.9,10.5,6.9,10.5s7.9-13.4,20.9-13.4c13,0.1,18.5,14.7,18.5,14.7l-47.8,34.2
			l-20.2-31.8L3556.8,2481z"/>
	</g>
	<g>
		<path class="st30" d="M3555.3,2527l47.8-34.2c0,0-1.1-2.9-3.5-6.1l-48,34.6L3555.3,2527z"/>
	</g>
	<g>
		<path class="st30" d="M3440.4,2535.8l58.5,6.2l0.4-7.2l-58.6-7.5C3439.8,2531.9,3440.4,2535.8,3440.4,2535.8z"/>
	</g>
	<g>
		<path class="st5" d="M3536.1,2498.9c-1.5,0.4-3.2-0.2-4.1-1.6c-1.1-1.7-0.7-4.1,1.1-5.2l21.7-14.2c1.7-1.1,4.1-0.7,5.2,1.1
			c1.1,1.7,0.7,4.1-1.1,5.2l-21.7,14.2C3536.8,2498.6,3536.4,2498.8,3536.1,2498.9z"/>
	</g>
	<path class="st33" d="M3560,2481.4l-21.7,14.2c-0.3,0.2-0.7,0.4-1.1,0.5c-1.5,0.4-3.2-0.2-4.1-1.6c-0.4-0.6-0.6-1.3-0.6-2
		c-1.3,1.2-1.5,3.2-0.5,4.7c0.9,1.4,2.6,2,4.1,1.6c0.4-0.1,0.8-0.3,1.1-0.5l21.7-14.2c1.1-0.7,1.7-1.9,1.7-3.2
		C3560.3,2481.1,3560.2,2481.3,3560,2481.4z"/>
	<g>
		<path class="st5" d="M3501.6,2508c-0.4,0.1-0.8,0.1-1.2,0.1l-25.9-1.7c-2.1-0.1-3.6-1.9-3.5-4c0.1-2.1,1.9-3.6,4-3.5l25.9,1.7
			c2.1,0.1,3.6,1.9,3.5,4C3504.3,2506.3,3503.2,2507.6,3501.6,2508z"/>
	</g>
	<path class="st33" d="M3502.3,2501c0.3,0.6,0.5,1.3,0.4,2c-0.1,1.6-1.3,3-2.8,3.4c-0.4,0.1-0.8,0.1-1.2,0.1l-25.9-1.7
		c-0.5,0-0.9-0.2-1.3-0.4c0.6,1.1,1.7,1.9,3,2l25.9,1.7c0.4,0,0.8,0,1.2-0.1c1.5-0.4,2.7-1.7,2.8-3.4
		C3504.5,2503,3503.6,2501.6,3502.3,2501z"/>
	<path class="st30" d="M3565.5,2512.6l-6.1-5.1c-3-2.5-7.2-3-10.7-1.2l-4.9,2.5l1,1.6l4.7-2.5c2.8-1.5,6.2-1.1,8.7,0.9l6.1,5.1
		l4,3.7l1.6-1.1L3565.5,2512.6z"/>
	<path class="st30" d="M3495.3,2520.5c-3.9,0.1-7.4,2.6-8.8,6.3l-2.8,7.5l-1.8,5.9l1.9,0.2l1.7-5.5l2.8-7.5c1.1-3,3.9-5,7.1-5.1
		l4.5-0.2l0.1-1.9L3495.3,2520.5z"/>
</g>
<g>
	<g>
		<path class="st15" d="M769.8,1556.9c0,0-5.7-11.4-10.4-16.3c-4.6-4.9-9.3,3.9-7.1,8.2c0,0-6.3-6.1-11.2-7.5
			c-17.3-5-28.1,21.4-6.9,31.4c16.3,7.1,23.5,9.6,23.5,9.6L769.8,1556.9z"/>
	</g>
	<path class="st21" d="M766.4,1564.1c-0.7-4.7-1.2-8.3-1.2-8.3s-12.2,16.9-15,16.3c-13.8-2.1-24.5-12.7-27.6-16
		c-0.1,6.2,3.2,12.8,11.7,16.8c16.3,7.1,23.5,9.6,23.5,9.6L766.4,1564.1z"/>
	<g>
		<path class="st15" d="M935.3,1599.3c0,0,2.6,13.2,5.4,19.3c2.8,6.1,10-0.8,9.4-5.5c0,0,3.1,7.1,7.3,10
			c14.8,10.2,33.5-11.3,16.6-27.5c-13.2-11.9-19.2-16.6-19.2-16.6L935.3,1599.3z"/>
	</g>
	<path class="st21" d="M940.7,1618.6c2.5,5.4,8.3,0.7,9.3-3.7c-1,1.5-3.3,1.8-5.2-0.2c-1.9-2-2-17.3-2-17.3c-0.4-0.9-3.6,0-6.5,1
		l-0.9,0.9C935.3,1599.3,937.9,1612.5,940.7,1618.6z"/>
	<g>
		<path class="st15" d="M765.9,1494c0,0-12.9-1.4-16.2,6.9c-3.4,8.3,7.1,46.1,16.1,46.7c6.1,0.1,13.4-3.5,13.4-3.5L765.9,1494z"/>
	</g>
	<g>
		<path class="st15" d="M896.5,1459.5c0,0,10.5-7.6,17.5-2c7,5.6,16.6,43.5,9.1,48.6c-5.2,3.1-13.4,3.5-13.4,3.5L896.5,1459.5z"/>
	</g>
	<path class="st21" d="M917.1,1496.5c-0.3-15.7-10.3-33.5-14.4-40.1c-3.5,1.2-6.2,3.1-6.2,3.1l13.2,50.1c0,0,8.2-0.4,13.4-3.5
		c1.8-1.2,2.6-4.3,2.7-8.4C921.6,1498.8,917.3,1499.2,917.1,1496.5z"/>
	<path class="st21" d="M766.2,1536.3c-7.5-13.8-7.6-34.2-7.3-42c3.7-0.7,6.9-0.4,6.9-0.4l13.2,50.1c0,0-7.4,3.7-13.4,3.5
		c-2.1-0.2-4.4-2.5-6.5-6C763.5,1540.6,767.4,1538.8,766.2,1536.3z"/>
	<g>
		<path class="st22" d="M834.1,1496.8L834.1,1496.8c-37.6,9.9-60,48.4-50.1,86l16.3,61.5c4,15.1,19.5,24.1,34.6,20.1l81.4-21.5
			c15.1-4,24.1-19.5,20.1-34.6l-16.3-61.5C910.2,1509.3,871.6,1486.9,834.1,1496.8z"/>
		<g>
			<path class="st23" d="M920.5,1548.4c-21.7,18.1-31,47.2-23.8,74.6l6.2,23.5l13.3-3.5c15.1-4,24.1-19.5,20.1-34.6L920.5,1548.4
				L920.5,1548.4z"/>
			<path class="st23" d="M784.4,1584.3L784.4,1584.3l15.9,60c4,15.1,19.5,24.1,34.6,20.1l13.3-3.5l-6.2-23.5
				C834.7,1610,812.3,1589.3,784.4,1584.3z"/>
		</g>
		<path class="st24" d="M886.7,1503.6c8.7,8.6,15.3,19.5,18.6,32.1l16.3,61.5c4,15.1-5,30.6-20.1,34.6l-81.4,21.5
			c-5.5,1.4-10.9,1.2-15.9-0.5c6.5,9.7,18.7,14.7,30.7,11.6l81.4-21.5c15.1-4,24.1-19.5,20.1-34.6l-16.3-61.5
			C915,1527.8,902.6,1512.6,886.7,1503.6z"/>
	</g>
	<g>
		<path class="st10" d="M935.3,1599.3l19.5-20.4c-24.7-23.6-46.6-28.9-61.9-28.6c-0.4-1.1-0.6-1.7-0.6-1.7s-11-11.7-42.9-3.2
			c-30.4,8-35.3,22.5-35.7,23.9c-11.2-0.9-26.3-4.1-43.8-12.4l-12.1,25.4c25,11.9,46.5,15.1,61.5,15.4c2.3,10.8,4.9,22.7,7.2,31.5
			c2.1,7.9,5.5,14.7,10.6,19.7c-3.3,12.4-7.4,32-7.4,51.2l31.6-0.1c0-14.4,3.6-31.1,6.7-42.5c3.2-0.4,6.6-1,10.3-2
			c4.1-1.1,7.7-2.4,11-3.8c8.4,8.4,19.8,21.2,27,33.8l27.6-15.5c-9.7-17.2-23.6-32.7-32.6-41.8c1.6-6.5,1.2-13.7-0.8-21.1
			c-2.1-7.8-5.1-17.9-8.2-27.5C911,1581.4,922.2,1586.8,935.3,1599.3z"/>
	</g>
	<g>
		<path class="st10" d="M906.9,1471.1c-24.9-59.2-87.8-39.8-87.8-39.8s-64.3,14.2-56.7,78c7.6,63.8,65.9,60.2,91.4,53.4
			C879.4,1555.9,931.8,1530.3,906.9,1471.1z"/>
	</g>
	<path class="st22" d="M906.9,1471.1c-6.3-14.9-14.9-24.8-24.4-31.3c7.3,6.4,13.9,15.1,18.9,27c24.9,59.2-27.5,84.8-53.1,91.6
		c-16.1,4.3-45.4,7.3-66.6-7.3c21.4,19.4,54.5,16.2,72.1,11.6C879.4,1555.9,931.8,1530.3,906.9,1471.1z"/>
	<g>
		<g>
			<path class="st15" d="M873.4,1636.6c-27.4,7.2-45.4,4-46.1,3.9c-3.8-0.7-6.3-4.4-5.6-8.2c0.7-3.8,4.4-6.3,8.2-5.6
				c0.3,0.1,16,2.7,39.9-3.6c24-6.3,35.6-16.2,35.7-16.3c2.9-2.5,7.4-2.2,9.9,0.7c2.5,2.9,2.3,7.3-0.6,9.9
				C914.2,1617.8,900.9,1629.3,873.4,1636.6z"/>
		</g>
	</g>
	<path class="st21" d="M913.8,1613.5c-0.6,0.5-13.9,12-41.4,19.3c-27.4,7.2-45.4,4-46.1,3.9c-2.1-0.4-3.7-1.7-4.7-3.3
		c-0.1,3.4,2.3,6.4,5.7,7.1c0.7,0.1,18.7,3.4,46.1-3.9c27.5-7.3,40.8-18.8,41.4-19.3c2.6-2.3,3.1-6,1.4-8.9
		C916.1,1610.3,915.3,1612.1,913.8,1613.5z"/>
	<g class="st25">
		<g>
			<path class="st26" d="M856.3,1572c-23.8,6.3-42.6,2.2-43.8,2c-2.5-0.6-4.1-3.1-3.5-5.6c0.6-2.5,3.1-4.1,5.6-3.5
				c0.6,0.1,39.6,8.4,74.7-19.9c2-1.6,5-1.3,6.6,0.7c1.6,2,1.3,5-0.7,6.6C882.1,1562.9,868.5,1568.8,856.3,1572z"/>
		</g>
	</g>
	<path class="st15" d="M812.9,1569.7c0.6,0.1,42.2,7.7,80.3-21.4c1-0.8,2.3-1.1,3.5-1.1c-0.2-0.6-0.4-1.1-0.8-1.6
		c-1.6-2-4.6-2.3-6.6-0.7c-35.1,28.2-74.1,20-74.7,19.9c-2.5-0.6-5,1-5.6,3.5c-0.2,0.7-0.1,1.4,0,2.1
		C810.1,1569.8,811.5,1569.5,812.9,1569.7z"/>
	<g>
		<g>
			<path class="st27" d="M871.5,1570.9l-9,3.4c-3.4,1.3-6.9,2.2-10.5,2.8l-10.2,1.6c-2.6,0.4-4.2,2.9-3.5,5.4l3.9,14.9
				c0.6,2.2,2.7,3.5,4.9,3.2l10.8-1.7c3.6-0.6,7.1-1.5,10.5-2.8l10.2-3.9c2.1-0.8,3.3-3,2.7-5.2l-3.9-14.9
				C876.6,1571.3,874,1569.9,871.5,1570.9z"/>
		</g>
		<g>
			<path class="st28" d="M849.3,1585c0.5,1.9-0.6,3.8-2.5,4.2s-3.8-0.6-4.2-2.5c-0.5-1.9,0.6-3.8,2.5-4.2
				C846.9,1582,848.8,1583.1,849.3,1585z"/>
		</g>
		<g>
			<path class="st28" d="M851.8,1594.2c0.5,1.9-0.6,3.8-2.5,4.2c-1.9,0.5-3.8-0.6-4.2-2.5s0.6-3.8,2.5-4.2
				C849.4,1591.2,851.3,1592.3,851.8,1594.2z"/>
		</g>
		<g>
			<g>
				<path class="st29" d="M862.7,1584.8c-4.7,1.2-8.2,1.6-8.5,1.6c-1.1,0.1-2.2-0.7-2.3-1.9c-0.1-1.1,0.7-2.2,1.9-2.3
					c0.1,0,9.7-1,18.2-5.4c1-0.5,2.3-0.1,2.8,0.9c0.5,1,0.1,2.3-0.9,2.8C870.1,1582.6,866.1,1584,862.7,1584.8z"/>
			</g>
		</g>
		<g>
			<g>
				<path class="st29" d="M865,1593.5c-4.7,1.2-8.2,1.6-8.5,1.6c-1.1,0.1-2.2-0.7-2.3-1.9c-0.1-1.1,0.7-2.2,1.9-2.3
					c0.1,0,9.7-1,18.2-5.4c1-0.5,2.3-0.1,2.8,0.9c0.5,1,0.1,2.3-0.9,2.8C872.4,1591.2,868.4,1592.6,865,1593.5z"/>
			</g>
		</g>
	</g>
	<path class="st15" d="M890.6,1601.1l-4.1-3.2c-0.8-0.6-1.8-0.8-2.8-0.4l-4.8,1.9c-0.9,0.4-1.6,1.2-1.7,2.2l-0.8,5.2
		c-0.1,1,0.3,2,1,2.6l4.1,3.2c0.8,0.6,1.8,0.8,2.8,0.4l4.8-1.9c0.9-0.4,1.6-1.2,1.7-2.2l0.8-5.2
		C891.8,1602.7,891.4,1601.7,890.6,1601.1z"/>
	<path class="st15" d="M841,1614.2l2-4.8c0.4-0.9,1.2-1.6,2.2-1.7l5.2-0.7c1-0.1,2,0.3,2.6,1.1l3.2,4.1c0.6,0.8,0.8,1.8,0.4,2.8
		l-2,4.8c-0.4,0.9-1.2,1.6-2.2,1.7l-5.2,0.7c-1,0.1-2-0.3-2.6-1.1l-3.2-4.1C840.8,1616.2,840.6,1615.2,841,1614.2z"/>
	<g>
		<g>
			<path class="st30" d="M897.4,1483c-19-42.8-71.7-26.9-71.7-26.9s-53.6,12.1-49,58.8c4.6,46.6,53,42.4,74.3,36.8
				C872.3,1546.1,916.4,1525.9,897.4,1483z"/>
		</g>
		<path class="st31" d="M897.4,1483c-5-11.3-12.5-18.5-20.6-23c4.3,4.1,8.1,9.4,11,16c19,42.8-25.1,63-46.4,68.7
			c-13,3.4-36,6.3-53.1-2.5c16.8,17,47,13.6,62.6,9.5C872.3,1546.1,916.4,1525.9,897.4,1483z"/>
		<g>
			<path class="st32" d="M825.7,1456.1c0,0-2.8,0.6-7,2.2c-1.7,18.3-7.8,52.5-29.5,84.8c5.9,5.6,13.4,8.8,21.2,10.5
				c26.1-40.3,31.2-82,32.2-100.2C832.8,1454,825.7,1456.1,825.7,1456.1z"/>
			<path class="st32" d="M860.8,1454.4c-1.2,18.4-7.2,61.9-36.5,100.6c5.3,0.1,10.5-0.3,15.2-1c25.2-37.3,31.4-76.5,32.9-96.2
				C868.6,1456.2,864.7,1455.1,860.8,1454.4z"/>
		</g>
	</g>
	<g>
		<path class="st30" d="M907.6,1635.8c-5.9,1.6-12.8-0.7-17.4-4.5c-7.3-5.9-11.1-16.3-9.6-26.6c0.3-1.9,2.1-3.3,4-3
			c1.9,0.3,3.3,2.1,3,4c-1.1,7.8,1.7,15.7,7,20.1c3.6,2.9,9.6,4.6,13,2.4c1.5-1,2-2.4,2.2-3.4c0.3-1.9-0.2-4-1.4-5.5
			c-0.8-1-2.1-2-3.5-3c-2.8-2-6.2-4.5-7.1-9c-0.6-2.9,0-5.9,1.8-8.4c1.9-2.6,4.8-4.4,8.1-4.8c1.9-0.3,3.7,1.1,4,3
			c0.3,1.9-1.1,3.7-3,4c-1.3,0.2-2.5,0.9-3.2,1.9c-0.4,0.6-0.9,1.6-0.6,2.9c0.4,1.7,1.9,3,4.4,4.8c1.7,1.3,3.5,2.6,4.9,4.4
			c2.4,3.1,3.4,7.2,2.8,11c-0.6,3.4-2.5,6.3-5.3,8.2C910.2,1634.9,908.9,1635.4,907.6,1635.8z"/>
	</g>
	<g>
		<path class="st30" d="M843.3,1652.7c-1.3,0.4-2.7,0.5-4.1,0.4c-3.4-0.2-6.4-1.8-8.6-4.5c-2.4-3-3.6-7.1-3-10.9
			c0.3-2.3,1.2-4.3,2.1-6.3c1.3-2.8,2-4.6,1.5-6.3c-0.4-1.2-1.3-1.9-2-2.2c-1.1-0.5-2.5-0.6-3.8-0.1c-1.8,0.7-3.9-0.1-4.6-1.9
			c-0.7-1.8,0.1-3.9,1.9-4.6c3-1.2,6.5-1.1,9.4,0.2c2.7,1.3,4.8,3.6,5.7,6.4c1.4,4.4-0.3,8.2-1.7,11.4c-0.7,1.6-1.4,3.1-1.6,4.4
			c-0.3,1.9,0.3,4,1.5,5.5c0.7,0.8,1.8,1.8,3.6,1.9c4.1,0.2,8.4-4.2,10.1-8.5c2.5-6.5,1.1-14.7-3.8-20.9c-1.2-1.5-0.9-3.8,0.6-4.9
			c1.5-1.2,3.7-0.9,4.9,0.6c6.3,8.2,8.2,19.1,4.8,27.8C854.1,1645.8,849.2,1651.2,843.3,1652.7z"/>
	</g>
	<path class="st22" d="M939,1588.6c0,0-20-20.3-40.9-21.1l4.3,11.9c8.6,2,19.8,7.3,32.9,19.9l3.2-3.4L939,1588.6z"/>
	<g>
		<g>
			<path class="st35" d="M936.5,1603.8c-1.5,0.4-3.2,0-4.4-1.1c-1.9-1.8-1.9-4.8-0.1-6.6l19.5-20.4c1.8-1.9,4.8-1.9,6.6-0.1
				c1.9,1.8,1.9,4.8,0.1,6.6l-19.5,20.4C938.1,1603.2,937.3,1603.6,936.5,1603.8z"/>
		</g>
	</g>
	<path class="st21" d="M980.5,1611.5c-15.2,18.7-30.5,1.6-30.5,1.6s3.1,7.1,7.3,10C967.4,1630.1,979.3,1622.3,980.5,1611.5z"/>
	<path class="st15" d="M936.1,1564c-10.6-6.9-20.4-10.6-29-12.3c0.1,4.2,1.3,12.5,8.6,15.7C923.5,1570.9,931.9,1569.3,936.1,1564z"
		/>
	<path class="st15" d="M775.6,1589.6c11.8,4,22.4,6.2,31.6,7.2c-0.5-3.1-2.7-13.3-11.6-15.4C786.7,1579.3,778.4,1583,775.6,1589.6z"
		/>
	<path class="st22" d="M818.2,1586.4c0,0-33-2.9-53.3-12.7c-0.9-0.4-1.7-0.8-2.6-1l-4.6,9.6c25,11.9,46.5,15.1,61.5,15.4
		C819.2,1597.7,818.2,1594.1,818.2,1586.4z"/>
	<g>
		<g>
			<path class="st35" d="M758.9,1586.9c-1,0.3-2.2,0.2-3.2-0.3c-2.3-1.1-3.3-3.9-2.2-6.3l12.1-25.4c1.1-2.3,3.9-3.3,6.3-2.2
				c2.3,1.1,3.3,3.9,2.2,6.3l-12.1,25.4C761.3,1585.6,760.2,1586.5,758.9,1586.9z"/>
		</g>
	</g>
	<path class="st22" d="M911.6,1667.4c-2.3-1.3-19.7-19.7-20.6-21.5c-0.9-1.8-2.6-0.9-5.1,1.4c-2.5,2.2-15.4,6.9-19,5
		c-3.6-1.9-3.9-0.7-4.1,0c-0.3,0.7-7.6,31.7-7.6,31.7s3-0.1,7.3-0.2c1.3-9.7,3.5-19.1,5.5-26.5c3.2-0.4,6.6-1,10.3-2
		c4.1-1.1,7.7-2.4,11-3.8c5.7,5.7,12.8,13.4,19,21.7C910.8,1670.4,912.5,1667.9,911.6,1667.4z"/>
	<g>
		<path class="st15" d="M830.5,1679.5c-0.2,1.9-1.1,15.8-1.1,15.8s-16.9-9.8-31-1.7c-14.1,8.1-11.1,27.5-11.1,27.5l73.3,7.7
			l2.3-47.2L830.5,1679.5z"/>
	</g>
	<g>
		<path class="st15" d="M933.2,1652.4c1.1,1.6,8.7,13.2,8.7,13.2s9.9-16.9,26.2-16.8c16.2,0.1,23.2,18.4,23.2,18.4l-59.9,42.8
			l-25.3-39.9L933.2,1652.4z"/>
	</g>
	<g>
		<path class="st30" d="M931.3,1710.1l59.9-42.8c0,0-1.4-3.6-4.3-7.7l-60.2,43.3L931.3,1710.1z"/>
	</g>
	<g>
		<path class="st30" d="M787.3,1721.1l73.3,7.7l0.4-9.1l-73.4-9.4C786.5,1716.2,787.3,1721.1,787.3,1721.1z"/>
	</g>
	<g>
		<path class="st35" d="M907.2,1674.8c-1.9,0.5-4-0.2-5.1-2c-1.4-2.2-0.8-5.1,1.3-6.5l27.2-17.8c2.2-1.4,5.1-0.8,6.5,1.3
			c1.4,2.2,0.8,5.1-1.3,6.5l-27.2,17.8C908.2,1674.4,907.7,1674.6,907.2,1674.8z"/>
	</g>
	<path class="st33" d="M937.2,1652.9l-27.2,17.8c-0.4,0.3-0.9,0.5-1.4,0.6c-1.9,0.5-4-0.2-5.1-2c-0.5-0.8-0.8-1.7-0.8-2.5
		c-1.6,1.5-1.9,4-0.7,5.9c1.1,1.7,3.2,2.5,5.1,2c0.5-0.1,0.9-0.3,1.4-0.6l27.2-17.8c1.4-0.9,2.1-2.4,2.1-4
		C937.7,1652.5,937.4,1652.7,937.2,1652.9z"/>
	<g>
		<path class="st35" d="M864.1,1686.2c-0.5,0.1-1,0.2-1.5,0.1l-32.4-2.1c-2.6-0.2-4.5-2.4-4.4-5c0.2-2.6,2.4-4.5,5-4.4l32.4,2.1
			c2.6,0.2,4.5,2.4,4.4,5C867.4,1684,866,1685.7,864.1,1686.2z"/>
	</g>
	<path class="st33" d="M864.9,1677.4c0.4,0.8,0.6,1.6,0.6,2.5c-0.1,2.1-1.6,3.7-3.5,4.2c-0.5,0.1-1,0.2-1.5,0.1l-32.4-2.1
		c-0.6,0-1.2-0.2-1.7-0.4c0.7,1.4,2.1,2.4,3.8,2.5l32.4,2.1c0.5,0,1,0,1.5-0.1c1.9-0.5,3.3-2.2,3.5-4.2
		C867.7,1680,866.6,1678.2,864.9,1677.4z"/>
	<path class="st30" d="M944.2,1692l-7.7-6.4c-3.8-3.2-9.1-3.7-13.5-1.4l-6.1,3.2l1.3,2l5.9-3.1c3.5-1.8,7.8-1.4,10.9,1.2l7.6,6.4
		l5,4.7l1.9-1.4L944.2,1692z"/>
	<path class="st30" d="M856.1,1701.9c-4.9,0.2-9.2,3.3-11,7.9l-3.5,9.4l-2.3,7.4l2.4,0.3l2.1-6.9l3.5-9.4c1.4-3.7,4.9-6.2,8.9-6.4
		l5.6-0.2l0.1-2.4L856.1,1701.9z"/>
</g>
<g>
	<path class="st36" d="M1584.3,122.1c20.4,11.6,44,18.2,69.2,18.2c77.6,0,140.6-62.8,140.6-140.3c0-38-15.1-72.5-39.7-97.7
		c25-9.5,42.8-33.7,42.8-62c0-14.7-4.8-28.3-12.9-39.3c28.9-16.8,48.4-48.1,48.4-83.9c0-53.6-43.6-97.1-97.3-97.1
		c-53.8,0-97.3,43.5-97.3,97.1c0,33.3,16.8,62.6,42.3,80.1c-10,11.6-16,26.6-16,43.1c0,7,1.1,13.8,3.1,20.1
		c-4.6-0.4-9.2-0.7-13.9-0.7C1576-140.3,1513-77.5,1513,0c0,4.3,0.2,8.5,0.6,12.7c-8.1-2.2-16.5-3.3-25.3-3.3
		c-53.8,0-97.3,43.5-97.3,97.1c-0.2,53.6,43.4,97.1,97.2,97.1C1536.6,203.6,1576.8,168.3,1584.3,122.1L1584.3,122.1z"/>
	<path class="st37" d="M1565.2-116.3c-0.2,0.1-0.2,0.3,0,0.4c1.5,0.5,5.5,2.3,7.6,9.2c0.1,0.2,0.4,0.2,0.4,0c0.4-2.3,2-7.7,7.9-9.1
		c0.2-0.1,0.2-0.4,0-0.4c-2-0.6-6.8-3-8.1-10.6c-0.1-0.3-0.4-0.3-0.4,0C1572.1-124.2,1570.3-118.6,1565.2-116.3z"/>
	<path class="st38" d="M1488.6-158.8c-0.5,2.6-2.2,8.2-7.4,10.5c-0.2,0.1-0.2,0.3,0,0.4c1.5,0.5,5.5,2.3,7.6,9.2
		c0.1,0.2,0.4,0.2,0.4,0c0.4-2.3,2-7.7,7.9-9.1c0.2-0.1,0.2-0.4,0-0.4c-2-0.7-6.8-3-8.1-10.6
		C1488.9-159.1,1488.7-159.1,1488.6-158.8L1488.6-158.8z"/>
	<path class="st39" d="M1640.2-51.3c-0.2,0.1-0.2,0.3,0,0.4c1.5,0.5,5.5,2.3,7.6,9.2c0.1,0.2,0.4,0.2,0.4,0c0.4-2.3,2-7.7,7.9-9.1
		c0.2-0.1,0.2-0.4,0-0.4c-2-0.6-6.8-3-8.1-10.6c-0.1-0.3-0.4-0.3-0.4,0C1647.1-59.2,1645.3-53.6,1640.2-51.3z"/>
	<path class="st40" d="M1704.6-232.9c-0.5,2.6-2.2,8.2-7.4,10.5c-0.2,0.1-0.2,0.3,0,0.4c1.5,0.5,5.5,2.3,7.6,9.2
		c0.1,0.2,0.4,0.2,0.4,0c0.4-2.3,2-7.7,7.9-9.1c0.2-0.1,0.2-0.4,0-0.4c-2-0.6-6.8-3-8.1-10.6
		C1704.9-233.1,1704.7-233.1,1704.6-232.9L1704.6-232.9z"/>
</g>
<g id="Product-Pages">
	<g id="Header---Postman" transform="translate(-289.000000, -269.000000)">
		<g id="_x31_---Header">
			<g id="Hero">
				<g id="Header-BG">
					<g id="Header---Clouds" transform="translate(-202.000000, 37.000000)">
						<g id="Repeating-Clouds" transform="translate(485.000000, 232.000000)">
							<path id="Shape" class="st36" d="M1876.8,652.7c-11.5-12.6-28-20.5-46.3-20.5c-14,0-26.9,4.6-37.3,12.3
								c-19.6-52.8-70.5-90.5-130.1-90.5c-62,0-114.5,40.7-132.4,96.8c-9.3-5.5-20.2-8.7-31.8-8.7c-34.7,0-62.8,28.1-62.8,62.8
								s28.1,62.8,62.8,62.8c14.9,0,28.6-5.2,39.4-14c22.5,46.1,69.9,77.9,124.7,77.9c58.4,0,108.3-36.1,128.8-87.1
								c10.6,8.3,24,13.3,38.6,13.3c10.9,0,21.1-2.8,30-7.6c13.8,46.4,56.8,80.4,107.7,80.4c62.1,0,112.4-50.3,112.4-112.4
								s-50.4-112.4-112.4-112.4C1930.5,605.8,1897.2,624.3,1876.8,652.7z"/>
							<path id="Shape_1_" class="st41" d="M2674.4,623.6c-19.1-50.1-58.6-92.3-112.5-113.3c-94-36.4-198.8,4.1-244.9,90.9
								c-11.1-7.2-23.1-13.4-36-18.4c-101.3-39.4-215.2,10.8-254.6,112.1c-11.2,28.9-15.2,58.7-12.7,87.6l329.6,128.1
								c15.9-14.6,29.6-32.1,40.1-51.9c11.1,7.2,23.1,13.4,36,18.4c45.3,17.6,93.2,17.3,135.8,2.5c19.1,50,58.6,92.1,112.5,113.1
								c101.3,39.4,215.2-10.8,254.6-112.1c39.4-101.2-10.8-215.1-112-254.5C2764.9,608.5,2717,608.9,2674.4,623.6z"/>
							<path id="Shape_2_" class="st36" d="M2505.6,608.5c-42.6,4.5-78.2,29.4-98,64.1c-14.5-12.9-34.2-19.9-55-17.7
								c-15.8,1.7-29.9,8.4-40.8,18.3c-28.5-57.5-90.7-94.2-158.3-87.1c-70.3,7.4-124.9,59.8-138.5,125.5c-11.2-5.1-23.9-7.4-37.1-6
								c-39.3,4.1-67.8,39.4-63.7,78.7c4.1,39.3,39.4,67.8,78.7,63.7c16.9-1.8,31.8-9.3,43-20.5c31.1,49.6,88.5,79.9,150.6,73.4
								c66.2-7,118.5-53.8,135.6-114.1c13.1,8.1,28.8,12.2,45.4,10.5c12.3-1.3,23.6-5.7,33.1-12.2c21.2,51,73.9,84.3,131.7,78.2
								c70.3-7.4,121.4-70.4,114-140.8C2639,652.1,2575.9,601.1,2505.6,608.5L2505.6,608.5z"/>
							<path id="Shape-Copy" class="st36" d="M2884,621.3c-24.2,2.5-44.4,16.7-55.6,36.4c-8.2-7.3-19.4-11.3-31.2-10
								c-9,0.9-17,4.7-23.2,10.4c-16.2-32.6-51.5-53.4-89.8-49.4c-39.9,4.2-70.9,33.9-78.6,71.2c-6.4-2.9-13.6-4.2-21-3.4
								c-22.3,2.3-38.5,22.3-36.2,44.6s22.3,38.5,44.6,36.2c9.6-1,18.1-5.3,24.4-11.6c17.6,28.1,50.2,45.4,85.5,41.7
								c37.6-3.9,67.3-30.5,77-64.8c7.4,4.6,16.4,6.9,25.8,5.9c7-0.7,13.4-3.2,18.8-6.9c12,28.9,42,47.9,74.8,44.4
								c39.9-4.2,68.9-40,64.7-79.9S2923.9,617.1,2884,621.3L2884,621.3z"/>
							<path id="Shape_3_" class="st40" d="M2271.6,609.2c-0.5,2.6-2.2,8.2-7.4,10.5c-0.2,0.1-0.2,0.3,0,0.4
								c1.5,0.5,5.5,2.3,7.6,9.2c0.1,0.2,0.4,0.2,0.4,0c0.4-2.3,2-7.7,7.9-9.1c0.2-0.1,0.2-0.4,0-0.4c-2-0.7-6.8-3-8.1-10.6
								C2271.9,609,2271.6,609,2271.6,609.2L2271.6,609.2z"/>
							<path id="Shape_4_" class="st38" d="M1945.6,511.2c-0.5,2.6-2.2,8.2-7.4,10.5c-0.2,0.1-0.2,0.3,0,0.4
								c1.5,0.5,5.5,2.3,7.6,9.2c0.1,0.2,0.4,0.2,0.4,0c0.4-2.3,2-7.7,7.9-9.1c0.2-0.1,0.2-0.4,0-0.4c-2-0.6-6.8-3-8.1-10.6
								C1945.9,510.9,1945.6,510.9,1945.6,511.2L1945.6,511.2z"/>
						</g>
					</g>
				</g>
			</g>
		</g>
	</g>
</g>
<g id="Product-Pages_2_">
	<g id="Header---Postman_2_" transform="translate(-289.000000, -269.000000)">
		<g id="_x31_---Header_2_">
			<g id="Hero_2_">
				<g id="Header-BG_2_">
					<g id="Header---Clouds_2_" transform="translate(-202.000000, 37.000000)">
						<g id="Repeating-Clouds_1_" transform="translate(485.000000, 232.000000)">
							<path id="Shape_12_" class="st36" d="M1837.8-1314.3c-11.5-12.6-28-20.5-46.3-20.5c-14,0-26.9,4.6-37.3,12.3
								c-19.6-52.8-70.5-90.5-130.1-90.5c-62,0-114.5,40.7-132.4,96.8c-9.3-5.5-20.2-8.7-31.8-8.7c-34.7,0-62.8,28.1-62.8,62.8
								s28.1,62.8,62.8,62.8c14.9,0,28.6-5.2,39.4-14c22.5,46.1,69.9,77.9,124.7,77.9c58.4,0,108.3-36.1,128.8-87.1
								c10.6,8.3,24,13.3,38.6,13.3c10.9,0,21.1-2.8,30-7.6c13.8,46.4,56.8,80.4,107.7,80.4c62.1,0,112.4-50.3,112.4-112.4
								c0-62.1-50.4-112.4-112.4-112.4C1891.5-1361.2,1858.2-1342.7,1837.8-1314.3z"/>
							<path id="Shape_11_" class="st41" d="M2635.4-1343.4c-19.1-50.1-58.6-92.3-112.5-113.3c-94-36.4-198.8,4.1-244.9,90.9
								c-11.1-7.2-23.1-13.4-36-18.4c-101.3-39.4-215.2,10.8-254.6,112.1c-11.2,28.9-15.2,58.7-12.7,87.6l329.6,128.1
								c15.9-14.6,29.6-32.1,40.1-51.9c11.1,7.2,23.1,13.4,36,18.4c45.3,17.6,93.2,17.3,135.8,2.5c19.1,50,58.6,92.1,112.5,113.1
								c101.3,39.4,215.2-10.8,254.6-112.1c39.4-101.2-10.8-215.1-112-254.5C2725.9-1358.5,2678-1358.1,2635.4-1343.4z"/>
							<path id="Shape_10_" class="st36" d="M2466.6-1358.5c-42.6,4.5-78.2,29.4-98,64.1c-14.5-12.9-34.2-19.9-55-17.7
								c-15.8,1.7-29.9,8.4-40.8,18.3c-28.5-57.5-90.7-94.2-158.3-87.1c-70.3,7.4-124.9,59.8-138.5,125.5c-11.2-5.1-23.9-7.4-37.1-6
								c-39.3,4.1-67.8,39.4-63.7,78.7c4.1,39.3,39.4,67.8,78.7,63.7c16.9-1.8,31.8-9.3,43-20.5c31.1,49.6,88.5,79.9,150.6,73.4
								c66.2-7,118.5-53.8,135.6-114.1c13.1,8.1,28.8,12.2,45.4,10.5c12.3-1.3,23.6-5.7,33.1-12.2c21.2,51,73.9,84.3,131.7,78.2
								c70.3-7.4,121.4-70.4,114-140.8C2600-1314.9,2536.9-1365.9,2466.6-1358.5L2466.6-1358.5z"/>
							<path id="Shape-Copy_1_" class="st36" d="M2845-1345.7c-24.2,2.5-44.4,16.7-55.6,36.4c-8.2-7.3-19.4-11.3-31.2-10
								c-9,0.9-17,4.7-23.2,10.4c-16.2-32.6-51.5-53.4-89.8-49.4c-39.9,4.2-70.9,33.9-78.6,71.2c-6.4-2.9-13.6-4.2-21-3.4
								c-22.3,2.3-38.5,22.3-36.2,44.6c2.3,22.3,22.3,38.5,44.6,36.2c9.6-1,18.1-5.3,24.4-11.6c17.6,28.1,50.2,45.4,85.5,41.7
								c37.6-3.9,67.3-30.5,77-64.8c7.4,4.6,16.4,6.9,25.8,5.9c7-0.7,13.4-3.2,18.8-6.9c12,28.9,42,47.9,74.8,44.4
								c39.9-4.2,68.9-40,64.7-79.9S2884.9-1349.9,2845-1345.7L2845-1345.7z"/>
							<path id="Shape_9_" class="st40" d="M2232.6-1357.8c-0.5,2.6-2.2,8.2-7.4,10.5c-0.2,0.1-0.2,0.3,0,0.4
								c1.5,0.5,5.5,2.3,7.6,9.2c0.1,0.2,0.4,0.2,0.4,0c0.4-2.3,2-7.7,7.9-9.1c0.2-0.1,0.2-0.4,0-0.4c-2-0.7-6.8-3-8.1-10.6
								C2232.9-1358.1,2232.6-1358.1,2232.6-1357.8L2232.6-1357.8z"/>
							<path id="Shape_8_" class="st38" d="M1906.6-1455.8c-0.5,2.6-2.2,8.2-7.4,10.5c-0.2,0.1-0.2,0.3,0,0.4
								c1.5,0.5,5.5,2.3,7.6,9.2c0.1,0.2,0.4,0.2,0.4,0c0.4-2.3,2-7.7,7.9-9.1c0.2-0.1,0.2-0.4,0-0.4c-2-0.6-6.8-3-8.1-10.6
								C1906.9-1456.1,1906.6-1456.1,1906.6-1455.8L1906.6-1455.8z"/>
						</g>
					</g>
				</g>
			</g>
		</g>
	</g>
</g>
<g id="Product-Pages_1_">
	<g id="Header---Postman_1_" transform="translate(0.000000, -215.000000)">
		<g id="_x31_---Header_1_">
			<g id="Hero_1_">
				<g id="Header-BG_1_">
					<g id="Header---Clouds_1_" transform="translate(-202.000000, 37.000000)">
						<g id="Left-Cloud" transform="translate(0.000000, 40.000000)">
							<path id="Shape_7_" class="st41" d="M217.1-447c-3.5,7.3-5.4,15-6,22.5l-30.2,115L461.8-170l51.4-94.3
								c3.8-7,6.5-14.5,8.1-22.3l0,0c6.4-21-5.2-45.1-25.7-54.7c-9-4.3-18.8-5.2-27.9-3.4c0.1-19-10.3-37.2-28.2-46.3
								c1.5-1.9,2.9-4,3.9-6.3c7.1-15.2,0.6-33.2-14.5-40.3c-7.7-3.6-16.2-3.7-23.6-0.9c0.1-17.6-9.7-34.5-26.7-42.5
								c-20.8-9.8-45.3-2.7-58,15.7c-5.3-5.3-11.6-9.7-18.9-13C269.9-492.5,232-478.6,217.1-447L217.1-447z"/>
							<path id="Shape_6_" class="st36" d="M801.8-274.3c-11.5-12.6-28-20.5-46.3-20.5c-14,0-26.9,4.6-37.3,12.3
								C698.5-335.3,647.6-373,588-373c-62,0-114.5,40.7-132.4,96.8c-9.3-5.5-20.2-8.7-31.8-8.7c-34.7,0-62.8,28.1-62.8,62.8
								s28.1,62.8,62.8,62.8c14.9,0,28.6-5.2,39.4-14c22.5,46.1,69.9,77.9,124.7,77.9c58.4,0,108.3-36.1,128.8-87.1
								c10.6,8.3,24,13.3,38.6,13.3c10.9,0,21.1-2.8,30-7.6c13.8,46.4,56.8,80.4,107.7,80.4c62.1,0,112.4-50.3,112.4-112.4
								s-50.4-112.4-112.4-112.4C855.5-321.2,822.2-302.7,801.8-274.3z"/>
							<path id="Shape_5_" class="st42" d="M404.5-309.9c-0.5,2.6-2.2,8.2-7.4,10.5c-0.2,0.1-0.2,0.3,0,0.4c1.5,0.5,5.5,2.3,7.6,9.2
								c0.1,0.2,0.4,0.2,0.4,0c0.4-2.3,2-7.7,7.9-9.1c0.2-0.1,0.2-0.4,0-0.4c-2-0.6-6.8-3-8.1-10.6C405-310,404.6-310,404.5-309.9
								L404.5-309.9z"/>
						</g>
					</g>
				</g>
			</g>
		</g>
	</g>
</g>
<image style="overflow:visible;" width="1400" height="2111" xlink:href="14644105.jpg"  transform="matrix(1 0 0 1 -2641 -812)">
</image>
<rect x="-838" y="-957" class="st43" width="515" height="201"/>
<rect x="-875" y="-653" class="st44" width="515" height="201"/>
<rect x="-828" y="-366" class="st45" width="515" height="201"/>
<g class="st46">
	<ellipse class="st47" cx="2143.6" cy="36.7" rx="16.9" ry="16.9"/>
	<ellipse class="st47" cx="2838.8" cy="430.9" rx="23.4" ry="23.4"/>
	
		<ellipse transform="matrix(0.8747 -0.4846 0.4846 0.8747 178.4351 1401.4139)" class="st47" cx="2799.9" cy="355.6" rx="13.9" ry="13.9"/>
	<path class="st47" d="M2653.4,347c0,2.5-2,4.5-4.5,4.5s-4.5-2-4.5-4.5s2-4.5,4.5-4.5S2653.4,344.5,2653.4,347z"/>
	<path class="st47" d="M2270.8,132.2c0,4-3.3,7.2-7.3,7.2s-7.2-3.3-7.2-7.3s3.3-7.2,7.3-7.2C2267.5,124.9,2270.8,128.2,2270.8,132.2
		z"/>
	<path class="st47" d="M2206,36c0,6.3-5.1,11.4-11.5,11.4s-11.4-5.1-11.4-11.5c0-6.3,5.1-11.4,11.5-11.4
		C2200.9,24.6,2206,29.7,2206,36z"/>
	<ellipse class="st48" cx="2556.9" cy="368.1" rx="16.9" ry="16.9"/>
	<path class="st48" d="M2295.9,277.1c0.1,2.5-1.9,4.5-4.4,4.6s-4.5-1.9-4.6-4.4c-0.1-2.5,1.9-4.5,4.4-4.6
		C2293.8,272.7,2295.8,274.6,2295.9,277.1z"/>
	<ellipse class="st45" cx="2187.4" cy="114.6" rx="12.4" ry="12.4"/>
	<path class="st45" d="M2214,232.5c0.1,2.9-2.2,5.2-5,5.3c-2.9,0.1-5.2-2.2-5.3-5c-0.1-2.9,2.2-5.2,5-5.3
		C2211.6,227.4,2214,229.6,2214,232.5z"/>
	<path class="st45" d="M2643.5,437.7c0.2,6.8-5.2,12.5-12.1,12.7c-6.9,0.2-12.5-5.2-12.7-12.1c-0.2-6.8,5.2-12.5,12.1-12.7
		C2637.6,425.4,2643.3,430.8,2643.5,437.7z"/>
	<ellipse class="st45" cx="2714.2" cy="398.7" rx="4.5" ry="4.5"/>
	<ellipse class="st45" cx="2766.9" cy="437.4" rx="6.2" ry="6.2"/>
	
		<ellipse transform="matrix(0.9788 -0.205 0.205 0.9788 -24.4879 468.2431)" class="st45" cx="2247.7" cy="352.3" rx="17.2" ry="17.2"/>
	<g>
		<path class="st47" d="M2823.8,479.9c4.5-43.5-27-82.5-70.6-87c-5.5-0.6-11-0.6-16.3,0c-3.6-15.4-16.5-27.5-33.1-29.2
			c-13.7-1.4-26.5,4.6-34.2,14.8c-15.1-0.2-29.2,5.5-39.8,15.2c-3.5-3.8-8.3-6.5-13.9-7c-11.4-1.2-21.7,6.6-23.8,17.7
			c-4.8-4.8-11.2-8.1-18.5-8.8c-7.5-0.8-14.7,1.2-20.5,5.1c-6-9.5-16.1-16.3-28.2-17.5c-16.2-1.7-31.1,7.1-38,20.9
			c-7.3-6.3-16.6-10.5-26.9-11.6c-12.3-1.3-23.9,2.1-33.3,8.6c-2.9-7.5-9.7-13.1-18.2-14c-10.2-1.1-19.5,5-22.9,14.2
			c-6.1-7-14.8-11.9-24.7-12.9c-6.5-0.7-12.9,0.3-18.6,2.7c-5.2-12.3-16.8-21.5-31-23c-4.8-0.5-9.5-0.1-13.9,1.1
			c-8.9-16.5-23.5-29.6-41.4-36.4c1.4-2.7,2.4-5.8,2.8-9c1.1-10.7-4.8-20.6-14-25c7.3-6.1,12.4-15,13.4-25.2
			c1.4-13.8-4.7-26.7-15.1-34.4c10.4-0.7,19.1-8.9,20.3-19.6c0.9-8.3-3-16-9.5-20.4c4.2-3.5,7.1-8.6,7.7-14.5
			c1.3-12.1-7.5-22.9-19.6-24.1c-2.5-0.3-5-0.1-7.3,0.5c2.3-4.3,3.8-9.1,4.3-14.2c1.9-18.2-9.1-34.7-25.6-40.4
			c0.3-1.4,0.6-2.8,0.8-4.3c1.8-16.9-10.5-32-27.4-33.8s-32,10.5-33.8,27.4c-0.4,3.6-0.1,7.1,0.7,10.4l-93.5,26.5l40.8,380.1
			l650.9,60.8l-2.7-22.8C2787.5,548.9,2819.7,519.3,2823.8,479.9z"/>
		<path class="st48" d="M2871.3,460.7c0.7-18.8-14-34.6-32.8-35.3c-7.7-0.3-14.8,2-20.7,6.1c-11.2-10.1-25.9-16.5-42.1-17.1
			c-22-0.8-41.9,9.2-54.5,25.2c-10.5-8.1-23.6-13.1-37.9-13.6c-2.3-0.1-4.7,0-7,0.1c-1.2-9.3-9-16.7-18.7-17
			c-6.9-0.2-13.1,3.1-16.7,8.4c-5.9-6.2-14.2-10.2-23.4-10.5c-8.1-0.3-15.6,2.3-21.6,6.8c-5.7-4.9-13-8-21.1-8.3
			c-18-0.7-33.2,12.7-35.1,30.3c-0.7-0.4-1.5-0.7-2.2-1.1c-8.1-3.4-16.9-3.4-24.6-0.7c-1.2-11.5-10.7-20.7-22.6-21.2
			c-6.5-0.2-12.5,2.2-16.9,6.3c-5.6-4.5-12.6-7.4-20.3-7.6c-14.4-0.5-27,8-32.4,20.4c-4.9-2.5-10.3-4-16.1-4.2
			c-4.5-0.2-8.9,0.5-13,1.8c-6.9-21.8-26.9-37.9-51-38.8c-8.8-0.3-17.2,1.4-24.8,4.8c-0.8-9.3-8.4-16.8-17.9-17.1c-1,0-2,0-3,0.2
			c-4-8.1-12.1-13.8-21.7-14.1c-2.1-0.1-4.1,0.1-6,0.5c-1.3-11.8-8.5-21.8-18.8-26.9c3.8-10.3,2.2-21.3-3.2-29.9
			c2.5-2.4,4.2-5.7,4.3-9.5c0.2-6.3-3.9-11.8-9.7-13.5c3.8-4,6.2-9.4,6.5-15.3c0.3-8.7-4.1-16.5-11-20.8c4.9-5.7,8-13,8.3-21.1
			c0.5-13.4-6.8-25.2-17.8-31.2c2.9-3.3,4.8-7.6,4.9-12.3c0.4-10.8-8.1-19.9-18.9-20.3c-0.4,0-0.9,0-1.3,0c0.9-3.1,1.5-6.4,1.6-9.8
			c0.6-16.3-9.1-30.6-23.3-36.6c0.8-3.8,1.4-7.8,1.5-11.9c1.3-36.7-27.3-67.4-64-68.8c-36.7-1.3-67.4,27.3-68.8,64
			c-1.3,36.7,27.3,67.4,64,68.8c3.5,0.1,7,0,10.4-0.4L2112.8,409l165.5,162.9l550.4-11.6l12.7-67.1
			C2857.7,491.3,2870.6,477.7,2871.3,460.7z"/>
		<path class="st49" d="M2714.3,513.6c4.7-37.4-21.8-71.6-59.3-76.3c-4.8-0.6-9.5-0.7-14-0.3c-2.8-13.3-13.7-24-28-25.8
			c-11.8-1.5-22.9,3.5-29.8,12.2c-13.1-0.4-25.3,4.3-34.6,12.4c-2.9-3.4-7.1-5.7-11.9-6.3c-9.8-1.2-18.8,5.3-20.9,14.8
			c-4.1-4.2-9.5-7.2-15.8-8c-6.5-0.8-12.7,0.8-17.7,4.1c-5-8.3-13.6-14.3-24-15.6c-14-1.8-27,5.5-33.1,17.3
			c-6.2-5.5-14.1-9.3-23-10.5c-10.6-1.3-20.7,1.4-28.9,6.8c-2.3-6.5-8.1-11.5-15.5-12.4c-8.8-1.1-16.9,4-20,11.9
			c-5.1-6.2-12.5-10.5-21.1-11.6c-5.6-0.7-11.1,0.1-16.1,2c-4.3-10.7-14.1-18.8-26.3-20.4c-4.2-0.5-8.2-0.2-12.1,0.7
			c-7.4-14.4-19.7-25.9-35.1-32.2c1.3-2.3,2.2-4.9,2.5-7.7c1.2-9.2-3.8-17.8-11.6-21.8c6.4-5.1,10.9-12.7,12-21.5
			c1.5-11.9-3.6-23.1-12.4-30c9-0.5,16.7-7.3,17.8-16.5c0.9-7.1-2.3-13.9-7.8-17.8c3.7-3,6.3-7.3,6.9-12.4
			c1.3-10.4-6.1-19.9-16.4-21.2c-2.2-0.3-4.3-0.1-6.3,0.3c2.1-3.6,3.5-7.7,4-12.2c2-15.6-7.2-30.1-21.4-35.3
			c0.3-1.2,0.6-2.4,0.7-3.7c1.8-14.5-8.5-27.8-23-29.6s-27.8,8.5-29.6,23c-0.4,3.1-0.2,6.1,0.4,9l-81.1,21.1l28.2,328.6l560.2,64.2
			l-1.9-19.7C2681.8,572.4,2710.1,547.5,2714.3,513.6z"/>
		<path class="st45" d="M2691.7,516.3c2.1-15.6-8.8-29.9-24.3-32c-6.3-0.9-12.5,0.4-17.7,3.3c-8.5-9.3-20.1-15.9-33.6-17.7
			c-18.2-2.5-35.5,4.2-47.4,16.5c-8.1-7.6-18.5-12.8-30.4-14.4c-1.9-0.3-3.9-0.4-5.8-0.5c-0.2-7.8-6.1-14.6-14.1-15.7
			c-5.7-0.8-11.1,1.5-14.6,5.6c-4.4-5.6-10.9-9.6-18.6-10.7c-6.7-0.9-13.1,0.6-18.5,3.8c-4.3-4.5-10.1-7.7-16.8-8.6
			c-14.9-2-28.6,7.9-31.6,22.3c-0.6-0.4-1.2-0.7-1.8-1.1c-6.5-3.5-13.7-4.2-20.4-2.6c0-9.7-7.2-18.1-17-19.4
			c-5.4-0.7-10.6,0.8-14.6,3.8c-4.2-4.2-9.8-7.1-16.2-8c-11.9-1.6-23.1,4.4-28.6,14.3c-3.8-2.5-8.2-4.2-13.1-4.8
			c-3.7-0.5-7.4-0.3-10.9,0.4c-3.9-18.7-19.2-33.7-39.2-36.4c-7.3-1-14.4-0.2-21,2c0.1-7.8-5.6-14.6-13.5-15.7
			c-0.8-0.1-1.7-0.1-2.5-0.1c-2.6-7-8.9-12.5-16.9-13.5c-1.7-0.2-3.4-0.2-5-0.1c-0.1-9.9-5.3-18.8-13.4-23.8
			c4-8.2,3.6-17.5-0.2-25.1c2.3-1.8,4-4.4,4.4-7.5c0.7-5.2-2.3-10.1-6.9-12c3.5-3,6-7.3,6.6-12.2c1-7.2-2.1-14-7.4-18.2
			c4.5-4.3,7.7-10.1,8.6-16.8c1.5-11.1-3.6-21.5-12.3-27.4c2.7-2.5,4.6-5.9,5.1-9.8c1.2-8.9-5.1-17.2-14-18.4
			c-0.4,0-0.7-0.1-1.1-0.1c1-2.5,1.8-5.2,2.2-8c1.8-13.5-5.1-26.2-16.4-32.4c1-3.1,1.8-6.4,2.2-9.7c4.1-30.3-17.2-58.3-47.5-62.4
			c-30.3-4.1-58.3,17.2-62.4,47.5s17.2,58.3,47.5,62.4c2.9,0.4,5.8,0.6,8.7,0.5l-35.5,197.5L2190,560l458.2,35.5l16-54.7
			C2677.9,540.6,2689.8,530.3,2691.7,516.3z"/>
		<path class="st48" d="M2305.3,317.4c0.1,4.4-3.4,8-7.7,8.1c-4.4,0.1-8-3.4-8.1-7.7c-0.1-4.4,3.4-8,7.7-8.1
			C2301.5,309.6,2305.1,313,2305.3,317.4z"/>
		<ellipse class="st48" cx="2412" cy="359.9" rx="4.5" ry="4.5"/>
		<path class="st45" d="M2324.4,417.3c0.1,4.2-3.2,7.7-7.4,7.8s-7.7-3.2-7.8-7.4c-0.1-4.2,3.2-7.7,7.4-7.8
			C2320.8,409.8,2324.3,413.1,2324.4,417.3z"/>
		<path class="st45" d="M2368,408.6c-0.1-3.2-2.8-5.8-6-5.7c-3.2,0.1-5.8,2.8-5.7,6c0.1,3.2,2.8,5.8,6,5.7
			C2365.5,414.6,2368.1,411.9,2368,408.6z"/>
		<rect x="2154.7" y="-36" class="st9" width="813.3" height="507.5"/>
	</g>
</g>
<path class="st20" d="M1355.3-280.5l79.8-116.2c-4.1-82.3-62.1-78.1-66.6-78.1c-10.8-0.1-20.2,6-24.9,15
	c-10.8-9.6-25-15.5-40.7-15.6c-13.1-0.1-25.3,3.9-35.4,10.7c-6.7-18.3-24.1-31.5-44.8-31.6c-15.3-0.1-29,6.9-37.9,18
	c-6.7-5.8-15.4-9.3-25-9.4c-9.3-0.1-17.8,3.1-24.5,8.5c-1.1-14.2-12.9-25.5-27.5-25.6c-7.1-0.1-13.5,2.6-18.5,6.9
	c-29.3-49.1-57.8-49.9-75.3-50.1c-21.1-0.2-52.5,15-59.2,33.8c-6.6-1.4-13.5-2.2-20.5-2.3c-55.4-0.5-100.6,44-101.1,99.4
	c-0.4,50,35.9,91.8,83.7,99.7l-6.6,28.2L1355.3-280.5z"/>
<path class="st15" d="M-291.9,848.5c-14-51.9-67.5-82.7-119.4-68.7c-4.9,1.3-9.6,3-14.1,5.1c-12.1-28.8-40-48.9-72.5-48.9
	c-17.4,0-33.5,5.8-46.5,15.5c-2.3,1.4-4.3,3.1-6,5c-0.9,0.8-1.8,1.7-2.6,2.5c-3.1-3.4-6.7-6.4-10.5-8.9
	c-22.9-23.5-54.9-38.2-90.3-38.2c-46,0-86.3,24.7-108.3,61.6c-10.6-13-27.4-20-44.6-17.9c-0.1-2.9-0.4-5.8-1.2-8.8
	c-3.7-13.6-14.5-23.4-27.4-26.4c-0.2-1.4-0.4-2.9-0.8-4.3c-3.7-13.6-16.9-22-30.4-20c2.3-11.9,2.1-24.5-1.3-37
	c-7.6-28-28.8-48.7-54.6-56.7c10-18.3,15.6-39.3,15.6-61.6c0-49.2-27.6-91.9-68.1-113.7c0-0.8,0.1-1.5,0.1-2.3
	c0-15.6-8.5-29.1-21.1-36.4c23.1-9.3,36.2-34.6,29.5-59.3c-3.1-11.4-9.9-20.9-18.8-27.4c4.4-10.1,5.6-21.7,2.5-33.1
	c-3.5-13.1-11.9-23.5-22.8-29.9c6.3-7,9-16.9,6.4-26.7c-3.7-13.7-16.8-22.4-30.5-21.1c-0.5-3.3-1.2-6.7-2.1-10
	c-5.5-20.2-16.9-37.2-31.9-49.6c18.7-23.4,26.4-55.1,18-86.3c-6.2-23.1-20.2-41.9-38.4-54.6c3.9-9.7,4.8-20.7,1.8-31.5
	c-7.2-26.6-34.6-42.4-61.2-35.2c-24.1,6.5-39.2,29.5-36.7,53.5l-91.7,40.3l107.3,512.7c-0.3,3.5-0.4,7-0.4,10.6
	c0,22.2,5.6,43.1,15.5,61.3l43.1,205.8L-819,990.7l115.7-36.7c15.1,6.4,31.8,10,49.2,10c45.2,0,84.8-23.8,107-59.5l28.9-9.2
	c6.4,1.7,13.1,2.6,20,2.6c5.9,0,11.7-0.7,17.2-1.9c0.3,1.1,0.5,2.1,0.8,3.2c14,51.9,67.5,82.7,119.4,68.7
	C-308.6,953.9-277.9,900.5-291.9,848.5z"/>
<path class="st16" d="M1231-882c-1.7,0-3.3,0.1-4.9,0.4c-10.7-28.3-38.1-48.4-70.1-48.4c-35,0-64.4,24-72.7,56.4
	c-6-1.9-12.4-2.8-19-2.6c-8.5,0.3-16.6,2.5-23.7,6.2c-8-18.2-26.5-30.7-47.6-29.9c-11.3,0.4-21.6,4.6-29.8,11.2
	c-6.5-6-15.3-9.6-24.8-9.2c-12,0.4-22.4,7-28.2,16.5c-7-7.7-17-12.6-28.2-12.6c-6.5,0-12.7,1.7-18.1,4.6
	c-6-33.3-36.3-58.6-72.9-58.6c-35.6,0-65.3,23.9-72.4,55.8c-0.3,0.4-0.6,0.8-1,1.1c-5.4-7.7-14.5-12.6-24.6-12.3
	c-10.5,0.4-19.5,6.4-24.2,15.1c-5.8-1.7-12-2.7-18.4-2.7c-22.4,0-42.1,11.4-53.6,28.7c-18.6-21.3-46.4-34.4-76.9-33.3
	c-23.9,0.9-45.4,10.3-61.8,25.1c-9.2-6.4-20.6-9.8-32.7-8.8c-9.6,0.8-18.4,4.3-25.6,9.8c-5.2-7.5-13.9-12.5-23.8-12.5
	c-16,0-29,13-29,29s13,29,29,29c1.4,0,2.7-0.1,4-0.3c2.4,23.3,20.8,41.5,43.6,44.3l18.6,98.4l703.2,14.8L1209-802
	c6.5-6.5,11.8-14.2,15.6-22.7c2.1,0.5,4.2,0.7,6.4,0.7c16,0,29-13,29-29S1247-882,1231-882z"/>
<circle class="st16" cx="570" cy="-1035" r="6"/>
<circle class="st16" cx="858" cy="-1053" r="9"/>
<circle class="st16" cx="1063" cy="-1112" r="8"/>
<circle class="st16" cx="685" cy="-951" r="16"/>
<circle class="st15" cx="-929" cy="285.5" r="13"/>
<circle class="st16" cx="-922.5" cy="382.5" r="13.5"/>
<circle class="st15" cx="-841" cy="381" r="6"/>
<circle class="st15" cx="-517" cy="493" r="6"/>
<circle class="st15" cx="-529" cy="656" r="14"/>
<circle class="st15" cx="-424" cy="674" r="9"/>
<circle class="st15" cx="-373" cy="468" r="3"/>
<circle class="st15" cx="510.5" cy="-957.5" r="3.5"/>
<circle class="st15" cx="762" cy="-1098" r="6"/>
<path class="st17" d="M-953.1,674.1c-8.6-69.4-67.7-123.1-139.4-123.1c-77.6,0-140.5,62.9-140.5,140.5s62.9,140.5,140.5,140.5
	c11.5,0,22.7-1.4,33.4-4c18,28.3,49.6,47,85.6,47c56.1,0,101.5-45.4,101.5-101.5C-872,724.4-906.8,683.5-953.1,674.1z"/>
<path class="st16" d="M-768,778c-5,0-9.9,0.6-14.7,1.6c-15-16.9-36.9-27.6-61.3-27.6c-10.6,0-20.7,2-30,5.7
	c-8.5-12.4-20.5-22.1-34.7-27.7c-12.8-22.7-37-38-64.8-38c-5.6,0-11.1,0.6-16.4,1.8c-1.3-0.4-2.7-0.7-4-1.1
	c-4.5-25.5-26.5-45-53.1-45.7c-10.2-30.8-39.3-53-73.5-53c-42.8,0-77.5,34.7-77.5,77.5c0,26.8,13.6,50.4,34.3,64.3
	c-35.8,33.3-58.3,80.9-58.3,133.7c0,100.8,81.7,182.5,182.5,182.5c85.5,0,157.2-58.8,177.1-138.1c5.9,1.4,12.1,2.1,18.4,2.1
	c14.4,0,28-3.7,39.8-10.3c10.5,6.5,22.9,10.3,36.2,10.3c38.1,0,69-30.9,69-69C-699,808.9-729.9,778-768,778z"/>
<path class="st15" d="M1012.7,411.1c0-53.6-43.6-97.1-97.3-97.1c-53.8,0-97.3,43.5-97.3,97.1c0,33.3,16.8,62.6,42.3,80.1
	c-10,11.6-16,26.6-16,43.1c0,7,1.1,13.8,3.1,20.1c-4.6-0.4-9.2-0.7-13.9-0.7c-50,0-93.9,26.1-118.9,65.4c-9.5-3.3-19.6-5.1-30.2-5.1
	c-17.2,0-33.2,4.7-47,12.8c-17.8-19-43-30.8-71.1-30.8c-53.8,0-97.3,43.5-97.3,97.1c0,33.3,16.8,62.6,42.3,80.1
	c-10,11.6-16,26.6-16,43.1c0,7,1.1,13.8,3.1,20.1c-4.6-0.4-9.2-0.7-13.9-0.7c-5.9,0-11.7,0.4-17.5,1.1h241.8v51.9
	c28.9-13.3,50.1-40.3,55.4-72.6v0c20.4,11.6,44,18.2,69.2,18.2c77.6,0,140.6-62.8,140.6-140.3c0-38-15.1-72.5-39.7-97.7
	c25-9.5,42.8-33.7,42.8-62c0-14.7-4.8-28.3-12.9-39.3C993.2,478.2,1012.7,446.9,1012.7,411.1z"/>
<path class="st17" d="M1062.2,285.2c1.2-4.9,1.6-10,1-15.2c-2.6-24.8-24.8-42.7-49.5-40.1c-24.8,2.6-42.7,24.8-40.1,49.5
	c0.2,2.2,0.6,4.3,1.1,6.3c-24.2,8.4-40.4,32.7-37.6,59.3c0.6,5.3,1.9,10.4,3.7,15.1c-0.3,0-0.5,0-0.8,0c-33.1,0-60,26.9-60,60
	c0,24,14.1,44.7,34.4,54.3c4.8,3.5,10.5,5.7,16.7,6.1c-15.3,11.4-24.3,30.2-22.2,50.5c1.6,15,9,28,19.7,37
	c-13.5,6.5-22.2,20.9-20.5,36.6c0.5,4.8,1.9,9.2,4,13.2c-0.3,0.1-0.5,0.2-0.8,0.3c-5.1-2-10.5-3.1-16.3-3.1c-24.9,0-45,20.1-45,45
	c0,3.8,0.5,7.5,1.4,11c0,0-0.1,0.1-0.1,0.1c-6.5-1.8-13.4-2.4-20.5-1.7c-20.9,2.2-37.9,15.6-45.5,33.7c-0.8-0.3-1.5-0.6-2.3-0.9
	c-18.6-36.9-56.8-62.3-101-62.3c-41.7,0-78.2,22.7-97.7,56.3c-6.3-0.9-12.7-1.3-19.3-1.3c-57.3,0-106.5,34.4-128.2,83.7
	c-12.5-8-27.4-12.7-43.3-12.7c-44.5,0-80.5,36-80.5,80.5s36,80.5,80.5,80.5c19.8,0,38-7.2,52-19.1C470.1,948.2,514.4,975,565,975
	c42.9,0,81.3-19.3,107-49.7l467.5-43.7l59.7-557.6L1062.2,285.2z"/>
</svg>
