<?xml version="1.0" encoding="utf-8"?>
<!-- Generator: Adobe Illustrator 22.1.0, SVG Export Plug-In . SVG Version: 6.00 Build 0)  -->
<svg version="1.1" id="Capa_1" xmlns="http://www.w3.org/2000/svg" xmlns:xlink="http://www.w3.org/1999/xlink" x="0px" y="0px"
	 viewBox="0 0 919 605" style="enable-background:new 0 0 919 605;" xml:space="preserve">
<style type="text/css">
	.st0{fill:url(#SVGID_1_);}
	.st1{fill:url(#SVGID_2_);}
	.st2{fill:url(#SVGID_3_);}
	.st3{clip-path:url(#SVGID_5_);fill:url(#SVGID_6_);}
	.st4{fill:#20876E;}
	.st5{fill:#93F5E5;}
	.st6{fill:#5DC2AE;}
	.st7{fill:#164377;}
	.st8{fill:#105697;}
	.st9{fill:none;}
	.st10{fill:#FFFFFF;}
	.st11{fill:#D2D3D3;}
	.st12{opacity:0.21;}
	.st13{fill:#386D7C;}
	.st14{fill:#182B3A;}
	.st15{fill:#20C997;}
	.st16{fill:#114449;}
	.st17{fill:#18635A;}
	.st18{opacity:0.11;fill:#DDDDDD;}
	.st19{opacity:0.11;fill:#CACACA;}
	.st20{opacity:0.11;fill:#B4B4B4;}
	.st21{opacity:0.11;fill:#989898;}
	.st22{opacity:0.5;fill:#A7CBED;}
	.st23{fill:#E4E4E5;}
	.st24{fill:#11464A;}
	.st25{opacity:0.5;fill:#E4E4E5;}
	.st26{opacity:0.71;}
	.st27{fill:#257258;}
	.st28{fill:#DDEBF8;}
	.st29{fill:#D0533C;}
	.st30{fill:#A7CBED;}
	.st31{fill:#233B4A;}
	.st32{opacity:0.5;fill:#233B4A;}
	.st33{opacity:0.5;fill:#FFFFFF;}
	.st34{opacity:0.5;fill:#DF7666;}
	.st35{fill:#03A9F4;}
	.st36{fill:#EB816F;}
	.st37{fill:#4E687A;}
	.st38{fill:#FC906B;}
	.st39{fill:#4F485C;}
	.st40{fill:#E8E0CB;}
	.st41{fill:#F99D78;}
	.st42{fill:#FFF2D9;}
</style>
<linearGradient id="SVGID_1_" gradientUnits="userSpaceOnUse" x1="-114.162" y1="1895.4564" x2="124.4523" y2="854.0796">
	<stop  offset="0" style="stop-color:#001C4E"/>
	<stop  offset="0.9987" style="stop-color:#CBCAE5"/>
</linearGradient>
<rect x="-679" y="1367" class="st0" width="1200" height="750"/>
<linearGradient id="SVGID_2_" gradientUnits="userSpaceOnUse" x1="1032.2051" y1="1165.2478" x2="267.037" y2="1871.9132">
	<stop  offset="0" style="stop-color:#C4E5F7"/>
	<stop  offset="0.9936" style="stop-color:#FFFFFF"/>
</linearGradient>
<rect x="-100.7" y="1320" class="st1" width="1185.5" height="688.2"/>
<linearGradient id="SVGID_3_" gradientUnits="userSpaceOnUse" x1="-2670.3577" y1="436.4763" x2="-2535.2234" y2="-153.2859">
	<stop  offset="0" style="stop-color:#0D2136"/>
	<stop  offset="0.9987" style="stop-color:#406EAE"/>
</linearGradient>
<path class="st2" d="M-2281.4,342c-44.5-18.3-102.5-6.5-135.9-41.2c-20.6-21.4-24.2-54-40.1-79.2c-24.1-38.2-72.4-53.3-117.3-58.2
	c-40.7-4.4-85.6-4.1-117-30.4c-28.5-24-38.6-64.8-67.3-88.6c-32.9-27.4-80.7-25.1-123.1-19.6c-36.9,4.9-73.7,11.1-110.1,18.9
	c-12.6,2.7-29.3,4.7-45.8,7.8V551h749c4.3-3.3,8.5-6.7,12.7-10.2c23-19.3,44.3-42.4,53.7-70.9
	C-2206.4,420.9-2233.6,361.7-2281.4,342z"/>
<g>
	<defs>
		<path id="SVGID_4_" d="M-2850.9-49.1c42.4-5.6,90.2-7.8,123.1,19.6c28.7,23.8,38.7,64.6,67.3,88.6c31.4,26.4,76.2,26,117,30.4
			c44.9,4.8,93.2,20,117.3,58.2c15.9,25.2,19.5,57.7,40.1,79.2c33.4,34.7,91.4,22.9,135.9,41.2c47.8,19.6,75,78.9,58.8,127.9
			c-9.4,28.5-30.8,51.5-53.7,70.9c-45.6,38.4-100.2,66.1-158.1,80.2c-73,17.8-149.3,14-224.5,12.8c-91.2-1.4-183.2,1.1-272.8-15.9
			c-45.9-8.7-91.7-22.9-129.3-50.6c-50.2-37-80.9-94.4-106.5-151.2c-10.2-22.7-20.1-46.5-19.8-71.4c0.5-45,33.1-82.1,54.4-121.7
			c15.6-29,25.7-61,29.5-93.7c2.2-18.8-3.4-46.6,13.6-59.5c22.8-17.3,69.9-20.2,97.5-26C-2924.6-38-2887.8-44.3-2850.9-49.1z"/>
	</defs>
	<clipPath id="SVGID_5_">
		<use xlink:href="#SVGID_4_"  style="overflow:visible;"/>
	</clipPath>
	<linearGradient id="SVGID_6_" gradientUnits="userSpaceOnUse" x1="-2501.9602" y1="325.593" x2="-2323.8728" y2="-388.2038">
		<stop  offset="0" style="stop-color:#0D2136"/>
		<stop  offset="0.9987" style="stop-color:#406EAE"/>
	</linearGradient>
	<rect x="-3006.8" y="-177.5" class="st3" width="1097.5" height="654.4"/>
</g>
<ellipse transform="matrix(0.9486 -0.3165 0.3165 0.9486 -435.6527 -399.9251)" class="st4" cx="-1448.7" cy="1140.9" rx="18.6" ry="18.6"/>
<g>
	<g>
		
			<rect x="-830.4" y="310.9" transform="matrix(0.7397 0.673 -0.673 0.7397 125.9091 682.8129)" class="st4" width="21.7" height="386.5"/>
		
			<rect x="-806.9" y="326.9" transform="matrix(0.7397 0.673 -0.673 0.7397 141.2173 675.1633)" class="st4" width="9.7" height="386.5"/>
		
			<rect x="-842" y="294.9" transform="matrix(0.7397 0.673 -0.673 0.7397 110.5992 690.4703)" class="st4" width="9.7" height="386.5"/>
	</g>
	<g>
		<g>
			<path class="st5" d="M-696.1,359.3c-2.2-5-4.8-9.9-7.6-14.6c-2.9-4.9-6.3-10.1-6.9-15.5l-11.9,9.9c-0.1,0.1-0.3,0.2-0.4,0.3
				c-3.2,3.5,7.4,18.2,23.6,33c1.5,1.4,3,2.7,4.5,3.9c0.8-1.8,1.4-3.7,1.6-5.7C-693.1,366.7-694.5,362.9-696.1,359.3z"/>
			<path class="st6" d="M-664.3,392.7c0.1-0.1,0.2-0.3,0.3-0.4l34-50.2l-45.8-41.7l-34.8,28.7c0.6,5.4,4,10.7,6.9,15.5
				c2.8,4.7,5.4,9.6,7.6,14.6c1.6,3.6,3.1,7.4,2.8,11.3c-0.1,2-0.7,3.9-1.6,5.7C-680.4,388.6-667.2,395.9-664.3,392.7z"/>
		</g>
		<g>
			<path class="st7" d="M-632,203.1c-20.6,25.4-42.4,49.9-68.9,68.9c-10.6,7.6-22,14.2-34.5,18c-8.7,2.6-18,3.8-27,2.8l-16.6,19.5
				l0,0c13.9,12.6,33.6,14.9,47.7,5.3l128.9-87.5L-632,203.1z"/>
			<path class="st8" d="M-735.4,290c12.5-3.8,23.9-10.4,34.5-18c26.5-18.9,48.3-43.5,68.9-68.9l-2.2-2
				c-15.5-14.1-38.5-13.4-51.2,1.5l-77,90.1C-753.4,293.7-744.1,292.6-735.4,290z"/>
		</g>
		<g>
			<path class="st8" d="M-563,350.7c13.3-12.6,26.7-25.2,40-37.8c-1.4-7.9-5.4-15.6-12.1-21.7l-31.8-28.9l-72.4,131.9
				c11.4-0.5,22.8-4.1,33-9.5C-590,376.2-576.4,363.4-563,350.7z"/>
			<path class="st7" d="M-523,313c-13.3,12.6-26.7,25.2-40,37.8c-13.4,12.6-27,25.4-43.2,34c-10.2,5.4-21.6,9-33,9.5l-2.6,4.7
				c-8.2,15-4.1,34.4,9.7,47l100.3-103.6C-524,334.4-521.2,323.5-523,313z"/>
		</g>
		<path class="st9" d="M-639.6,363.2c2.5,1.1,4.9,2,7,2.6C-634.8,365.2-637.1,364.3-639.6,363.2z"/>
		<path class="st9" d="M-653.2,355.4c1.9,1.3,3.8,2.5,5.7,3.6C-649.4,357.9-651.3,356.7-653.2,355.4z"/>
		<path class="st9" d="M-647.6,359c1.8,1.1,3.6,2.1,5.4,3C-643.9,361.1-645.7,360.1-647.6,359z"/>
		<path class="st5" d="M-682.1,330.3c-10-11-16.7-21.6-18.3-28.9l-7.6,10.1c-2.8,3.6,0.1,11.8,6.9,21.4c3-1.1,6.1-1.9,9.3-2.2
			C-688.5,330.2-685.3,330.3-682.1,330.3z"/>
		<path class="st6" d="M-639.6,363.2c-0.8-0.4-1.7-0.8-2.6-1.2c-1.7-0.9-3.5-1.9-5.4-3c-1.8-1.1-3.7-2.3-5.7-3.6
			c-5.8-3.9-11.9-8.7-17.9-14.1c-4-3.6-7.7-7.3-11-11c-3.2,0-6.4-0.1-9.6,0.3c-3.2,0.3-6.3,1.1-9.3,2.2c4.6,6.5,11.1,13.8,18.8,20.8
			c18.9,17.2,38.7,26.9,44.4,21.6l9.3-8.5c-1.2-0.1-2.6-0.4-4-0.8C-634.8,365.2-637.1,364.3-639.6,363.2z"/>
		<path class="st10" d="M-669.1,329.4c8.8-2,16.1-7.8,23-13.5c44.4-36.9,85.5-77.8,122.7-121.9c-2.6-2.1-5.2-4.3-7.7-6.6
			c-13.9-12.7-24.3-26.7-30-38.5c-31.1,19.5-57.2,43.4-76.8,69.5l-62.5,83c1.5,7.3,8.2,17.9,18.3,28.9
			C-677.7,330.3-673.3,330.3-669.1,329.4z"/>
		<path class="st11" d="M-489.9,213.6c-10-3.7-21.8-10.4-33.4-19.6c-37.2,44.1-78.3,85-122.7,121.9c-6.9,5.8-14.3,11.6-23,13.5
			c-4.3,1-8.7,0.9-13,0.9c3.3,3.7,7,7.3,11,11c6,5.5,12.1,10.2,17.9,14.1c1.9,1.3,3.8,2.5,5.7,3.6c1.8,1.1,3.6,2.1,5.4,3
			c0.9,0.4,1.7,0.9,2.6,1.2c2.5,1.1,4.9,2,7,2.6c1.4,0.4,2.8,0.7,4,0.8l76.7-70C-527.8,274.6-506.5,246.4-489.9,213.6z"/>
		<path class="st5" d="M-523.4,193.9c23.7-28.1,45.8-57.5,66.2-88c-38.3,8.8-73.4,23.8-103.9,42.9c5.7,11.8,16.1,25.8,30,38.5
			C-528.5,189.7-526,191.9-523.4,193.9z"/>
		<path class="st6" d="M-489.9,213.6c16.2-32.2,27.9-68.7,33-107.7v0h0c-0.1,0-0.2,0-0.2,0.1c-20.4,30.5-42.5,59.9-66.2,88
			C-511.8,203.2-500,209.9-489.9,213.6z"/>
		<path class="st12" d="M-537.8,245.5c-1-9.9-5.5-19.4-13.4-26.6c-17.1-15.5-43.5-14.3-59.1,2.8c-5.8,6.4-9.3,14.2-10.5,22.1
			c-1.9,13.3,2.6,27.2,13.2,36.9c17.1,15.5,43.5,14.3,59.1-2.8C-540.1,268.8-536.6,256.9-537.8,245.5z"/>
		<g>
			<path class="st5" d="M-573.1,256c14.4-2.2,27.3-10.6,36.9-21.6c-1-9.9-5.5-19.4-13.4-26.6c-17.1-15.5-43.5-14.3-59.1,2.8
				c-5.8,6.4-9.3,14.2-10.5,22.1c1.6,3.1,3.3,6,5.5,8.7C-604.4,253.3-588,258.3-573.1,256z"/>
			<path class="st6" d="M-536.3,234.5c-9.6,10.9-22.5,19.3-36.9,21.6c-14.9,2.3-31.2-2.8-40.6-14.6c-2.1-2.7-3.9-5.7-5.5-8.7
				c-1.9,13.3,2.6,27.2,13.2,36.9c17.1,15.5,43.5,14.3,59.1-2.8C-538.6,257.7-535.1,245.9-536.3,234.5z"/>
		</g>
		<g>
			<path class="st13" d="M-550.6,220.9l-54.5-0.2c-1.2,1.9-2.3,3.9-3.1,5.9l60.6,0.2C-548.3,224.8-549.3,222.8-550.6,220.9z"/>
			<path class="st14" d="M-547.5,226.8l-60.6-0.2c-1.1,2.8-1.8,5.7-2.1,8.6l64.8,0.2C-545.7,232.5-546.4,229.6-547.5,226.8z"/>
			<path class="st14" d="M-555.9,214.6c-13.3-12.1-33.9-11.1-46.1,2.2c-1.1,1.3-2.2,2.6-3.1,3.9l54.5,0.2
				C-552,218.6-553.8,216.5-555.9,214.6z"/>
			<path class="st13" d="M-559.6,265.8l-36.6-0.1C-585.1,273.2-570.6,273.2-559.6,265.8z"/>
			<path class="st14" d="M-553.7,260.7c2.5-2.7,4.4-5.7,5.8-8.9l-59.8-0.2c1.8,4.2,4.5,8,8,11.2c1.1,1,2.3,2,3.6,2.8l36.6,0.1
				C-557.5,264.4-555.5,262.7-553.7,260.7z"/>
			<path class="st13" d="M-545.4,235.4l-64.8-0.2c-0.6,5.5,0.2,11.2,2.5,16.4l59.8,0.2C-545.7,246.6-544.9,240.9-545.4,235.4z"/>
		</g>
	</g>
</g>
<g>
	
		<ellipse transform="matrix(0.7071 -0.7071 0.7071 0.7071 -388.2067 -707.7197)" class="st15" cx="-1048.4" cy="114.7" rx="16.9" ry="16.9"/>
	
		<ellipse transform="matrix(0.3923 -0.9198 0.9198 0.3923 -682.6842 -15.6227)" class="st15" cx="-353.2" cy="508.9" rx="23.4" ry="23.4"/>
	
		<ellipse transform="matrix(0.8747 -0.4846 0.4846 0.8747 -259.2191 -135.7047)" class="st15" cx="-392.1" cy="433.6" rx="13.9" ry="13.9"/>
	<path class="st15" d="M-538.6,425c0,2.5-2,4.5-4.5,4.5c-2.5,0-4.5-2-4.5-4.5c0-2.5,2-4.5,4.5-4.5
		C-540.6,420.5-538.6,422.5-538.6,425z"/>
	<path class="st15" d="M-921.2,210.2c0,4-3.3,7.2-7.3,7.2c-4,0-7.2-3.3-7.2-7.3c0-4,3.3-7.2,7.3-7.2
		C-924.5,202.9-921.2,206.2-921.2,210.2z"/>
	<path class="st15" d="M-986,114c0,6.3-5.1,11.4-11.5,11.4c-6.3,0-11.4-5.1-11.4-11.5c0-6.3,5.1-11.4,11.5-11.4
		C-991.1,102.6-986,107.7-986,114z"/>
	
		<ellipse transform="matrix(0.6853 -0.7283 0.7283 0.6853 -524.7465 -322.0948)" class="st4" cx="-635.1" cy="446.1" rx="16.9" ry="16.9"/>
	<path class="st4" d="M-896.1,355.1c0.1,2.5-1.9,4.5-4.4,4.6c-2.5,0.1-4.5-1.9-4.6-4.4c-0.1-2.5,1.9-4.5,4.4-4.6
		C-898.2,350.7-896.2,352.6-896.1,355.1z"/>
	
		<ellipse transform="matrix(0.3753 -0.9269 0.9269 0.3753 -806.0648 -810.9336)" class="st16" cx="-1004.7" cy="192.6" rx="12.4" ry="12.4"/>
	<path class="st16" d="M-978,310.5c0.1,2.9-2.2,5.2-5,5.3c-2.9,0.1-5.2-2.2-5.3-5c-0.1-2.9,2.2-5.2,5-5.3
		C-980.4,305.4-978,307.6-978,310.5z"/>
	<path class="st16" d="M-548.5,515.7c0.2,6.8-5.2,12.5-12.1,12.7c-6.8,0.2-12.5-5.2-12.7-12.1c-0.2-6.8,5.2-12.5,12.1-12.7
		C-554.4,503.4-548.7,508.8-548.5,515.7z"/>
	
		<ellipse transform="matrix(0.2511 -0.968 0.968 0.2511 -819.2353 -105.4884)" class="st16" cx="-477.8" cy="476.7" rx="4.5" ry="4.5"/>
	
		<ellipse transform="matrix(0.3711 -0.9286 0.9286 0.3711 -745.957 -70.6352)" class="st16" cx="-425.1" cy="515.4" rx="6.2" ry="6.2"/>
	
		<ellipse transform="matrix(0.9788 -0.205 0.205 0.9788 -108.2696 -184.447)" class="st16" cx="-944.3" cy="430.3" rx="17.2" ry="17.2"/>
	<g>
		<path class="st15" d="M-368.2,557.9c4.5-43.5-27-82.5-70.6-87c-5.5-0.6-11-0.6-16.3,0c-3.6-15.4-16.5-27.5-33.1-29.2
			c-13.7-1.4-26.5,4.6-34.2,14.8c-15.1-0.2-29.2,5.5-39.8,15.2c-3.5-3.8-8.3-6.5-13.9-7c-11.4-1.2-21.7,6.6-23.8,17.7
			c-4.8-4.8-11.2-8.1-18.5-8.8c-7.5-0.8-14.7,1.2-20.5,5.1c-6-9.5-16.1-16.3-28.2-17.5c-16.2-1.7-31.1,7.1-38,20.9
			c-7.3-6.3-16.6-10.5-26.9-11.6c-12.3-1.3-23.9,2.1-33.3,8.6c-2.9-7.5-9.7-13.1-18.2-14c-10.2-1.1-19.5,5-22.9,14.2
			c-6.1-7-14.8-11.9-24.7-12.9c-6.5-0.7-12.9,0.3-18.6,2.7c-5.2-12.3-16.8-21.5-31-23c-4.8-0.5-9.5-0.1-13.9,1.1
			c-8.9-16.5-23.5-29.6-41.4-36.4c1.4-2.7,2.4-5.8,2.8-9c1.1-10.7-4.8-20.6-14-25c7.3-6.1,12.4-15,13.4-25.2
			c1.4-13.8-4.7-26.7-15.1-34.4c10.4-0.7,19.1-8.9,20.3-19.6c0.9-8.3-3-16-9.5-20.4c4.2-3.5,7.1-8.6,7.7-14.5
			c1.3-12.1-7.5-22.9-19.6-24.1c-2.5-0.3-5-0.1-7.3,0.5c2.3-4.3,3.8-9.1,4.3-14.2c1.9-18.2-9.1-34.7-25.6-40.4
			c0.3-1.4,0.6-2.8,0.8-4.3c1.8-16.9-10.5-32-27.4-33.8c-16.9-1.8-32,10.5-33.8,27.4c-0.4,3.6-0.1,7.1,0.7,10.4l-93.5,26.5
			l40.7,380.2l650.9,60.8l-2.7-22.8C-404.5,626.9-372.3,597.3-368.2,557.9z"/>
		<path class="st4" d="M-320.7,538.7c0.7-18.8-14-34.6-32.8-35.3c-7.7-0.3-14.8,2-20.7,6.1c-11.2-10.1-25.9-16.5-42.1-17.1
			c-22-0.8-41.9,9.2-54.5,25.2c-10.5-8.1-23.6-13.1-37.9-13.6c-2.3-0.1-4.7,0-7,0.1c-1.2-9.3-9-16.7-18.7-17
			c-6.9-0.2-13.1,3.1-16.7,8.4c-5.9-6.2-14.2-10.2-23.4-10.5c-8.1-0.3-15.6,2.3-21.6,6.8c-5.7-4.9-13-8-21.1-8.3
			c-18-0.7-33.2,12.7-35.1,30.3c-0.7-0.4-1.5-0.7-2.2-1.1c-8.1-3.4-16.9-3.4-24.6-0.7c-1.2-11.5-10.7-20.7-22.6-21.2
			c-6.5-0.2-12.5,2.2-16.9,6.3c-5.6-4.5-12.6-7.4-20.3-7.6c-14.4-0.5-27,8-32.4,20.4c-4.9-2.5-10.3-4-16.1-4.2
			c-4.5-0.2-8.9,0.5-13,1.8c-6.9-21.8-26.9-37.9-51-38.8c-8.8-0.3-17.2,1.4-24.8,4.8c-0.8-9.3-8.4-16.8-17.9-17.1c-1,0-2,0-3,0.2
			c-4-8.1-12.1-13.8-21.7-14.1c-2.1-0.1-4.1,0.1-6,0.5c-1.3-11.8-8.5-21.8-18.8-26.9c3.8-10.3,2.2-21.3-3.2-29.9
			c2.5-2.4,4.2-5.7,4.3-9.5c0.2-6.3-3.9-11.8-9.7-13.5c3.8-4,6.2-9.4,6.5-15.3c0.3-8.7-4.1-16.5-11-20.8c4.9-5.7,8-13,8.3-21.1
			c0.5-13.4-6.8-25.2-17.8-31.2c2.9-3.3,4.8-7.6,4.9-12.3c0.4-10.8-8.1-19.9-18.9-20.3c-0.4,0-0.9,0-1.3,0c0.9-3.1,1.5-6.4,1.6-9.8
			c0.6-16.3-9.1-30.6-23.3-36.6c0.8-3.8,1.4-7.8,1.5-11.9c1.3-36.7-27.3-67.4-64-68.8c-36.7-1.3-67.4,27.3-68.8,64
			c-1.3,36.7,27.3,67.4,64,68.8c3.5,0.1,7,0,10.4-0.4l-19.1,239.6l165.5,162.9l550.4-11.6l12.7-67.1
			C-334.3,569.3-321.4,555.7-320.7,538.7z"/>
		<path class="st17" d="M-477.7,591.6c4.7-37.4-21.8-71.6-59.3-76.3c-4.8-0.6-9.5-0.7-14-0.3c-2.8-13.3-13.7-24-28-25.8
			c-11.8-1.5-22.9,3.5-29.8,12.2c-13.1-0.4-25.3,4.3-34.6,12.4c-2.9-3.4-7.1-5.7-11.9-6.3c-9.8-1.2-18.8,5.3-20.9,14.8
			c-4.1-4.2-9.5-7.2-15.8-8c-6.5-0.8-12.7,0.8-17.7,4.1c-5-8.3-13.6-14.3-24-15.6c-14-1.8-27,5.5-33.1,17.3
			c-6.2-5.5-14.1-9.3-23-10.5c-10.6-1.3-20.7,1.4-28.9,6.8c-2.3-6.5-8.1-11.5-15.5-12.4c-8.8-1.1-16.9,4-20,11.9
			c-5.1-6.2-12.5-10.5-21.1-11.6c-5.6-0.7-11.1,0.1-16.1,2c-4.3-10.7-14.1-18.8-26.3-20.4c-4.2-0.5-8.2-0.2-12.1,0.7
			c-7.4-14.4-19.7-25.9-35.1-32.2c1.3-2.3,2.2-4.9,2.5-7.7c1.2-9.2-3.8-17.8-11.6-21.8c6.4-5.1,10.9-12.7,12-21.5
			c1.5-11.9-3.6-23.1-12.4-30c9-0.5,16.7-7.3,17.8-16.5c0.9-7.1-2.3-13.9-7.8-17.8c3.7-3,6.3-7.3,6.9-12.4
			c1.3-10.4-6.1-19.9-16.4-21.2c-2.2-0.3-4.3-0.1-6.3,0.3c2.1-3.6,3.5-7.7,4-12.2c2-15.6-7.2-30.1-21.4-35.3
			c0.3-1.2,0.6-2.4,0.7-3.7c1.8-14.5-8.5-27.8-23-29.6c-14.5-1.8-27.8,8.5-29.6,23c-0.4,3.1-0.2,6.1,0.4,9l-81.1,21.1l28.2,328.6
			l560.2,64.2l-1.9-19.7C-510.2,650.4-481.9,625.5-477.7,591.6z"/>
		<path class="st16" d="M-500.3,594.3c2.1-15.6-8.8-29.9-24.3-32c-6.3-0.9-12.5,0.4-17.7,3.3c-8.5-9.3-20.1-15.9-33.6-17.7
			c-18.2-2.5-35.5,4.2-47.4,16.5c-8.1-7.6-18.5-12.8-30.4-14.4c-1.9-0.3-3.9-0.4-5.8-0.5c-0.2-7.8-6.1-14.6-14.1-15.7
			c-5.7-0.8-11.1,1.5-14.6,5.6c-4.4-5.6-10.9-9.6-18.6-10.7c-6.7-0.9-13.1,0.6-18.5,3.8c-4.3-4.5-10.1-7.7-16.8-8.6
			c-14.9-2-28.6,7.9-31.6,22.3c-0.6-0.4-1.2-0.7-1.8-1.1c-6.5-3.5-13.7-4.2-20.4-2.6c0-9.7-7.2-18.1-17-19.4
			c-5.4-0.7-10.6,0.8-14.6,3.8c-4.2-4.2-9.8-7.1-16.2-8c-11.9-1.6-23.1,4.4-28.6,14.3c-3.8-2.5-8.2-4.2-13.1-4.8
			c-3.7-0.5-7.4-0.3-10.9,0.4c-3.9-18.7-19.2-33.7-39.2-36.4c-7.3-1-14.4-0.2-21,2c0.1-7.8-5.6-14.6-13.5-15.7
			c-0.8-0.1-1.7-0.1-2.5-0.1c-2.6-7-8.9-12.5-16.9-13.5c-1.7-0.2-3.4-0.2-5-0.1c-0.1-9.9-5.3-18.8-13.4-23.8
			c4-8.2,3.6-17.5-0.2-25.1c2.3-1.8,4-4.4,4.4-7.5c0.7-5.2-2.3-10.1-6.9-12c3.5-3,6-7.3,6.6-12.2c1-7.2-2.1-14-7.4-18.2
			c4.5-4.3,7.7-10.1,8.6-16.8c1.5-11.1-3.6-21.5-12.3-27.4c2.7-2.5,4.6-5.9,5.1-9.8c1.2-8.9-5.1-17.2-14-18.4
			c-0.4,0-0.7-0.1-1.1-0.1c1-2.5,1.8-5.2,2.2-8c1.8-13.5-5.1-26.2-16.4-32.4c1-3.1,1.8-6.4,2.2-9.7c4.1-30.3-17.2-58.3-47.5-62.4
			c-30.3-4.1-58.3,17.2-62.4,47.5c-4.1,30.3,17.2,58.3,47.5,62.4c2.9,0.4,5.8,0.6,8.7,0.5l-35.5,197.5L-1002,638l458.2,35.5l16-54.7
			C-514.1,618.6-502.2,608.3-500.3,594.3z"/>
		<path class="st4" d="M-886.7,395.4c0.1,4.4-3.4,8-7.7,8.1c-4.4,0.1-8-3.4-8.1-7.7c-0.1-4.4,3.4-8,7.7-8.1
			C-890.5,387.6-886.9,391-886.7,395.4z"/>
		<ellipse transform="matrix(0.2348 -0.972 0.972 0.2348 -1022.6151 -423.102)" class="st4" cx="-780" cy="438" rx="4.5" ry="4.5"/>
		<path class="st16" d="M-867.6,495.3c0.1,4.2-3.2,7.7-7.4,7.8c-4.2,0.1-7.7-3.2-7.8-7.4c-0.1-4.2,3.2-7.7,7.4-7.8
			C-871.2,487.8-867.7,491.1-867.6,495.3z"/>
		<path class="st16" d="M-824,486.6c-0.1-3.2-2.8-5.8-6-5.7c-3.2,0.1-5.8,2.8-5.7,6s2.8,5.8,6,5.7
			C-826.5,492.6-823.9,489.9-824,486.6z"/>
		<rect x="-1037.3" y="42" class="st9" width="813.3" height="507.5"/>
	</g>
</g>
<g>
	<path class="st18" d="M789.3,1310.5c-6.7-63.8,39.7-121,103.5-127.7c8.1-0.8,16.1-0.8,23.9,0c5.2-22.5,24.2-40.3,48.5-42.8
		c20.1-2.1,38.8,6.8,50.2,21.7c22.2-0.3,42.8,8.1,58.3,22.3c5.1-5.6,12.2-9.5,20.4-10.3c16.8-1.8,31.9,9.7,35,25.9
		c7.1-7.1,16.5-11.8,27.2-13c11-1.2,21.5,1.8,30,7.5c8.8-13.9,23.7-23.8,41.3-25.7c23.8-2.5,45.6,10.4,55.7,30.6
		c10.7-9.2,24.3-15.4,39.4-17c18-1.9,35.1,3,48.9,12.7c4.2-11,14.2-19.3,26.7-20.6c15-1.6,28.6,7.4,33.5,20.9
		c8.9-10.3,21.7-17.4,36.3-18.9c9.6-1,18.9,0.5,27.2,4c7.7-18.1,24.6-31.5,45.5-33.7c7.1-0.7,14-0.1,20.5,1.7
		c13-24.2,34.5-43.4,60.8-53.4c-2.1-4-3.5-8.5-4-13.2c-1.6-15.7,7-30.2,20.5-36.6c-10.7-9-18.1-21.9-19.7-37
		c-2.1-20.3,6.9-39.2,22.2-50.5c-15.3-1.1-28.1-13-29.7-28.8c-1.3-12.2,4.4-23.5,13.9-30c-6.2-5.2-10.4-12.6-11.3-21.3
		c-1.9-17.7,11-33.6,28.7-35.4c3.7-0.4,7.3-0.1,10.8,0.7c-3.4-6.3-5.6-13.3-6.4-20.8c-2.8-26.6,13.4-50.9,37.6-59.3
		c-0.5-2-0.9-4.1-1.1-6.3c-2.6-24.8,15.4-46.9,40.1-49.5c24.8-2.6,46.9,15.4,49.5,40.1c0.5,5.2,0.2,10.4-1,15.2l137.1,38.8
		l-59.7,557.6l-954.7,89.2l3.9-33.4C842.6,1411.5,795.3,1368.1,789.3,1310.5z"/>
	<path class="st19" d="M719.7,1282.3c-1-27.6,20.5-50.7,48.1-51.7c11.2-0.4,21.7,2.9,30.3,8.9c16.4-14.9,38-24.3,61.8-25.1
		c32.2-1.2,61.4,13.5,80,37c15.5-11.8,34.6-19.2,55.6-19.9c3.4-0.1,6.8-0.1,10.2,0.2c1.8-13.7,13.2-24.4,27.4-24.9
		c10.1-0.4,19.2,4.6,24.6,12.3c8.7-9.1,20.8-14.9,34.3-15.4c11.9-0.4,22.9,3.3,31.7,9.9c8.3-7.2,19-11.7,30.9-12.2
		c26.3-1,48.6,18.7,51.4,44.5c1.1-0.5,2.2-1.1,3.3-1.5c12-5,24.8-5,36.1-1c1.7-16.9,15.7-30.4,33.1-31.1c9.5-0.3,18.3,3.2,24.8,9.2
		c8.1-6.7,18.4-10.8,29.8-11.2c21.1-0.8,39.6,11.7,47.6,29.9c7.1-3.7,15.1-5.9,23.7-6.2c6.6-0.2,13.1,0.7,19,2.6
		c10.1-32,39.4-55.6,74.9-56.9c12.9-0.5,25.2,2.1,36.3,7.1c1.1-13.7,12.3-24.6,26.3-25.1c1.5-0.1,2.9,0,4.4,0.2
		c5.8-11.9,17.8-20.2,31.9-20.7c3-0.1,6,0.2,8.8,0.8c1.8-17.2,12.5-32,27.5-39.4c-5.5-15-3.3-31.2,4.8-43.9
		c-3.7-3.5-6.2-8.4-6.4-13.9c-0.3-9.3,5.7-17.3,14.2-19.8c-5.6-5.9-9.2-13.8-9.5-22.5c-0.5-12.8,6.1-24.1,16.1-30.5
		c-7.2-8.3-11.7-19-12.2-30.9c-0.7-19.6,10-37,26.2-45.7c-4.3-4.8-7-11.1-7.2-18c-0.6-15.8,11.8-29.2,27.7-29.7c0.6,0,1.3,0,1.9,0
		c-1.4-4.6-2.2-9.4-2.4-14.4c-0.9-23.9,13.4-44.9,34.2-53.7c-1.2-5.6-2-11.4-2.2-17.4c-1.9-53.8,40.1-98.9,93.8-100.9
		s98.9,40.1,100.9,93.8c1.9,53.8-40.1,98.9-93.8,100.9c-5.2,0.2-10.3,0-15.3-0.6l28,351.5l-242.7,239l-807.3-17l-18.6-98.4
		C739.6,1327.1,720.6,1307.2,719.7,1282.3z"/>
	<path class="st20" d="M949.9,1359.9c-6.9-54.9,32-105.1,86.9-112c7-0.9,13.9-1,20.6-0.5c4.1-19.5,20.1-35.2,41-37.8
		c17.3-2.2,33.6,5.1,43.7,17.8c19.1-0.6,37.1,6.2,50.7,18.2c4.3-4.9,10.4-8.4,17.4-9.3c14.4-1.8,27.6,7.8,30.6,21.7
		c6-6.2,14-10.5,23.2-11.7c9.5-1.2,18.6,1.1,26,6c7.3-12.2,20-21,35.2-22.9c20.5-2.6,39.5,8.1,48.6,25.4
		c9.1-8.1,20.7-13.7,33.7-15.3c15.5-1.9,30.3,2,42.4,10c3.4-9.5,11.9-16.9,22.7-18.2c12.9-1.6,24.8,5.9,29.3,17.4
		c7.5-9.1,18.4-15.4,31-17c8.3-1,16.3,0.1,23.5,2.9c6.3-15.7,20.7-27.6,38.6-29.9c6.1-0.8,12.1-0.3,17.7,1.1
		c10.8-21.1,28.9-38,51.5-47.2c-1.9-3.4-3.2-7.2-3.7-11.4c-1.7-13.6,5.5-26.1,17.1-32c-9.4-7.5-16-18.6-17.7-31.5
		c-2.2-17.5,5.3-33.9,18.2-44c-13.2-0.7-24.4-10.7-26.1-24.3c-1.3-10.5,3.4-20.3,11.4-26.1c-5.4-4.4-9.2-10.7-10.1-18.1
		c-1.9-15.2,8.9-29.1,24.1-31c3.2-0.4,6.3-0.2,9.3,0.4c-3-5.4-5.1-11.4-5.9-17.8c-2.9-22.9,10.6-44.1,31.4-51.8
		c-0.5-1.8-0.8-3.6-1.1-5.4c-2.7-21.3,12.4-40.7,33.7-43.4c21.3-2.7,40.7,12.4,43.4,33.7c0.6,4.5,0.3,8.9-0.6,13.1l118.9,31
		l-41.4,481.9l-821.7,94.2l2.8-28.8C997.7,1446.1,956.1,1409.5,949.9,1359.9z"/>
	<path class="st21" d="M983.1,1363.7c-3.1-22.8,12.9-43.8,35.7-46.9c9.3-1.3,18.3,0.7,25.9,4.9c12.4-13.7,29.5-23.3,49.3-25.9
		c26.7-3.6,52.1,6.2,69.5,24.2c11.9-11.1,27.2-18.8,44.5-21.1c2.8-0.4,5.7-0.6,8.5-0.7c0.4-11.5,8.9-21.4,20.7-23
		c8.4-1.1,16.3,2.2,21.4,8.2c6.5-8.3,16-14.1,27.2-15.6c9.8-1.3,19.3,0.9,27.1,5.6c6.3-6.7,14.9-11.3,24.7-12.6
		c21.8-3,41.9,11.5,46.4,32.7c0.8-0.5,1.7-1.1,2.6-1.6c9.5-5.2,20.1-6.2,29.9-3.8c0-14.2,10.5-26.6,25-28.5
		c7.9-1.1,15.5,1.2,21.4,5.6c6.2-6.2,14.4-10.5,23.8-11.8c17.5-2.4,33.9,6.5,42,20.9c5.6-3.6,12.1-6.1,19.2-7.1
		c5.5-0.7,10.9-0.5,16,0.6c5.8-27.4,28.2-49.4,57.5-53.4c10.7-1.4,21.1-0.3,30.7,2.9c-0.2-11.4,8.2-21.5,19.8-23
		c1.2-0.2,2.4-0.2,3.6-0.2c3.8-10.3,13.1-18.3,24.8-19.9c2.5-0.3,5-0.3,7.4-0.1c0.1-14.5,7.8-27.6,19.6-35
		c-5.8-12-5.3-25.6,0.4-36.8c-3.4-2.6-5.8-6.5-6.4-11c-1-7.7,3.3-14.8,10.2-17.6c-5.1-4.4-8.7-10.7-9.7-17.9
		c-1.4-10.6,3.1-20.6,10.9-26.7c-6.7-6.3-11.3-14.8-12.6-24.7c-2.2-16.2,5.3-31.6,18-40.1c-4-3.6-6.7-8.6-7.5-14.4
		c-1.8-13.1,7.4-25.2,20.5-27c0.5-0.1,1-0.1,1.6-0.1c-1.5-3.7-2.6-7.6-3.2-11.7c-2.7-19.8,7.4-38.4,24-47.5
		c-1.5-4.6-2.6-9.3-3.3-14.3c-6-44.5,25.2-85.5,69.7-91.5c44.5-6,85.5,25.2,91.5,69.7c6,44.5-25.2,85.5-69.7,91.5
		c-4.3,0.6-8.6,0.8-12.8,0.7l52.1,289.7l-182,218.4l-672,52.1l-23.5-80.2C1003.3,1399.4,985.9,1384.3,983.1,1363.7z"/>
	<rect x="591" y="534" transform="matrix(-1 -4.489754e-11 4.489754e-11 -1 2382 1818)" class="st9" width="1200" height="750"/>
</g>
<g>
	<g>
		<path class="st15" d="M555.4,365.6c0,0-4.6-9.1-8.3-13c-3.7-3.9-7.4,3.1-5.7,6.6c0,0-5-4.8-8.9-6c-13.8-4-22.4,17.1-5.5,25
			c13,5.6,18.7,7.6,18.7,7.6L555.4,365.6z"/>
	</g>
	<path class="st22" d="M552.7,371.4c-0.5-3.7-1-6.6-1-6.6s-9.8,13.5-12,13c-11-1.7-19.5-10.1-22-12.8c-0.1,4.9,2.6,10.2,9.3,13.4
		c13,5.6,18.7,7.6,18.7,7.6L552.7,371.4z"/>
	<g>
		<path class="st15" d="M687.4,399.5c0,0,2,10.5,4.3,15.4c2.3,4.9,8-0.6,7.5-4.4c0,0,2.5,5.7,5.8,8c11.8,8.2,26.7-9,13.2-21.9
			c-10.5-9.5-15.3-13.3-15.3-13.3L687.4,399.5z"/>
	</g>
	<path class="st22" d="M691.8,414.9c2,4.3,6.7,0.6,7.4-3c-0.8,1.2-2.6,1.4-4.2-0.2c-1.5-1.6-1.6-13.8-1.6-13.8
		c-0.3-0.7-2.9,0-5.2,0.8l-0.7,0.7C687.4,399.5,689.5,410,691.8,414.9z"/>
	<g>
		<path class="st15" d="M552.3,315.4c0,0-10.3-1.1-12.9,5.5c-2.7,6.6,5.7,36.7,12.8,37.3c4.8,0.1,10.7-2.8,10.7-2.8L552.3,315.4z"/>
	</g>
	<g>
		<path class="st15" d="M656.5,287.9c0,0,8.4-6,14-1.6c5.6,4.4,13.2,34.7,7.3,38.7c-4.1,2.5-10.7,2.8-10.7,2.8L656.5,287.9z"/>
	</g>
	<path class="st22" d="M672.9,317.4c-0.2-12.5-8.2-26.7-11.5-32c-2.8,1-4.9,2.5-4.9,2.5l10.6,40c0,0,6.6-0.3,10.7-2.8
		c1.4-1,2.1-3.4,2.1-6.7C676.5,319.3,673.1,319.6,672.9,317.4z"/>
	<path class="st22" d="M552.6,349.3c-6-11-6-27.3-5.8-33.5c2.9-0.6,5.5-0.3,5.5-0.3l10.6,40c0,0-5.9,2.9-10.7,2.8
		c-1.7-0.1-3.5-2-5.2-4.8C550.3,352.7,553.5,351.2,552.6,349.3z"/>
	<g>
		<path class="st23" d="M606.7,317.7L606.7,317.7c-30,7.9-47.9,38.6-39.9,68.6l13,49.1c3.2,12,15.5,19.2,27.6,16l64.9-17.2
			c12-3.2,19.2-15.5,16-27.6l-13-49.1C667.4,327.7,636.7,309.8,606.7,317.7z"/>
		<g>
			<path class="st24" d="M675.6,358.9c-17.4,14.5-24.8,37.7-19,59.5l5,18.8l10.6-2.8c12-3.2,19.2-15.5,16-27.6L675.6,358.9
				L675.6,358.9z"/>
			<path class="st24" d="M567.1,387.5L567.1,387.5l12.7,47.9c3.2,12,15.5,19.2,27.6,16l10.6-2.8l-5-18.8
				C607.2,408.1,589.3,391.5,567.1,387.5z"/>
		</g>
		<path class="st25" d="M648.7,323.1c6.9,6.8,12.2,15.5,14.8,25.6l13,49.1c3.2,12-4,24.4-16,27.6l-64.9,17.2
			c-4.4,1.1-8.7,0.9-12.7-0.4c5.2,7.8,14.9,11.8,24.5,9.2l64.9-17.2c12-3.2,19.2-15.5,16-27.6l-13-49.1
			C671.3,342.4,661.4,330.3,648.7,323.1z"/>
	</g>
	<g>
		<path class="st10" d="M687.4,399.5l15.5-16.2c-19.7-18.8-37.2-23.1-49.4-22.8c-0.3-0.9-0.5-1.4-0.5-1.4s-8.8-9.3-34.3-2.6
			c-24.2,6.4-28.2,17.9-28.5,19.1c-8.9-0.7-21-3.2-35-9.9l-9.7,20.3c19.9,9.5,37.1,12,49.1,12.3c1.8,8.6,3.9,18.1,5.8,25.1
			c1.7,6.3,4.4,11.7,8.5,15.7c-2.6,9.9-5.9,25.6-5.9,40.8l25.2-0.1c0-11.5,2.9-24.8,5.4-33.9c2.6-0.3,5.3-0.8,8.2-1.6
			c3.3-0.9,6.2-1.9,8.8-3c6.7,6.7,15.8,16.9,21.5,26.9l22-12.4c-7.7-13.8-18.8-26.1-26-33.3c1.3-5.2,0.9-10.9-0.6-16.9
			c-1.7-6.2-4.1-14.3-6.5-21.9C668,385.2,677,389.5,687.4,399.5z"/>
	</g>
	<g>
		<path class="st10" d="M664.8,297.2c-19.9-47.2-70-31.7-70-31.7s-51.3,11.3-45.2,62.2c6.1,50.9,52.5,48,72.9,42.6
			C642.9,364.9,684.7,344.4,664.8,297.2z"/>
	</g>
	<path class="st23" d="M664.8,297.2c-5-11.9-11.9-19.8-19.4-25c5.8,5.1,11.1,12,15.1,21.5c19.9,47.2-22,67.7-42.3,73.1
		c-12.9,3.4-36.2,5.8-53.2-5.8c17.1,15.4,43.5,12.9,57.5,9.2C642.9,364.9,684.7,344.4,664.8,297.2z"/>
	<g>
		<g>
			<path class="st15" d="M638.1,429.2c-21.9,5.8-36.2,3.2-36.8,3.1c-3-0.6-5.1-3.5-4.5-6.6c0.6-3,3.5-5,6.5-4.5
				c0.3,0,12.7,2.1,31.8-2.9c19.1-5.1,28.4-12.9,28.5-13c2.3-2,5.9-1.8,7.9,0.6c2,2.3,1.8,5.9-0.5,7.9
				C670.6,414.2,660,423.4,638.1,429.2z"/>
		</g>
	</g>
	<path class="st22" d="M670.3,410.8c-0.4,0.4-11.1,9.6-33,15.4c-21.9,5.8-36.2,3.2-36.8,3.1c-1.6-0.3-3-1.3-3.8-2.7
		c-0.1,2.7,1.8,5.1,4.6,5.7c0.6,0.1,14.9,2.7,36.8-3.1c21.9-5.8,32.6-15,33-15.4c2.1-1.8,2.5-4.8,1.1-7.1
		C672.1,408.2,671.5,409.7,670.3,410.8z"/>
	<g class="st26">
		<g>
			<path class="st27" d="M624.4,377.7c-19,5-34,1.8-34.9,1.6c-2-0.5-3.3-2.5-2.8-4.5c0.5-2,2.5-3.3,4.5-2.8
				c0.5,0.1,31.6,6.7,59.6-15.9c1.6-1.3,4-1,5.3,0.6c1.3,1.6,1,4-0.6,5.3C645,370.4,634.2,375.2,624.4,377.7z"/>
		</g>
	</g>
	<path class="st15" d="M589.8,375.9c0.5,0.1,33.7,6.1,64.1-17c0.8-0.6,1.8-0.9,2.8-0.9c-0.1-0.5-0.4-0.9-0.7-1.3
		c-1.3-1.6-3.7-1.9-5.3-0.6c-28,22.5-59.1,16-59.6,15.9c-2-0.5-4,0.8-4.5,2.8c-0.1,0.6-0.1,1.1,0,1.7
		C587.6,375.9,588.7,375.7,589.8,375.9z"/>
	<g>
		<g>
			<path class="st28" d="M636.6,376.8l-7.2,2.7c-2.7,1-5.5,1.8-8.3,2.2l-8.2,1.3c-2,0.3-3.3,2.3-2.8,4.3l3.2,11.9
				c0.5,1.7,2.1,2.8,3.9,2.6l8.6-1.3c2.8-0.4,5.6-1.2,8.3-2.2l8.1-3.1c1.7-0.6,2.6-2.4,2.1-4.1l-3.1-11.9
				C640.6,377.2,638.5,376.1,636.6,376.8z"/>
		</g>
		<g>
			<path class="st29" d="M618.9,388.1c0.4,1.5-0.5,3-2,3.4s-3-0.5-3.4-2c-0.4-1.5,0.5-3,2-3.4C616.9,385.7,618.5,386.6,618.9,388.1z
				"/>
		</g>
		<g>
			<path class="st29" d="M620.8,395.4c0.4,1.5-0.5,3-2,3.4c-1.5,0.4-3-0.5-3.4-2c-0.4-1.5,0.5-3,2-3.4
				C618.9,393,620.4,393.9,620.8,395.4z"/>
		</g>
		<g>
			<g>
				<path class="st30" d="M629.5,388c-3.8,1-6.5,1.3-6.7,1.3c-0.9,0.1-1.7-0.6-1.8-1.5c-0.1-0.9,0.6-1.7,1.5-1.8
					c0.1,0,7.7-0.8,14.5-4.3c0.8-0.4,1.8-0.1,2.2,0.7c0.4,0.8,0.1,1.8-0.7,2.2C635.4,386.2,632.2,387.2,629.5,388z"/>
			</g>
		</g>
		<g>
			<g>
				<path class="st30" d="M631.4,394.8c-3.8,1-6.5,1.3-6.7,1.3c-0.9,0.1-1.7-0.6-1.8-1.5c-0.1-0.9,0.6-1.7,1.5-1.8
					c0.1,0,7.7-0.8,14.5-4.3c0.8-0.4,1.8-0.1,2.2,0.7c0.4,0.8,0.1,1.8-0.7,2.2C637.3,393,634.1,394.1,631.4,394.8z"/>
			</g>
		</g>
	</g>
	<path class="st15" d="M651.8,400.9l-3.3-2.6c-0.6-0.5-1.5-0.6-2.2-0.3l-3.9,1.5c-0.7,0.3-1.3,1-1.4,1.8l-0.6,4.1
		c-0.1,0.8,0.2,1.6,0.8,2.1l3.3,2.6c0.6,0.5,1.5,0.6,2.2,0.3l3.9-1.5c0.7-0.3,1.3-1,1.4-1.8l0.6-4.1
		C652.7,402.2,652.4,401.4,651.8,400.9z"/>
	<path class="st15" d="M612.2,411.4l1.6-3.8c0.3-0.7,1-1.3,1.8-1.4l4.1-0.6c0.8-0.1,1.6,0.2,2.1,0.8l2.6,3.3
		c0.5,0.6,0.6,1.5,0.3,2.2l-1.6,3.8c-0.3,0.7-1,1.3-1.8,1.4l-4.1,0.6c-0.8,0.1-1.6-0.2-2.1-0.8l-2.6-3.3
		C612,413,611.9,412.1,612.2,411.4z"/>
	<g>
		<g>
			<path class="st31" d="M657.2,306.7C642,272.6,600,285.3,600,285.3s-42.8,9.7-39.1,46.9c3.7,37.2,42.2,33.8,59.3,29.4
				C637.2,357,672.4,340.9,657.2,306.7z"/>
		</g>
		<path class="st32" d="M657.2,306.7c-4-9.1-9.9-14.8-16.4-18.4c3.4,3.3,6.4,7.5,8.8,12.8c15.2,34.2-20,50.3-37,54.8
			c-10.4,2.7-28.7,5-42.3-2c13.4,13.5,37.5,10.9,50,7.6C637.2,357,672.4,340.9,657.2,306.7z"/>
		<g>
			<path class="st33" d="M600,285.3c0,0-2.2,0.5-5.6,1.7c-1.3,14.6-6.2,41.9-23.5,67.7c4.7,4.5,10.7,7,16.9,8.4
				c20.8-32.1,24.9-65.4,25.7-79.9C605.7,283.6,600,285.3,600,285.3z"/>
			<path class="st33" d="M628,283.9c-0.9,14.7-5.7,49.4-29.1,80.3c4.2,0.1,8.4-0.3,12.2-0.8c20.1-29.8,25.1-61,26.2-76.7
				C634.2,285.3,631.1,284.5,628,283.9z"/>
		</g>
	</g>
	<g>
		<path class="st31" d="M665.3,428.6c-4.7,1.2-10.2-0.6-13.9-3.6c-5.8-4.7-8.8-13-7.7-21.2c0.2-1.5,1.6-2.6,3.2-2.4
			c1.5,0.2,2.6,1.6,2.4,3.2c-0.9,6.3,1.3,12.5,5.6,16c2.8,2.3,7.6,3.7,10.4,1.9c1.2-0.8,1.6-1.9,1.7-2.7c0.3-1.5-0.2-3.2-1.1-4.4
			c-0.6-0.8-1.7-1.6-2.8-2.4c-2.2-1.6-4.9-3.6-5.7-7.2c-0.5-2.3,0-4.7,1.4-6.7c1.5-2.1,3.8-3.5,6.4-3.9c1.5-0.2,3,0.9,3.2,2.4
			c0.2,1.5-0.9,3-2.4,3.2c-1,0.1-2,0.7-2.6,1.5c-0.3,0.5-0.7,1.3-0.5,2.3c0.3,1.4,1.5,2.4,3.5,3.8c1.4,1,2.8,2.1,3.9,3.5
			c1.9,2.5,2.7,5.7,2.2,8.8c-0.5,2.7-2,5-4.2,6.5C667.4,427.9,666.4,428.3,665.3,428.6z"/>
	</g>
	<g>
		<path class="st31" d="M614.1,442.1c-1.1,0.3-2.2,0.4-3.3,0.3c-2.7-0.2-5.1-1.4-6.9-3.6c-1.9-2.4-2.8-5.6-2.4-8.7
			c0.3-1.8,1-3.4,1.7-5c1-2.2,1.6-3.7,1.2-5c-0.3-1-1-1.5-1.6-1.8c-0.9-0.4-2-0.4-3-0.1c-1.4,0.6-3.1-0.1-3.7-1.6
			c-0.6-1.4,0.1-3.1,1.6-3.7c2.4-1,5.2-0.9,7.5,0.2c2.2,1,3.8,2.8,4.5,5.1c1.1,3.5-0.3,6.6-1.4,9.1c-0.6,1.3-1.1,2.5-1.3,3.5
			c-0.2,1.5,0.2,3.2,1.2,4.4c0.5,0.6,1.5,1.4,2.9,1.5c3.3,0.2,6.7-3.4,8.1-6.8c2-5.1,0.8-11.7-3-16.7c-0.9-1.2-0.7-3,0.5-3.9
			c1.2-0.9,3-0.7,3.9,0.5c5.1,6.5,6.5,15.3,3.8,22.2C622.7,436.6,618.8,440.9,614.1,442.1z"/>
	</g>
	<path class="st23" d="M690.4,391c0,0-15.9-16.2-32.6-16.9l3.5,9.5c6.8,1.6,15.8,5.8,26.2,15.8l2.6-2.7L690.4,391z"/>
	<g>
		<g>
			<path class="st5" d="M688.4,403.1c-1.2,0.3-2.6,0-3.5-0.9c-1.5-1.4-1.5-3.8-0.1-5.3l15.5-16.2c1.4-1.5,3.8-1.5,5.3-0.1
				c1.5,1.4,1.5,3.8,0.1,5.3l-15.5,16.2C689.7,402.6,689,402.9,688.4,403.1z"/>
		</g>
	</g>
	<path class="st22" d="M723.5,409.2c-12.1,14.9-24.3,1.3-24.3,1.3s2.5,5.7,5.8,8C713.1,424,722.6,417.8,723.5,409.2z"/>
	<path class="st15" d="M688.1,371.4c-8.5-5.5-16.3-8.4-23.1-9.8c0.1,3.3,1.1,10,6.8,12.6C678.1,376.9,684.7,375.5,688.1,371.4z"/>
	<path class="st15" d="M560,391.8c9.4,3.2,17.9,4.9,25.2,5.8c-0.4-2.4-2.2-10.6-9.3-12.3C568.9,383.5,562.2,386.5,560,391.8z"/>
	<path class="st23" d="M594,389.2c0,0-26.4-2.3-42.5-10.1c-0.7-0.3-1.4-0.6-2.1-0.8l-3.6,7.7c19.9,9.5,37.1,12,49.1,12.3
		C594.9,398.2,594,395.3,594,389.2z"/>
	<g>
		<g>
			<path class="st5" d="M546.7,389.6c-0.8,0.2-1.7,0.2-2.6-0.2c-1.9-0.9-2.7-3.1-1.8-5L552,364c0.9-1.9,3.1-2.7,5-1.8
				c1.9,0.9,2.7,3.1,1.8,5l-9.7,20.3C548.6,388.6,547.7,389.3,546.7,389.6z"/>
		</g>
	</g>
	<path class="st23" d="M668.6,453.8c-1.8-1-15.7-15.7-16.5-17.2c-0.8-1.5-2.1-0.7-4.1,1.1c-2,1.8-12.3,5.5-15.1,4
		c-2.8-1.5-3.1-0.5-3.3,0c-0.2,0.6-6,25.3-6,25.3s2.4-0.1,5.9-0.1c1.1-7.7,2.8-15.3,4.4-21.1c2.6-0.3,5.3-0.8,8.2-1.6
		c3.3-0.9,6.2-1.9,8.8-3c4.5,4.5,10.2,10.7,15.1,17.3C667.9,456.2,669.3,454.2,668.6,453.8z"/>
	<g>
		<path class="st15" d="M603.8,463.5c-0.2,1.6-0.9,12.6-0.9,12.6s-13.5-7.8-24.8-1.3c-11.2,6.5-8.8,21.9-8.8,21.9l58.5,6.2l1.9-37.6
			L603.8,463.5z"/>
	</g>
	<g>
		<path class="st15" d="M685.8,441.8c0.9,1.3,7,10.5,7,10.5s7.9-13.4,20.9-13.4c13,0.1,18.5,14.7,18.5,14.7l-47.8,34.2l-20.2-31.8
			L685.8,441.8z"/>
	</g>
	<g>
		<path class="st31" d="M684.3,487.9l47.8-34.2c0,0-1.1-2.9-3.5-6.1l-48,34.6L684.3,487.9z"/>
	</g>
	<g>
		<path class="st31" d="M569.4,496.7l58.5,6.2l0.4-7.2l-58.6-7.5C568.8,492.8,569.4,496.7,569.4,496.7z"/>
	</g>
	<g>
		<path class="st5" d="M665.1,459.7c-1.5,0.4-3.2-0.2-4.1-1.6c-1.1-1.7-0.7-4.1,1.1-5.2l21.7-14.2c1.7-1.1,4.1-0.7,5.2,1.1
			c1.1,1.7,0.7,4.1-1.1,5.2l-21.7,14.2C665.8,459.4,665.4,459.6,665.1,459.7z"/>
	</g>
	<path class="st34" d="M689,442.2l-21.7,14.2c-0.3,0.2-0.7,0.4-1.1,0.5c-1.5,0.4-3.2-0.2-4.1-1.6c-0.4-0.6-0.6-1.3-0.6-2
		c-1.3,1.2-1.5,3.2-0.5,4.7c0.9,1.4,2.6,2,4.1,1.6c0.4-0.1,0.8-0.3,1.1-0.5l21.7-14.2c1.1-0.7,1.7-1.9,1.7-3.2
		C689.3,441.9,689.2,442.1,689,442.2z"/>
	<g>
		<path class="st5" d="M630.6,468.8c-0.4,0.1-0.8,0.1-1.2,0.1l-25.9-1.7c-2.1-0.1-3.6-1.9-3.5-4c0.1-2.1,1.9-3.6,4-3.5l25.9,1.7
			c2.1,0.1,3.6,1.9,3.5,4C633.3,467.1,632.2,468.4,630.6,468.8z"/>
	</g>
	<path class="st34" d="M631.3,461.8c0.3,0.6,0.5,1.3,0.4,2c-0.1,1.6-1.3,3-2.8,3.4c-0.4,0.1-0.8,0.1-1.2,0.1l-25.9-1.7
		c-0.5,0-0.9-0.2-1.3-0.4c0.6,1.1,1.7,1.9,3,2l25.9,1.7c0.4,0,0.8,0,1.2-0.1c1.5-0.4,2.7-1.7,2.8-3.4
		C633.5,463.8,632.6,462.4,631.3,461.8z"/>
	<path class="st31" d="M694.5,473.5l-6.1-5.1c-3-2.5-7.2-3-10.7-1.2l-4.9,2.5l1,1.6l4.7-2.5c2.8-1.5,6.2-1.1,8.7,0.9l6.1,5.1l4,3.7
		l1.6-1.1L694.5,473.5z"/>
	<path class="st31" d="M624.3,481.3c-3.9,0.1-7.4,2.6-8.8,6.3l-2.8,7.5l-1.8,5.9l1.9,0.2l1.7-5.5l2.8-7.5c1.1-3,3.9-5,7.1-5.1
		l4.5-0.2l0.1-1.9L624.3,481.3z"/>
</g>
<g>
	<g>
		<path class="st15" d="M739.8,1354.9c0,0-5.7-11.4-10.4-16.3c-4.6-4.9-9.3,3.9-7.1,8.2c0,0-6.3-6.1-11.2-7.5
			c-17.3-5-28.1,21.4-6.9,31.4c16.3,7.1,23.5,9.6,23.5,9.6L739.8,1354.9z"/>
	</g>
	<path class="st22" d="M736.4,1362.1c-0.7-4.7-1.2-8.3-1.2-8.3s-12.2,16.9-15,16.3c-13.8-2.1-24.5-12.7-27.6-16
		c-0.1,6.2,3.2,12.8,11.7,16.8c16.3,7.1,23.5,9.6,23.5,9.6L736.4,1362.1z"/>
	<g>
		<path class="st15" d="M905.3,1397.3c0,0,2.6,13.2,5.4,19.3c2.8,6.1,10-0.8,9.4-5.5c0,0,3.1,7.1,7.3,10
			c14.8,10.2,33.5-11.3,16.6-27.5c-13.2-11.9-19.2-16.6-19.2-16.6L905.3,1397.3z"/>
	</g>
	<path class="st22" d="M910.7,1416.6c2.5,5.4,8.3,0.7,9.3-3.7c-1,1.5-3.3,1.8-5.2-0.2c-1.9-2-2-17.3-2-17.3c-0.4-0.9-3.6,0-6.5,1
		l-0.9,0.9C905.3,1397.3,907.9,1410.5,910.7,1416.6z"/>
	<g>
		<path class="st15" d="M735.9,1292c0,0-12.9-1.4-16.2,6.9c-3.4,8.3,7.1,46.1,16.1,46.7c6.1,0.1,13.4-3.5,13.4-3.5L735.9,1292z"/>
	</g>
	<g>
		<path class="st15" d="M866.5,1257.5c0,0,10.5-7.6,17.5-2c7,5.6,16.6,43.5,9.1,48.6c-5.2,3.1-13.4,3.5-13.4,3.5L866.5,1257.5z"/>
	</g>
	<path class="st22" d="M887.1,1294.5c-0.3-15.7-10.3-33.5-14.4-40.1c-3.5,1.2-6.2,3.1-6.2,3.1l13.2,50.1c0,0,8.2-0.4,13.4-3.5
		c1.8-1.2,2.6-4.3,2.7-8.4C891.6,1296.8,887.3,1297.2,887.1,1294.5z"/>
	<path class="st22" d="M736.2,1334.3c-7.5-13.8-7.6-34.2-7.3-42c3.7-0.7,6.9-0.4,6.9-0.4l13.2,50.1c0,0-7.4,3.7-13.4,3.5
		c-2.1-0.2-4.4-2.5-6.5-6C733.5,1338.6,737.4,1336.8,736.2,1334.3z"/>
	<g>
		<path class="st23" d="M804.1,1294.8L804.1,1294.8c-37.6,9.9-60,48.4-50.1,86l16.3,61.5c4,15.1,19.5,24.1,34.6,20.1l81.4-21.5
			c15.1-4,24.1-19.5,20.1-34.6l-16.3-61.5C880.2,1307.3,841.6,1284.9,804.1,1294.8z"/>
		<g>
			<path class="st24" d="M890.5,1346.4c-21.7,18.1-31,47.2-23.8,74.6l6.2,23.5l13.3-3.5c15.1-4,24.1-19.5,20.1-34.6L890.5,1346.4
				L890.5,1346.4z"/>
			<path class="st24" d="M754.4,1382.3L754.4,1382.3l15.9,60c4,15.1,19.5,24.1,34.6,20.1l13.3-3.5l-6.2-23.5
				C804.7,1408,782.3,1387.3,754.4,1382.3z"/>
		</g>
		<path class="st25" d="M856.7,1301.6c8.7,8.6,15.3,19.5,18.6,32.1l16.3,61.5c4,15.1-5,30.6-20.1,34.6l-81.4,21.5
			c-5.5,1.4-10.9,1.2-15.9-0.5c6.5,9.7,18.7,14.7,30.7,11.6l81.4-21.5c15.1-4,24.1-19.5,20.1-34.6l-16.3-61.5
			C885,1325.8,872.6,1310.6,856.7,1301.6z"/>
	</g>
	<g>
		<path class="st10" d="M905.3,1397.3l19.5-20.4c-24.7-23.6-46.6-28.9-61.9-28.6c-0.4-1.1-0.6-1.7-0.6-1.7s-11-11.7-42.9-3.2
			c-30.4,8-35.3,22.5-35.7,23.9c-11.2-0.9-26.3-4.1-43.8-12.4l-12.1,25.4c25,11.9,46.5,15.1,61.5,15.4c2.3,10.8,4.9,22.7,7.2,31.5
			c2.1,7.9,5.5,14.7,10.6,19.7c-3.3,12.4-7.4,32-7.4,51.2l31.6-0.1c0-14.4,3.6-31.1,6.7-42.5c3.2-0.4,6.6-1,10.3-2
			c4.1-1.1,7.7-2.4,11-3.8c8.4,8.4,19.8,21.2,27,33.8l27.6-15.5c-9.7-17.2-23.6-32.7-32.6-41.8c1.6-6.5,1.2-13.7-0.8-21.1
			c-2.1-7.8-5.1-17.9-8.2-27.5C881,1379.4,892.2,1384.8,905.3,1397.3z"/>
	</g>
	<g>
		<path class="st10" d="M876.9,1269.1c-24.9-59.2-87.8-39.8-87.8-39.8s-64.3,14.2-56.7,78c7.6,63.8,65.9,60.2,91.4,53.4
			C849.4,1353.9,901.8,1328.3,876.9,1269.1z"/>
	</g>
	<path class="st23" d="M876.9,1269.1c-6.3-14.9-14.9-24.8-24.4-31.3c7.3,6.4,13.9,15.1,18.9,27c24.9,59.2-27.5,84.8-53.1,91.6
		c-16.1,4.3-45.4,7.3-66.6-7.3c21.4,19.4,54.5,16.2,72.1,11.6C849.4,1353.9,901.8,1328.3,876.9,1269.1z"/>
	<g>
		<g>
			<path class="st15" d="M843.4,1434.6c-27.4,7.2-45.4,4-46.1,3.9c-3.8-0.7-6.3-4.4-5.6-8.2c0.7-3.8,4.4-6.3,8.2-5.6
				c0.3,0.1,16,2.7,39.9-3.6c24-6.3,35.6-16.2,35.7-16.3c2.9-2.5,7.4-2.2,9.9,0.7c2.5,2.9,2.3,7.3-0.6,9.9
				C884.2,1415.8,870.9,1427.3,843.4,1434.6z"/>
		</g>
	</g>
	<path class="st22" d="M883.8,1411.5c-0.6,0.5-13.9,12-41.4,19.3c-27.4,7.2-45.4,4-46.1,3.9c-2.1-0.4-3.7-1.7-4.7-3.3
		c-0.1,3.4,2.3,6.4,5.7,7.1c0.7,0.1,18.7,3.4,46.1-3.9c27.5-7.3,40.8-18.8,41.4-19.3c2.6-2.3,3.1-6,1.4-8.9
		C886.1,1408.3,885.3,1410.1,883.8,1411.5z"/>
	<g class="st26">
		<g>
			<path class="st27" d="M826.3,1370c-23.8,6.3-42.6,2.2-43.8,2c-2.5-0.6-4.1-3.1-3.5-5.6c0.6-2.5,3.1-4.1,5.6-3.5
				c0.6,0.1,39.6,8.4,74.7-19.9c2-1.6,5-1.3,6.6,0.7c1.6,2,1.3,5-0.7,6.6C852.1,1360.9,838.5,1366.8,826.3,1370z"/>
		</g>
	</g>
	<path class="st15" d="M782.9,1367.7c0.6,0.1,42.2,7.7,80.3-21.4c1-0.8,2.3-1.1,3.5-1.1c-0.2-0.6-0.4-1.1-0.8-1.6
		c-1.6-2-4.6-2.3-6.6-0.7c-35.1,28.2-74.1,20-74.7,19.9c-2.5-0.6-5,1-5.6,3.5c-0.2,0.7-0.1,1.4,0,2.1
		C780.1,1367.8,781.5,1367.5,782.9,1367.7z"/>
	<g>
		<g>
			<path class="st28" d="M841.5,1368.9l-9,3.4c-3.4,1.3-6.9,2.2-10.5,2.8l-10.2,1.6c-2.6,0.4-4.2,2.9-3.5,5.4l3.9,14.9
				c0.6,2.2,2.7,3.5,4.9,3.2l10.8-1.7c3.6-0.6,7.1-1.5,10.5-2.8l10.2-3.9c2.1-0.8,3.3-3,2.7-5.2l-3.9-14.9
				C846.6,1369.3,844,1367.9,841.5,1368.9z"/>
		</g>
		<g>
			<path class="st29" d="M819.3,1383c0.5,1.9-0.6,3.8-2.5,4.2s-3.8-0.6-4.2-2.5c-0.5-1.9,0.6-3.8,2.5-4.2
				C816.9,1380,818.8,1381.1,819.3,1383z"/>
		</g>
		<g>
			<path class="st29" d="M821.8,1392.2c0.5,1.9-0.6,3.8-2.5,4.2c-1.9,0.5-3.8-0.6-4.2-2.5s0.6-3.8,2.5-4.2
				C819.4,1389.2,821.3,1390.3,821.8,1392.2z"/>
		</g>
		<g>
			<g>
				<path class="st30" d="M832.7,1382.8c-4.7,1.2-8.2,1.6-8.5,1.6c-1.1,0.1-2.2-0.7-2.3-1.9c-0.1-1.1,0.7-2.2,1.9-2.3
					c0.1,0,9.7-1,18.2-5.4c1-0.5,2.3-0.1,2.8,0.9c0.5,1,0.1,2.3-0.9,2.8C840.1,1380.6,836.1,1382,832.7,1382.8z"/>
			</g>
		</g>
		<g>
			<g>
				<path class="st30" d="M835,1391.5c-4.7,1.2-8.2,1.6-8.5,1.6c-1.1,0.1-2.2-0.7-2.3-1.9c-0.1-1.1,0.7-2.2,1.9-2.3
					c0.1,0,9.7-1,18.2-5.4c1-0.5,2.3-0.1,2.8,0.9c0.5,1,0.1,2.3-0.9,2.8C842.4,1389.2,838.4,1390.6,835,1391.5z"/>
			</g>
		</g>
	</g>
	<path class="st15" d="M860.6,1399.1l-4.1-3.2c-0.8-0.6-1.8-0.8-2.8-0.4l-4.8,1.9c-0.9,0.4-1.6,1.2-1.7,2.2l-0.8,5.2
		c-0.1,1,0.3,2,1,2.6l4.1,3.2c0.8,0.6,1.8,0.8,2.8,0.4l4.8-1.9c0.9-0.4,1.6-1.2,1.7-2.2l0.8-5.2
		C861.8,1400.7,861.4,1399.7,860.6,1399.1z"/>
	<path class="st15" d="M811,1412.2l2-4.8c0.4-0.9,1.2-1.6,2.2-1.7l5.2-0.7c1-0.1,2,0.3,2.6,1.1l3.2,4.1c0.6,0.8,0.8,1.8,0.4,2.8
		l-2,4.8c-0.4,0.9-1.2,1.6-2.2,1.7l-5.2,0.7c-1,0.1-2-0.3-2.6-1.1l-3.2-4.1C810.8,1414.2,810.6,1413.2,811,1412.2z"/>
	<g>
		<g>
			<path class="st31" d="M867.4,1281c-19-42.8-71.7-26.9-71.7-26.9s-53.6,12.1-49,58.8c4.6,46.6,53,42.4,74.3,36.8
				C842.3,1344.1,886.4,1323.9,867.4,1281z"/>
		</g>
		<path class="st32" d="M867.4,1281c-5-11.3-12.5-18.5-20.6-23c4.3,4.1,8.1,9.4,11,16c19,42.8-25.1,63-46.4,68.7
			c-13,3.4-36,6.3-53.1-2.5c16.8,17,47,13.6,62.6,9.5C842.3,1344.1,886.4,1323.9,867.4,1281z"/>
		<g>
			<path class="st33" d="M795.7,1254.1c0,0-2.8,0.6-7,2.2c-1.7,18.3-7.8,52.5-29.5,84.8c5.9,5.6,13.4,8.8,21.2,10.5
				c26.1-40.3,31.2-82,32.2-100.2C802.8,1252,795.7,1254.1,795.7,1254.1z"/>
			<path class="st33" d="M830.8,1252.4c-1.2,18.4-7.2,61.9-36.5,100.6c5.3,0.1,10.5-0.3,15.2-1c25.2-37.3,31.4-76.5,32.9-96.2
				C838.6,1254.2,834.7,1253.1,830.8,1252.4z"/>
		</g>
	</g>
	<g>
		<path class="st31" d="M877.6,1433.8c-5.9,1.6-12.8-0.7-17.4-4.5c-7.3-5.9-11.1-16.3-9.6-26.6c0.3-1.9,2.1-3.3,4-3
			c1.9,0.3,3.3,2.1,3,4c-1.1,7.8,1.7,15.7,7,20.1c3.6,2.9,9.6,4.6,13,2.4c1.5-1,2-2.4,2.2-3.4c0.3-1.9-0.2-4-1.4-5.5
			c-0.8-1-2.1-2-3.5-3c-2.8-2-6.2-4.5-7.1-9c-0.6-2.9,0-5.9,1.8-8.4c1.9-2.6,4.8-4.4,8.1-4.8c1.9-0.3,3.7,1.1,4,3
			c0.3,1.9-1.1,3.7-3,4c-1.3,0.2-2.5,0.9-3.2,1.9c-0.4,0.6-0.9,1.6-0.6,2.9c0.4,1.7,1.9,3,4.4,4.8c1.7,1.3,3.5,2.6,4.9,4.4
			c2.4,3.1,3.4,7.2,2.8,11c-0.6,3.4-2.5,6.3-5.3,8.2C880.2,1432.9,878.9,1433.4,877.6,1433.8z"/>
	</g>
	<g>
		<path class="st31" d="M813.3,1450.7c-1.3,0.4-2.7,0.5-4.1,0.4c-3.4-0.2-6.4-1.8-8.6-4.5c-2.4-3-3.6-7.1-3-10.9
			c0.3-2.3,1.2-4.3,2.1-6.3c1.3-2.8,2-4.6,1.5-6.3c-0.4-1.2-1.3-1.9-2-2.2c-1.1-0.5-2.5-0.6-3.8-0.1c-1.8,0.7-3.9-0.1-4.6-1.9
			c-0.7-1.8,0.1-3.9,1.9-4.6c3-1.2,6.5-1.1,9.4,0.2c2.7,1.3,4.8,3.6,5.7,6.4c1.4,4.4-0.3,8.2-1.7,11.4c-0.7,1.6-1.4,3.1-1.6,4.4
			c-0.3,1.9,0.3,4,1.5,5.5c0.7,0.8,1.8,1.8,3.6,1.9c4.1,0.2,8.4-4.2,10.1-8.5c2.5-6.5,1.1-14.7-3.8-20.9c-1.2-1.5-0.9-3.8,0.6-4.9
			c1.5-1.2,3.7-0.9,4.9,0.6c6.3,8.2,8.2,19.1,4.8,27.8C824.1,1443.8,819.2,1449.2,813.3,1450.7z"/>
	</g>
	<path class="st23" d="M909,1386.6c0,0-20-20.3-40.9-21.1l4.3,11.9c8.6,2,19.8,7.3,32.9,19.9l3.2-3.4L909,1386.6z"/>
	<g>
		<g>
			<path class="st35" d="M906.5,1401.8c-1.5,0.4-3.2,0-4.4-1.1c-1.9-1.8-1.9-4.8-0.1-6.6l19.5-20.4c1.8-1.9,4.8-1.9,6.6-0.1
				c1.9,1.8,1.9,4.8,0.1,6.6l-19.5,20.4C908.1,1401.2,907.3,1401.6,906.5,1401.8z"/>
		</g>
	</g>
	<path class="st22" d="M950.5,1409.5c-15.2,18.7-30.5,1.6-30.5,1.6s3.1,7.1,7.3,10C937.4,1428.1,949.3,1420.3,950.5,1409.5z"/>
	<path class="st15" d="M906.1,1362c-10.6-6.9-20.4-10.6-29-12.3c0.1,4.2,1.3,12.5,8.6,15.7C893.5,1368.9,901.9,1367.3,906.1,1362z"
		/>
	<path class="st15" d="M745.6,1387.6c11.8,4,22.4,6.2,31.6,7.2c-0.5-3.1-2.7-13.3-11.6-15.4C756.7,1377.3,748.4,1381,745.6,1387.6z"
		/>
	<path class="st23" d="M788.2,1384.4c0,0-33-2.9-53.3-12.7c-0.9-0.4-1.7-0.8-2.6-1l-4.6,9.6c25,11.9,46.5,15.1,61.5,15.4
		C789.2,1395.7,788.2,1392.1,788.2,1384.4z"/>
	<g>
		<g>
			<path class="st35" d="M728.9,1384.9c-1,0.3-2.2,0.2-3.2-0.3c-2.3-1.1-3.3-3.9-2.2-6.3l12.1-25.4c1.1-2.3,3.9-3.3,6.3-2.2
				c2.3,1.1,3.3,3.9,2.2,6.3l-12.1,25.4C731.3,1383.6,730.2,1384.5,728.9,1384.9z"/>
		</g>
	</g>
	<path class="st23" d="M881.6,1465.4c-2.3-1.3-19.7-19.7-20.6-21.5c-0.9-1.8-2.6-0.9-5.1,1.4c-2.5,2.2-15.4,6.9-19,5
		c-3.6-1.9-3.9-0.7-4.1,0c-0.3,0.7-7.6,31.7-7.6,31.7s3-0.1,7.3-0.2c1.3-9.7,3.5-19.1,5.5-26.5c3.2-0.4,6.6-1,10.3-2
		c4.1-1.1,7.7-2.4,11-3.8c5.7,5.7,12.8,13.4,19,21.7C880.8,1468.4,882.5,1465.9,881.6,1465.4z"/>
	<g>
		<path class="st15" d="M800.5,1477.5c-0.2,1.9-1.1,15.8-1.1,15.8s-16.9-9.8-31-1.7c-14.1,8.1-11.1,27.5-11.1,27.5l73.3,7.7
			l2.3-47.2L800.5,1477.5z"/>
	</g>
	<g>
		<path class="st15" d="M903.2,1450.4c1.1,1.6,8.7,13.2,8.7,13.2s9.9-16.9,26.2-16.8c16.2,0.1,23.2,18.4,23.2,18.4l-59.9,42.8
			l-25.3-39.9L903.2,1450.4z"/>
	</g>
	<g>
		<path class="st31" d="M901.3,1508.1l59.9-42.8c0,0-1.4-3.6-4.3-7.7l-60.2,43.3L901.3,1508.1z"/>
	</g>
	<g>
		<path class="st31" d="M757.3,1519.1l73.3,7.7l0.4-9.1l-73.4-9.4C756.5,1514.2,757.3,1519.1,757.3,1519.1z"/>
	</g>
	<g>
		<path class="st35" d="M877.2,1472.8c-1.9,0.5-4-0.2-5.1-2c-1.4-2.2-0.8-5.1,1.3-6.5l27.2-17.8c2.2-1.4,5.1-0.8,6.5,1.3
			c1.4,2.2,0.8,5.1-1.3,6.5l-27.2,17.8C878.2,1472.4,877.7,1472.6,877.2,1472.8z"/>
	</g>
	<path class="st34" d="M907.2,1450.9l-27.2,17.8c-0.4,0.3-0.9,0.5-1.4,0.6c-1.9,0.5-4-0.2-5.1-2c-0.5-0.8-0.8-1.7-0.8-2.5
		c-1.6,1.5-1.9,4-0.7,5.9c1.1,1.7,3.2,2.5,5.1,2c0.5-0.1,0.9-0.3,1.4-0.6l27.2-17.8c1.4-0.9,2.1-2.4,2.1-4
		C907.7,1450.5,907.4,1450.7,907.2,1450.9z"/>
	<g>
		<path class="st35" d="M834.1,1484.2c-0.5,0.1-1,0.2-1.5,0.1l-32.4-2.1c-2.6-0.2-4.5-2.4-4.4-5c0.2-2.6,2.4-4.5,5-4.4l32.4,2.1
			c2.6,0.2,4.5,2.4,4.4,5C837.4,1482,836,1483.7,834.1,1484.2z"/>
	</g>
	<path class="st34" d="M834.9,1475.4c0.4,0.8,0.6,1.6,0.6,2.5c-0.1,2.1-1.6,3.7-3.5,4.2c-0.5,0.1-1,0.2-1.5,0.1l-32.4-2.1
		c-0.6,0-1.2-0.2-1.7-0.4c0.7,1.4,2.1,2.4,3.8,2.5l32.4,2.1c0.5,0,1,0,1.5-0.1c1.9-0.5,3.3-2.2,3.5-4.2
		C837.7,1478,836.6,1476.2,834.9,1475.4z"/>
	<path class="st31" d="M914.2,1490l-7.7-6.4c-3.8-3.2-9.1-3.7-13.5-1.4l-6.1,3.2l1.3,2l5.9-3.1c3.5-1.8,7.8-1.4,10.9,1.2l7.6,6.4
		l5,4.7l1.9-1.4L914.2,1490z"/>
	<path class="st31" d="M826.1,1499.9c-4.9,0.2-9.2,3.3-11,7.9l-3.5,9.4l-2.3,7.4l2.4,0.3l2.1-6.9l3.5-9.4c1.4-3.7,4.9-6.2,8.9-6.4
		l5.6-0.2l0.1-2.4L826.1,1499.9z"/>
</g>
<g>
	<path class="st36" d="M1554.3-79.9c20.4,11.6,44,18.2,69.2,18.2c77.6,0,140.6-62.8,140.6-140.3c0-38-15.1-72.5-39.7-97.7
		c25-9.5,42.8-33.7,42.8-62c0-14.7-4.8-28.3-12.9-39.3c28.9-16.8,48.4-48.1,48.4-83.9c0-53.6-43.6-97.1-97.3-97.1
		c-53.8,0-97.3,43.5-97.3,97.1c0,33.3,16.8,62.6,42.3,80.1c-10,11.6-16,26.6-16,43.1c0,7,1.1,13.8,3.1,20.1
		c-4.6-0.4-9.2-0.7-13.9-0.7c-77.6,0-140.6,62.8-140.6,140.3c0,4.3,0.2,8.5,0.6,12.7c-8.1-2.2-16.5-3.3-25.3-3.3
		c-53.8,0-97.3,43.5-97.3,97.1c-0.2,53.6,43.4,97.1,97.2,97.1C1506.6,1.6,1546.8-33.7,1554.3-79.9L1554.3-79.9z"/>
	<path class="st37" d="M1535.2-318.3c-0.2,0.1-0.2,0.3,0,0.4c1.5,0.5,5.5,2.3,7.6,9.2c0.1,0.2,0.4,0.2,0.4,0c0.4-2.3,2-7.7,7.9-9.1
		c0.2-0.1,0.2-0.4,0-0.4c-2-0.6-6.8-3-8.1-10.6c-0.1-0.3-0.4-0.3-0.4,0C1542.1-326.2,1540.3-320.6,1535.2-318.3z"/>
	<path class="st38" d="M1458.6-360.8c-0.5,2.6-2.2,8.2-7.4,10.5c-0.2,0.1-0.2,0.3,0,0.4c1.5,0.5,5.5,2.3,7.6,9.2
		c0.1,0.2,0.4,0.2,0.4,0c0.4-2.3,2-7.7,7.9-9.1c0.2-0.1,0.2-0.4,0-0.4c-2-0.7-6.8-3-8.1-10.6
		C1458.9-361.1,1458.7-361.1,1458.6-360.8L1458.6-360.8z"/>
	<path class="st39" d="M1610.2-253.3c-0.2,0.1-0.2,0.3,0,0.4c1.5,0.5,5.5,2.3,7.6,9.2c0.1,0.2,0.4,0.2,0.4,0c0.4-2.3,2-7.7,7.9-9.1
		c0.2-0.1,0.2-0.4,0-0.4c-2-0.6-6.8-3-8.1-10.6c-0.1-0.3-0.4-0.3-0.4,0C1617.1-261.2,1615.3-255.6,1610.2-253.3z"/>
	<path class="st40" d="M1674.6-434.9c-0.5,2.6-2.2,8.2-7.4,10.5c-0.2,0.1-0.2,0.3,0,0.4c1.5,0.5,5.5,2.3,7.6,9.2
		c0.1,0.2,0.4,0.2,0.4,0c0.4-2.3,2-7.7,7.9-9.1c0.2-0.1,0.2-0.4,0-0.4c-2-0.6-6.8-3-8.1-10.6
		C1674.9-435.1,1674.7-435.1,1674.6-434.9L1674.6-434.9z"/>
</g>
<g id="Product-Pages">
	<g id="Header---Postman" transform="translate(-289.000000, -269.000000)">
		<g id="_x31_---Header">
			<g id="Hero">
				<g id="Header-BG">
					<g id="Header---Clouds" transform="translate(-202.000000, 37.000000)">
						<g id="Repeating-Clouds" transform="translate(485.000000, 232.000000)">
							<path id="Shape" class="st36" d="M1385.8,487.7c-11.5-12.6-28-20.5-46.3-20.5c-14,0-26.9,4.6-37.3,12.3
								c-19.6-52.8-70.5-90.5-130.1-90.5c-62,0-114.5,40.7-132.4,96.8c-9.3-5.5-20.2-8.7-31.8-8.7c-34.7,0-62.8,28.1-62.8,62.8
								s28.1,62.8,62.8,62.8c14.9,0,28.6-5.2,39.4-14c22.5,46.1,69.9,77.9,124.7,77.9c58.4,0,108.3-36.1,128.8-87.1
								c10.6,8.3,24,13.3,38.6,13.3c10.9,0,21.1-2.8,30-7.6c13.8,46.4,56.8,80.4,107.7,80.4c62.1,0,112.4-50.3,112.4-112.4
								s-50.4-112.4-112.4-112.4C1439.5,440.8,1406.2,459.3,1385.8,487.7z"/>
							<path id="Shape_1_" class="st41" d="M2183.4,458.6c-19.1-50.1-58.6-92.3-112.5-113.3c-94-36.4-198.8,4.1-244.9,90.9
								c-11.1-7.2-23.1-13.4-36-18.4c-101.3-39.4-215.2,10.8-254.6,112.1c-11.2,28.9-15.2,58.7-12.7,87.6l329.6,128.1
								c15.9-14.6,29.6-32.1,40.1-51.9c11.1,7.2,23.1,13.4,36,18.4c45.3,17.6,93.2,17.3,135.8,2.5c19.1,50,58.6,92.1,112.5,113.1
								c101.3,39.4,215.2-10.8,254.6-112.1c39.4-101.2-10.8-215.1-112-254.5C2273.9,443.5,2226,443.9,2183.4,458.6z"/>
							<path id="Shape_2_" class="st36" d="M2014.6,443.5c-42.6,4.5-78.2,29.4-98,64.1c-14.5-12.9-34.2-19.9-55-17.7
								c-15.8,1.7-29.9,8.4-40.8,18.3c-28.5-57.5-90.7-94.2-158.3-87.1c-70.3,7.4-124.9,59.8-138.5,125.5c-11.2-5.1-23.9-7.4-37.1-6
								c-39.3,4.1-67.8,39.4-63.7,78.7c4.1,39.3,39.4,67.8,78.7,63.7c16.9-1.8,31.8-9.3,43-20.5c31.1,49.6,88.5,79.9,150.6,73.4
								c66.2-7,118.5-53.8,135.6-114.1c13.1,8.1,28.8,12.2,45.4,10.5c12.3-1.3,23.6-5.7,33.1-12.2c21.2,51,73.9,84.3,131.7,78.2
								c70.3-7.4,121.4-70.4,114-140.8C2148,487.1,2084.9,436.1,2014.6,443.5L2014.6,443.5z"/>
							<path id="Shape-Copy" class="st36" d="M2393,456.3c-24.2,2.5-44.4,16.7-55.6,36.4c-8.2-7.3-19.4-11.3-31.2-10
								c-9,0.9-17,4.7-23.2,10.4c-16.2-32.6-51.5-53.4-89.8-49.4c-39.9,4.2-70.9,33.9-78.6,71.2c-6.4-2.9-13.6-4.2-21-3.4
								c-22.3,2.3-38.5,22.3-36.2,44.6s22.3,38.5,44.6,36.2c9.6-1,18.1-5.3,24.4-11.6c17.6,28.1,50.2,45.4,85.5,41.7
								c37.6-3.9,67.3-30.5,77-64.8c7.4,4.6,16.4,6.9,25.8,5.9c7-0.7,13.4-3.2,18.8-6.9c12,28.9,42,47.9,74.8,44.4
								c39.9-4.2,68.9-40,64.7-79.9S2432.9,452.1,2393,456.3L2393,456.3z"/>
							<path id="Shape_3_" class="st40" d="M1780.6,444.1c-0.5,2.6-2.2,8.2-7.4,10.5c-0.2,0.1-0.2,0.3,0,0.4
								c1.5,0.5,5.5,2.3,7.6,9.2c0.1,0.2,0.4,0.2,0.4,0c0.4-2.3,2-7.7,7.9-9.1c0.2-0.1,0.2-0.4,0-0.4c-2-0.7-6.8-3-8.1-10.6
								C1780.9,444,1780.7,444,1780.6,444.1L1780.6,444.1z"/>
							<path id="Shape_4_" class="st38" d="M1454.6,346.2c-0.5,2.6-2.2,8.2-7.4,10.5c-0.2,0.1-0.2,0.3,0,0.4
								c1.5,0.5,5.5,2.3,7.6,9.2c0.1,0.2,0.4,0.2,0.4,0c0.4-2.3,2-7.7,7.9-9.1c0.2-0.1,0.2-0.4,0-0.4c-2-0.6-6.8-3-8.1-10.6
								C1454.9,345.9,1454.6,345.9,1454.6,346.2L1454.6,346.2z"/>
						</g>
					</g>
				</g>
			</g>
		</g>
	</g>
</g>
<g id="Product-Pages_1_">
	<g id="Header---Postman_1_" transform="translate(0.000000, -215.000000)">
		<g id="_x31_---Header_1_">
			<g id="Hero_1_">
				<g id="Header-BG_1_">
					<g id="Header---Clouds_1_" transform="translate(-202.000000, 37.000000)">
						<g id="Left-Cloud" transform="translate(0.000000, 40.000000)">
							<path id="Shape_7_" class="st41" d="M274.1-348c-3.5,7.3-5.4,15-6,22.5l-30.2,115L518.8-71l51.4-94.3
								c3.8-7,6.5-14.5,8.1-22.3l0,0c6.4-21-5.2-45.1-25.7-54.7c-9-4.3-18.8-5.2-27.9-3.4c0.1-19-10.3-37.2-28.2-46.3
								c1.5-1.9,2.9-4,3.9-6.3c7.1-15.2,0.6-33.2-14.5-40.3c-7.7-3.6-16.2-3.7-23.6-0.9c0.1-17.6-9.7-34.5-26.7-42.5
								c-20.8-9.8-45.3-2.7-58,15.7c-5.3-5.3-11.6-9.7-18.9-13C326.9-393.5,289-379.6,274.1-348L274.1-348z"/>
							<path id="Shape_6_" class="st36" d="M858.8-175.3c-11.5-12.6-28-20.5-46.3-20.5c-14,0-26.9,4.6-37.3,12.3
								C755.5-236.3,704.6-274,645-274c-62,0-114.5,40.7-132.4,96.8c-9.3-5.5-20.2-8.7-31.8-8.7c-34.7,0-62.8,28.1-62.8,62.8
								s28.1,62.8,62.8,62.8c14.9,0,28.6-5.2,39.4-14C542.8-28.1,590.2,3.6,645,3.6c58.4,0,108.3-36.1,128.8-87.1
								c10.6,8.3,24,13.3,38.6,13.3c10.9,0,21.1-2.8,30-7.6c13.8,46.4,56.8,80.4,107.7,80.4c62.1,0,112.4-50.3,112.4-112.4
								s-50.4-112.4-112.4-112.4C912.5-222.2,879.2-203.7,858.8-175.3z"/>
							<path id="Shape_5_" class="st42" d="M461.5-210.9c-0.5,2.6-2.2,8.2-7.4,10.5c-0.2,0.1-0.2,0.3,0,0.4c1.5,0.5,5.5,2.3,7.6,9.2
								c0.1,0.2,0.4,0.2,0.4,0c0.4-2.3,2-7.7,7.9-9.1c0.2-0.1,0.2-0.4,0-0.4c-2-0.6-6.8-3-8.1-10.6C462-211,461.6-211,461.5-210.9
								L461.5-210.9z"/>
						</g>
					</g>
				</g>
			</g>
		</g>
	</g>
</g>
</svg>
