<?xml version="1.0" encoding="utf-8"?>
<!-- Generator: Adobe Illustrator 22.1.0, SVG Export Plug-In . SVG Version: 6.00 Build 0)  -->
<svg version="1.1" id="Capa_1" xmlns="http://www.w3.org/2000/svg" xmlns:xlink="http://www.w3.org/1999/xlink" x="0px" y="0px"
	 viewBox="0 0 919 605" style="enable-background:new 0 0 919 605;" xml:space="preserve">
<style type="text/css">
	.st0{fill:url(#SVGID_1_);}
	.st1{fill:url(#SVGID_2_);}
	.st2{fill:url(#SVGID_3_);}
	.st3{clip-path:url(#SVGID_5_);fill:url(#SVGID_6_);}
	.st4{fill:#3A2D78;}
	.st5{fill:#20C997;}
	.st6{fill:#5DC2AE;}
	.st7{fill:#164377;}
	.st8{fill:#105697;}
	.st9{fill:none;}
	.st10{fill:#93F5E5;}
	.st11{fill:#FFFFFF;}
	.st12{fill:#D2D3D3;}
	.st13{opacity:0.21;}
	.st14{fill:#386D7C;}
	.st15{fill:#182B3A;}
	.st16{fill:#463388;}
	.st17{fill:#21265C;}
	.st18{fill:#322B6D;}
	.st19{opacity:0.11;fill:#DDDDDD;}
	.st20{opacity:0.11;fill:#CACACA;}
	.st21{opacity:0.11;fill:#B4B4B4;}
	.st22{opacity:0.11;fill:#989898;}
	.st23{opacity:0.5;fill:#A7CBED;}
	.st24{fill:#E4E4E5;}
	.st25{fill:#11464A;}
	.st26{opacity:0.5;fill:#E4E4E5;}
	.st27{opacity:0.71;}
	.st28{fill:#257258;}
	.st29{fill:#DDEBF8;}
	.st30{fill:#D0533C;}
	.st31{fill:#A7CBED;}
	.st32{fill:#233B4A;}
	.st33{opacity:0.5;fill:#233B4A;}
	.st34{opacity:0.5;fill:#FFFFFF;}
	.st35{fill:#03A9F4;}
	.st36{opacity:0.5;fill:#DF7666;}
	.st37{fill:#EB816F;}
	.st38{fill:#4E687A;}
	.st39{fill:#FC906B;}
	.st40{fill:#4F485C;}
	.st41{fill:#E8E0CB;}
	.st42{fill:#F99D78;}
	.st43{fill:#FFF2D9;}
	.st44{fill:#3F2E7A;}
</style>
<linearGradient id="SVGID_1_" gradientUnits="userSpaceOnUse" x1="925.838" y1="1913.4564" x2="1164.4523" y2="872.0796">
	<stop  offset="0" style="stop-color:#001C4E"/>
	<stop  offset="0.9987" style="stop-color:#CBCAE5"/>
</linearGradient>
<rect x="361" y="1385" class="st0" width="1200" height="750"/>
<linearGradient id="SVGID_2_" gradientUnits="userSpaceOnUse" x1="2072.2051" y1="1183.2478" x2="1307.037" y2="1889.9132">
	<stop  offset="0" style="stop-color:#C4E5F7"/>
	<stop  offset="0.9936" style="stop-color:#FFFFFF"/>
</linearGradient>
<rect x="939.3" y="1338" class="st1" width="1185.5" height="688.2"/>
<linearGradient id="SVGID_3_" gradientUnits="userSpaceOnUse" x1="-1630.3577" y1="454.4763" x2="-1495.2234" y2="-135.2859">
	<stop  offset="0" style="stop-color:#0D2136"/>
	<stop  offset="0.9987" style="stop-color:#406EAE"/>
</linearGradient>
<path class="st2" d="M-1241.4,360c-44.5-18.3-102.5-6.5-135.9-41.2c-20.6-21.4-24.2-54-40.1-79.2c-24.1-38.2-72.4-53.3-117.3-58.2
	c-40.7-4.4-85.6-4.1-117-30.4c-28.5-24-38.6-64.8-67.3-88.6c-32.9-27.4-80.7-25.1-123.1-19.6c-36.9,4.9-73.7,11.1-110.1,18.9
	c-12.6,2.7-29.2,4.7-45.8,7.8V569h749c4.3-3.3,8.5-6.7,12.7-10.2c23-19.3,44.3-42.4,53.7-70.9
	C-1166.4,438.9-1193.6,379.7-1241.4,360z"/>
<g>
	<defs>
		<path id="SVGID_4_" d="M-1810.9-31.1c42.4-5.6,90.2-7.8,123.1,19.6c28.7,23.8,38.7,64.6,67.3,88.6c31.4,26.4,76.2,26,117,30.4
			c44.9,4.8,93.2,20,117.3,58.2c15.9,25.2,19.5,57.7,40.1,79.2c33.4,34.7,91.4,22.9,135.9,41.2c47.8,19.6,75,78.9,58.8,127.9
			c-9.4,28.5-30.8,51.5-53.7,70.9c-45.6,38.4-100.2,66.1-158.1,80.2c-73,17.8-149.3,14-224.5,12.8c-91.2-1.4-183.2,1.1-272.8-15.9
			c-45.9-8.7-91.7-22.9-129.3-50.6c-50.2-37-80.9-94.4-106.5-151.2c-10.2-22.7-20.1-46.5-19.8-71.4c0.5-45,33.1-82.1,54.4-121.7
			c15.6-29,25.7-61,29.5-93.7c2.2-18.8-3.4-46.6,13.6-59.5c22.8-17.3,69.9-20.2,97.5-26C-1884.6-20-1847.8-26.3-1810.9-31.1z"/>
	</defs>
	<clipPath id="SVGID_5_">
		<use xlink:href="#SVGID_4_"  style="overflow:visible;"/>
	</clipPath>
	<linearGradient id="SVGID_6_" gradientUnits="userSpaceOnUse" x1="-1461.9601" y1="343.593" x2="-1283.8728" y2="-370.2038">
		<stop  offset="0" style="stop-color:#0D2136"/>
		<stop  offset="0.9987" style="stop-color:#406EAE"/>
	</linearGradient>
	<rect x="-1966.8" y="-159.5" class="st3" width="1097.5" height="654.4"/>
</g>
<ellipse transform="matrix(0.9486 -0.3165 0.3165 0.9486 -387.8707 -69.7915)" class="st4" cx="-408.7" cy="1158.9" rx="18.6" ry="18.6"/>
<g>
	<g>
		
			<rect x="258.7" y="354.3" transform="matrix(0.7397 0.673 -0.673 0.7397 387.2858 -55.502)" class="st5" width="13.3" height="237.1"/>
		
			<rect x="273.2" y="364.1" transform="matrix(0.7397 0.673 -0.673 0.7397 396.6773 -60.1952)" class="st5" width="6" height="237.1"/>
		
			<rect x="251.6" y="344.5" transform="matrix(0.7397 0.673 -0.673 0.7397 377.8985 -50.8078)" class="st5" width="6" height="237.1"/>
	</g>
	<g>
		<g>
			<path class="st5" d="M341.1,384c-1.4-3.1-2.9-6.1-4.7-8.9c-1.8-3-3.9-6.2-4.2-9.5l-7.3,6c-0.1,0.1-0.2,0.1-0.2,0.2
				c-1.9,2.1,4.6,11.2,14.5,20.2c0.9,0.8,1.8,1.6,2.7,2.4c0.5-1.1,0.9-2.3,1-3.5C343,388.5,342.1,386.2,341.1,384z"/>
			<path class="st6" d="M360.6,404.5c0.1-0.1,0.1-0.2,0.2-0.3l20.8-30.8l-28.1-25.6l-21.3,17.6c0.4,3.3,2.4,6.6,4.2,9.5
				c1.7,2.9,3.3,5.9,4.7,8.9c1,2.2,1.9,4.5,1.7,6.9c-0.1,1.2-0.4,2.4-1,3.5C350.8,402,358.9,406.4,360.6,404.5z"/>
		</g>
		<g>
			<path class="st7" d="M380.5,288.2c-12.7,15.6-26,30.6-42.3,42.2c-6.5,4.6-13.5,8.7-21.2,11c-5.3,1.6-11,2.3-16.5,1.7l-10.2,11.9
				l0,0c8.5,7.8,20.6,9.1,29.3,3.2l79.1-53.7L380.5,288.2z"/>
			<path class="st8" d="M317,341.4c7.7-2.3,14.7-6.4,21.2-11c16.3-11.6,29.6-26.7,42.3-42.2l-1.3-1.2c-9.5-8.7-23.6-8.2-31.4,0.9
				l-47.3,55.3C306,343.8,311.7,343.1,317,341.4z"/>
		</g>
		<g>
			<path class="st8" d="M422.8,378.7c8.2-7.7,16.4-15.4,24.5-23.2c-0.8-4.9-3.3-9.6-7.4-13.3l-19.5-17.7L376,405.4
				c7-0.3,14-2.5,20.2-5.8C406.2,394.3,414.6,386.5,422.8,378.7z"/>
			<path class="st7" d="M447.3,355.5c-8.2,7.7-16.4,15.4-24.5,23.2c-8.2,7.7-16.6,15.6-26.5,20.9c-6.2,3.3-13.2,5.5-20.2,5.8
				l-1.6,2.9c-5,9.2-2.5,21.1,6,28.8l61.5-63.6C446.7,368.7,448.5,362,447.3,355.5z"/>
		</g>
		<path class="st9" d="M375.8,386.4c1.5,0.7,3,1.2,4.3,1.6C378.8,387.6,377.3,387.1,375.8,386.4z"/>
		<path class="st9" d="M367.4,381.6c1.2,0.8,2.3,1.5,3.5,2.2C369.8,383.1,368.6,382.4,367.4,381.6z"/>
		<path class="st9" d="M370.9,383.8c1.1,0.7,2.2,1.3,3.3,1.8C373.2,385.1,372.1,384.5,370.9,383.8z"/>
		<path class="st10" d="M349.7,366.2c-6.2-6.8-10.3-13.3-11.2-17.7l-4.6,6.2c-1.7,2.2,0.1,7.2,4.2,13.1c1.8-0.7,3.8-1.2,5.7-1.4
			C345.8,366.1,347.7,366.2,349.7,366.2z"/>
		<path class="st6" d="M375.8,386.4c-0.5-0.2-1-0.5-1.6-0.8c-1.1-0.5-2.2-1.1-3.3-1.8c-1.1-0.7-2.3-1.4-3.5-2.2
			c-3.6-2.4-7.3-5.3-11-8.7c-2.4-2.2-4.7-4.5-6.7-6.7c-2,0-3.9,0-5.9,0.2c-2,0.2-3.9,0.7-5.7,1.4c2.9,4,6.8,8.5,11.5,12.7
			c11.6,10.6,23.8,16.5,27.2,13.2l5.7-5.2c-0.8-0.1-1.6-0.3-2.5-0.5C378.8,387.6,377.3,387.1,375.8,386.4z"/>
		<path class="st11" d="M357.7,365.6c5.4-1.2,9.9-4.8,14.1-8.3c27.2-22.6,52.4-47.7,75.3-74.8c-1.6-1.3-3.2-2.6-4.7-4
			c-8.5-7.8-14.9-16.4-18.4-23.6c-19.1,12-35.1,26.6-47.1,42.6l-38.3,50.9c0.9,4.5,5.1,11,11.2,17.7
			C352.4,366.2,355.1,366.2,357.7,365.6z"/>
		<path class="st12" d="M467.6,294.6c-6.2-2.3-13.4-6.4-20.5-12c-22.8,27.1-48,52.1-75.3,74.8c-4.2,3.5-8.7,7.1-14.1,8.3
			c-2.6,0.6-5.3,0.6-8,0.6c2,2.2,4.3,4.5,6.7,6.7c3.7,3.4,7.4,6.3,11,8.7c1.2,0.8,2.3,1.5,3.5,2.2c1.1,0.7,2.2,1.3,3.3,1.8
			c0.5,0.3,1.1,0.5,1.6,0.8c1.5,0.7,3,1.2,4.3,1.6c0.9,0.2,1.7,0.4,2.5,0.5l47.1-42.9C444.4,332,457.5,314.7,467.6,294.6z"/>
		<path class="st10" d="M447.1,282.5c14.5-17.2,28.1-35.2,40.6-54c-23.5,5.4-45.1,14.6-63.7,26.3c3.5,7.2,9.9,15.8,18.4,23.6
			C443.9,279.9,445.5,281.3,447.1,282.5z"/>
		<path class="st6" d="M467.6,294.6c9.9-19.7,17.1-42.1,20.2-66.1v0h0c-0.1,0-0.1,0-0.2,0c-12.5,18.7-26.1,36.8-40.6,54
			C454.2,288.2,461.4,292.3,467.6,294.6z"/>
		<path class="st13" d="M438.2,314.2c-0.6-6.1-3.4-11.9-8.2-16.3c-10.5-9.5-26.7-8.8-36.2,1.7c-3.6,3.9-5.7,8.7-6.4,13.6
			c-1.2,8.1,1.6,16.7,8.1,22.7c10.5,9.5,26.7,8.8,36.2-1.7C436.8,328.4,439,321.2,438.2,314.2z"/>
		<g>
			<path class="st10" d="M416.6,320.6c8.8-1.4,16.7-6.5,22.6-13.2c-0.6-6.1-3.4-11.9-8.2-16.3c-10.5-9.5-26.7-8.8-36.2,1.7
				c-3.6,3.9-5.7,8.7-6.4,13.6c1,1.9,2,3.7,3.4,5.4C397.4,318.9,407.4,322,416.6,320.6z"/>
			<path class="st6" d="M439.2,307.4c-5.9,6.7-13.8,11.9-22.6,13.2c-9.1,1.4-19.2-1.7-24.9-8.9c-1.3-1.7-2.4-3.5-3.4-5.4
				c-1.2,8.1,1.6,16.7,8.1,22.7c10.5,9.5,26.7,8.8,36.2-1.7C437.8,321.7,439.9,314.4,439.2,307.4z"/>
		</g>
		<g>
			<path class="st14" d="M430.4,299.1L397,299c-0.8,1.2-1.4,2.4-1.9,3.6l37.2,0.1C431.8,301.4,431.2,300.2,430.4,299.1z"/>
			<path class="st15" d="M432.3,302.7l-37.2-0.1c-0.7,1.7-1.1,3.5-1.3,5.3l39.8,0.1C433.4,306.2,433,304.4,432.3,302.7z"/>
			<path class="st15" d="M427.1,295.2c-8.2-7.4-20.8-6.8-28.3,1.3c-0.7,0.8-1.3,1.6-1.9,2.4l33.4,0.1
				C429.5,297.7,428.4,296.4,427.1,295.2z"/>
			<path class="st14" d="M424.9,326.6l-22.4-0.1C409.2,331.2,418.1,331.1,424.9,326.6z"/>
			<path class="st15" d="M428.5,323.5c1.5-1.7,2.7-3.5,3.5-5.5l-36.7-0.1c1.1,2.5,2.7,4.9,4.9,6.9c0.7,0.6,1.4,1.2,2.2,1.7l22.4,0.1
				C426.2,325.7,427.4,324.7,428.5,323.5z"/>
			<path class="st14" d="M433.6,308l-39.8-0.1c-0.4,3.4,0.1,6.9,1.5,10L432,318C433.4,314.8,433.9,311.4,433.6,308z"/>
		</g>
	</g>
</g>
<g>
	
		<ellipse transform="matrix(0.7071 -0.7071 0.7071 0.7071 -96.3256 32.9434)" class="st16" cx="-8.4" cy="132.7" rx="16.9" ry="16.9"/>
	
		<ellipse transform="matrix(0.3923 -0.9198 0.9198 0.3923 -67.2779 951.9268)" class="st16" cx="686.8" cy="526.9" rx="23.4" ry="23.4"/>
	
		<ellipse transform="matrix(0.8747 -0.4846 0.4846 0.8747 -137.6705 370.5278)" class="st16" cx="647.9" cy="451.6" rx="13.9" ry="13.9"/>
	<path class="st16" d="M501.4,443c0,2.5-2,4.5-4.5,4.5c-2.5,0-4.5-2-4.5-4.5c0-2.5,2-4.5,4.5-4.5C499.4,438.5,501.4,440.5,501.4,443
		z"/>
	<path class="st16" d="M118.8,228.2c0,4-3.3,7.2-7.3,7.2c-4,0-7.2-3.3-7.2-7.3c0-4,3.3-7.2,7.3-7.2
		C115.5,220.9,118.8,224.2,118.8,228.2z"/>
	<path class="st16" d="M54,132c0,6.3-5.1,11.4-11.5,11.4s-11.4-5.1-11.4-11.5c0-6.3,5.1-11.4,11.5-11.4C48.9,120.6,54,125.7,54,132z
		"/>
	
		<ellipse transform="matrix(0.6853 -0.7283 0.7283 0.6853 -210.5637 440.9645)" class="st4" cx="404.9" cy="464.1" rx="16.9" ry="16.9"/>
	<path class="st4" d="M143.9,373.1c0.1,2.5-1.9,4.5-4.4,4.6c-2.5,0.1-4.5-1.9-4.6-4.4c-0.1-2.5,1.9-4.5,4.4-4.6
		C141.8,368.7,143.8,370.6,143.9,373.1z"/>
	
		<ellipse transform="matrix(0.3753 -0.9269 0.9269 0.3753 -173.1006 164.2737)" class="st17" cx="35.3" cy="210.6" rx="12.4" ry="12.4"/>
	<path class="st17" d="M62,328.5c0.1,2.9-2.2,5.2-5,5.3c-2.9,0.1-5.2-2.2-5.3-5c-0.1-2.9,2.2-5.2,5-5.3
		C59.6,323.4,62,325.6,62,328.5z"/>
	<path class="st17" d="M491.5,533.7c0.2,6.8-5.2,12.5-12.1,12.7s-12.5-5.2-12.7-12.1c-0.2-6.8,5.2-12.5,12.1-12.7
		C485.6,521.4,491.3,526.8,491.5,533.7z"/>
	
		<ellipse transform="matrix(0.2511 -0.968 0.968 0.2511 -57.8298 914.6639)" class="st17" cx="562.2" cy="494.7" rx="4.5" ry="4.5"/>
	
		<ellipse transform="matrix(0.3711 -0.9286 0.9286 0.3711 -108.6085 906.4247)" class="st17" cx="614.9" cy="533.4" rx="6.2" ry="6.2"/>
	
		<ellipse transform="matrix(0.9788 -0.205 0.205 0.9788 -89.8724 29.1332)" class="st17" cx="95.7" cy="448.3" rx="17.2" ry="17.2"/>
	<g>
		<path class="st16" d="M671.8,575.9c4.5-43.5-27-82.5-70.6-87c-5.5-0.6-11-0.6-16.3,0c-3.6-15.4-16.5-27.5-33.1-29.2
			c-13.7-1.4-26.5,4.6-34.2,14.8c-15.1-0.2-29.2,5.5-39.8,15.2c-3.5-3.8-8.3-6.5-13.9-7c-11.4-1.2-21.7,6.6-23.8,17.7
			c-4.8-4.8-11.2-8.1-18.5-8.8c-7.5-0.8-14.7,1.2-20.5,5.1c-6-9.5-16.1-16.3-28.2-17.5c-16.2-1.7-31.1,7.1-38,20.9
			c-7.3-6.3-16.6-10.5-26.9-11.6c-12.3-1.3-23.9,2.1-33.3,8.6c-2.9-7.5-9.7-13.1-18.2-14c-10.2-1.1-19.5,5-22.9,14.2
			c-6.1-7-14.8-11.9-24.7-12.9c-6.5-0.7-12.9,0.3-18.6,2.7c-5.2-12.3-16.8-21.5-31-23c-4.8-0.5-9.5-0.1-13.9,1.1
			c-8.9-16.5-23.5-29.6-41.4-36.4c1.4-2.7,2.4-5.8,2.8-9c1.1-10.7-4.8-20.6-14-25c7.3-6.1,12.4-15,13.4-25.2
			c1.4-13.8-4.7-26.7-15.1-34.4c10.4-0.7,19.1-8.9,20.3-19.6c0.9-8.3-3-16-9.5-20.4c4.2-3.5,7.1-8.6,7.7-14.5
			c1.3-12.1-7.5-22.9-19.6-24.1c-2.5-0.3-5-0.1-7.3,0.5c2.3-4.3,3.8-9.1,4.3-14.2c1.9-18.2-9.1-34.7-25.6-40.4
			c0.3-1.4,0.6-2.8,0.8-4.3c1.8-16.9-10.5-32-27.4-33.8c-16.9-1.8-32,10.5-33.8,27.4c-0.4,3.6-0.1,7.1,0.7,10.4l-93.5,26.5
			L-51,608.8l650.9,60.8l-2.7-22.8C635.5,644.9,667.7,615.3,671.8,575.9z"/>
		<path class="st4" d="M719.3,556.7c0.7-18.8-14-34.6-32.8-35.3c-7.7-0.3-14.8,2-20.7,6.1c-11.2-10.1-25.9-16.5-42.1-17.1
			c-22-0.8-41.9,9.2-54.5,25.2c-10.5-8.1-23.6-13.1-37.9-13.6c-2.3-0.1-4.7,0-7,0.1c-1.2-9.3-9-16.7-18.7-17
			c-6.9-0.2-13.1,3.1-16.7,8.4c-5.9-6.2-14.2-10.2-23.4-10.5c-8.1-0.3-15.6,2.3-21.6,6.8c-5.7-4.9-13-8-21.1-8.3
			c-18-0.7-33.2,12.7-35.1,30.3c-0.7-0.4-1.5-0.7-2.2-1.1c-8.1-3.4-16.9-3.4-24.6-0.7c-1.2-11.5-10.7-20.7-22.6-21.2
			c-6.5-0.2-12.5,2.2-16.9,6.3c-5.6-4.5-12.6-7.4-20.3-7.6c-14.4-0.5-27,8-32.4,20.4c-4.9-2.5-10.3-4-16.1-4.2
			c-4.5-0.2-8.9,0.5-13,1.8c-6.9-21.8-26.9-37.9-51-38.8c-8.8-0.3-17.2,1.4-24.8,4.8c-0.8-9.3-8.4-16.8-17.9-17.1c-1,0-2,0-3,0.2
			c-4-8.1-12.1-13.8-21.7-14.1c-2.1-0.1-4.1,0.1-6,0.5c-1.3-11.8-8.5-21.8-18.8-26.9c3.8-10.3,2.2-21.3-3.2-29.9
			c2.5-2.4,4.2-5.7,4.3-9.5c0.2-6.3-3.9-11.8-9.7-13.5c3.8-4,6.2-9.4,6.5-15.3c0.3-8.7-4.1-16.5-11-20.8c4.9-5.7,8-13,8.3-21.1
			c0.5-13.4-6.8-25.2-17.8-31.2c2.9-3.3,4.8-7.6,4.9-12.3c0.4-10.8-8.1-19.9-18.9-20.3c-0.4,0-0.9,0-1.3,0c0.9-3.1,1.5-6.4,1.6-9.8
			c0.6-16.3-9.1-30.6-23.3-36.6c0.8-3.8,1.4-7.8,1.5-11.9c1.3-36.7-27.3-67.4-64-68.8c-36.7-1.3-67.4,27.3-68.8,64
			c-1.3,36.7,27.3,67.4,64,68.8c3.5,0.1,7,0,10.4-0.4L-39.2,505l165.5,162.9l550.4-11.6l12.7-67.1
			C705.7,587.3,718.6,573.7,719.3,556.7z"/>
		<path class="st18" d="M562.3,609.6c4.7-37.4-21.8-71.6-59.3-76.3c-4.8-0.6-9.5-0.7-14-0.3c-2.8-13.3-13.7-24-28-25.8
			c-11.8-1.5-22.9,3.5-29.8,12.2c-13.1-0.4-25.3,4.3-34.6,12.4c-2.9-3.4-7.1-5.7-11.9-6.3c-9.8-1.2-18.8,5.3-20.9,14.8
			c-4.1-4.2-9.5-7.2-15.8-8c-6.5-0.8-12.7,0.8-17.7,4.1c-5-8.3-13.6-14.3-24-15.6c-14-1.8-27,5.5-33.1,17.3
			c-6.2-5.5-14.1-9.3-23-10.5c-10.6-1.3-20.7,1.4-28.9,6.8c-2.3-6.5-8.1-11.5-15.5-12.4c-8.8-1.1-16.9,4-20,11.9
			c-5.1-6.2-12.5-10.5-21.1-11.6c-5.6-0.7-11.1,0.1-16.1,2c-4.3-10.7-14.1-18.8-26.3-20.4c-4.2-0.5-8.2-0.2-12.1,0.7
			c-7.4-14.4-19.7-25.9-35.1-32.2c1.3-2.3,2.2-4.9,2.5-7.7c1.2-9.2-3.8-17.8-11.6-21.8c6.4-5.1,10.9-12.7,12-21.5
			c1.5-11.9-3.6-23.1-12.4-30c9-0.5,16.7-7.3,17.8-16.5c0.9-7.1-2.3-13.9-7.8-17.8c3.7-3,6.3-7.3,6.9-12.4
			c1.3-10.4-6.1-19.9-16.4-21.2c-2.2-0.3-4.3-0.1-6.3,0.3c2.1-3.6,3.5-7.7,4-12.2c2-15.6-7.2-30.1-21.4-35.3
			c0.3-1.2,0.6-2.4,0.7-3.7c1.8-14.5-8.5-27.8-23-29.6c-14.5-1.8-27.8,8.5-29.6,23c-0.4,3.1-0.2,6.1,0.4,9l-81.1,21.1l28.2,328.6
			l560.2,64.2l-1.9-19.7C529.8,668.4,558.1,643.5,562.3,609.6z"/>
		<path class="st17" d="M539.7,612.3c2.1-15.6-8.8-29.9-24.3-32c-6.3-0.9-12.5,0.4-17.7,3.3c-8.5-9.3-20.1-15.9-33.6-17.7
			c-18.2-2.5-35.5,4.2-47.4,16.5c-8.1-7.6-18.5-12.8-30.4-14.4c-1.9-0.3-3.9-0.4-5.8-0.5c-0.2-7.8-6.1-14.6-14.1-15.7
			c-5.7-0.8-11.1,1.5-14.6,5.6c-4.4-5.6-10.9-9.6-18.6-10.7c-6.7-0.9-13.1,0.6-18.5,3.8c-4.3-4.5-10.1-7.7-16.8-8.6
			c-14.9-2-28.6,7.9-31.6,22.3c-0.6-0.4-1.2-0.7-1.8-1.1c-6.5-3.5-13.7-4.2-20.4-2.6c0-9.7-7.2-18.1-17-19.4
			c-5.4-0.7-10.6,0.8-14.6,3.8c-4.2-4.2-9.8-7.1-16.2-8c-11.9-1.6-23.1,4.4-28.6,14.3c-3.8-2.5-8.2-4.2-13.1-4.8
			c-3.7-0.5-7.4-0.3-10.9,0.4c-3.9-18.7-19.2-33.7-39.2-36.4c-7.3-1-14.4-0.2-21,2c0.1-7.8-5.6-14.6-13.5-15.7
			c-0.8-0.1-1.7-0.1-2.5-0.1c-2.6-7-8.9-12.5-16.9-13.5c-1.7-0.2-3.4-0.2-5-0.1c-0.1-9.9-5.3-18.8-13.4-23.8
			c4-8.2,3.6-17.5-0.2-25.1c2.3-1.8,4-4.4,4.4-7.5c0.7-5.2-2.3-10.1-6.9-12c3.5-3,6-7.3,6.6-12.2c1-7.2-2.1-14-7.4-18.2
			c4.5-4.3,7.7-10.1,8.6-16.8c1.5-11.1-3.6-21.5-12.3-27.4c2.7-2.5,4.6-5.9,5.1-9.8c1.2-8.9-5.1-17.2-14-18.4
			c-0.4,0-0.7-0.1-1.1-0.1c1-2.5,1.8-5.2,2.2-8c1.8-13.5-5.1-26.2-16.4-32.4c1-3.1,1.8-6.4,2.2-9.7c4.1-30.3-17.2-58.3-47.5-62.4
			c-30.3-4.1-58.3,17.2-62.4,47.5c-4.1,30.3,17.2,58.3,47.5,62.4c2.9,0.4,5.8,0.6,8.7,0.5l-35.5,197.5L38,656l458.2,35.5l16-54.7
			C525.9,636.6,537.8,626.3,539.7,612.3z"/>
		<path class="st4" d="M153.3,413.4c0.1,4.4-3.4,8-7.7,8.1c-4.4,0.1-8-3.4-8.1-7.7c-0.1-4.4,3.4-8,7.7-8.1
			C149.5,405.6,153.1,409,153.3,413.4z"/>
		<ellipse transform="matrix(0.2348 -0.972 0.972 0.2348 -244.3186 601.5933)" class="st4" cx="260" cy="456" rx="4.5" ry="4.5"/>
		<path class="st17" d="M172.4,513.3c0.1,4.2-3.2,7.7-7.4,7.8s-7.7-3.2-7.8-7.4c-0.1-4.2,3.2-7.7,7.4-7.8
			C168.8,505.8,172.3,509.1,172.4,513.3z"/>
		<path class="st17" d="M216,504.6c-0.1-3.2-2.8-5.8-6-5.7c-3.2,0.1-5.8,2.8-5.7,6s2.8,5.8,6,5.7C213.5,510.6,216.1,507.9,216,504.6
			z"/>
		<rect x="2.7" y="60" class="st9" width="813.3" height="507.5"/>
	</g>
</g>
<g>
	<path class="st19" d="M1829.3,1328.5c-6.7-63.8,39.7-121,103.5-127.7c8.1-0.8,16.1-0.8,23.9,0c5.2-22.5,24.2-40.3,48.5-42.8
		c20.1-2.1,38.8,6.8,50.2,21.7c22.2-0.3,42.8,8.1,58.3,22.3c5.1-5.6,12.2-9.5,20.4-10.3c16.8-1.8,31.9,9.7,35,25.9
		c7.1-7.1,16.5-11.8,27.2-13c11-1.2,21.5,1.8,30,7.5c8.8-13.9,23.7-23.8,41.3-25.7c23.8-2.5,45.6,10.4,55.7,30.6
		c10.7-9.2,24.3-15.4,39.4-17c18-1.9,35.1,3,48.9,12.7c4.2-11,14.2-19.3,26.7-20.6c15-1.6,28.6,7.4,33.5,20.9
		c8.9-10.3,21.7-17.4,36.3-18.9c9.6-1,18.9,0.5,27.2,4c7.7-18.1,24.6-31.5,45.5-33.7c7.1-0.7,14-0.1,20.5,1.7
		c13-24.2,34.5-43.4,60.8-53.4c-2.1-4-3.5-8.5-4-13.2c-1.6-15.7,7-30.2,20.5-36.6c-10.7-9-18.1-21.9-19.7-37
		c-2.1-20.3,6.9-39.2,22.2-50.5c-15.3-1.1-28.1-13-29.7-28.8c-1.3-12.2,4.4-23.5,13.9-30c-6.2-5.2-10.4-12.6-11.3-21.3
		c-1.8-17.7,11-33.6,28.7-35.4c3.7-0.4,7.3-0.1,10.8,0.7c-3.4-6.3-5.6-13.3-6.4-20.8c-2.8-26.6,13.4-50.9,37.6-59.3
		c-0.5-2-0.9-4.1-1.1-6.3c-2.6-24.8,15.4-46.9,40.1-49.5c24.8-2.6,46.9,15.4,49.5,40.1c0.5,5.2,0.2,10.4-1,15.2l137.1,38.8
		l-59.7,557.6l-954.7,89.2l3.9-33.4C1882.6,1429.5,1835.3,1386.1,1829.3,1328.5z"/>
	<path class="st20" d="M1759.7,1300.3c-1-27.6,20.5-50.7,48.1-51.7c11.2-0.4,21.7,2.9,30.3,8.9c16.4-14.9,38-24.3,61.8-25.1
		c32.2-1.2,61.4,13.5,80,37c15.5-11.8,34.6-19.2,55.6-19.9c3.4-0.1,6.8-0.1,10.2,0.2c1.8-13.7,13.2-24.4,27.4-24.9
		c10.1-0.4,19.2,4.6,24.6,12.3c8.7-9.1,20.8-14.9,34.3-15.4c11.9-0.4,22.9,3.3,31.7,9.9c8.3-7.2,19-11.7,30.9-12.2
		c26.3-1,48.6,18.7,51.4,44.5c1.1-0.5,2.2-1.1,3.3-1.5c12-5,24.8-5,36.1-1c1.7-16.9,15.7-30.4,33.1-31.1c9.5-0.3,18.3,3.2,24.8,9.2
		c8.1-6.7,18.4-10.8,29.8-11.2c21.1-0.8,39.6,11.7,47.6,29.9c7.1-3.7,15.1-5.9,23.7-6.2c6.6-0.2,13.1,0.7,19,2.6
		c10.1-32,39.4-55.6,74.9-56.9c12.9-0.5,25.2,2.1,36.3,7.1c1.1-13.7,12.3-24.6,26.3-25.1c1.5-0.1,2.9,0,4.4,0.2
		c5.8-11.9,17.8-20.2,31.9-20.7c3-0.1,6,0.2,8.8,0.8c1.8-17.2,12.5-32,27.5-39.4c-5.5-15-3.3-31.2,4.8-43.9
		c-3.7-3.5-6.2-8.4-6.4-13.9c-0.3-9.3,5.7-17.3,14.2-19.8c-5.6-5.9-9.2-13.8-9.5-22.5c-0.5-12.8,6.1-24.1,16.1-30.5
		c-7.2-8.3-11.7-19-12.2-30.9c-0.7-19.6,10-37,26.2-45.7c-4.3-4.8-7-11.1-7.2-18c-0.6-15.8,11.8-29.2,27.7-29.7c0.6,0,1.3,0,1.9,0
		c-1.4-4.6-2.2-9.4-2.4-14.4c-0.9-23.9,13.4-44.9,34.2-53.7c-1.2-5.6-2-11.4-2.2-17.4c-1.9-53.8,40.1-98.9,93.8-100.9
		c53.8-1.9,98.9,40.1,100.9,93.8c1.9,53.8-40.1,98.9-93.8,100.9c-5.2,0.2-10.3,0-15.3-0.6l28,351.5l-242.7,239l-807.3-17l-18.6-98.4
		C1779.6,1345.1,1760.6,1325.2,1759.7,1300.3z"/>
	<path class="st21" d="M1989.9,1377.9c-6.9-54.9,32-105.1,86.9-112c7-0.9,13.9-1,20.6-0.5c4.1-19.5,20.1-35.2,41-37.8
		c17.3-2.2,33.6,5.1,43.7,17.8c19.1-0.6,37.1,6.2,50.7,18.2c4.3-4.9,10.4-8.4,17.4-9.3c14.4-1.8,27.6,7.8,30.6,21.7
		c6-6.2,14-10.5,23.2-11.7c9.5-1.2,18.6,1.1,26,6c7.3-12.2,20-21,35.2-22.9c20.5-2.6,39.5,8.1,48.6,25.4
		c9.1-8.1,20.7-13.7,33.7-15.3c15.5-1.9,30.3,2,42.4,10c3.4-9.5,11.9-16.9,22.7-18.2c12.9-1.6,24.8,5.9,29.3,17.4
		c7.5-9.1,18.4-15.4,31-17c8.3-1,16.3,0.1,23.5,2.9c6.3-15.7,20.7-27.6,38.6-29.9c6.1-0.8,12.1-0.3,17.7,1.1
		c10.8-21.1,28.9-38,51.5-47.2c-1.9-3.4-3.2-7.2-3.7-11.4c-1.7-13.6,5.5-26.1,17.1-32c-9.4-7.5-16-18.6-17.7-31.5
		c-2.2-17.5,5.3-33.9,18.2-44c-13.2-0.7-24.4-10.7-26.1-24.3c-1.3-10.5,3.4-20.3,11.4-26.1c-5.4-4.4-9.2-10.7-10.1-18.1
		c-1.9-15.2,8.9-29.1,24.1-31c3.2-0.4,6.3-0.2,9.3,0.4c-3-5.4-5.1-11.4-5.9-17.8c-2.9-22.9,10.6-44.1,31.4-51.8
		c-0.5-1.8-0.8-3.6-1.1-5.4c-2.7-21.3,12.4-40.7,33.7-43.4c21.3-2.7,40.7,12.4,43.4,33.7c0.6,4.5,0.3,8.9-0.6,13.1l118.9,31
		l-41.4,481.9l-821.7,94.2l2.8-28.8C2037.7,1464.1,1996.1,1427.5,1989.9,1377.9z"/>
	<path class="st22" d="M2023.1,1381.7c-3.1-22.8,12.9-43.8,35.7-46.9c9.3-1.3,18.3,0.7,25.9,4.9c12.4-13.7,29.5-23.3,49.3-25.9
		c26.7-3.6,52.1,6.2,69.5,24.2c11.9-11.1,27.2-18.8,44.5-21.1c2.8-0.4,5.7-0.6,8.5-0.7c0.4-11.5,8.9-21.4,20.7-23
		c8.4-1.1,16.3,2.2,21.4,8.2c6.5-8.3,16-14.1,27.2-15.6c9.8-1.3,19.3,0.9,27.1,5.6c6.3-6.7,14.9-11.3,24.7-12.6
		c21.8-3,41.9,11.5,46.4,32.7c0.8-0.5,1.7-1.1,2.6-1.6c9.5-5.2,20.1-6.2,29.9-3.8c0-14.2,10.5-26.6,25-28.5
		c7.9-1.1,15.5,1.2,21.4,5.6c6.2-6.2,14.4-10.5,23.8-11.8c17.5-2.4,33.9,6.5,42,20.9c5.6-3.6,12.1-6.1,19.2-7.1
		c5.5-0.7,10.9-0.5,16,0.6c5.8-27.4,28.2-49.4,57.5-53.4c10.7-1.4,21.1-0.3,30.7,2.9c-0.2-11.4,8.2-21.5,19.8-23
		c1.2-0.2,2.4-0.2,3.6-0.2c3.8-10.3,13.1-18.3,24.8-19.9c2.5-0.3,5-0.3,7.4-0.1c0.1-14.5,7.8-27.6,19.6-35
		c-5.8-12-5.3-25.6,0.4-36.8c-3.4-2.6-5.8-6.5-6.4-11c-1-7.7,3.3-14.8,10.2-17.6c-5.1-4.4-8.7-10.7-9.7-17.9
		c-1.4-10.6,3.1-20.6,10.9-26.7c-6.7-6.3-11.3-14.8-12.6-24.7c-2.2-16.2,5.3-31.6,18-40.1c-4-3.6-6.7-8.6-7.5-14.4
		c-1.8-13.1,7.4-25.2,20.5-27c0.5-0.1,1-0.1,1.6-0.1c-1.5-3.7-2.6-7.6-3.2-11.7c-2.7-19.8,7.4-38.4,24-47.5
		c-1.5-4.6-2.6-9.3-3.3-14.3c-6-44.5,25.2-85.5,69.7-91.5c44.5-6,85.5,25.2,91.5,69.7c6,44.5-25.2,85.5-69.7,91.5
		c-4.3,0.6-8.6,0.8-12.8,0.7l52.1,289.7l-182,218.4l-672,52.1l-23.5-80.2C2043.3,1417.4,2025.9,1402.3,2023.1,1381.7z"/>
	<rect x="1631" y="552" transform="matrix(-1 -4.489754e-11 4.489754e-11 -1 4462 1854)" class="st9" width="1200" height="750"/>
</g>
<g>
	<g>
		<path class="st16" d="M1779.8,1372.9c0,0-5.7-11.4-10.4-16.3c-4.6-4.9-9.3,3.9-7.1,8.2c0,0-6.3-6.1-11.2-7.5
			c-17.3-5-28.1,21.4-6.9,31.4c16.3,7.1,23.5,9.6,23.5,9.6L1779.8,1372.9z"/>
	</g>
	<path class="st23" d="M1776.4,1380.1c-0.7-4.7-1.2-8.3-1.2-8.3s-12.2,16.9-15,16.3c-13.8-2.1-24.5-12.7-27.6-16
		c-0.1,6.2,3.2,12.8,11.7,16.8c16.3,7.1,23.5,9.6,23.5,9.6L1776.4,1380.1z"/>
	<g>
		<path class="st16" d="M1945.3,1415.3c0,0,2.6,13.2,5.4,19.3c2.8,6.1,10-0.8,9.4-5.5c0,0,3.1,7.1,7.3,10
			c14.8,10.2,33.5-11.3,16.6-27.5c-13.2-11.9-19.2-16.6-19.2-16.6L1945.3,1415.3z"/>
	</g>
	<path class="st23" d="M1950.7,1434.6c2.5,5.4,8.3,0.7,9.3-3.7c-1,1.5-3.3,1.8-5.2-0.2c-1.9-2-2-17.3-2-17.3c-0.4-0.9-3.6,0-6.5,1
		l-0.9,0.9C1945.3,1415.3,1947.9,1428.5,1950.7,1434.6z"/>
	<g>
		<path class="st16" d="M1775.9,1310c0,0-12.9-1.4-16.2,6.9c-3.4,8.3,7.1,46.1,16.1,46.7c6.1,0.1,13.4-3.5,13.4-3.5L1775.9,1310z"/>
	</g>
	<g>
		<path class="st16" d="M1906.5,1275.5c0,0,10.5-7.6,17.5-2c7,5.6,16.6,43.5,9.1,48.6c-5.2,3.1-13.4,3.5-13.4,3.5L1906.5,1275.5z"/>
	</g>
	<path class="st23" d="M1927.1,1312.5c-0.3-15.7-10.3-33.5-14.4-40.1c-3.5,1.2-6.2,3.1-6.2,3.1l13.2,50.1c0,0,8.2-0.4,13.4-3.5
		c1.8-1.2,2.6-4.3,2.7-8.4C1931.6,1314.8,1927.3,1315.2,1927.1,1312.5z"/>
	<path class="st23" d="M1776.2,1352.3c-7.5-13.8-7.6-34.2-7.3-42c3.7-0.7,6.9-0.4,6.9-0.4l13.2,50.1c0,0-7.4,3.7-13.4,3.5
		c-2.1-0.2-4.4-2.5-6.5-6C1773.5,1356.6,1777.4,1354.8,1776.2,1352.3z"/>
	<g>
		<path class="st24" d="M1844.1,1312.8L1844.1,1312.8c-37.6,9.9-60,48.4-50.1,86l16.3,61.5c4,15.1,19.5,24.1,34.6,20.1l81.4-21.5
			c15.1-4,24.1-19.5,20.1-34.6l-16.3-61.5C1920.2,1325.3,1881.6,1302.9,1844.1,1312.8z"/>
		<g>
			<path class="st25" d="M1930.5,1364.4c-21.7,18.1-31,47.2-23.8,74.6l6.2,23.5l13.3-3.5c15.1-4,24.1-19.5,20.1-34.6L1930.5,1364.4
				L1930.5,1364.4z"/>
			<path class="st25" d="M1794.4,1400.3L1794.4,1400.3l15.9,60c4,15.1,19.5,24.1,34.6,20.1l13.3-3.5l-6.2-23.5
				C1844.7,1426,1822.3,1405.3,1794.4,1400.3z"/>
		</g>
		<path class="st26" d="M1896.7,1319.6c8.7,8.6,15.3,19.5,18.6,32.1l16.3,61.5c4,15.1-5,30.6-20.1,34.6l-81.4,21.5
			c-5.5,1.4-10.9,1.2-15.9-0.5c6.5,9.7,18.7,14.7,30.7,11.6l81.4-21.5c15.1-4,24.1-19.5,20.1-34.6l-16.3-61.5
			C1925,1343.8,1912.6,1328.6,1896.7,1319.6z"/>
	</g>
	<g>
		<path class="st11" d="M1945.3,1415.3l19.5-20.4c-24.7-23.6-46.6-28.9-61.9-28.6c-0.4-1.1-0.6-1.7-0.6-1.7s-11-11.7-42.9-3.2
			c-30.4,8-35.3,22.5-35.7,23.9c-11.2-0.9-26.3-4.1-43.8-12.4l-12.1,25.4c25,11.9,46.5,15.1,61.5,15.4c2.3,10.8,4.9,22.7,7.2,31.5
			c2.1,7.9,5.5,14.7,10.6,19.7c-3.3,12.4-7.4,32-7.4,51.2l31.6-0.1c0-14.4,3.6-31.1,6.7-42.5c3.2-0.4,6.6-1,10.3-2
			c4.1-1.1,7.7-2.4,11-3.8c8.4,8.4,19.8,21.2,27,33.8l27.6-15.5c-9.7-17.2-23.6-32.7-32.6-41.8c1.6-6.5,1.2-13.7-0.8-21.1
			c-2.1-7.8-5.1-17.9-8.2-27.5C1921,1397.4,1932.2,1402.8,1945.3,1415.3z"/>
	</g>
	<g>
		<path class="st11" d="M1916.9,1287.1c-24.9-59.2-87.8-39.8-87.8-39.8s-64.3,14.2-56.7,78c7.6,63.8,65.9,60.2,91.4,53.4
			C1889.4,1371.9,1941.8,1346.3,1916.9,1287.1z"/>
	</g>
	<path class="st24" d="M1916.9,1287.1c-6.3-14.9-14.9-24.8-24.4-31.3c7.3,6.4,13.9,15.1,18.9,27c24.9,59.2-27.5,84.8-53.1,91.6
		c-16.1,4.3-45.4,7.3-66.6-7.3c21.4,19.4,54.5,16.2,72.1,11.6C1889.4,1371.9,1941.8,1346.3,1916.9,1287.1z"/>
	<g>
		<g>
			<path class="st16" d="M1883.4,1452.6c-27.4,7.2-45.4,4-46.1,3.9c-3.8-0.7-6.3-4.4-5.6-8.2c0.7-3.8,4.4-6.3,8.2-5.6
				c0.3,0.1,16,2.7,39.9-3.6c24-6.3,35.6-16.2,35.7-16.3c2.9-2.5,7.4-2.2,9.9,0.7c2.5,2.9,2.3,7.3-0.6,9.9
				C1924.2,1433.8,1910.9,1445.3,1883.4,1452.6z"/>
		</g>
	</g>
	<path class="st23" d="M1923.8,1429.5c-0.6,0.5-13.9,12-41.4,19.3c-27.4,7.2-45.4,4-46.1,3.9c-2.1-0.4-3.7-1.7-4.7-3.3
		c-0.1,3.4,2.3,6.4,5.7,7.1c0.7,0.1,18.7,3.4,46.1-3.9c27.5-7.3,40.8-18.8,41.4-19.3c2.6-2.3,3.1-6,1.4-8.9
		C1926.1,1426.3,1925.3,1428.1,1923.8,1429.5z"/>
	<g class="st27">
		<g>
			<path class="st28" d="M1866.3,1388c-23.8,6.3-42.6,2.2-43.8,2c-2.5-0.6-4.1-3.1-3.5-5.6c0.6-2.5,3.1-4.1,5.6-3.5
				c0.6,0.1,39.6,8.4,74.7-19.9c2-1.6,5-1.3,6.6,0.7c1.6,2,1.3,5-0.7,6.6C1892.1,1378.9,1878.5,1384.8,1866.3,1388z"/>
		</g>
	</g>
	<path class="st16" d="M1822.9,1385.7c0.6,0.1,42.2,7.7,80.3-21.4c1-0.8,2.3-1.1,3.5-1.1c-0.2-0.6-0.4-1.1-0.8-1.6
		c-1.6-2-4.6-2.3-6.6-0.7c-35.1,28.2-74.1,20-74.7,19.9c-2.5-0.6-5,1-5.6,3.5c-0.2,0.7-0.1,1.4,0,2.1
		C1820.1,1385.8,1821.5,1385.5,1822.9,1385.7z"/>
	<g>
		<g>
			<path class="st29" d="M1881.5,1386.9l-9,3.4c-3.4,1.3-6.9,2.2-10.5,2.8l-10.2,1.6c-2.6,0.4-4.2,2.9-3.5,5.4l3.9,14.9
				c0.6,2.2,2.7,3.5,4.9,3.2l10.8-1.7c3.6-0.6,7.1-1.5,10.5-2.8l10.2-3.9c2.1-0.8,3.3-3,2.7-5.2l-3.9-14.9
				C1886.6,1387.3,1884,1385.9,1881.5,1386.9z"/>
		</g>
		<g>
			<path class="st30" d="M1859.3,1401c0.5,1.9-0.6,3.8-2.5,4.2s-3.8-0.6-4.2-2.5c-0.5-1.9,0.6-3.8,2.5-4.2
				C1856.9,1398,1858.8,1399.1,1859.3,1401z"/>
		</g>
		<g>
			<path class="st30" d="M1861.8,1410.2c0.5,1.9-0.6,3.8-2.5,4.2c-1.9,0.5-3.8-0.6-4.2-2.5s0.6-3.8,2.5-4.2
				C1859.4,1407.2,1861.3,1408.3,1861.8,1410.2z"/>
		</g>
		<g>
			<g>
				<path class="st31" d="M1872.7,1400.8c-4.7,1.2-8.2,1.6-8.5,1.6c-1.1,0.1-2.2-0.7-2.3-1.9c-0.1-1.1,0.7-2.2,1.9-2.3
					c0.1,0,9.7-1,18.2-5.4c1-0.5,2.3-0.1,2.8,0.9c0.5,1,0.1,2.3-0.9,2.8C1880.1,1398.6,1876.1,1400,1872.7,1400.8z"/>
			</g>
		</g>
		<g>
			<g>
				<path class="st31" d="M1875,1409.5c-4.7,1.2-8.2,1.6-8.5,1.6c-1.1,0.1-2.2-0.7-2.3-1.9c-0.1-1.1,0.7-2.2,1.9-2.3
					c0.1,0,9.7-1,18.2-5.4c1-0.5,2.3-0.1,2.8,0.9c0.5,1,0.1,2.3-0.9,2.8C1882.4,1407.2,1878.4,1408.6,1875,1409.5z"/>
			</g>
		</g>
	</g>
	<path class="st16" d="M1900.6,1417.1l-4.1-3.2c-0.8-0.6-1.8-0.8-2.8-0.4l-4.8,1.9c-0.9,0.4-1.6,1.2-1.7,2.2l-0.8,5.2
		c-0.1,1,0.3,2,1,2.6l4.1,3.2c0.8,0.6,1.8,0.8,2.8,0.4l4.8-1.9c0.9-0.4,1.6-1.2,1.7-2.2l0.8-5.2
		C1901.8,1418.7,1901.4,1417.7,1900.6,1417.1z"/>
	<path class="st16" d="M1851,1430.2l2-4.8c0.4-0.9,1.2-1.6,2.2-1.7l5.2-0.7c1-0.1,2,0.3,2.6,1.1l3.2,4.1c0.6,0.8,0.8,1.8,0.4,2.8
		l-2,4.8c-0.4,0.9-1.2,1.6-2.2,1.7l-5.2,0.7c-1,0.1-2-0.3-2.6-1.1l-3.2-4.1C1850.8,1432.2,1850.6,1431.2,1851,1430.2z"/>
	<g>
		<g>
			<path class="st32" d="M1907.4,1299c-19-42.8-71.7-26.9-71.7-26.9s-53.6,12.1-49,58.8c4.6,46.6,53,42.4,74.3,36.8
				C1882.3,1362.1,1926.4,1341.9,1907.4,1299z"/>
		</g>
		<path class="st33" d="M1907.4,1299c-5-11.3-12.5-18.5-20.6-23c4.3,4.1,8.1,9.4,11,16c19,42.8-25.1,63-46.4,68.7
			c-13,3.4-36,6.3-53.1-2.5c16.8,17,47,13.6,62.6,9.5C1882.3,1362.1,1926.4,1341.9,1907.4,1299z"/>
		<g>
			<path class="st34" d="M1835.7,1272.1c0,0-2.8,0.6-7,2.2c-1.7,18.3-7.8,52.5-29.5,84.8c5.9,5.6,13.4,8.8,21.2,10.5
				c26.1-40.3,31.2-82,32.2-100.2C1842.8,1270,1835.7,1272.1,1835.7,1272.1z"/>
			<path class="st34" d="M1870.8,1270.4c-1.2,18.4-7.2,61.9-36.5,100.6c5.3,0.1,10.5-0.3,15.2-1c25.2-37.3,31.4-76.5,32.9-96.2
				C1878.6,1272.2,1874.7,1271.1,1870.8,1270.4z"/>
		</g>
	</g>
	<g>
		<path class="st32" d="M1917.6,1451.8c-5.9,1.6-12.8-0.7-17.4-4.5c-7.3-5.9-11.1-16.3-9.6-26.6c0.3-1.9,2.1-3.3,4-3
			c1.9,0.3,3.3,2.1,3,4c-1.1,7.8,1.7,15.7,7,20.1c3.6,2.9,9.6,4.6,13,2.4c1.5-1,2-2.4,2.2-3.4c0.3-1.9-0.2-4-1.4-5.5
			c-0.8-1-2.1-2-3.5-3c-2.8-2-6.2-4.5-7.1-9c-0.6-2.9,0-5.9,1.8-8.4c1.9-2.6,4.8-4.4,8.1-4.8c1.9-0.3,3.7,1.1,4,3
			c0.3,1.9-1.1,3.7-3,4c-1.3,0.2-2.5,0.9-3.2,1.9c-0.4,0.6-0.9,1.6-0.6,2.9c0.4,1.7,1.9,3,4.4,4.8c1.7,1.3,3.5,2.6,4.9,4.4
			c2.4,3.1,3.4,7.2,2.8,11c-0.6,3.4-2.5,6.3-5.3,8.2C1920.2,1450.9,1918.9,1451.4,1917.6,1451.8z"/>
	</g>
	<g>
		<path class="st32" d="M1853.3,1468.7c-1.3,0.4-2.7,0.5-4.1,0.4c-3.4-0.2-6.4-1.8-8.6-4.5c-2.4-3-3.6-7.1-3-10.9
			c0.3-2.3,1.2-4.3,2.1-6.3c1.3-2.8,2-4.6,1.5-6.3c-0.4-1.2-1.3-1.9-2-2.2c-1.1-0.5-2.5-0.6-3.8-0.1c-1.8,0.7-3.9-0.1-4.6-1.9
			c-0.7-1.8,0.1-3.9,1.9-4.6c3-1.2,6.5-1.1,9.4,0.2c2.7,1.3,4.8,3.6,5.7,6.4c1.4,4.4-0.3,8.2-1.7,11.4c-0.7,1.6-1.4,3.1-1.6,4.4
			c-0.3,1.9,0.3,4,1.5,5.5c0.7,0.8,1.8,1.8,3.6,1.9c4.1,0.2,8.4-4.2,10.1-8.5c2.5-6.5,1.1-14.7-3.8-20.9c-1.2-1.5-0.9-3.8,0.6-4.9
			c1.5-1.2,3.7-0.9,4.9,0.6c6.3,8.2,8.2,19.1,4.8,27.8C1864.1,1461.8,1859.2,1467.2,1853.3,1468.7z"/>
	</g>
	<path class="st24" d="M1949,1404.6c0,0-20-20.3-40.9-21.1l4.3,11.9c8.6,2,19.8,7.3,32.9,19.9l3.2-3.4L1949,1404.6z"/>
	<g>
		<g>
			<path class="st35" d="M1946.5,1419.8c-1.5,0.4-3.2,0-4.4-1.1c-1.9-1.8-1.9-4.8-0.1-6.6l19.5-20.4c1.8-1.9,4.8-1.9,6.6-0.1
				c1.9,1.8,1.9,4.8,0.1,6.6l-19.5,20.4C1948.1,1419.2,1947.3,1419.6,1946.5,1419.8z"/>
		</g>
	</g>
	<path class="st23" d="M1990.5,1427.5c-15.2,18.7-30.5,1.6-30.5,1.6s3.1,7.1,7.3,10C1977.4,1446.1,1989.3,1438.3,1990.5,1427.5z"/>
	<path class="st16" d="M1946.1,1380c-10.6-6.9-20.4-10.6-29-12.3c0.1,4.2,1.3,12.5,8.6,15.7
		C1933.5,1386.9,1941.9,1385.3,1946.1,1380z"/>
	<path class="st16" d="M1785.6,1405.6c11.8,4,22.4,6.2,31.6,7.2c-0.5-3.1-2.7-13.3-11.6-15.4
		C1796.7,1395.3,1788.4,1399,1785.6,1405.6z"/>
	<path class="st24" d="M1828.2,1402.4c0,0-33-2.9-53.3-12.7c-0.9-0.4-1.7-0.8-2.6-1l-4.6,9.6c25,11.9,46.5,15.1,61.5,15.4
		C1829.2,1413.7,1828.2,1410.1,1828.2,1402.4z"/>
	<g>
		<g>
			<path class="st35" d="M1768.9,1402.9c-1,0.3-2.2,0.2-3.2-0.3c-2.3-1.1-3.3-3.9-2.2-6.3l12.1-25.4c1.1-2.3,3.9-3.3,6.3-2.2
				c2.3,1.1,3.3,3.9,2.2,6.3l-12.1,25.4C1771.3,1401.6,1770.2,1402.5,1768.9,1402.9z"/>
		</g>
	</g>
	<path class="st24" d="M1921.6,1483.4c-2.3-1.3-19.7-19.7-20.6-21.5c-1-1.8-2.6-0.9-5.1,1.4c-2.5,2.2-15.4,6.9-19,5
		c-3.6-1.9-3.9-0.7-4.1,0c-0.3,0.7-7.6,31.7-7.6,31.7s3-0.1,7.3-0.2c1.3-9.7,3.5-19.1,5.5-26.5c3.2-0.4,6.6-1,10.3-2
		c4.1-1.1,7.7-2.4,11-3.8c5.7,5.7,12.8,13.4,19,21.7C1920.8,1486.4,1922.5,1483.9,1921.6,1483.4z"/>
	<g>
		<path class="st16" d="M1840.5,1495.5c-0.2,1.9-1.1,15.8-1.1,15.8s-16.9-9.8-31-1.7c-14.1,8.1-11.1,27.5-11.1,27.5l73.3,7.7
			l2.3-47.2L1840.5,1495.5z"/>
	</g>
	<g>
		<path class="st16" d="M1943.2,1468.4c1.1,1.6,8.7,13.2,8.7,13.2s9.9-16.9,26.2-16.8c16.2,0.1,23.2,18.4,23.2,18.4l-59.9,42.8
			l-25.3-39.9L1943.2,1468.4z"/>
	</g>
	<g>
		<path class="st32" d="M1941.3,1526.1l59.9-42.8c0,0-1.4-3.6-4.3-7.7l-60.2,43.3L1941.3,1526.1z"/>
	</g>
	<g>
		<path class="st32" d="M1797.3,1537.1l73.3,7.7l0.4-9.1l-73.4-9.4C1796.5,1532.2,1797.3,1537.1,1797.3,1537.1z"/>
	</g>
	<g>
		<path class="st35" d="M1917.2,1490.8c-1.9,0.5-4-0.2-5.1-2c-1.4-2.2-0.8-5.1,1.3-6.5l27.2-17.8c2.2-1.4,5.1-0.8,6.5,1.3
			c1.4,2.2,0.8,5.1-1.3,6.5l-27.2,17.8C1918.2,1490.4,1917.7,1490.6,1917.2,1490.8z"/>
	</g>
	<path class="st36" d="M1947.2,1468.9l-27.2,17.8c-0.4,0.3-0.9,0.5-1.4,0.6c-1.9,0.5-4-0.2-5.1-2c-0.5-0.8-0.8-1.7-0.8-2.5
		c-1.6,1.5-1.9,4-0.7,5.9c1.1,1.7,3.2,2.5,5.1,2c0.5-0.1,0.9-0.3,1.4-0.6l27.2-17.8c1.4-0.9,2.1-2.4,2.1-4
		C1947.7,1468.5,1947.4,1468.7,1947.2,1468.9z"/>
	<g>
		<path class="st35" d="M1874.1,1502.2c-0.5,0.1-1,0.2-1.5,0.1l-32.4-2.1c-2.6-0.2-4.5-2.4-4.4-5c0.2-2.6,2.4-4.5,5-4.4l32.4,2.1
			c2.6,0.2,4.5,2.4,4.4,5C1877.4,1500,1876,1501.7,1874.1,1502.2z"/>
	</g>
	<path class="st36" d="M1874.9,1493.4c0.4,0.8,0.6,1.6,0.6,2.5c-0.1,2.1-1.6,3.7-3.5,4.2c-0.5,0.1-1,0.2-1.5,0.1l-32.4-2.1
		c-0.6,0-1.2-0.2-1.7-0.4c0.7,1.4,2.1,2.4,3.8,2.5l32.4,2.1c0.5,0,1,0,1.5-0.1c1.9-0.5,3.3-2.2,3.5-4.2
		C1877.7,1496,1876.6,1494.2,1874.9,1493.4z"/>
	<path class="st32" d="M1954.2,1508l-7.7-6.4c-3.8-3.2-9.1-3.7-13.5-1.4l-6.1,3.2l1.3,2l5.9-3.1c3.5-1.8,7.8-1.4,10.9,1.2l7.6,6.4
		l5,4.7l1.9-1.4L1954.2,1508z"/>
	<path class="st32" d="M1866.1,1517.9c-4.9,0.2-9.2,3.3-11,7.9l-3.5,9.4l-2.3,7.4l2.4,0.3l2.1-6.9l3.5-9.4c1.4-3.7,4.9-6.2,8.9-6.4
		l5.6-0.2l0.1-2.4L1866.1,1517.9z"/>
</g>
<g>
	<path class="st37" d="M2594.3-61.9c20.4,11.6,44,18.2,69.2,18.2c77.6,0,140.6-62.8,140.6-140.3c0-38-15.1-72.5-39.7-97.7
		c25-9.5,42.8-33.7,42.8-62c0-14.7-4.8-28.3-12.9-39.3c28.9-16.8,48.4-48.1,48.4-83.9c0-53.6-43.6-97.1-97.3-97.1
		c-53.8,0-97.3,43.5-97.3,97.1c0,33.3,16.8,62.6,42.3,80.1c-10,11.6-16,26.6-16,43.1c0,7,1.1,13.8,3.1,20.1
		c-4.6-0.4-9.2-0.7-13.9-0.7c-77.6,0-140.6,62.8-140.6,140.3c0,4.3,0.2,8.5,0.6,12.7c-8.1-2.2-16.5-3.3-25.3-3.3
		c-53.8,0-97.3,43.5-97.3,97.1c-0.2,53.6,43.4,97.1,97.2,97.1C2546.6,19.6,2586.8-15.7,2594.3-61.9L2594.3-61.9z"/>
	<path class="st38" d="M2575.1-300.3c-0.2,0.1-0.2,0.3,0,0.4c1.5,0.5,5.5,2.3,7.6,9.2c0.1,0.2,0.4,0.2,0.4,0c0.4-2.3,2-7.7,7.9-9.1
		c0.2-0.1,0.2-0.4,0-0.4c-2-0.6-6.8-3-8.1-10.6c-0.1-0.3-0.4-0.3-0.4,0C2582.1-308.2,2580.4-302.6,2575.1-300.3z"/>
	<path class="st39" d="M2498.6-342.8c-0.5,2.6-2.2,8.2-7.4,10.5c-0.2,0.1-0.2,0.3,0,0.4c1.5,0.5,5.5,2.3,7.6,9.2
		c0.1,0.2,0.4,0.2,0.4,0c0.4-2.3,2-7.7,7.9-9.1c0.2-0.1,0.2-0.4,0-0.4c-2-0.7-6.8-3-8.1-10.6
		C2498.9-343.1,2498.6-343.1,2498.6-342.8L2498.6-342.8z"/>
	<path class="st40" d="M2650.1-235.3c-0.2,0.1-0.2,0.3,0,0.4c1.5,0.5,5.5,2.3,7.6,9.2c0.1,0.2,0.4,0.2,0.4,0c0.4-2.3,2-7.7,7.9-9.1
		c0.2-0.1,0.2-0.4,0-0.4c-2-0.6-6.8-3-8.1-10.6c-0.1-0.3-0.4-0.3-0.4,0C2657.1-243.2,2655.4-237.6,2650.1-235.3z"/>
	<path class="st41" d="M2714.6-416.9c-0.5,2.6-2.2,8.2-7.4,10.5c-0.2,0.1-0.2,0.3,0,0.4c1.5,0.5,5.5,2.3,7.6,9.2
		c0.1,0.2,0.4,0.2,0.4,0c0.4-2.3,2-7.7,7.9-9.1c0.2-0.1,0.2-0.4,0-0.4c-2-0.6-6.8-3-8.1-10.6
		C2714.9-417.1,2714.6-417.1,2714.6-416.9L2714.6-416.9z"/>
</g>
<g id="Product-Pages">
	<g id="Header---Postman" transform="translate(-289.000000, -269.000000)">
		<g id="_x31_---Header">
			<g id="Hero">
				<g id="Header-BG">
					<g id="Header---Clouds" transform="translate(-202.000000, 37.000000)">
						<g id="Repeating-Clouds" transform="translate(485.000000, 232.000000)">
							<path id="Shape" class="st37" d="M2425.8,505.7c-11.5-12.6-28-20.5-46.3-20.5c-14,0-26.9,4.6-37.3,12.3
								c-19.6-52.8-70.5-90.5-130.1-90.5c-62,0-114.5,40.7-132.4,96.8c-9.3-5.5-20.2-8.7-31.8-8.7c-34.7,0-62.8,28.1-62.8,62.8
								s28.1,62.8,62.8,62.8c14.9,0,28.6-5.2,39.4-14c22.5,46.1,69.9,77.9,124.7,77.9c58.4,0,108.3-36.1,128.8-87.1
								c10.6,8.3,24,13.3,38.6,13.3c10.9,0,21.1-2.8,30-7.6c13.8,46.4,56.8,80.4,107.7,80.4c62.1,0,112.4-50.3,112.4-112.4
								s-50.4-112.4-112.4-112.4C2479.5,458.8,2446.2,477.3,2425.8,505.7z"/>
							<path id="Shape_1_" class="st42" d="M3223.4,476.6c-19.1-50.1-58.6-92.3-112.5-113.3c-94-36.4-198.8,4.1-244.9,90.9
								c-11.1-7.2-23.1-13.4-36-18.4c-101.3-39.4-215.2,10.8-254.6,112.1c-11.2,28.9-15.2,58.7-12.7,87.6l329.6,128.1
								c15.9-14.6,29.6-32.1,40.1-51.9c11.1,7.2,23.1,13.4,36,18.4c45.3,17.6,93.2,17.3,135.8,2.5c19.1,50,58.6,92.1,112.5,113.1
								c101.3,39.4,215.2-10.8,254.6-112.1c39.4-101.2-10.8-215.1-112-254.5C3313.9,461.5,3266,461.9,3223.4,476.6z"/>
							<path id="Shape_2_" class="st37" d="M3054.6,461.5c-42.6,4.5-78.2,29.4-98,64.1c-14.5-12.9-34.2-19.9-55-17.7
								c-15.8,1.7-29.9,8.4-40.8,18.3c-28.5-57.5-90.7-94.2-158.3-87.1c-70.3,7.4-124.9,59.8-138.5,125.5c-11.2-5.1-23.9-7.4-37.1-6
								c-39.3,4.1-67.8,39.4-63.7,78.7c4.1,39.3,39.4,67.8,78.7,63.7c16.9-1.8,31.8-9.3,43-20.5c31.1,49.6,88.5,79.9,150.6,73.4
								c66.2-7,118.5-53.8,135.6-114.1c13.1,8.1,28.8,12.2,45.4,10.5c12.3-1.3,23.6-5.7,33.1-12.2c21.2,51,73.9,84.3,131.7,78.2
								c70.3-7.4,121.4-70.4,114-140.8C3188,505.1,3124.9,454.1,3054.6,461.5L3054.6,461.5z"/>
							<path id="Shape-Copy" class="st37" d="M3433,474.3c-24.2,2.5-44.4,16.7-55.6,36.4c-8.2-7.3-19.4-11.3-31.2-10
								c-9,0.9-17,4.7-23.2,10.4c-16.2-32.6-51.5-53.4-89.8-49.4c-39.9,4.2-70.9,33.9-78.6,71.2c-6.4-2.9-13.6-4.2-21-3.4
								c-22.3,2.3-38.5,22.3-36.2,44.6s22.3,38.5,44.6,36.2c9.6-1,18.1-5.3,24.4-11.6c17.6,28.1,50.2,45.4,85.5,41.7
								c37.6-3.9,67.3-30.5,77-64.8c7.4,4.6,16.4,6.9,25.8,5.9c7-0.7,13.4-3.2,18.8-6.9c12,28.9,42,47.9,74.8,44.4
								c39.9-4.2,68.9-40,64.7-79.9S3472.9,470.1,3433,474.3L3433,474.3z"/>
							<path id="Shape_3_" class="st41" d="M2820.6,462.1c-0.5,2.6-2.2,8.2-7.4,10.5c-0.2,0.1-0.2,0.3,0,0.4
								c1.5,0.5,5.5,2.3,7.6,9.2c0.1,0.2,0.4,0.2,0.4,0c0.4-2.3,2-7.7,7.9-9.1c0.2-0.1,0.2-0.4,0-0.4c-2-0.7-6.8-3-8.1-10.6
								C2820.9,462,2820.6,462,2820.6,462.1L2820.6,462.1z"/>
							<path id="Shape_4_" class="st39" d="M2494.6,364.2c-0.5,2.6-2.2,8.2-7.4,10.5c-0.2,0.1-0.2,0.3,0,0.4
								c1.5,0.5,5.5,2.3,7.6,9.2c0.1,0.2,0.4,0.2,0.4,0c0.4-2.3,2-7.7,7.9-9.1c0.2-0.1,0.2-0.4,0-0.4c-2-0.6-6.8-3-8.1-10.6
								C2494.9,363.9,2494.6,363.9,2494.6,364.2L2494.6,364.2z"/>
						</g>
					</g>
				</g>
			</g>
		</g>
	</g>
</g>
<g id="Product-Pages_1_">
	<g id="Header---Postman_1_" transform="translate(0.000000, -215.000000)">
		<g id="_x31_---Header_1_">
			<g id="Hero_1_">
				<g id="Header-BG_1_">
					<g id="Header---Clouds_1_" transform="translate(-202.000000, 37.000000)">
						<g id="Left-Cloud" transform="translate(0.000000, 40.000000)">
							<path id="Shape_7_" class="st42" d="M1314.1-330c-3.5,7.3-5.4,15-6,22.5l-30.2,115L1558.8-53l51.4-94.3
								c3.8-7,6.5-14.5,8.1-22.3l0,0c6.4-21-5.2-45.1-25.7-54.7c-9-4.3-18.8-5.2-27.9-3.4c0.1-19-10.3-37.2-28.2-46.3
								c1.5-1.9,2.9-4,3.9-6.3c7.1-15.2,0.6-33.2-14.5-40.3c-7.7-3.6-16.2-3.7-23.6-0.9c0.1-17.6-9.7-34.5-26.7-42.5
								c-20.8-9.8-45.3-2.7-58,15.7c-5.3-5.3-11.6-9.7-18.9-13C1366.9-375.5,1329-361.6,1314.1-330L1314.1-330z"/>
							<path id="Shape_6_" class="st37" d="M1898.8-157.3c-11.5-12.6-28-20.5-46.3-20.5c-14,0-26.9,4.6-37.3,12.3
								c-19.6-52.8-70.5-90.5-130.1-90.5c-62,0-114.5,40.7-132.4,96.8c-9.3-5.5-20.2-8.7-31.8-8.7c-34.7,0-62.8,28.1-62.8,62.8
								s28.1,62.8,62.8,62.8c14.9,0,28.6-5.2,39.4-14c22.5,46.1,69.9,77.9,124.7,77.9c58.4,0,108.3-36.1,128.8-87.1
								c10.6,8.3,24,13.3,38.6,13.3c10.9,0,21.1-2.8,30-7.6c13.8,46.4,56.8,80.4,107.7,80.4c62.1,0,112.4-50.3,112.4-112.4
								s-50.4-112.4-112.4-112.4C1952.5-204.2,1919.2-185.7,1898.8-157.3z"/>
							<path id="Shape_5_" class="st43" d="M1501.6-192.9c-0.5,2.6-2.2,8.2-7.4,10.5c-0.2,0.1-0.2,0.3,0,0.4
								c1.5,0.5,5.5,2.3,7.6,9.2c0.1,0.2,0.4,0.2,0.4,0c0.4-2.3,2-7.7,7.9-9.1c0.2-0.1,0.2-0.4,0-0.4c-2-0.6-6.8-3-8.1-10.6
								C1501.9-193,1501.7-193,1501.6-192.9L1501.6-192.9z"/>
						</g>
					</g>
				</g>
			</g>
		</g>
	</g>
</g>
<image style="overflow:visible;" width="1400" height="2111" xlink:href="EDF89351.jpg"  transform="matrix(1 0 0 1 -1631 -996)">
</image>
<rect x="453" y="-902" class="st44" width="515" height="201"/>
<rect x="416" y="-598" class="st18" width="515" height="201"/>
<rect x="463" y="-311" class="st17" width="515" height="201"/>
<g>
	<g>
		<path class="st5" d="M1550.4,348.8c0,0-4.6-9.1-8.3-13c-3.7-3.9-7.4,3.1-5.7,6.6c0,0-5-4.8-8.9-6c-13.8-4-22.4,17.1-5.5,25
			c13,5.6,18.7,7.6,18.7,7.6L1550.4,348.8z"/>
	</g>
	<path class="st23" d="M1547.7,354.6c-0.5-3.7-1-6.6-1-6.6s-9.8,13.5-12,13c-11-1.7-19.5-10.1-22-12.8c-0.1,4.9,2.6,10.2,9.3,13.4
		c13,5.6,18.7,7.6,18.7,7.6L1547.7,354.6z"/>
	<g>
		<path class="st5" d="M1682.4,382.7c0,0,2,10.5,4.3,15.4c2.3,4.9,8-0.6,7.5-4.4c0,0,2.5,5.7,5.8,8c11.8,8.2,26.7-9,13.2-21.9
			c-10.5-9.5-15.3-13.3-15.3-13.3L1682.4,382.7z"/>
	</g>
	<path class="st23" d="M1686.8,398.1c2,4.3,6.7,0.6,7.4-3c-0.8,1.2-2.6,1.4-4.2-0.2c-1.5-1.6-1.6-13.8-1.6-13.8
		c-0.3-0.7-2.9,0-5.2,0.8l-0.7,0.7C1682.4,382.7,1684.5,393.2,1686.8,398.1z"/>
	<g>
		<path class="st5" d="M1547.3,298.6c0,0-10.3-1.1-12.9,5.5c-2.7,6.6,5.7,36.7,12.8,37.3c4.8,0.1,10.7-2.8,10.7-2.8L1547.3,298.6z"
			/>
	</g>
	<g>
		<path class="st5" d="M1651.5,271.1c0,0,8.4-6,14-1.6c5.6,4.4,13.2,34.7,7.3,38.7c-4.1,2.5-10.7,2.8-10.7,2.8L1651.5,271.1z"/>
	</g>
	<path class="st23" d="M1667.9,300.6c-0.2-12.5-8.2-26.7-11.5-32c-2.8,1-4.9,2.5-4.9,2.5l10.6,40c0,0,6.6-0.3,10.7-2.8
		c1.4-1,2.1-3.4,2.1-6.7C1671.5,302.5,1668.1,302.8,1667.9,300.6z"/>
	<path class="st23" d="M1547.6,332.4c-6-11-6-27.3-5.8-33.5c2.9-0.6,5.5-0.3,5.5-0.3l10.6,40c0,0-5.9,2.9-10.7,2.8
		c-1.7-0.1-3.5-2-5.2-4.8C1545.3,335.8,1548.5,334.4,1547.6,332.4z"/>
	<g>
		<path class="st24" d="M1601.7,300.9L1601.7,300.9c-30,7.9-47.9,38.6-39.9,68.6l13,49.1c3.2,12,15.5,19.2,27.6,16l64.9-17.2
			c12-3.2,19.2-15.5,16-27.6l-13-49.1C1662.4,310.8,1631.7,293,1601.7,300.9z"/>
		<g>
			<path class="st25" d="M1670.6,342c-17.4,14.5-24.8,37.7-19,59.5l5,18.8l10.6-2.8c12-3.2,19.2-15.5,16-27.6L1670.6,342L1670.6,342
				z"/>
			<path class="st25" d="M1562.1,370.7L1562.1,370.7l12.7,47.9c3.2,12,15.5,19.2,27.6,16l10.6-2.8l-5-18.8
				C1602.2,391.2,1584.3,374.7,1562.1,370.7z"/>
		</g>
		<path class="st26" d="M1643.7,306.3c6.9,6.8,12.2,15.5,14.8,25.6l13,49.1c3.2,12-4,24.4-16,27.6l-64.9,17.2
			c-4.4,1.1-8.7,0.9-12.7-0.4c5.2,7.8,14.9,11.8,24.5,9.2l64.9-17.2c12-3.2,19.2-15.5,16-27.6l-13-49.1
			C1666.3,325.6,1656.4,313.5,1643.7,306.3z"/>
	</g>
	<g>
		<path class="st11" d="M1682.4,382.7l15.5-16.2c-19.7-18.8-37.2-23.1-49.4-22.8c-0.3-0.9-0.5-1.4-0.5-1.4s-8.8-9.3-34.3-2.6
			c-24.2,6.4-28.2,17.9-28.5,19.1c-8.9-0.7-21-3.2-35-9.9l-9.7,20.3c19.9,9.5,37.1,12,49.1,12.3c1.8,8.6,3.9,18.1,5.8,25.1
			c1.7,6.3,4.4,11.7,8.5,15.7c-2.6,9.9-5.9,25.6-5.9,40.8l25.2-0.1c0-11.5,2.9-24.8,5.4-33.9c2.6-0.3,5.3-0.8,8.2-1.6
			c3.3-0.9,6.2-1.9,8.8-3c6.7,6.7,15.8,16.9,21.5,26.9l22-12.4c-7.7-13.8-18.8-26.1-26-33.3c1.3-5.2,0.9-10.9-0.6-16.9
			c-1.7-6.2-4.1-14.3-6.5-21.9C1663,368.4,1672,372.7,1682.4,382.7z"/>
	</g>
	<g>
		<path class="st11" d="M1659.8,280.4c-19.9-47.2-70-31.7-70-31.7s-51.3,11.3-45.2,62.2c6.1,50.9,52.5,48,72.9,42.6
			C1637.9,348,1679.7,327.6,1659.8,280.4z"/>
	</g>
	<path class="st24" d="M1659.8,280.4c-5-11.9-11.9-19.8-19.4-25c5.8,5.1,11.1,12,15.1,21.5c19.9,47.2-22,67.7-42.3,73.1
		c-12.9,3.4-36.2,5.8-53.2-5.8c17.1,15.4,43.5,12.9,57.5,9.2C1637.9,348,1679.7,327.6,1659.8,280.4z"/>
	<g>
		<g>
			<path class="st5" d="M1633.1,412.4c-21.9,5.8-36.2,3.2-36.8,3.1c-3-0.6-5.1-3.5-4.5-6.6c0.6-3,3.5-5,6.5-4.5
				c0.3,0,12.7,2.1,31.8-2.9c19.1-5.1,28.4-12.9,28.5-13c2.3-2,5.9-1.8,7.9,0.6c2,2.3,1.8,5.9-0.5,7.9
				C1665.6,397.4,1655,406.6,1633.1,412.4z"/>
		</g>
	</g>
	<path class="st23" d="M1665.3,394c-0.4,0.4-11.1,9.6-33,15.4c-21.9,5.8-36.2,3.2-36.8,3.1c-1.6-0.3-3-1.3-3.8-2.7
		c-0.1,2.7,1.8,5.1,4.6,5.7c0.6,0.1,14.9,2.7,36.8-3.1c21.9-5.8,32.6-15,33-15.4c2.1-1.8,2.5-4.8,1.1-7.1
		C1667.1,391.4,1666.5,392.9,1665.3,394z"/>
	<g class="st27">
		<g>
			<path class="st28" d="M1619.4,360.9c-19,5-34,1.8-34.9,1.6c-2-0.5-3.3-2.5-2.8-4.5c0.5-2,2.5-3.3,4.5-2.8
				c0.5,0.1,31.6,6.7,59.6-15.9c1.6-1.3,4-1,5.3,0.6c1.3,1.6,1,4-0.6,5.3C1640,353.6,1629.2,358.3,1619.4,360.9z"/>
		</g>
	</g>
	<path class="st5" d="M1584.8,359.1c0.5,0.1,33.7,6.1,64.1-17c0.8-0.6,1.8-0.9,2.8-0.9c-0.1-0.5-0.4-0.9-0.7-1.3
		c-1.3-1.6-3.7-1.9-5.3-0.6c-28,22.5-59.1,16-59.6,15.9c-2-0.5-4,0.8-4.5,2.8c-0.1,0.6-0.1,1.1,0,1.7
		C1582.6,359.1,1583.7,358.8,1584.8,359.1z"/>
	<g>
		<g>
			<path class="st29" d="M1631.6,360l-7.2,2.7c-2.7,1-5.5,1.8-8.3,2.2l-8.2,1.3c-2,0.3-3.4,2.3-2.8,4.3l3.2,11.9
				c0.5,1.7,2.1,2.8,3.9,2.6l8.6-1.3c2.8-0.4,5.6-1.2,8.3-2.2l8.1-3.1c1.7-0.6,2.6-2.4,2.1-4.1l-3.1-11.9
				C1635.6,360.3,1633.5,359.2,1631.6,360z"/>
		</g>
		<g>
			<path class="st30" d="M1613.9,371.2c0.4,1.5-0.5,3-2,3.4c-1.5,0.4-3-0.5-3.4-2s0.5-3,2-3.4
				C1611.9,368.9,1613.5,369.8,1613.9,371.2z"/>
		</g>
		<g>
			<path class="st30" d="M1615.8,378.6c0.4,1.5-0.5,3-2,3.4c-1.5,0.4-3-0.5-3.4-2c-0.4-1.5,0.5-3,2-3.4
				C1613.9,376.2,1615.4,377.1,1615.8,378.6z"/>
		</g>
		<g>
			<g>
				<path class="st31" d="M1624.5,371.1c-3.8,1-6.5,1.3-6.7,1.3c-0.9,0.1-1.7-0.6-1.8-1.5c-0.1-0.9,0.6-1.7,1.5-1.8
					c0.1,0,7.7-0.8,14.5-4.3c0.8-0.4,1.8-0.1,2.2,0.7c0.4,0.8,0.1,1.8-0.7,2.2C1630.4,369.3,1627.2,370.4,1624.5,371.1z"/>
			</g>
		</g>
		<g>
			<g>
				<path class="st31" d="M1626.4,378c-3.8,1-6.5,1.3-6.7,1.3c-0.9,0.1-1.7-0.6-1.8-1.5c-0.1-0.9,0.6-1.7,1.5-1.8
					c0.1,0,7.7-0.8,14.5-4.3c0.8-0.4,1.8-0.1,2.2,0.7c0.4,0.8,0.1,1.8-0.7,2.2C1632.3,376.2,1629.1,377.3,1626.4,378z"/>
			</g>
		</g>
	</g>
	<path class="st5" d="M1646.8,384.1l-3.3-2.6c-0.6-0.5-1.5-0.6-2.2-0.3l-3.9,1.5c-0.7,0.3-1.3,1-1.4,1.8l-0.6,4.1
		c-0.1,0.8,0.2,1.6,0.8,2.1l3.3,2.6c0.6,0.5,1.5,0.6,2.2,0.3l3.9-1.5c0.7-0.3,1.3-1,1.4-1.8l0.6-4.1
		C1647.7,385.4,1647.4,384.6,1646.8,384.1z"/>
	<path class="st5" d="M1607.2,394.6l1.6-3.8c0.3-0.7,1-1.3,1.8-1.4l4.1-0.6c0.8-0.1,1.6,0.2,2.1,0.8l2.6,3.3
		c0.5,0.6,0.6,1.5,0.3,2.2l-1.6,3.8c-0.3,0.7-1,1.3-1.8,1.4l-4.1,0.6c-0.8,0.1-1.6-0.2-2.1-0.8l-2.6-3.3
		C1607,396.2,1606.9,395.3,1607.2,394.6z"/>
	<g>
		<g>
			<path class="st32" d="M1652.2,289.9c-15.2-34.2-57.2-21.4-57.2-21.4s-42.8,9.7-39.1,46.9c3.7,37.2,42.2,33.8,59.3,29.4
				C1632.2,340.2,1667.4,324.1,1652.2,289.9z"/>
		</g>
		<path class="st33" d="M1652.2,289.9c-4-9.1-9.9-14.8-16.4-18.4c3.4,3.3,6.4,7.5,8.8,12.8c15.2,34.2-20,50.3-37,54.8
			c-10.4,2.7-28.7,5-42.3-2c13.4,13.5,37.5,10.9,50,7.6C1632.2,340.2,1667.4,324.1,1652.2,289.9z"/>
		<g>
			<path class="st34" d="M1595,268.5c0,0-2.2,0.5-5.6,1.7c-1.3,14.6-6.2,41.9-23.5,67.7c4.7,4.5,10.7,7,16.9,8.4
				c20.8-32.1,24.9-65.4,25.7-79.9C1600.7,266.8,1595,268.5,1595,268.5z"/>
			<path class="st34" d="M1623,267.1c-0.9,14.7-5.7,49.4-29.1,80.3c4.2,0.1,8.4-0.3,12.2-0.8c20.1-29.8,25.1-61,26.2-76.7
				C1629.2,268.5,1626.1,267.6,1623,267.1z"/>
		</g>
	</g>
	<g>
		<path class="st32" d="M1660.3,411.8c-4.7,1.2-10.2-0.6-13.9-3.6c-5.8-4.7-8.8-13-7.7-21.2c0.2-1.5,1.6-2.6,3.2-2.4
			c1.5,0.2,2.6,1.6,2.4,3.2c-0.9,6.3,1.3,12.5,5.6,16c2.8,2.3,7.6,3.7,10.4,1.9c1.2-0.8,1.6-1.9,1.7-2.7c0.3-1.5-0.2-3.2-1.1-4.4
			c-0.6-0.8-1.7-1.6-2.8-2.4c-2.2-1.6-4.9-3.6-5.7-7.2c-0.5-2.3,0-4.7,1.4-6.7c1.5-2.1,3.8-3.5,6.4-3.9c1.5-0.2,3,0.9,3.2,2.4
			c0.2,1.5-0.9,3-2.4,3.2c-1,0.1-2,0.7-2.6,1.5c-0.3,0.5-0.7,1.3-0.5,2.3c0.3,1.4,1.5,2.4,3.5,3.8c1.4,1,2.8,2.1,3.9,3.5
			c1.9,2.5,2.7,5.7,2.2,8.8c-0.5,2.7-2,5-4.2,6.5C1662.4,411,1661.4,411.5,1660.3,411.8z"/>
	</g>
	<g>
		<path class="st32" d="M1609.1,425.3c-1.1,0.3-2.2,0.4-3.3,0.3c-2.7-0.2-5.1-1.4-6.9-3.6c-1.9-2.4-2.8-5.6-2.4-8.7
			c0.3-1.8,1-3.4,1.7-5c1-2.2,1.6-3.7,1.2-5c-0.3-1-1-1.5-1.6-1.8c-0.9-0.4-2-0.4-3-0.1c-1.4,0.6-3.1-0.1-3.7-1.6
			c-0.6-1.4,0.1-3.1,1.6-3.7c2.4-1,5.2-0.9,7.5,0.2c2.2,1,3.8,2.8,4.5,5.1c1.1,3.5-0.3,6.6-1.4,9.1c-0.6,1.3-1.1,2.5-1.3,3.5
			c-0.2,1.5,0.2,3.2,1.2,4.4c0.5,0.6,1.5,1.4,2.9,1.5c3.3,0.2,6.7-3.4,8.1-6.8c2-5.1,0.8-11.7-3-16.7c-0.9-1.2-0.7-3,0.5-3.9
			c1.2-0.9,3-0.7,3.9,0.5c5.1,6.5,6.5,15.3,3.8,22.2C1617.7,419.7,1613.8,424.1,1609.1,425.3z"/>
	</g>
	<path class="st24" d="M1685.4,374.2c0,0-15.9-16.2-32.6-16.9l3.5,9.5c6.8,1.6,15.8,5.8,26.2,15.8l2.6-2.7L1685.4,374.2z"/>
	<g>
		<g>
			<path class="st10" d="M1683.4,386.3c-1.2,0.3-2.6,0-3.5-0.9c-1.5-1.4-1.5-3.8-0.1-5.3l15.5-16.2c1.4-1.5,3.8-1.5,5.3-0.1
				c1.5,1.4,1.5,3.8,0.1,5.3l-15.5,16.2C1684.7,385.8,1684,386.1,1683.4,386.3z"/>
		</g>
	</g>
	<path class="st23" d="M1718.5,392.4c-12.1,14.9-24.3,1.3-24.3,1.3s2.5,5.7,5.8,8C1708.1,407.2,1717.6,401,1718.5,392.4z"/>
	<path class="st5" d="M1683.1,354.5c-8.5-5.5-16.3-8.4-23.1-9.8c0.1,3.3,1.1,10,6.8,12.6C1673.1,360,1679.7,358.7,1683.1,354.5z"/>
	<path class="st5" d="M1555,374.9c9.4,3.2,17.9,4.9,25.2,5.8c-0.4-2.4-2.2-10.6-9.3-12.3C1563.9,366.7,1557.2,369.7,1555,374.9z"/>
	<path class="st24" d="M1589,372.4c0,0-26.4-2.3-42.5-10.1c-0.7-0.3-1.4-0.6-2.1-0.8l-3.6,7.7c19.9,9.5,37.1,12,49.1,12.3
		C1589.9,381.4,1589,378.5,1589,372.4z"/>
	<g>
		<g>
			<path class="st10" d="M1541.7,372.7c-0.8,0.2-1.7,0.2-2.6-0.2c-1.9-0.9-2.7-3.1-1.8-5l9.7-20.3c0.9-1.9,3.1-2.7,5-1.8
				c1.9,0.9,2.7,3.1,1.8,5l-9.7,20.3C1543.6,371.8,1542.7,372.5,1541.7,372.7z"/>
		</g>
	</g>
	<path class="st24" d="M1663.6,437c-1.8-1-15.7-15.7-16.5-17.2c-0.8-1.5-2.1-0.7-4.1,1.1s-12.3,5.5-15.1,4c-2.8-1.5-3.1-0.5-3.3,0
		c-0.2,0.6-6,25.3-6,25.3s2.4-0.1,5.9-0.1c1.1-7.7,2.8-15.3,4.4-21.1c2.6-0.3,5.3-0.8,8.2-1.6c3.3-0.9,6.2-1.9,8.8-3
		c4.5,4.5,10.2,10.7,15.1,17.3C1662.9,439.4,1664.3,437.4,1663.6,437z"/>
	<g>
		<path class="st5" d="M1598.8,446.7c-0.2,1.6-0.9,12.6-0.9,12.6s-13.5-7.8-24.8-1.3c-11.2,6.5-8.8,21.9-8.8,21.9l58.5,6.2l1.9-37.6
			L1598.8,446.7z"/>
	</g>
	<g>
		<path class="st5" d="M1680.8,425c0.9,1.3,6.9,10.5,6.9,10.5s7.9-13.4,20.9-13.4c13,0.1,18.5,14.7,18.5,14.7l-47.8,34.2l-20.2-31.8
			L1680.8,425z"/>
	</g>
	<g>
		<path class="st32" d="M1679.3,471l47.8-34.2c0,0-1.1-2.9-3.5-6.1l-48,34.6L1679.3,471z"/>
	</g>
	<g>
		<path class="st32" d="M1564.4,479.8l58.5,6.2l0.4-7.2l-58.6-7.5C1563.8,475.9,1564.4,479.8,1564.4,479.8z"/>
	</g>
	<g>
		<path class="st10" d="M1660.1,442.9c-1.5,0.4-3.2-0.2-4.1-1.6c-1.1-1.7-0.7-4.1,1.1-5.2l21.7-14.2c1.7-1.1,4.1-0.7,5.2,1.1
			c1.1,1.7,0.7,4.1-1.1,5.2l-21.7,14.2C1660.8,442.6,1660.4,442.8,1660.1,442.9z"/>
	</g>
	<path class="st36" d="M1684,425.4l-21.7,14.2c-0.3,0.2-0.7,0.4-1.1,0.5c-1.5,0.4-3.2-0.2-4.1-1.6c-0.4-0.6-0.6-1.3-0.6-2
		c-1.3,1.2-1.5,3.2-0.5,4.7c0.9,1.4,2.6,2,4.1,1.6c0.4-0.1,0.8-0.3,1.1-0.5l21.7-14.2c1.1-0.7,1.7-1.9,1.7-3.2
		C1684.3,425.1,1684.2,425.3,1684,425.4z"/>
	<g>
		<path class="st10" d="M1625.6,452c-0.4,0.1-0.8,0.1-1.2,0.1l-25.9-1.7c-2.1-0.1-3.6-1.9-3.5-4c0.1-2.1,1.9-3.6,4-3.5l25.9,1.7
			c2.1,0.1,3.6,1.9,3.5,4C1628.3,450.3,1627.2,451.6,1625.6,452z"/>
	</g>
	<path class="st36" d="M1626.3,445c0.3,0.6,0.5,1.3,0.4,2c-0.1,1.6-1.3,3-2.8,3.4c-0.4,0.1-0.8,0.1-1.2,0.1l-25.9-1.7
		c-0.5,0-0.9-0.2-1.3-0.4c0.6,1.1,1.7,1.9,3,2l25.9,1.7c0.4,0,0.8,0,1.2-0.1c1.5-0.4,2.7-1.7,2.8-3.4
		C1628.5,447,1627.6,445.6,1626.3,445z"/>
	<path class="st32" d="M1689.5,456.6l-6.1-5.1c-3-2.5-7.2-3-10.7-1.2l-4.9,2.5l1,1.6l4.7-2.5c2.8-1.5,6.2-1.1,8.7,0.9l6.1,5.1l4,3.7
		l1.6-1.1L1689.5,456.6z"/>
	<path class="st32" d="M1619.3,464.5c-3.9,0.1-7.4,2.6-8.8,6.3l-2.8,7.5l-1.8,5.9l1.9,0.2l1.7-5.5l2.8-7.5c1.1-3,3.9-5,7.1-5.1
		l4.5-0.2l0.1-1.9L1619.3,464.5z"/>
</g>
</svg>
