<?xml version="1.0" encoding="utf-8"?>
<!-- Generator: Adobe Illustrator 22.1.0, SVG Export Plug-In . SVG Version: 6.00 Build 0)  -->
<svg version="1.1" xmlns="http://www.w3.org/2000/svg" xmlns:xlink="http://www.w3.org/1999/xlink" x="0px" y="0px"
	 viewBox="0 0 768 1366" style="enable-background:new 0 0 768 1366;" xml:space="preserve">
<style type="text/css">
	.st0{opacity:0.68;fill:#00A3E3;}
	.st1{fill:#01579B;}
	.st2{fill:#FFFFFF;}
	.st3{fill:#22B573;}
	.st4{opacity:0.68;fill:#55DDCA;}
	.st5{fill:#050F2C;}
	.st6{fill:#20C997;}
	.st7{fill:#03A9F4;}
	.st8{opacity:0.81;fill:#20C997;}
	.st9{fill:none;stroke:#22B573;stroke-width:11;stroke-miterlimit:10;}
	.st10{opacity:0.65;}
	.st11{fill:none;stroke:#20C997;stroke-width:6;stroke-linecap:round;stroke-miterlimit:10;}
</style>
<g id="calco">
	<image style="overflow:visible;" width="663" height="259" xlink:href="77CE8E64.jpg"  transform="matrix(1 0 0 1 -781 354)">
	</image>
</g>
<g id="Capa_2">
	<g>
		<polygon class="st0" points="-738.7,-971.1 -519.6,-971.1 -974.9,-515.9 -1083,-624 		"/>
		<polygon class="st1" points="-815.5,-569.9 -519.6,-274 -733,-274 -920.8,-461.8 		"/>
		<polygon class="st0" points="-737.3,-651 -521,-651 -815.5,-356.5 -922.2,-463.2 		"/>
	</g>
	<g>
		<path class="st2" d="M-1422,372c-5,0-10,0-15,0c-4.7-1.5-9.6-2.7-14.2-4.4c-16.5-6.3-29.3-17.7-40.7-30.6
			c-29.2-33.1-52.9-69.7-69.7-110.5c-19.1-46.5-30.5-94.7-30-145.3c0.4-36.4,7.5-71.3,25.7-103.1c22.5-39.3,55.8-65.1,100.2-75.6
			c17.7-4.2,35.7-5.8,53.4-0.6c17.7,5.2,35.1,11.4,52.4,17.7c15,5.4,29.8,9.4,45.5,2.5c10.4-4.5,21.1-8,31.8-11.9
			c17.4-6.4,35-12.3,53.7-12.9c36.2-1.1,69.6,7.8,99,29.5c12.1,8.9,22.4,19.8,30.8,32.5c-1.2,0.9-2.1,1.6-3,2.3
			c-12.7,8.7-23.9,19-33.6,31c-25.8,31.7-34.8,67.9-28.7,108.1c4.2,28,16.3,52.2,36,72.6c12,12.5,25.9,22.4,41.5,29.9
			c3.2,1.5,4.7,3,3.1,6.8c-2.7,6.4-4.8,13.1-7.3,19.6c-11,27.7-25.8,53.2-43.3,77.3c-12.4,17.1-24.9,34.1-41.8,47.3
			c-15.5,12-32.7,18.1-52.5,16.7c-15.1-1-29-5.8-42.5-12c-29.5-13.7-59.8-16.4-90.9-6.6c-7.8,2.4-15.1,6.2-22.8,8.8
			C-1397.1,364.9-1409.6,368.3-1422,372z"/>
		<path class="st2" d="M-1213-254c-0.1,9.9,1.1,20-0.4,29.7c-5.6,36-22.5,66-50.9,88.8c-21.1,16.9-44.9,27.1-73.1,25.3
			c-1.6-10.9-1.2-21.6,1.1-32.2c8.4-37.7,28.5-67.8,60.7-89.2c16.6-11.1,34.9-18.6,54.9-21.5c1-0.1,1.9-0.6,2.8-0.9
			C-1216.3-254-1214.7-254-1213-254z"/>
	</g>
	<g>
		<path class="st3" d="M-1725.2,99.9c0-26.2-0.1-52.3,0-78.5c0.1-13.7-4.8-24.8-15.8-33.3c-14.8-11.6-40.2-8.6-52,6
			c-6.9,8.6-9.4,18.1-9.4,28.7c0,51.5,0,103,0,154.4c0,2.8,0.2,5.7,0.5,8.5c2.9,26.4,32.9,42.1,56,29.3c14.4-8,20.7-20.5,20.6-36.7
			C-1725.3,152.2-1725.2,126.1-1725.2,99.9z M-2177.7,100.3c0-26,0-52,0-78c0-10.5-2.6-19.9-9.5-28.2c-14.4-17.4-43-17.7-57.7-0.6
			c-7.3,8.5-9.9,18.1-9.9,29c0.1,50.3,0,100.6,0.1,150.9c0,4.5,0.1,9,0.6,13.5c3.1,24,29.8,40.7,55,28.5
			c15.2-7.3,21.4-20.7,21.4-37.2C-2177.7,152.3-2177.7,126.3-2177.7,100.3z"/>
		<path class="st3" d="M-2061,404c-8.3-2.8-16.1-6-22.1-12.8c-7.3-8.2-9.9-17.9-9.9-28.5c-0.1-25.7-0.4-51.3-0.4-77
			c0-4.9-1.5-6-6.2-6.1c-11.3-0.2-22.8,0.1-33.8-1.9c-14.8-2.6-27.3-18.6-28.5-33.6c-0.4-4.8-0.6-9.6-0.6-14.5
			c0-78.2,0-156.3,0-234.5c0-2.1,0-4.3,0-6.8c115.1,0,229.7,0,344.8,0c0.1,1.7,0.3,3.4,0.3,5.2c0,80.8,0,161.7,0,242.5
			c0,17.9-7.1,31.9-23.5,39.6c-5.9,2.8-13.1,3.4-19.8,4c-6.8,0.7-13.7,0.4-20.5,0.1c-4.2-0.2-5.4,1.2-5.4,5.3
			c0.2,25.7,0.1,51.3,0.1,77c0,11-2.8,21-10.3,29.4c-6,6.8-14,9.9-22.2,12.6c-4.3,0-8.7,0-13,0c-5.3-2.4-11-4.1-15.7-7.3
			c-11.6-8-16.4-19.5-16.3-33.5c0.1-26-0.1-52,0.1-78c0-4.5-1.4-5.6-5.7-5.5c-13.5,0.3-27,0.3-40.5,0c-4.7-0.1-6.3,1-6.2,6
			c0.3,25.8,0,51.6,0.2,77.5c0.1,13.5-4.3,25-15.5,32.8c-4.9,3.4-10.9,5.4-16.4,8C-2052.3,404-2056.7,404-2061,404z"/>
		<path class="st3" d="M-1880-222c3.2,3.1,3.1,6.4,1,10.2c-7.9,14.4-15.5,29.1-23.6,43.4c-1.8,3.2-1.2,4.6,1.8,6.2
			c26.1,14,46.9,33.7,62.5,58.8c14,22.6,21,47.3,22,73.8c0.1,2.7-0.6,4.2-3.6,4c-1.5-0.1-3,0-4.5,0c-111,0-221.9,0-332.9,0
			c-6.9,0-7,0-6.7-6.8c1.6-36.6,15.7-68.1,39.9-95.2c12.8-14.3,27.8-25.7,44.7-34.7c3-1.6,3.6-2.9,1.8-6.2
			c-7.9-14.2-15.5-28.7-23.3-43c-2.2-3.9-2.8-7.3,0.8-10.7c1.7,0,3.3,0,5,0c2.2,3.7,4.6,7.3,6.6,11.1c6.8,12.4,13.7,24.8,20.3,37.3
			c1.8,3.4,3.4,4,7.3,2.7c11.9-4.1,23.9-8.4,36.3-10.7c33.9-6.2,67.3-3.8,99.7,8.4c10.8,4.1,10.7,3.7,16.2-6.5
			c7.7-14.2,15.7-28.2,23.5-42.2C-1883.3-222-1881.7-222-1880-222z M-2054.9-103c0.1-7.9-6.5-14.7-14.4-14.7
			c-7.7,0-14,6.4-14.1,14.4c-0.1,7.9,6.2,14.6,13.8,14.8C-2061.8-88.3-2055-95-2054.9-103z M-1925.1-102.9c0.2,8,7,14.6,14.9,14.3
			c7.7-0.3,13.9-7,13.7-14.8c-0.2-8-6.5-14.4-14.2-14.3C-1918.6-117.6-1925.2-110.7-1925.1-102.9z"/>
		<path class="st3" d="M-1725.2,99.9c0,26.2-0.1,52.3,0,78.5c0.1,16.2-6.2,28.7-20.6,36.7c-23.2,12.8-53.2-2.9-56-29.3
			c-0.3-2.8-0.5-5.7-0.5-8.5c0-51.5,0-103,0-154.4c0-10.6,2.4-20.2,9.4-28.7c11.7-14.5,37.2-17.5,52-6c11,8.6,15.9,19.6,15.8,33.3
			C-1725.3,47.6-1725.2,73.8-1725.2,99.9z"/>
		<path class="st3" d="M-2177.7,100.3c0,26,0,52,0,78c0,16.5-6.2,29.9-21.4,37.2c-25.2,12.2-52-4.5-55-28.5c-0.6-4.4-0.6-9-0.6-13.5
			c0-50.3,0-100.6-0.1-150.9c0-10.8,2.6-20.5,9.9-29c14.7-17.1,43.4-16.8,57.7,0.6c6.9,8.3,9.5,17.7,9.5,28.2
			C-2177.7,48.4-2177.7,74.4-2177.7,100.3z"/>
	</g>
	<g>
		<path class="st4" d="M211.7-828.9l456.7,456.7l38.9-87.2c1.5-3.4,1.7-7.3,0.4-10.8L567.6-865.8c-2-5.7-5.3-10.8-9.7-15l-88.1-83.8
			c-12.8-12.2-32.3-13.9-47.1-4.1L211.7-828.9z"/>
		<path class="st0" d="M210.9-828.1l456.7,456.7l-87.2,38.9c-3.4,1.5-7.3,1.7-10.8,0.4L174.1-472.2c-5.7-2-10.8-5.3-15-9.7
			l-83.8-88.1c-12.2-12.8-13.9-32.3-4.1-47.1L210.9-828.1z"/>
		<path class="st0" d="M667-373.6l97.7-30.7c1.1-0.3,1.9-1.4,1.9-2.5v-261.8c0-2.4-0.9-4.7-2.6-6.4L658-780.9
			c-31.6-31.6-74.5-49.4-119.2-49.4H211.7L667-373.6z"/>
		<path class="st4" d="M667.4-373.6l-30.7,97.7c-0.3,1.1-1.4,1.9-2.5,1.9H372.3c-2.4,0-4.7-0.9-6.4-2.6L260.1-382.6
			c-31.6-31.6-49.4-74.5-49.4-119.2v-327.1L667.4-373.6z"/>
	</g>
	<image style="overflow:visible;" width="850" height="850" xlink:href="77CE8E6B.jpg"  transform="matrix(1 0 0 1 -2531 -1272)">
	</image>
	
		<image style="overflow:visible;" width="218" height="231" xlink:href="77CE8E6C.jpg"  transform="matrix(2.6104 0 0 2.6104 -1465 -1615)">
	</image>
	<text transform="matrix(1 0 0 1 -2293.8594 992.9688)" style="font-family:'Bauhaus93'; font-size:297.5248px;">IOP</text>
	<g>
		<path class="st5" d="M-1096,1167.7V1366h-59v-198.3H-1096z"/>
		<path class="st6" d="M-962.3,1162.7c28.1,0,52.2,10.2,72.3,30.7c20.1,20.4,30.1,44.9,30.1,73.4c0,29-10.1,53.6-30.4,73.8
			c-20.2,20.2-44.8,30.4-73.8,30.4c-28.8,0-53.3-10.2-73.7-30.5c-20.3-20.3-30.5-44.9-30.5-73.7c0-29.1,10.2-53.7,30.7-73.8
			C-1017,1172.8-992,1162.7-962.3,1162.7z M-964.1,1221.1c-12.1,0-22.4,4.5-30.9,13.4c-8.5,8.9-12.8,19.7-12.8,32.3
			c0,12.6,4.3,23.3,12.9,32.3c8.6,8.9,18.9,13.4,30.9,13.4c12.2,0,22.5-4.4,31-13.3c8.5-8.9,12.7-19.6,12.7-32.3
			c0-12.7-4.2-23.5-12.7-32.3C-941.5,1225.6-951.9,1221.1-964.1,1221.1z"/>
		<path class="st5" d="M-832.1,1237.3c0,1.7-0.1,3.4-0.1,5.2V1366h59v-128.6H-832.1z"/>
	</g>
	<g>
		<path class="st6" d="M-967,1274c-2.4,0-4.7-1-6.3-3l-163-205c-2.8-3.5-2.2-8.5,1.3-11.2c3.5-2.7,8.5-2.2,11.2,1.3l163,205
			c2.8,3.5,2.2,8.5-1.3,11.2C-963.5,1273.4-965.3,1274-967,1274z"/>
	</g>
	<g>
		<path class="st6" d="M-967,1274c-1,0-2-0.2-3-0.6c-4.1-1.7-6.1-6.3-4.4-10.4l117-289c1.7-4.1,6.3-6.1,10.4-4.4
			c4.1,1.7,6.1,6.3,4.4,10.4l-117,289C-960.8,1272.1-963.8,1274-967,1274z"/>
	</g>
	<g>
		<path class="st6" d="M-762,1241c-3.3,0-6.4-2.1-7.6-5.4l-88-256c-1.4-4.2,0.8-8.7,5-10.2c4.2-1.4,8.7,0.8,10.2,5l88,256
			c1.4,4.2-0.8,8.7-5,10.2C-760.3,1240.9-761.1,1241-762,1241z"/>
	</g>
	<g>
		<path class="st6" d="M-1130,1069c-3.4,0-6.6-2.2-7.7-5.7c-1.3-4.2,1.1-8.7,5.4-10l280-84c4.2-1.3,8.7,1.1,10,5.4s-1.1,8.7-5.4,10
			l-280,84C-1128.5,1068.9-1129.2,1069-1130,1069z"/>
	</g>
	<g>
		<circle class="st6" cx="-967" cy="1266" r="59"/>
		<circle class="st6" cx="-1132" cy="1051" r="64"/>
		<circle class="st6" cx="-850" cy="977" r="51"/>
		<circle class="st6" cx="-762.5" cy="1233" r="70"/>
	</g>
	<g>
		<path class="st6" d="M-3480,403c-2.4,0-4.7-1-6.3-3l-163-205c-2.8-3.5-2.2-8.5,1.3-11.2c3.5-2.7,8.5-2.2,11.2,1.3l163,205
			c2.8,3.5,2.2,8.5-1.3,11.2C-3476.5,402.4-3478.3,403-3480,403z"/>
	</g>
	<g>
		<path class="st6" d="M-3480,403c-1,0-2-0.2-3-0.6c-4.1-1.7-6.1-6.3-4.4-10.4l117-289c1.7-4.1,6.3-6.1,10.4-4.4
			c4.1,1.7,6.1,6.3,4.4,10.4l-117,289C-3473.8,401.1-3476.8,403-3480,403z"/>
	</g>
	<g>
		<path class="st6" d="M-3275,370c-3.3,0-6.4-2.1-7.6-5.4l-88-256c-1.4-4.2,0.8-8.7,5-10.2c4.2-1.4,8.7,0.8,10.2,5l88,256
			c1.4,4.2-0.8,8.7-5,10.2C-3273.3,369.9-3274.1,370-3275,370z"/>
	</g>
	<g>
		<path class="st6" d="M-3643,198c-3.4,0-6.6-2.2-7.7-5.7c-1.3-4.2,1.1-8.7,5.4-10l280-84c4.2-1.3,8.7,1.1,10,5.4s-1.1,8.7-5.4,10
			l-280,84C-3641.5,197.9-3642.2,198-3643,198z"/>
	</g>
	<circle class="st6" cx="-3645" cy="180" r="50"/>
	<circle class="st6" cx="-3363" cy="106" r="39"/>
	<g>
		<g>
			<path class="st5" d="M-3609,315v161.6c0,10.1-8.2,18.3-18.3,18.3h-22.3c-10.1,0-18.3-8.2-18.3-18.3V315
				c0-10.1,8.2-18.3,18.3-18.3h22.3C-3617.2,296.7-3609,304.9-3609,315z"/>
		</g>
		<path class="st6" d="M-3416,335.3c-16.6-16.8-36.4-25.3-59.6-25.3c-24.4,0-45.1,8.3-62,24.9c-16.9,16.6-25.3,36.9-25.3,60.8
			c0,23.7,8.4,44,25.2,60.7c16.8,16.8,37,25.2,60.7,25.2c23.9,0,44.2-8.3,60.8-25c16.7-16.7,25-37,25-60.8
			C-3391.2,372.3-3399.5,352.1-3416,335.3z"/>
		<g>
			<path class="st5" d="M-3343.2,368.5c0,1,0,2,0,3v105.2c0,10.1,8.2,18.3,18.3,18.3h22.5c10.1,0,18.3-8.2,18.3-18.3v-45.5
				C-3315.7,426.3-3340.3,400.5-3343.2,368.5z"/>
			<path class="st6" d="M-3273.5,292c-38.7,0-70,31.3-70,70c0,2.2,0.1,4.3,0.3,6.5c2.9,32.1,27.5,57.9,59,62.7
				c3.5,0.5,7.1,0.8,10.7,0.8c38.7,0,70-31.3,70-70S-3234.8,292-3273.5,292z"/>
		</g>
	</g>
	<g>
		<g>
			<path class="st5" d="M-3719,1116v161.6c0,10.1-8.2,18.3-18.3,18.3h-22.3c-10.1,0-18.3-8.2-18.3-18.3V1116
				c0-10.1,8.2-18.3,18.3-18.3h22.3C-3727.2,1097.7-3719,1105.9-3719,1116z"/>
		</g>
		<path class="st6" d="M-3526,1136.3c-16.6-16.8-36.4-25.3-59.6-25.3c-24.4,0-45.1,8.3-62,24.9c-16.9,16.6-25.3,36.9-25.3,60.8
			c0,23.7,8.4,44,25.2,60.7c16.8,16.8,37,25.2,60.7,25.2c23.9,0,44.2-8.3,60.8-25c16.7-16.7,25-37,25-60.8
			C-3501.2,1173.3-3509.5,1153.1-3526,1136.3z"/>
		<g>
			<path class="st5" d="M-3453.2,1169.5c0,1,0,2,0,3v105.2c0,10.1,8.2,18.3,18.3,18.3h22.5c10.1,0,18.3-8.2,18.3-18.3v-45.5
				C-3425.7,1227.3-3450.3,1201.5-3453.2,1169.5z"/>
			<path class="st6" d="M-3383.5,1093c-38.7,0-70,31.3-70,70c0,2.2,0.1,4.3,0.3,6.5c2.9,32.1,27.5,57.9,59,62.7
				c3.5,0.5,7.1,0.8,10.7,0.8c38.7,0,70-31.3,70-70S-3344.8,1093-3383.5,1093z"/>
		</g>
	</g>
	<g>
		<g>
			<path class="st5" d="M-2965,1217v161.6c0,10.1-8.2,18.3-18.3,18.3h-22.3c-10.1,0-18.3-8.2-18.3-18.3V1217
				c0-10.1,8.2-18.3,18.3-18.3h22.3C-2973.2,1198.7-2965,1206.9-2965,1217z"/>
		</g>
		<path class="st6" d="M-2772,1237.3c-16.6-16.8-36.4-25.3-59.6-25.3c-24.4,0-45.1,8.3-62,24.9c-16.9,16.6-25.3,36.9-25.3,60.8
			c0,23.7,8.4,44,25.2,60.7c16.8,16.8,37,25.2,60.7,25.2c23.9,0,44.2-8.3,60.8-25c16.7-16.7,25-37,25-60.8
			C-2747.2,1274.3-2755.5,1254.1-2772,1237.3z"/>
		<g>
			<path class="st5" d="M-2699.2,1270.5c0,1,0,2,0,3v105.2c0,10.1,8.2,18.3,18.3,18.3h22.5c10.1,0,18.3-8.2,18.3-18.3v-45.5
				C-2671.7,1328.3-2696.3,1302.5-2699.2,1270.5z"/>
			<path class="st6" d="M-2629.5,1194c-38.7,0-70,31.3-70,70c0,2.2,0.1,4.3,0.3,6.5c2.9,32.1,27.5,57.9,59,62.7
				c3.5,0.5,7.1,0.8,10.7,0.8c38.7,0,70-31.3,70-70S-2590.8,1194-2629.5,1194z"/>
		</g>
	</g>
	<text transform="matrix(1 0 0 1 -1449 759.0879)"><tspan x="0" y="0" style="font-family:'MyriadPro-Regular'; font-size:41.7783px;">--color-1: #20c997;</tspan><tspan x="0" y="50.1" style="font-family:'MyriadPro-Regular'; font-size:41.7783px;">  --color-2: #050f2c;</tspan><tspan x="0" y="100.3" style="font-family:'MyriadPro-Regular'; font-size:41.7783px;">  --color-3: #03a9f4;</tspan></text>
	<rect x="-1769" y="672" class="st6" width="240" height="58"/>
	<rect x="-1769" y="759" class="st5" width="240" height="58"/>
	<rect x="-1769" y="846" class="st7" width="240" height="58"/>
	<circle class="st8" cx="-3721.5" cy="980.5" r="40.5"/>
	<circle class="st8" cx="-3511.5" cy="964.5" r="34.5"/>
	<path class="st9" d="M-3587,1197"/>
	<path class="st9" d="M-3512,964"/>
	<g class="st10">
		<line class="st11" x1="-3512" y1="964" x2="-3383" y2="1163"/>
		<line class="st11" x1="-3586.5" y1="1197.5" x2="-3383" y2="1163"/>
		<line class="st11" x1="-3512.4" y1="964.6" x2="-3587.4" y2="1197.6"/>
		<line class="st11" x1="-3512" y1="964" x2="-3721" y2="981"/>
		<line class="st11" x1="-3721" y1="981" x2="-3587" y2="1197"/>
	</g>
</g>
</svg>
